<?xml version="1.0" encoding="utf-8" standalone="no"?>
<!DOCTYPE svg PUBLIC "-//W3C//DTD SVG 1.1//EN"
  "http://www.w3.org/Graphics/SVG/1.1/DTD/svg11.dtd">
<!-- Created with matplotlib (http://matplotlib.org/) -->
<svg height="432pt" version="1.1" viewBox="0 0 1080 432" width="1080pt" xmlns="http://www.w3.org/2000/svg" xmlns:xlink="http://www.w3.org/1999/xlink">
 <defs>
  <style type="text/css">
*{stroke-linecap:butt;stroke-linejoin:round;}
  </style>
 </defs>
 <g id="figure_1">
  <g id="patch_1">
   <path d="M 0 432 
L 1080 432 
L 1080 0 
L 0 0 
z
" style="fill:#ffffff;"/>
  </g>
  <g id="axes_1">
   <g id="patch_2">
    <path d="M 135 378 
L 972 378 
L 972 51.84 
L 135 51.84 
z
" style="fill:#ffffff;"/>
   </g>
   <g id="PolyCollection_1">
    <defs>
     <path d="M 173.045455 -277.805463 
L 173.045455 -269.575552 
L 175.026989 -282.078821 
L 177.008523 -283.705226 
L 178.990057 -284.683804 
L 180.971591 -285.455314 
L 182.953125 -286.145418 
L 184.934659 -287.593868 
L 186.916193 -288.284908 
L 188.897727 -289.590968 
L 190.879261 -290.990822 
L 192.860795 -292.590161 
L 194.84233 -293.687983 
L 196.823864 -294.565171 
L 198.805398 -295.709131 
L 200.786932 -297.078782 
L 202.768466 -298.165666 
L 204.75 -298.974475 
L 206.731534 -300.225872 
L 208.713068 -301.388433 
L 210.694602 -302.765513 
L 212.676136 -303.572073 
L 214.65767 -304.274297 
L 216.639205 -305.459576 
L 218.620739 -305.881399 
L 220.602273 -306.198694 
L 222.583807 -306.726026 
L 224.565341 -306.986826 
L 226.546875 -307.715079 
L 228.528409 -308.127828 
L 230.509943 -308.52209 
L 232.491477 -308.738665 
L 234.473011 -309.199606 
L 236.454545 -309.394061 
L 238.43608 -309.394061 
L 240.417614 -309.136779 
L 242.399148 -309.577406 
L 244.380682 -309.824705 
L 246.362216 -309.824705 
L 248.34375 -310.229477 
L 250.325284 -310.167847 
L 252.306818 -310.167846 
L 254.288352 -310.568822 
L 256.269886 -310.568823 
L 258.25142 -310.797977 
L 260.232955 -311.016566 
L 262.214489 -311.383161 
L 264.196023 -311.383161 
L 266.177557 -311.582675 
L 268.159091 -311.772335 
L 270.140625 -311.952441 
L 272.122159 -311.95244 
L 274.103693 -311.952441 
L 276.085227 -311.952441 
L 278.066761 -311.952441 
L 280.048295 -312.123328 
L 282.02983 -312.482194 
L 284.011364 -312.83101 
L 285.992898 -313.330854 
L 287.974432 -313.658226 
L 289.955966 -313.974282 
L 291.9375 -314.278649 
L 293.919034 -314.571017 
L 295.900568 -314.851158 
L 297.882102 -315.118929 
L 299.863636 -315.374278 
L 301.84517 -315.617248 
L 303.826705 -315.656548 
L 305.808239 -315.88525 
L 307.789773 -316.101971 
L 309.771307 -316.307025 
L 311.752841 -316.307023 
L 313.734375 -316.136947 
L 315.715909 -316.136947 
L 317.697443 -316.136948 
L 319.678977 -315.958807 
L 321.660511 -315.772413 
L 323.642045 -315.577609 
L 325.62358 -315.37428 
L 327.605114 -315.162352 
L 329.586648 -314.941797 
L 331.568182 -314.712629 
L 333.549716 -314.712628 
L 335.53125 -314.474911 
L 337.512784 -314.228748 
L 339.494318 -313.974284 
L 341.475852 -313.711701 
L 343.457386 -313.711701 
L 345.43892 -313.441211 
L 347.420455 -313.16306 
L 349.401989 -313.163061 
L 351.383523 -313.16306 
L 353.365057 -313.50602 
L 355.346591 -313.842176 
L 357.328125 -313.842175 
L 359.309659 -313.842175 
L 361.291193 -313.842175 
L 363.272727 -314.171077 
L 365.254261 -314.492264 
L 367.235795 -314.805277 
L 369.21733 -314.805277 
L 371.198864 -315.109668 
L 373.180398 -315.405003 
L 375.161932 -315.690877 
L 377.143466 -315.966921 
L 379.125 -316.232815 
L 381.106534 -316.4883 
L 383.088068 -316.488301 
L 385.069602 -316.488302 
L 387.051136 -316.733181 
L 389.03267 -316.967335 
L 391.014205 -317.190718 
L 392.995739 -317.190718 
L 394.977273 -317.190718 
L 396.958807 -317.190719 
L 398.940341 -317.403368 
L 400.921875 -317.403367 
L 402.903409 -317.793156 
L 404.884943 -317.793156 
L 406.866477 -318.173352 
L 408.848011 -318.173352 
L 410.829545 -318.173352 
L 412.81108 -318.173352 
L 414.792614 -318.543044 
L 416.774148 -318.543044 
L 418.755682 -318.543043 
L 420.737216 -318.901291 
L 422.71875 -319.24715 
L 424.700284 -319.579698 
L 426.681818 -319.898076 
L 428.663352 -320.201519 
L 430.644886 -320.20152 
L 432.62642 -320.20152 
L 434.607955 -320.201521 
L 436.589489 -320.201521 
L 438.571023 -320.201521 
L 440.552557 -320.489405 
L 442.534091 -320.76128 
L 444.515625 -320.489403 
L 446.497159 -320.489403 
L 448.478693 -320.489403 
L 450.460227 -320.489403 
L 452.441761 -320.489403 
L 454.423295 -320.20152 
L 456.40483 -320.20152 
L 458.386364 -320.201521 
L 460.367898 -320.201521 
L 462.349432 -319.898077 
L 464.330966 -320.20152 
L 466.3125 -319.898077 
L 468.294034 -320.201519 
L 470.275568 -319.898076 
L 472.257102 -319.579699 
L 474.238636 -319.898077 
L 476.22017 -319.898077 
L 478.201705 -320.201521 
L 480.183239 -320.201521 
L 482.164773 -320.201521 
L 484.146307 -320.201521 
L 486.127841 -320.201521 
L 488.109375 -320.20152 
L 490.090909 -320.20152 
L 492.072443 -320.489404 
L 494.053977 -320.489404 
L 496.035511 -320.761279 
L 498.017045 -320.761279 
L 499.99858 -321.0169 
L 501.980114 -321.0169 
L 503.961648 -321.0169 
L 505.943182 -321.25624 
L 507.924716 -321.256239 
L 509.90625 -321.256239 
L 511.887784 -321.256238 
L 513.869318 -321.479491 
L 515.850852 -321.479491 
L 517.832386 -321.47949 
L 519.81392 -321.687061 
L 521.795455 -321.687062 
L 523.776989 -321.687062 
L 525.758523 -321.687062 
L 527.740057 -321.687062 
L 529.721591 -321.687062 
L 531.703125 -321.879535 
L 533.684659 -321.879535 
L 535.666193 -321.879536 
L 537.647727 -321.879537 
L 539.629261 -321.879537 
L 541.610795 -321.879538 
L 543.59233 -321.879538 
L 545.573864 -321.879538 
L 547.555398 -321.879538 
L 549.536932 -321.879537 
L 551.518466 -321.879536 
L 553.5 -321.879536 
L 555.481534 -321.879536 
L 557.463068 -321.879536 
L 559.444602 -321.879536 
L 561.426136 -321.879536 
L 563.40767 -321.879536 
L 565.389205 -321.879535 
L 567.370739 -321.879536 
L 569.352273 -321.879536 
L 571.333807 -321.879536 
L 573.315341 -321.879536 
L 575.296875 -321.879536 
L 577.278409 -321.879535 
L 579.259943 -321.879537 
L 581.241477 -321.879537 
L 583.223011 -321.879538 
L 585.204545 -321.879538 
L 587.18608 -321.879538 
L 589.167614 -321.879538 
L 591.149148 -321.879538 
L 593.130682 -321.879538 
L 595.112216 -321.879538 
L 597.09375 -321.879537 
L 599.075284 -321.879537 
L 601.056818 -321.879537 
L 603.038352 -321.879537 
L 605.019886 -321.879537 
L 607.00142 -321.879538 
L 608.982955 -321.879537 
L 610.964489 -321.879537 
L 612.946023 -322.254842 
L 614.927557 -322.621278 
L 616.909091 -322.621278 
L 618.890625 -322.430173 
L 620.872159 -322.430173 
L 622.853693 -322.787175 
L 624.835227 -323.132943 
L 626.816761 -323.466254 
L 628.798295 -323.466254 
L 630.77983 -323.466254 
L 632.761364 -323.466254 
L 634.742898 -323.466253 
L 636.724432 -323.466253 
L 638.705966 -323.466253 
L 640.6875 -323.466252 
L 642.669034 -323.466253 
L 644.650568 -323.132941 
L 646.632102 -323.132941 
L 648.613636 -323.323251 
L 650.59517 -323.323251 
L 652.576705 -323.32325 
L 654.558239 -323.323251 
L 656.539773 -322.977788 
L 658.521307 -323.323251 
L 660.502841 -323.32325 
L 662.484375 -323.656492 
L 664.465909 -323.976325 
L 666.447443 -323.976326 
L 668.428977 -323.976326 
L 670.410511 -323.976326 
L 672.392045 -323.656492 
L 674.37358 -323.656492 
L 676.355114 -323.976325 
L 678.336648 -323.976325 
L 680.318182 -323.976325 
L 682.299716 -323.656493 
L 684.28125 -323.656493 
L 686.262784 -323.976326 
L 688.244318 -323.976326 
L 690.225852 -324.281601 
L 692.207386 -323.976324 
L 694.18892 -323.656492 
L 696.170455 -323.976325 
L 698.151989 -324.2816 
L 700.133523 -324.571266 
L 702.115057 -324.571266 
L 704.096591 -324.844435 
L 706.078125 -324.571266 
L 708.059659 -324.571267 
L 710.041193 -324.571267 
L 712.022727 -324.571266 
L 714.004261 -324.571266 
L 715.985795 -324.571266 
L 717.96733 -324.571266 
L 719.948864 -324.281601 
L 721.930398 -324.281602 
L 723.911932 -324.571268 
L 725.893466 -324.571268 
L 727.875 -324.492816 
L 729.856534 -324.492816 
L 731.838068 -324.76538 
L 733.819602 -324.765381 
L 735.801136 -324.76538 
L 737.78267 -324.765379 
L 739.764205 -325.02073 
L 741.745739 -325.258508 
L 743.727273 -325.258508 
L 745.708807 -325.258507 
L 747.690341 -324.938613 
L 749.671875 -324.938614 
L 751.653409 -325.17567 
L 753.634943 -325.17567 
L 755.616477 -325.17567 
L 757.598011 -325.17567 
L 759.579545 -325.17567 
L 761.56108 -325.17567 
L 763.542614 -325.17567 
L 765.524148 -325.395089 
L 767.505682 -325.597167 
L 769.487216 -325.597167 
L 771.46875 -325.597167 
L 773.450284 -325.597166 
L 775.431818 -325.510464 
L 777.413352 -325.782501 
L 779.394886 -325.951935 
L 781.37642 -325.745299 
L 783.357955 -325.579024 
L 785.339489 -325.492377 
L 787.321023 -325.310786 
L 789.302557 -325.112241 
L 791.284091 -325.112241 
L 793.265625 -325.112241 
L 795.247159 -325.112241 
L 797.228693 -325.024632 
L 799.210227 -325.024633 
L 801.191761 -324.934577 
L 803.173295 -324.934578 
L 805.15483 -324.934578 
L 807.136364 -324.934578 
L 809.117898 -324.934578 
L 811.099432 -325.036815 
L 813.080966 -325.236174 
L 815.0625 -325.236175 
L 817.044034 -325.513306 
L 819.025568 -325.680874 
L 821.007102 -325.585997 
L 822.988636 -325.585996 
L 824.97017 -325.488884 
L 826.951705 -325.585996 
L 828.933239 -325.585996 
L 830.914773 -325.680873 
L 832.896307 -325.585997 
L 834.877841 -325.680873 
L 836.859375 -325.680873 
L 838.840909 -325.513306 
L 840.822443 -325.32996 
L 842.803977 -325.236174 
L 844.785511 -325.32996 
L 846.767045 -325.329961 
L 848.74858 -325.32996 
L 850.730114 -325.32996 
L 852.711648 -325.329961 
L 854.693182 -325.421395 
L 856.674716 -325.736812 
L 858.65625 -325.443123 
L 860.637784 -325.443123 
L 862.619318 -325.537426 
L 864.600852 -325.537426 
L 866.582386 -325.467916 
L 868.56392 -325.666626 
L 870.545455 -325.940432 
L 872.526989 -326.030819 
L 874.508523 -325.940431 
L 876.490057 -325.847566 
L 878.471591 -326.249316 
L 880.453125 -326.343347 
L 882.434659 -326.647453 
L 884.416193 -326.549263 
L 886.397727 -326.249316 
L 888.379261 -326.505083 
L 890.360795 -326.410471 
L 892.34233 -326.313304 
L 894.323864 -326.213611 
L 896.305398 -326.285172 
L 898.286932 -326.677325 
L 900.268466 -327.064272 
L 902.25 -327.294738 
L 904.231534 -327.228277 
L 906.213068 -327.329986 
L 908.194602 -326.838936 
L 910.176136 -326.838936 
L 912.15767 -326.444011 
L 914.139205 -326.838936 
L 916.120739 -327.228277 
L 918.102273 -327.610449 
L 920.083807 -327.714557 
L 922.065341 -327.714558 
L 924.046875 -328.090197 
L 926.028409 -328.090197 
L 928.009943 -327.415582 
L 929.991477 -326.708256 
L 931.973011 -326.217277 
L 933.954545 -326.435298 
L 933.954545 -330.731173 
L 933.954545 -330.731173 
L 931.973011 -330.478074 
L 929.991477 -330.595926 
L 928.009943 -330.968552 
L 926.028409 -331.373888 
L 924.046875 -331.373887 
L 922.065341 -331.314649 
L 920.083807 -331.314648 
L 918.102273 -331.244803 
L 916.120739 -331.192096 
L 914.139205 -331.146557 
L 912.15767 -331.106602 
L 910.176136 -331.146557 
L 908.194602 -331.146557 
L 906.213068 -331.264337 
L 904.231534 -331.192095 
L 902.25 -331.4228 
L 900.268466 -331.689506 
L 898.286932 -331.641574 
L 896.305398 -331.598848 
L 894.323864 -331.525449 
L 892.34233 -331.599707 
L 890.360795 -331.676491 
L 888.379261 -331.75583 
L 886.397727 -331.366525 
L 884.416193 -331.327504 
L 882.434659 -331.403266 
L 880.453125 -331.446443 
L 878.471591 -331.366525 
L 876.490057 -331.333394 
L 874.508523 -331.41448 
L 872.526989 -331.498046 
L 870.545455 -331.414481 
L 868.56392 -331.043215 
L 866.582386 -330.770805 
L 864.600852 -330.846256 
L 862.619318 -330.846255 
L 860.637784 -330.766608 
L 858.65625 -330.766608 
L 856.674716 -331.117991 
L 854.693182 -331.172481 
L 852.711648 -331.089963 
L 850.730114 -331.089963 
L 848.74858 -331.089962 
L 846.767045 -331.089962 
L 844.785511 -331.089962 
L 842.803977 -331.009797 
L 840.822443 -331.089962 
L 838.840909 -331.377735 
L 836.859375 -331.681288 
L 834.877841 -331.681287 
L 832.896307 -331.602213 
L 830.914773 -331.681288 
L 828.933239 -331.602213 
L 826.951705 -331.602213 
L 824.97017 -331.525374 
L 822.988636 -331.602213 
L 821.007102 -331.602213 
L 819.025568 -331.681288 
L 817.044034 -331.377736 
L 815.0625 -331.009798 
L 813.080966 -331.009797 
L 811.099432 -330.738037 
L 809.117898 -330.506868 
L 807.136364 -330.506868 
L 805.15483 -330.506869 
L 803.173295 -330.506867 
L 801.191761 -330.506867 
L 799.210227 -330.590764 
L 797.228693 -330.590764 
L 795.247159 -330.677105 
L 793.265625 -330.677106 
L 791.284091 -330.677106 
L 789.302557 -330.677106 
L 787.321023 -330.949682 
L 785.339489 -331.23921 
L 783.357955 -331.326516 
L 781.37642 -331.631361 
L 779.394886 -331.932083 
L 777.413352 -331.630399 
L 775.431818 -331.257363 
L 773.450284 -331.344614 
L 771.46875 -331.344615 
L 769.487216 -331.344614 
L 767.505682 -331.344614 
L 765.524148 -331.075574 
L 763.542614 -330.823873 
L 761.56108 -330.823873 
L 759.579545 -330.823873 
L 757.598011 -330.823873 
L 755.616477 -330.823873 
L 753.634943 -330.823872 
L 751.653409 -330.823872 
L 749.671875 -330.589808 
L 747.690341 -330.589807 
L 745.708807 -330.914985 
L 743.727273 -330.914985 
L 741.745739 -330.914985 
L 739.764205 -330.681643 
L 737.78267 -330.465874 
L 735.801136 -330.465875 
L 733.819602 -330.465876 
L 731.838068 -330.465876 
L 729.856534 -330.267319 
L 727.875 -330.267319 
L 725.893466 -330.362819 
L 723.911932 -330.362819 
L 721.930398 -330.181365 
L 719.948864 -330.181365 
L 717.96733 -330.362819 
L 715.985795 -330.362819 
L 714.004261 -330.362819 
L 712.022727 -330.362819 
L 710.041193 -330.362819 
L 708.059659 -330.362819 
L 706.078125 -330.362818 
L 704.096591 -330.560767 
L 702.115057 -330.362817 
L 700.133523 -330.362817 
L 698.151989 -330.181363 
L 696.170455 -330.015518 
L 694.18892 -329.864231 
L 692.207386 -330.015518 
L 690.225852 -330.181363 
L 688.244318 -330.015519 
L 686.262784 -330.015519 
L 684.28125 -329.864231 
L 682.299716 -329.864231 
L 680.318182 -330.015517 
L 678.336648 -330.015518 
L 676.355114 -330.015518 
L 674.37358 -329.864231 
L 672.392045 -329.864231 
L 670.410511 -330.015519 
L 668.428977 -330.015519 
L 666.447443 -330.015519 
L 664.465909 -330.015519 
L 662.484375 -329.864232 
L 660.502841 -329.726353 
L 658.521307 -329.726354 
L 656.539773 -329.600698 
L 654.558239 -329.726355 
L 652.576705 -329.726355 
L 650.59517 -329.726355 
L 648.613636 -329.726355 
L 646.632102 -329.409304 
L 644.650568 -329.409305 
L 642.669034 -329.547113 
L 640.6875 -329.547112 
L 638.705966 -329.547112 
L 636.724432 -329.547113 
L 634.742898 -329.547113 
L 632.761364 -329.547113 
L 630.77983 -329.547113 
L 628.798295 -329.547113 
L 626.816761 -329.547114 
L 624.835227 -329.409305 
L 622.853693 -329.283953 
L 620.872159 -329.169835 
L 618.890625 -329.169835 
L 616.909091 -329.48609 
L 614.927557 -329.48609 
L 612.946023 -329.381405 
L 610.964489 -329.285591 
L 608.982955 -329.285592 
L 607.00142 -329.285593 
L 605.019886 -329.285592 
L 603.038352 -329.285592 
L 601.056818 -329.285592 
L 599.075284 -329.285591 
L 597.09375 -329.285591 
L 595.112216 -329.285592 
L 593.130682 -329.285592 
L 591.149148 -329.285592 
L 589.167614 -329.285591 
L 587.18608 -329.285592 
L 585.204545 -329.285592 
L 583.223011 -329.285592 
L 581.241477 -329.285592 
L 579.259943 -329.285591 
L 577.278409 -329.28559 
L 575.296875 -329.28559 
L 573.315341 -329.285591 
L 571.333807 -329.285591 
L 569.352273 -329.285591 
L 567.370739 -329.28559 
L 565.389205 -329.28559 
L 563.40767 -329.285591 
L 561.426136 -329.285591 
L 559.444602 -329.285591 
L 557.463068 -329.28559 
L 555.481534 -329.28559 
L 553.5 -329.28559 
L 551.518466 -329.28559 
L 549.536932 -329.285591 
L 547.555398 -329.285592 
L 545.573864 -329.285592 
L 543.59233 -329.285592 
L 541.610795 -329.285592 
L 539.629261 -329.285591 
L 537.647727 -329.285592 
L 535.666193 -329.285591 
L 533.684659 -329.28559 
L 531.703125 -329.28559 
L 529.721591 -328.970704 
L 527.740057 -328.970703 
L 525.758523 -328.970704 
L 523.776989 -328.970704 
L 521.795455 -328.970704 
L 519.81392 -328.970703 
L 517.832386 -328.670913 
L 515.850852 -328.670914 
L 513.869318 -328.670913 
L 511.887784 -328.386807 
L 509.90625 -328.386808 
L 507.924716 -328.386808 
L 505.943182 -328.386808 
L 503.961648 -328.118789 
L 501.980114 -328.118789 
L 499.99858 -328.118789 
L 498.017045 -327.86705 
L 496.035511 -327.86705 
L 494.053977 -327.631566 
L 492.072443 -327.631567 
L 490.090909 -327.412092 
L 488.109375 -327.412092 
L 486.127841 -327.412092 
L 484.146307 -327.412092 
L 482.164773 -327.412092 
L 480.183239 -327.412092 
L 478.201705 -327.412093 
L 476.22017 -327.208176 
L 474.238636 -327.208175 
L 472.257102 -327.019193 
L 470.275568 -327.208174 
L 468.294034 -327.41209 
L 466.3125 -327.208174 
L 464.330966 -327.41209 
L 462.349432 -327.208173 
L 460.367898 -327.41209 
L 458.386364 -327.412091 
L 456.40483 -327.41209 
L 454.423295 -327.41209 
L 452.441761 -327.631564 
L 450.460227 -327.631565 
L 448.478693 -327.631564 
L 446.497159 -327.631565 
L 444.515625 -327.631564 
L 442.534091 -327.867049 
L 440.552557 -327.631566 
L 438.571023 -327.412091 
L 436.589489 -327.412091 
L 434.607955 -327.412092 
L 432.62642 -327.412092 
L 430.644886 -327.412092 
L 428.663352 -327.412091 
L 426.681818 -327.208175 
L 424.700284 -327.019193 
L 422.71875 -326.844384 
L 420.737216 -326.682884 
L 418.755682 -326.533772 
L 416.774148 -326.533773 
L 414.792614 -326.533773 
L 412.81108 -326.396106 
L 410.829545 -326.396105 
L 408.848011 -326.396106 
L 406.866477 -326.396105 
L 404.884943 -326.268941 
L 402.903409 -326.268941 
L 400.921875 -326.151369 
L 398.940341 -326.15137 
L 396.958807 -325.907396 
L 394.977273 -325.907395 
L 392.995739 -325.907395 
L 391.014205 -325.907395 
L 389.03267 -325.674154 
L 387.051136 -325.451681 
L 385.069602 -325.239936 
L 383.088068 -325.239935 
L 381.106534 -325.239935 
L 379.125 -325.038795 
L 377.143466 -324.848066 
L 375.161932 -324.667487 
L 373.180398 -324.496736 
L 371.198864 -324.335448 
L 369.21733 -324.183215 
L 367.235795 -324.183215 
L 365.254261 -324.039605 
L 363.272727 -323.904168 
L 361.291193 -323.776444 
L 359.309659 -323.776444 
L 357.328125 -323.776445 
L 355.346591 -323.776444 
L 353.365057 -323.655977 
L 351.383523 -323.542313 
L 349.401989 -323.542314 
L 347.420455 -323.542313 
L 345.43892 -323.699041 
L 343.457386 -323.863431 
L 341.475852 -323.863431 
L 339.494318 -324.035726 
L 337.512784 -324.216141 
L 335.53125 -324.404858 
L 333.549716 -324.602021 
L 331.568182 -324.602022 
L 329.586648 -324.807735 
L 327.605114 -325.022058 
L 325.62358 -325.24501 
L 323.642045 -325.476559 
L 321.660511 -325.716635 
L 319.678977 -325.965119 
L 317.697443 -326.221858 
L 315.715909 -326.221858 
L 313.734375 -326.221857 
L 311.752841 -326.48666 
L 309.771307 -326.486661 
L 307.789773 -326.169859 
L 305.808239 -325.864725 
L 303.826705 -325.571571 
L 301.84517 -325.523894 
L 299.863636 -325.245008 
L 297.882102 -324.978502 
L 295.900568 -324.724417 
L 293.919034 -324.482703 
L 291.9375 -324.253216 
L 289.955966 -324.035727 
L 287.974432 -323.829928 
L 285.992898 -323.635445 
L 284.011364 -323.12782 
L 282.02983 -322.954781 
L 280.048295 -322.79179 
L 278.066761 -322.477061 
L 276.085227 -322.477061 
L 274.103693 -322.477061 
L 272.122159 -322.47706 
L 270.140625 -322.47706 
L 268.159091 -322.171549 
L 266.177557 -321.875592 
L 264.196023 -321.589489 
L 262.214489 -321.58949 
L 260.232955 -321.03559 
L 258.25142 -320.768562 
L 256.269886 -320.512101 
L 254.288352 -320.5121 
L 252.306818 -319.992581 
L 250.325284 -319.992582 
L 248.34375 -319.916453 
L 246.362216 -319.400729 
L 244.380682 -319.400729 
L 242.399148 -319.162413 
L 240.417614 -318.617311 
L 238.43608 -318.845646 
L 236.454545 -318.845646 
L 234.473011 -318.539989 
L 232.491477 -318.015202 
L 230.509943 -317.731664 
L 228.528409 -317.190935 
L 226.546875 -316.668691 
L 224.565341 -316.027071 
L 222.583807 -315.787757 
L 220.602273 -315.329361 
L 218.620739 -314.72616 
L 216.639205 -314.162256 
L 214.65767 -313.00643 
L 212.676136 -312.338784 
L 210.694602 -311.326097 
L 208.713068 -309.8982 
L 206.731534 -308.741403 
L 204.75 -307.166079 
L 202.768466 -306.104903 
L 200.786932 -304.799947 
L 198.805398 -303.342876 
L 196.823864 -302.087748 
L 194.84233 -301.044217 
L 192.860795 -299.735704 
L 190.879261 -298.319875 
L 188.897727 -296.849523 
L 186.916193 -295.770992 
L 184.934659 -294.983441 
L 182.953125 -293.510945 
L 180.971591 -292.620984 
L 178.990057 -292.203822 
L 177.008523 -291.225438 
L 175.026989 -289.677219 
L 173.045455 -277.805463 
z
" id="mab55589b04" style="stroke:#008b8b;stroke-opacity:0.2;"/>
    </defs>
    <g clip-path="url(#pe67c54638c)">
     <use style="fill:#008b8b;fill-opacity:0.2;stroke:#008b8b;stroke-opacity:0.2;" x="0" xlink:href="#mab55589b04" y="432"/>
    </g>
   </g>
   <g id="PolyCollection_2">
    <defs>
     <path d="M 173.045455 -239.427061 
L 173.045455 -229.784262 
L 175.026989 -241.787604 
L 177.008523 -247.632922 
L 178.990057 -251.378212 
L 180.971591 -255.804172 
L 182.953125 -260.061549 
L 184.934659 -264.038817 
L 186.916193 -267.969322 
L 188.897727 -271.289076 
L 190.879261 -274.526514 
L 192.860795 -277.490859 
L 194.84233 -280.070743 
L 196.823864 -282.74276 
L 198.805398 -285.137993 
L 200.786932 -287.113793 
L 202.768466 -288.651418 
L 204.75 -289.538112 
L 206.731534 -290.264184 
L 208.713068 -291.083289 
L 210.694602 -292.173734 
L 212.676136 -292.999016 
L 214.65767 -293.426233 
L 216.639205 -294.855441 
L 218.620739 -296.017715 
L 220.602273 -297.376178 
L 222.583807 -298.714569 
L 224.565341 -300.229059 
L 226.546875 -301.502413 
L 228.528409 -302.963141 
L 230.509943 -304.598324 
L 232.491477 -305.842733 
L 234.473011 -307.306452 
L 236.454545 -308.223203 
L 238.43608 -309.707208 
L 240.417614 -310.479824 
L 242.399148 -311.287207 
L 244.380682 -312.226777 
L 246.362216 -312.794156 
L 248.34375 -313.335034 
L 250.325284 -313.792184 
L 252.306818 -314.162011 
L 254.288352 -314.727341 
L 256.269886 -315.201601 
L 258.25142 -315.818083 
L 260.232955 -316.326543 
L 262.214489 -316.706497 
L 264.196023 -317.196985 
L 266.177557 -317.816446 
L 268.159091 -318.034689 
L 270.140625 -318.563494 
L 272.122159 -318.939081 
L 274.103693 -319.363981 
L 276.085227 -319.568061 
L 278.066761 -319.898645 
L 280.048295 -320.169884 
L 282.02983 -320.557583 
L 284.011364 -320.683331 
L 285.992898 -320.8808 
L 287.974432 -320.955355 
L 289.955966 -320.955355 
L 291.9375 -320.955356 
L 293.919034 -320.955357 
L 295.900568 -320.955357 
L 297.882102 -320.955356 
L 299.863636 -320.955357 
L 301.84517 -321.018443 
L 303.826705 -321.018443 
L 305.808239 -321.423928 
L 307.789773 -321.897293 
L 309.771307 -322.289167 
L 311.752841 -322.672696 
L 313.734375 -323.046894 
L 315.715909 -323.410694 
L 317.697443 -323.762963 
L 319.678977 -324.102532 
L 321.660511 -324.505736 
L 323.642045 -324.817139 
L 325.62358 -325.112555 
L 327.605114 -325.391137 
L 329.586648 -325.652281 
L 331.568182 -325.895664 
L 333.549716 -326.121278 
L 335.53125 -326.121278 
L 337.512784 -326.121277 
L 339.494318 -326.121276 
L 341.475852 -326.121276 
L 343.457386 -326.039993 
L 345.43892 -325.957167 
L 347.420455 -325.957167 
L 349.401989 -325.957167 
L 351.383523 -325.957167 
L 353.365057 -325.957167 
L 355.346591 -325.957167 
L 357.328125 -325.957167 
L 359.309659 -325.957167 
L 361.291193 -325.957167 
L 363.272727 -325.957167 
L 365.254261 -325.957167 
L 367.235795 -325.957167 
L 369.21733 -325.957168 
L 371.198864 -325.957168 
L 373.180398 -326.039993 
L 375.161932 -326.121275 
L 377.143466 -326.121276 
L 379.125 -326.121275 
L 381.106534 -326.121275 
L 383.088068 -326.121275 
L 385.069602 -326.121274 
L 387.051136 -326.121275 
L 389.03267 -326.121275 
L 391.014205 -326.121275 
L 392.995739 -326.121275 
L 394.977273 -326.121275 
L 396.958807 -326.121275 
L 398.940341 -326.121275 
L 400.921875 -326.121275 
L 402.903409 -326.121275 
L 404.884943 -326.121276 
L 406.866477 -326.121275 
L 408.848011 -326.121276 
L 410.829545 -326.121276 
L 412.81108 -326.121276 
L 414.792614 -326.121276 
L 416.774148 -326.527406 
L 418.755682 -326.527404 
L 420.737216 -326.930883 
L 422.71875 -326.930883 
L 424.700284 -327.331099 
L 426.681818 -327.331099 
L 428.663352 -327.3311 
L 430.644886 -327.3311 
L 432.62642 -327.331099 
L 434.607955 -327.331099 
L 436.589489 -327.727263 
L 438.571023 -327.727263 
L 440.552557 -328.118331 
L 442.534091 -328.50292 
L 444.515625 -328.879179 
L 446.497159 -328.879179 
L 448.478693 -329.244647 
L 450.460227 -329.244646 
L 452.441761 -329.596069 
L 454.423295 -329.596069 
L 456.40483 -329.929296 
L 458.386364 -330.239335 
L 460.367898 -330.520825 
L 462.349432 -330.769082 
L 464.330966 -330.981496 
L 466.3125 -330.981496 
L 468.294034 -331.15851 
L 470.275568 -331.158511 
L 472.257102 -331.158511 
L 474.238636 -331.158511 
L 476.22017 -331.158511 
L 478.201705 -331.158511 
L 480.183239 -331.158511 
L 482.164773 -331.158511 
L 484.146307 -331.158511 
L 486.127841 -331.158512 
L 488.109375 -331.158512 
L 490.090909 -331.158512 
L 492.072443 -331.158512 
L 494.053977 -331.158512 
L 496.035511 -331.158513 
L 498.017045 -331.158514 
L 499.99858 -331.158514 
L 501.980114 -331.158513 
L 503.961648 -331.158513 
L 505.943182 -331.158513 
L 507.924716 -331.158512 
L 509.90625 -331.158512 
L 511.887784 -331.158512 
L 513.869318 -331.158511 
L 515.850852 -331.158512 
L 517.832386 -331.158512 
L 519.81392 -331.158512 
L 521.795455 -331.158511 
L 523.776989 -331.158511 
L 525.758523 -331.158512 
L 527.740057 -331.15851 
L 529.721591 -331.158511 
L 531.703125 -331.158511 
L 533.684659 -331.158512 
L 535.666193 -331.158512 
L 537.647727 -331.158512 
L 539.629261 -331.158513 
L 541.610795 -331.158513 
L 543.59233 -331.158514 
L 545.573864 -331.158514 
L 547.555398 -331.158514 
L 549.536932 -331.158514 
L 551.518466 -331.158516 
L 553.5 -331.158516 
L 555.481534 -331.158515 
L 557.463068 -331.158515 
L 559.444602 -331.158516 
L 561.426136 -331.158516 
L 563.40767 -331.158515 
L 565.389205 -331.158515 
L 567.370739 -331.158515 
L 569.352273 -331.158515 
L 571.333807 -331.158515 
L 573.315341 -331.158513 
L 575.296875 -331.158513 
L 577.278409 -331.158513 
L 579.259943 -331.158512 
L 581.241477 -331.158512 
L 583.223011 -331.158511 
L 585.204545 -331.158511 
L 587.18608 -331.158512 
L 589.167614 -331.158512 
L 591.149148 -331.158512 
L 593.130682 -331.158513 
L 595.112216 -331.158513 
L 597.09375 -331.158513 
L 599.075284 -331.158512 
L 601.056818 -331.158512 
L 603.038352 -331.158513 
L 605.019886 -331.158513 
L 607.00142 -331.158513 
L 608.982955 -331.158514 
L 610.964489 -331.158513 
L 612.946023 -331.158514 
L 614.927557 -331.158515 
L 616.909091 -331.158515 
L 618.890625 -331.158515 
L 620.872159 -331.158514 
L 622.853693 -331.158514 
L 624.835227 -331.158514 
L 626.816761 -331.158514 
L 628.798295 -331.158514 
L 630.77983 -331.158514 
L 632.761364 -331.158514 
L 634.742898 -331.158514 
L 636.724432 -331.158513 
L 638.705966 -331.158513 
L 640.6875 -331.158514 
L 642.669034 -331.158513 
L 644.650568 -331.158514 
L 646.632102 -331.158513 
L 648.613636 -331.158512 
L 650.59517 -331.158513 
L 652.576705 -331.158514 
L 654.558239 -331.158514 
L 656.539773 -331.158513 
L 658.521307 -331.158512 
L 660.502841 -331.158512 
L 662.484375 -331.158512 
L 664.465909 -331.158512 
L 666.447443 -331.158512 
L 668.428977 -331.158511 
L 670.410511 -331.158511 
L 672.392045 -331.158511 
L 674.37358 -331.15851 
L 676.355114 -331.158511 
L 678.336648 -331.158511 
L 680.318182 -331.158511 
L 682.299716 -331.158511 
L 684.28125 -331.158511 
L 686.262784 -331.158512 
L 688.244318 -331.158512 
L 690.225852 -331.158512 
L 692.207386 -331.158512 
L 694.18892 -331.158513 
L 696.170455 -331.158513 
L 698.151989 -331.158514 
L 700.133523 -331.158513 
L 702.115057 -331.158515 
L 704.096591 -331.158516 
L 706.078125 -331.158515 
L 708.059659 -331.158515 
L 710.041193 -331.158516 
L 712.022727 -331.158516 
L 714.004261 -331.158516 
L 715.985795 -331.158515 
L 717.96733 -331.158516 
L 719.948864 -331.158516 
L 721.930398 -331.158515 
L 723.911932 -331.158516 
L 725.893466 -331.158515 
L 727.875 -331.158515 
L 729.856534 -331.158515 
L 731.838068 -331.158515 
L 733.819602 -331.158513 
L 735.801136 -331.158513 
L 737.78267 -331.158513 
L 739.764205 -331.158513 
L 741.745739 -331.158512 
L 743.727273 -331.158513 
L 745.708807 -331.158514 
L 747.690341 -331.158514 
L 749.671875 -331.158514 
L 751.653409 -331.158515 
L 753.634943 -331.158514 
L 755.616477 -331.158514 
L 757.598011 -331.158514 
L 759.579545 -331.158515 
L 761.56108 -331.158513 
L 763.542614 -331.158514 
L 765.524148 -331.158515 
L 767.505682 -331.158515 
L 769.487216 -331.158515 
L 771.46875 -331.158515 
L 773.450284 -331.158515 
L 775.431818 -331.158515 
L 777.413352 -331.158515 
L 779.394886 -331.158515 
L 781.37642 -331.158515 
L 783.357955 -331.158515 
L 785.339489 -331.158515 
L 787.321023 -331.158515 
L 789.302557 -331.158514 
L 791.284091 -331.158515 
L 793.265625 -331.158516 
L 795.247159 -331.158515 
L 797.228693 -331.158515 
L 799.210227 -331.158514 
L 801.191761 -331.158514 
L 803.173295 -331.158513 
L 805.15483 -331.158513 
L 807.136364 -331.158513 
L 809.117898 -331.158513 
L 811.099432 -331.158513 
L 813.080966 -331.158512 
L 815.0625 -331.158512 
L 817.044034 -331.158511 
L 819.025568 -331.158512 
L 821.007102 -331.158511 
L 822.988636 -331.158512 
L 824.97017 -331.158512 
L 826.951705 -331.158512 
L 828.933239 -331.158511 
L 830.914773 -331.158512 
L 832.896307 -331.158512 
L 834.877841 -331.158512 
L 836.859375 -331.158513 
L 838.840909 -331.158513 
L 840.822443 -331.158513 
L 842.803977 -331.158513 
L 844.785511 -331.158513 
L 846.767045 -331.158513 
L 848.74858 -331.158513 
L 850.730114 -331.158513 
L 852.711648 -331.158512 
L 854.693182 -331.158512 
L 856.674716 -331.158513 
L 858.65625 -331.158514 
L 860.637784 -331.158513 
L 862.619318 -331.158513 
L 864.600852 -331.158514 
L 866.582386 -331.158513 
L 868.56392 -331.158513 
L 870.545455 -331.158513 
L 872.526989 -331.158513 
L 874.508523 -331.158514 
L 876.490057 -331.158513 
L 878.471591 -331.158514 
L 880.453125 -331.158514 
L 882.434659 -331.158514 
L 884.416193 -331.158515 
L 886.397727 -331.158513 
L 888.379261 -331.158513 
L 890.360795 -331.158513 
L 892.34233 -331.158513 
L 894.323864 -331.158513 
L 896.305398 -331.158513 
L 898.286932 -331.158512 
L 900.268466 -331.158511 
L 902.25 -331.158512 
L 904.231534 -331.158513 
L 906.213068 -331.158513 
L 908.194602 -331.158512 
L 910.176136 -331.158511 
L 912.15767 -331.158512 
L 914.139205 -331.158512 
L 916.120739 -331.067749 
L 918.102273 -331.067748 
L 920.083807 -331.067749 
L 922.065341 -331.067749 
L 924.046875 -331.067748 
L 926.028409 -331.067749 
L 928.009943 -331.06775 
L 929.991477 -331.067749 
L 931.973011 -331.067748 
L 933.954545 -331.067748 
L 933.954545 -333.542412 
L 933.954545 -333.542412 
L 931.973011 -333.542412 
L 929.991477 -333.542413 
L 928.009943 -333.542413 
L 926.028409 -333.542412 
L 924.046875 -333.542412 
L 922.065341 -333.542413 
L 920.083807 -333.542413 
L 918.102273 -333.542413 
L 916.120739 -333.542413 
L 914.139205 -333.596607 
L 912.15767 -333.596607 
L 910.176136 -333.596605 
L 908.194602 -333.596606 
L 906.213068 -333.596607 
L 904.231534 -333.596607 
L 902.25 -333.596606 
L 900.268466 -333.596606 
L 898.286932 -333.596606 
L 896.305398 -333.596607 
L 894.323864 -333.596607 
L 892.34233 -333.596606 
L 890.360795 -333.596607 
L 888.379261 -333.596607 
L 886.397727 -333.596606 
L 884.416193 -333.596608 
L 882.434659 -333.596608 
L 880.453125 -333.596608 
L 878.471591 -333.596608 
L 876.490057 -333.596607 
L 874.508523 -333.596607 
L 872.526989 -333.596606 
L 870.545455 -333.596606 
L 868.56392 -333.596606 
L 866.582386 -333.596606 
L 864.600852 -333.596607 
L 862.619318 -333.596607 
L 860.637784 -333.596606 
L 858.65625 -333.596607 
L 856.674716 -333.596606 
L 854.693182 -333.596605 
L 852.711648 -333.596605 
L 850.730114 -333.596606 
L 848.74858 -333.596605 
L 846.767045 -333.596606 
L 844.785511 -333.596606 
L 842.803977 -333.596606 
L 840.822443 -333.596605 
L 838.840909 -333.596605 
L 836.859375 -333.596605 
L 834.877841 -333.596605 
L 832.896307 -333.596604 
L 830.914773 -333.596605 
L 828.933239 -333.596604 
L 826.951705 -333.596605 
L 824.97017 -333.596605 
L 822.988636 -333.596605 
L 821.007102 -333.596605 
L 819.025568 -333.596605 
L 817.044034 -333.596605 
L 815.0625 -333.596605 
L 813.080966 -333.596606 
L 811.099432 -333.596607 
L 809.117898 -333.596606 
L 807.136364 -333.596606 
L 805.15483 -333.596606 
L 803.173295 -333.596607 
L 801.191761 -333.596608 
L 799.210227 -333.596607 
L 797.228693 -333.596607 
L 795.247159 -333.596608 
L 793.265625 -333.596608 
L 791.284091 -333.596608 
L 789.302557 -333.596608 
L 787.321023 -333.596607 
L 785.339489 -333.596607 
L 783.357955 -333.596607 
L 781.37642 -333.596607 
L 779.394886 -333.596607 
L 777.413352 -333.596607 
L 775.431818 -333.596607 
L 773.450284 -333.596607 
L 771.46875 -333.596607 
L 769.487216 -333.596607 
L 767.505682 -333.596607 
L 765.524148 -333.596607 
L 763.542614 -333.596607 
L 761.56108 -333.596606 
L 759.579545 -333.596607 
L 757.598011 -333.596607 
L 755.616477 -333.596607 
L 753.634943 -333.596607 
L 751.653409 -333.596607 
L 749.671875 -333.596607 
L 747.690341 -333.596607 
L 745.708807 -333.596607 
L 743.727273 -333.596606 
L 741.745739 -333.596605 
L 739.764205 -333.596606 
L 737.78267 -333.596606 
L 735.801136 -333.596606 
L 733.819602 -333.596605 
L 731.838068 -333.596606 
L 729.856534 -333.596607 
L 727.875 -333.596607 
L 725.893466 -333.596607 
L 723.911932 -333.596607 
L 721.930398 -333.596607 
L 719.948864 -333.596607 
L 717.96733 -333.596607 
L 715.985795 -333.596607 
L 714.004261 -333.596607 
L 712.022727 -333.596608 
L 710.041193 -333.596607 
L 708.059659 -333.596606 
L 706.078125 -333.596607 
L 704.096591 -333.596608 
L 702.115057 -333.596607 
L 700.133523 -333.596606 
L 698.151989 -333.596607 
L 696.170455 -333.596606 
L 694.18892 -333.596606 
L 692.207386 -333.596606 
L 690.225852 -333.596606 
L 688.244318 -333.596605 
L 686.262784 -333.596606 
L 684.28125 -333.596605 
L 682.299716 -333.596605 
L 680.318182 -333.596605 
L 678.336648 -333.596606 
L 676.355114 -333.596605 
L 674.37358 -333.596605 
L 672.392045 -333.596606 
L 670.410511 -333.596605 
L 668.428977 -333.596605 
L 666.447443 -333.596606 
L 664.465909 -333.596606 
L 662.484375 -333.596606 
L 660.502841 -333.596606 
L 658.521307 -333.596607 
L 656.539773 -333.596607 
L 654.558239 -333.596608 
L 652.576705 -333.596608 
L 650.59517 -333.596607 
L 648.613636 -333.596606 
L 646.632102 -333.596607 
L 644.650568 -333.596607 
L 642.669034 -333.596607 
L 640.6875 -333.596608 
L 638.705966 -333.596607 
L 636.724432 -333.596607 
L 634.742898 -333.596607 
L 632.761364 -333.596607 
L 630.77983 -333.596607 
L 628.798295 -333.596608 
L 626.816761 -333.596607 
L 624.835227 -333.596607 
L 622.853693 -333.596606 
L 620.872159 -333.596607 
L 618.890625 -333.596607 
L 616.909091 -333.596607 
L 614.927557 -333.596607 
L 612.946023 -333.596607 
L 610.964489 -333.596606 
L 608.982955 -333.596607 
L 607.00142 -333.596606 
L 605.019886 -333.596607 
L 603.038352 -333.596606 
L 601.056818 -333.596606 
L 599.075284 -333.596605 
L 597.09375 -333.596605 
L 595.112216 -333.596606 
L 593.130682 -333.596606 
L 591.149148 -333.596605 
L 589.167614 -333.596605 
L 587.18608 -333.596606 
L 585.204545 -333.596606 
L 583.223011 -333.596605 
L 581.241477 -333.596606 
L 579.259943 -333.596607 
L 577.278409 -333.596607 
L 575.296875 -333.596607 
L 573.315341 -333.596607 
L 571.333807 -333.596607 
L 569.352273 -333.596607 
L 567.370739 -333.596608 
L 565.389205 -333.596608 
L 563.40767 -333.596609 
L 561.426136 -333.596609 
L 559.444602 -333.596609 
L 557.463068 -333.596609 
L 555.481534 -333.596608 
L 553.5 -333.596609 
L 551.518466 -333.596609 
L 549.536932 -333.596608 
L 547.555398 -333.596608 
L 545.573864 -333.596608 
L 543.59233 -333.596608 
L 541.610795 -333.596608 
L 539.629261 -333.596609 
L 537.647727 -333.596608 
L 535.666193 -333.596607 
L 533.684659 -333.596607 
L 531.703125 -333.596607 
L 529.721591 -333.596606 
L 527.740057 -333.596606 
L 525.758523 -333.596607 
L 523.776989 -333.596606 
L 521.795455 -333.596606 
L 519.81392 -333.596606 
L 517.832386 -333.596607 
L 515.850852 -333.596606 
L 513.869318 -333.596606 
L 511.887784 -333.596606 
L 509.90625 -333.596605 
L 507.924716 -333.596606 
L 505.943182 -333.596606 
L 503.961648 -333.596606 
L 501.980114 -333.596606 
L 499.99858 -333.596606 
L 498.017045 -333.596606 
L 496.035511 -333.596605 
L 494.053977 -333.596605 
L 492.072443 -333.596605 
L 490.090909 -333.596604 
L 488.109375 -333.596604 
L 486.127841 -333.596605 
L 484.146307 -333.596604 
L 482.164773 -333.596604 
L 480.183239 -333.596604 
L 478.201705 -333.596603 
L 476.22017 -333.596603 
L 474.238636 -333.596604 
L 472.257102 -333.596604 
L 470.275568 -333.596604 
L 468.294034 -333.596604 
L 466.3125 -333.338741 
L 464.330966 -333.33874 
L 462.349432 -333.116276 
L 460.367898 -332.929654 
L 458.386364 -332.776264 
L 456.40483 -332.651424 
L 454.423295 -332.549772 
L 452.441761 -332.549773 
L 450.460227 -332.466318 
L 448.478693 -332.466318 
L 446.497159 -332.396905 
L 444.515625 -332.396905 
L 442.534091 -332.338286 
L 440.552557 -332.287994 
L 438.571023 -332.244183 
L 436.589489 -332.244183 
L 434.607955 -332.205467 
L 432.62642 -332.205467 
L 430.644886 -332.205467 
L 428.663352 -332.205467 
L 426.681818 -332.205466 
L 424.700284 -332.205466 
L 422.71875 -332.170802 
L 420.737216 -332.170802 
L 418.755682 -332.139399 
L 416.774148 -332.139399 
L 414.792614 -332.11065 
L 412.81108 -332.110649 
L 410.829545 -332.110649 
L 408.848011 -332.11065 
L 406.866477 -332.110649 
L 404.884943 -332.110649 
L 402.903409 -332.110649 
L 400.921875 -332.110648 
L 398.940341 -332.110648 
L 396.958807 -332.110648 
L 394.977273 -332.110648 
L 392.995739 -332.110648 
L 391.014205 -332.110648 
L 389.03267 -332.110648 
L 387.051136 -332.110648 
L 385.069602 -332.110647 
L 383.088068 -332.110648 
L 381.106534 -332.110648 
L 379.125 -332.110647 
L 377.143466 -332.110648 
L 375.161932 -332.110648 
L 373.180398 -332.046969 
L 371.198864 -331.984835 
L 369.21733 -331.984836 
L 367.235795 -331.984835 
L 365.254261 -331.984835 
L 363.272727 -331.984835 
L 361.291193 -331.984835 
L 359.309659 -331.984835 
L 357.328125 -331.984835 
L 355.346591 -331.984836 
L 353.365057 -331.984836 
L 351.383523 -331.984836 
L 349.401989 -331.984836 
L 347.420455 -331.984836 
L 345.43892 -331.984836 
L 343.457386 -332.046971 
L 341.475852 -332.11065 
L 339.494318 -332.11065 
L 337.512784 -332.110651 
L 335.53125 -332.110652 
L 333.549716 -332.110652 
L 331.568182 -331.850649 
L 329.586648 -331.608419 
L 327.605114 -331.383948 
L 325.62358 -331.176915 
L 323.642045 -330.986713 
L 321.660511 -330.812501 
L 319.678977 -330.585129 
L 317.697443 -330.439083 
L 315.715909 -330.305735 
L 313.734375 -330.183917 
L 311.752841 -330.072499 
L 309.771307 -329.970412 
L 307.789773 -329.87667 
L 305.808239 -329.719456 
L 303.826705 -329.639324 
L 301.84517 -329.639324 
L 299.863636 -329.557449 
L 297.882102 -329.557449 
L 295.900568 -329.557449 
L 293.919034 -329.55745 
L 291.9375 -329.557449 
L 289.955966 -329.557449 
L 287.974432 -329.557448 
L 285.992898 -329.487045 
L 284.011364 -329.264132 
L 282.02983 -329.114457 
L 280.048295 -328.574412 
L 278.066761 -328.280307 
L 276.085227 -327.828108 
L 274.103693 -327.611806 
L 272.122159 -327.108961 
L 270.140625 -326.701766 
L 268.159091 -326.157865 
L 266.177557 -325.955724 
L 264.196023 -325.176322 
L 262.214489 -324.739066 
L 260.232955 -324.227518 
L 258.25142 -323.808234 
L 256.269886 -323.170812 
L 254.288352 -322.666593 
L 252.306818 -322.115729 
L 250.325284 -321.550567 
L 248.34375 -320.72482 
L 246.362216 -319.837843 
L 244.380682 -318.977367 
L 242.399148 -317.597579 
L 240.417614 -316.520483 
L 238.43608 -315.575325 
L 236.454545 -314.058659 
L 234.473011 -313.127169 
L 232.491477 -311.822152 
L 230.509943 -310.855922 
L 228.528409 -309.28749 
L 226.546875 -308.015719 
L 224.565341 -307.063936 
L 222.583807 -305.838683 
L 220.602273 -304.908448 
L 218.620739 -303.983791 
L 216.639205 -303.370306 
L 214.65767 -302.516393 
L 212.676136 -302.059353 
L 210.694602 -301.565496 
L 208.713068 -300.829444 
L 206.731534 -300.010501 
L 204.75 -299.3667 
L 202.768466 -298.426899 
L 200.786932 -297.304506 
L 198.805398 -294.888018 
L 196.823864 -292.274882 
L 194.84233 -289.43117 
L 192.860795 -287.002685 
L 190.879261 -284.357076 
L 188.897727 -281.426464 
L 186.916193 -278.578169 
L 184.934659 -275.057728 
L 182.953125 -271.584051 
L 180.971591 -267.7889 
L 178.990057 -263.278074 
L 177.008523 -259.376723 
L 175.026989 -252.907688 
L 173.045455 -239.427061 
z
" id="m0113607e2f" style="stroke:#9400d3;stroke-opacity:0.2;"/>
    </defs>
    <g clip-path="url(#pe67c54638c)">
     <use style="fill:#9400d3;fill-opacity:0.2;stroke:#9400d3;stroke-opacity:0.2;" x="0" xlink:href="#m0113607e2f" y="432"/>
    </g>
   </g>
   <g id="matplotlib.axis_1">
    <g id="xtick_1">
     <g id="line2d_1">
      <path clip-path="url(#pe67c54638c)" d="M 173.045455 378 
L 173.045455 51.84 
" style="fill:none;stroke:#b0b0b0;stroke-linecap:square;stroke-width:0.8;"/>
     </g>
     <g id="line2d_2">
      <defs>
       <path d="M 0 0 
L 0 3.5 
" id="m0ab6a9b396" style="stroke:#000000;stroke-width:0.8;"/>
      </defs>
      <g>
       <use style="stroke:#000000;stroke-width:0.8;" x="173.045455" xlink:href="#m0ab6a9b396" y="378"/>
      </g>
     </g>
     <g id="text_1">
      <!-- 0 -->
      <defs>
       <path d="M 31.78125 66.40625 
Q 24.171875 66.40625 20.328125 58.90625 
Q 16.5 51.421875 16.5 36.375 
Q 16.5 21.390625 20.328125 13.890625 
Q 24.171875 6.390625 31.78125 6.390625 
Q 39.453125 6.390625 43.28125 13.890625 
Q 47.125 21.390625 47.125 36.375 
Q 47.125 51.421875 43.28125 58.90625 
Q 39.453125 66.40625 31.78125 66.40625 
z
M 31.78125 74.21875 
Q 44.046875 74.21875 50.515625 64.515625 
Q 56.984375 54.828125 56.984375 36.375 
Q 56.984375 17.96875 50.515625 8.265625 
Q 44.046875 -1.421875 31.78125 -1.421875 
Q 19.53125 -1.421875 13.0625 8.265625 
Q 6.59375 17.96875 6.59375 36.375 
Q 6.59375 54.828125 13.0625 64.515625 
Q 19.53125 74.21875 31.78125 74.21875 
z
" id="DejaVuSans-30"/>
      </defs>
      <g transform="translate(166.046705 401.716563)scale(0.22 -0.22)">
       <use xlink:href="#DejaVuSans-30"/>
      </g>
     </g>
    </g>
    <g id="xtick_2">
     <g id="line2d_3">
      <path clip-path="url(#pe67c54638c)" d="M 325.227273 378 
L 325.227273 51.84 
" style="fill:none;stroke:#b0b0b0;stroke-linecap:square;stroke-width:0.8;"/>
     </g>
     <g id="line2d_4">
      <g>
       <use style="stroke:#000000;stroke-width:0.8;" x="325.227273" xlink:href="#m0ab6a9b396" y="378"/>
      </g>
     </g>
     <g id="text_2">
      <!-- 2000 -->
      <defs>
       <path d="M 19.1875 8.296875 
L 53.609375 8.296875 
L 53.609375 0 
L 7.328125 0 
L 7.328125 8.296875 
Q 12.9375 14.109375 22.625 23.890625 
Q 32.328125 33.6875 34.8125 36.53125 
Q 39.546875 41.84375 41.421875 45.53125 
Q 43.3125 49.21875 43.3125 52.78125 
Q 43.3125 58.59375 39.234375 62.25 
Q 35.15625 65.921875 28.609375 65.921875 
Q 23.96875 65.921875 18.8125 64.3125 
Q 13.671875 62.703125 7.8125 59.421875 
L 7.8125 69.390625 
Q 13.765625 71.78125 18.9375 73 
Q 24.125 74.21875 28.421875 74.21875 
Q 39.75 74.21875 46.484375 68.546875 
Q 53.21875 62.890625 53.21875 53.421875 
Q 53.21875 48.921875 51.53125 44.890625 
Q 49.859375 40.875 45.40625 35.40625 
Q 44.1875 33.984375 37.640625 27.21875 
Q 31.109375 20.453125 19.1875 8.296875 
z
" id="DejaVuSans-32"/>
      </defs>
      <g transform="translate(297.232273 401.716563)scale(0.22 -0.22)">
       <use xlink:href="#DejaVuSans-32"/>
       <use x="63.623047" xlink:href="#DejaVuSans-30"/>
       <use x="127.246094" xlink:href="#DejaVuSans-30"/>
       <use x="190.869141" xlink:href="#DejaVuSans-30"/>
      </g>
     </g>
    </g>
    <g id="xtick_3">
     <g id="line2d_5">
      <path clip-path="url(#pe67c54638c)" d="M 477.409091 378 
L 477.409091 51.84 
" style="fill:none;stroke:#b0b0b0;stroke-linecap:square;stroke-width:0.8;"/>
     </g>
     <g id="line2d_6">
      <g>
       <use style="stroke:#000000;stroke-width:0.8;" x="477.409091" xlink:href="#m0ab6a9b396" y="378"/>
      </g>
     </g>
     <g id="text_3">
      <!-- 4000 -->
      <defs>
       <path d="M 37.796875 64.3125 
L 12.890625 25.390625 
L 37.796875 25.390625 
z
M 35.203125 72.90625 
L 47.609375 72.90625 
L 47.609375 25.390625 
L 58.015625 25.390625 
L 58.015625 17.1875 
L 47.609375 17.1875 
L 47.609375 0 
L 37.796875 0 
L 37.796875 17.1875 
L 4.890625 17.1875 
L 4.890625 26.703125 
z
" id="DejaVuSans-34"/>
      </defs>
      <g transform="translate(449.414091 401.716563)scale(0.22 -0.22)">
       <use xlink:href="#DejaVuSans-34"/>
       <use x="63.623047" xlink:href="#DejaVuSans-30"/>
       <use x="127.246094" xlink:href="#DejaVuSans-30"/>
       <use x="190.869141" xlink:href="#DejaVuSans-30"/>
      </g>
     </g>
    </g>
    <g id="xtick_4">
     <g id="line2d_7">
      <path clip-path="url(#pe67c54638c)" d="M 629.590909 378 
L 629.590909 51.84 
" style="fill:none;stroke:#b0b0b0;stroke-linecap:square;stroke-width:0.8;"/>
     </g>
     <g id="line2d_8">
      <g>
       <use style="stroke:#000000;stroke-width:0.8;" x="629.590909" xlink:href="#m0ab6a9b396" y="378"/>
      </g>
     </g>
     <g id="text_4">
      <!-- 6000 -->
      <defs>
       <path d="M 33.015625 40.375 
Q 26.375 40.375 22.484375 35.828125 
Q 18.609375 31.296875 18.609375 23.390625 
Q 18.609375 15.53125 22.484375 10.953125 
Q 26.375 6.390625 33.015625 6.390625 
Q 39.65625 6.390625 43.53125 10.953125 
Q 47.40625 15.53125 47.40625 23.390625 
Q 47.40625 31.296875 43.53125 35.828125 
Q 39.65625 40.375 33.015625 40.375 
z
M 52.59375 71.296875 
L 52.59375 62.3125 
Q 48.875 64.0625 45.09375 64.984375 
Q 41.3125 65.921875 37.59375 65.921875 
Q 27.828125 65.921875 22.671875 59.328125 
Q 17.53125 52.734375 16.796875 39.40625 
Q 19.671875 43.65625 24.015625 45.921875 
Q 28.375 48.1875 33.59375 48.1875 
Q 44.578125 48.1875 50.953125 41.515625 
Q 57.328125 34.859375 57.328125 23.390625 
Q 57.328125 12.15625 50.6875 5.359375 
Q 44.046875 -1.421875 33.015625 -1.421875 
Q 20.359375 -1.421875 13.671875 8.265625 
Q 6.984375 17.96875 6.984375 36.375 
Q 6.984375 53.65625 15.1875 63.9375 
Q 23.390625 74.21875 37.203125 74.21875 
Q 40.921875 74.21875 44.703125 73.484375 
Q 48.484375 72.75 52.59375 71.296875 
z
" id="DejaVuSans-36"/>
      </defs>
      <g transform="translate(601.595909 401.716563)scale(0.22 -0.22)">
       <use xlink:href="#DejaVuSans-36"/>
       <use x="63.623047" xlink:href="#DejaVuSans-30"/>
       <use x="127.246094" xlink:href="#DejaVuSans-30"/>
       <use x="190.869141" xlink:href="#DejaVuSans-30"/>
      </g>
     </g>
    </g>
    <g id="xtick_5">
     <g id="line2d_9">
      <path clip-path="url(#pe67c54638c)" d="M 781.772727 378 
L 781.772727 51.84 
" style="fill:none;stroke:#b0b0b0;stroke-linecap:square;stroke-width:0.8;"/>
     </g>
     <g id="line2d_10">
      <g>
       <use style="stroke:#000000;stroke-width:0.8;" x="781.772727" xlink:href="#m0ab6a9b396" y="378"/>
      </g>
     </g>
     <g id="text_5">
      <!-- 8000 -->
      <defs>
       <path d="M 31.78125 34.625 
Q 24.75 34.625 20.71875 30.859375 
Q 16.703125 27.09375 16.703125 20.515625 
Q 16.703125 13.921875 20.71875 10.15625 
Q 24.75 6.390625 31.78125 6.390625 
Q 38.8125 6.390625 42.859375 10.171875 
Q 46.921875 13.96875 46.921875 20.515625 
Q 46.921875 27.09375 42.890625 30.859375 
Q 38.875 34.625 31.78125 34.625 
z
M 21.921875 38.8125 
Q 15.578125 40.375 12.03125 44.71875 
Q 8.5 49.078125 8.5 55.328125 
Q 8.5 64.0625 14.71875 69.140625 
Q 20.953125 74.21875 31.78125 74.21875 
Q 42.671875 74.21875 48.875 69.140625 
Q 55.078125 64.0625 55.078125 55.328125 
Q 55.078125 49.078125 51.53125 44.71875 
Q 48 40.375 41.703125 38.8125 
Q 48.828125 37.15625 52.796875 32.3125 
Q 56.78125 27.484375 56.78125 20.515625 
Q 56.78125 9.90625 50.3125 4.234375 
Q 43.84375 -1.421875 31.78125 -1.421875 
Q 19.734375 -1.421875 13.25 4.234375 
Q 6.78125 9.90625 6.78125 20.515625 
Q 6.78125 27.484375 10.78125 32.3125 
Q 14.796875 37.15625 21.921875 38.8125 
z
M 18.3125 54.390625 
Q 18.3125 48.734375 21.84375 45.5625 
Q 25.390625 42.390625 31.78125 42.390625 
Q 38.140625 42.390625 41.71875 45.5625 
Q 45.3125 48.734375 45.3125 54.390625 
Q 45.3125 60.0625 41.71875 63.234375 
Q 38.140625 66.40625 31.78125 66.40625 
Q 25.390625 66.40625 21.84375 63.234375 
Q 18.3125 60.0625 18.3125 54.390625 
z
" id="DejaVuSans-38"/>
      </defs>
      <g transform="translate(753.777727 401.716563)scale(0.22 -0.22)">
       <use xlink:href="#DejaVuSans-38"/>
       <use x="63.623047" xlink:href="#DejaVuSans-30"/>
       <use x="127.246094" xlink:href="#DejaVuSans-30"/>
       <use x="190.869141" xlink:href="#DejaVuSans-30"/>
      </g>
     </g>
    </g>
    <g id="xtick_6">
     <g id="line2d_11">
      <path clip-path="url(#pe67c54638c)" d="M 933.954545 378 
L 933.954545 51.84 
" style="fill:none;stroke:#b0b0b0;stroke-linecap:square;stroke-width:0.8;"/>
     </g>
     <g id="line2d_12">
      <g>
       <use style="stroke:#000000;stroke-width:0.8;" x="933.954545" xlink:href="#m0ab6a9b396" y="378"/>
      </g>
     </g>
     <g id="text_6">
      <!-- 10000 -->
      <defs>
       <path d="M 12.40625 8.296875 
L 28.515625 8.296875 
L 28.515625 63.921875 
L 10.984375 60.40625 
L 10.984375 69.390625 
L 28.421875 72.90625 
L 38.28125 72.90625 
L 38.28125 8.296875 
L 54.390625 8.296875 
L 54.390625 0 
L 12.40625 0 
z
" id="DejaVuSans-31"/>
      </defs>
      <g transform="translate(898.960795 401.716563)scale(0.22 -0.22)">
       <use xlink:href="#DejaVuSans-31"/>
       <use x="63.623047" xlink:href="#DejaVuSans-30"/>
       <use x="127.246094" xlink:href="#DejaVuSans-30"/>
       <use x="190.869141" xlink:href="#DejaVuSans-30"/>
       <use x="254.492188" xlink:href="#DejaVuSans-30"/>
      </g>
     </g>
    </g>
   </g>
   <g id="matplotlib.axis_2">
    <g id="ytick_1">
     <g id="line2d_13">
      <path clip-path="url(#pe67c54638c)" d="M 135 378 
L 972 378 
" style="fill:none;stroke:#b0b0b0;stroke-linecap:square;stroke-width:0.8;"/>
     </g>
     <g id="line2d_14">
      <defs>
       <path d="M 0 0 
L -3.5 0 
" id="m997373b92a" style="stroke:#000000;stroke-width:0.8;"/>
      </defs>
      <g>
       <use style="stroke:#000000;stroke-width:0.8;" x="135" xlink:href="#m997373b92a" y="378"/>
      </g>
     </g>
     <g id="text_7">
      <!-- 0.0 -->
      <defs>
       <path d="M 10.6875 12.40625 
L 21 12.40625 
L 21 0 
L 10.6875 0 
z
" id="DejaVuSans-2e"/>
      </defs>
      <g transform="translate(93.013125 386.358281)scale(0.22 -0.22)">
       <use xlink:href="#DejaVuSans-30"/>
       <use x="63.623047" xlink:href="#DejaVuSans-2e"/>
       <use x="95.410156" xlink:href="#DejaVuSans-30"/>
      </g>
     </g>
    </g>
    <g id="ytick_2">
     <g id="line2d_15">
      <path clip-path="url(#pe67c54638c)" d="M 135 312.768 
L 972 312.768 
" style="fill:none;stroke:#b0b0b0;stroke-linecap:square;stroke-width:0.8;"/>
     </g>
     <g id="line2d_16">
      <g>
       <use style="stroke:#000000;stroke-width:0.8;" x="135" xlink:href="#m997373b92a" y="312.768"/>
      </g>
     </g>
     <g id="text_8">
      <!-- 0.2 -->
      <g transform="translate(93.013125 321.126281)scale(0.22 -0.22)">
       <use xlink:href="#DejaVuSans-30"/>
       <use x="63.623047" xlink:href="#DejaVuSans-2e"/>
       <use x="95.410156" xlink:href="#DejaVuSans-32"/>
      </g>
     </g>
    </g>
    <g id="ytick_3">
     <g id="line2d_17">
      <path clip-path="url(#pe67c54638c)" d="M 135 247.536 
L 972 247.536 
" style="fill:none;stroke:#b0b0b0;stroke-linecap:square;stroke-width:0.8;"/>
     </g>
     <g id="line2d_18">
      <g>
       <use style="stroke:#000000;stroke-width:0.8;" x="135" xlink:href="#m997373b92a" y="247.536"/>
      </g>
     </g>
     <g id="text_9">
      <!-- 0.4 -->
      <g transform="translate(93.013125 255.894281)scale(0.22 -0.22)">
       <use xlink:href="#DejaVuSans-30"/>
       <use x="63.623047" xlink:href="#DejaVuSans-2e"/>
       <use x="95.410156" xlink:href="#DejaVuSans-34"/>
      </g>
     </g>
    </g>
    <g id="ytick_4">
     <g id="line2d_19">
      <path clip-path="url(#pe67c54638c)" d="M 135 182.304 
L 972 182.304 
" style="fill:none;stroke:#b0b0b0;stroke-linecap:square;stroke-width:0.8;"/>
     </g>
     <g id="line2d_20">
      <g>
       <use style="stroke:#000000;stroke-width:0.8;" x="135" xlink:href="#m997373b92a" y="182.304"/>
      </g>
     </g>
     <g id="text_10">
      <!-- 0.6 -->
      <g transform="translate(93.013125 190.662281)scale(0.22 -0.22)">
       <use xlink:href="#DejaVuSans-30"/>
       <use x="63.623047" xlink:href="#DejaVuSans-2e"/>
       <use x="95.410156" xlink:href="#DejaVuSans-36"/>
      </g>
     </g>
    </g>
    <g id="ytick_5">
     <g id="line2d_21">
      <path clip-path="url(#pe67c54638c)" d="M 135 117.072 
L 972 117.072 
" style="fill:none;stroke:#b0b0b0;stroke-linecap:square;stroke-width:0.8;"/>
     </g>
     <g id="line2d_22">
      <g>
       <use style="stroke:#000000;stroke-width:0.8;" x="135" xlink:href="#m997373b92a" y="117.072"/>
      </g>
     </g>
     <g id="text_11">
      <!-- 0.8 -->
      <g transform="translate(93.013125 125.430281)scale(0.22 -0.22)">
       <use xlink:href="#DejaVuSans-30"/>
       <use x="63.623047" xlink:href="#DejaVuSans-2e"/>
       <use x="95.410156" xlink:href="#DejaVuSans-38"/>
      </g>
     </g>
    </g>
    <g id="ytick_6">
     <g id="line2d_23">
      <path clip-path="url(#pe67c54638c)" d="M 135 51.84 
L 972 51.84 
" style="fill:none;stroke:#b0b0b0;stroke-linecap:square;stroke-width:0.8;"/>
     </g>
     <g id="line2d_24">
      <g>
       <use style="stroke:#000000;stroke-width:0.8;" x="135" xlink:href="#m997373b92a" y="51.84"/>
      </g>
     </g>
     <g id="text_12">
      <!-- 1.0 -->
      <g transform="translate(93.013125 60.198281)scale(0.22 -0.22)">
       <use xlink:href="#DejaVuSans-31"/>
       <use x="63.623047" xlink:href="#DejaVuSans-2e"/>
       <use x="95.410156" xlink:href="#DejaVuSans-30"/>
      </g>
     </g>
    </g>
   </g>
   <g id="line2d_25">
    <path clip-path="url(#pe67c54638c)" d="M 173.045455 158.309492 
L 175.026989 146.12198 
L 177.008523 144.534668 
L 178.990057 143.556187 
L 180.971591 142.961851 
L 182.953125 142.171819 
L 184.934659 140.711346 
L 186.916193 139.97205 
L 188.897727 138.779754 
L 192.860795 135.837067 
L 194.84233 134.6339 
L 196.823864 133.67354 
L 198.805398 132.473996 
L 200.786932 131.060636 
L 202.768466 129.864715 
L 204.75 128.929723 
L 206.731534 127.516362 
L 208.713068 126.356683 
L 210.694602 124.954195 
L 212.676136 124.044571 
L 214.65767 123.359637 
L 216.639205 122.189084 
L 222.583807 120.743108 
L 224.565341 120.493051 
L 226.546875 119.808115 
L 230.509943 118.873123 
L 232.491477 118.623067 
L 234.473011 118.130203 
L 236.454545 117.880147 
L 238.43608 117.880147 
L 240.417614 118.122955 
L 242.399148 117.630091 
L 244.380682 117.387283 
L 246.362216 117.387283 
L 248.34375 116.927035 
L 252.306818 116.919786 
L 254.288352 116.459539 
L 256.269886 116.459538 
L 260.232955 115.973922 
L 262.214489 115.513674 
L 264.196023 115.513675 
L 270.140625 114.785249 
L 278.066761 114.785249 
L 284.011364 114.020585 
L 285.992898 113.51685 
L 301.84517 111.429429 
L 303.826705 111.38594 
L 309.771307 110.603157 
L 311.752841 110.603158 
L 313.734375 110.820598 
L 317.697443 110.820597 
L 331.568182 112.342674 
L 333.549716 112.342676 
L 341.475852 113.212434 
L 343.457386 113.212434 
L 347.420455 113.647314 
L 351.383523 113.647313 
L 355.346591 113.19069 
L 361.291193 113.19069 
L 367.235795 112.505754 
L 369.21733 112.505754 
L 381.106534 111.135882 
L 385.069602 111.135881 
L 391.014205 110.450944 
L 396.958807 110.450943 
L 398.940341 110.222631 
L 400.921875 110.222632 
L 402.903409 109.968951 
L 404.884943 109.968951 
L 406.866477 109.715271 
L 412.81108 109.715271 
L 414.792614 109.461591 
L 418.755682 109.461593 
L 428.663352 108.193195 
L 438.571023 108.193194 
L 442.534091 107.685835 
L 444.515625 107.939516 
L 452.441761 107.939517 
L 454.423295 108.193195 
L 460.367898 108.193194 
L 462.349432 108.446875 
L 464.330966 108.193195 
L 466.3125 108.446875 
L 468.294034 108.193195 
L 472.257102 108.700554 
L 474.238636 108.446874 
L 476.22017 108.446874 
L 478.201705 108.193193 
L 490.090909 108.193194 
L 492.072443 107.939514 
L 494.053977 107.939515 
L 496.035511 107.685835 
L 498.017045 107.685835 
L 499.99858 107.432155 
L 503.961648 107.432155 
L 505.943182 107.178476 
L 511.887784 107.178478 
L 513.869318 106.924798 
L 517.832386 106.924798 
L 519.81392 106.671118 
L 529.721591 106.671117 
L 531.703125 106.417437 
L 610.964489 106.417436 
L 614.927557 105.946316 
L 616.909091 105.946316 
L 618.890625 106.199996 
L 620.872159 106.199996 
L 626.816761 105.493316 
L 642.669034 105.493317 
L 644.650568 105.728877 
L 646.632102 105.728877 
L 648.613636 105.475197 
L 654.558239 105.475197 
L 656.539773 105.710757 
L 658.521307 105.475198 
L 660.502841 105.475198 
L 664.465909 105.004078 
L 670.410511 105.004078 
L 672.392045 105.239638 
L 674.37358 105.239638 
L 676.355114 105.004078 
L 680.318182 105.004079 
L 682.299716 105.239638 
L 684.28125 105.239638 
L 686.262784 105.004078 
L 688.244318 105.004078 
L 690.225852 104.768518 
L 694.18892 105.239639 
L 700.133523 104.532958 
L 702.115057 104.532958 
L 704.096591 104.297399 
L 706.078125 104.532958 
L 717.96733 104.532957 
L 719.948864 104.768517 
L 721.930398 104.768516 
L 723.911932 104.532956 
L 729.856534 104.619933 
L 731.838068 104.384372 
L 737.78267 104.384374 
L 741.745739 103.913254 
L 745.708807 103.913254 
L 747.690341 104.23579 
L 749.671875 104.235789 
L 751.653409 104.000229 
L 763.542614 104.000228 
L 767.505682 103.529109 
L 775.431818 103.616086 
L 779.394886 103.057991 
L 783.357955 103.54723 
L 785.339489 103.634207 
L 789.302557 104.105326 
L 799.210227 104.192302 
L 803.173295 104.279277 
L 809.117898 104.279277 
L 817.044034 103.554479 
L 819.025568 103.318919 
L 824.97017 103.492871 
L 830.914773 103.318919 
L 832.896307 103.405895 
L 836.859375 103.318919 
L 840.822443 103.790039 
L 842.803977 103.877014 
L 846.767045 103.790039 
L 854.693182 103.703062 
L 856.674716 103.572598 
L 858.65625 103.895135 
L 866.582386 103.880639 
L 872.526989 103.235568 
L 876.490057 103.40952 
L 878.471591 103.19208 
L 882.434659 102.97464 
L 886.397727 103.19208 
L 888.379261 102.869543 
L 894.323864 103.13047 
L 896.305398 103.05799 
L 900.268466 102.623111 
L 902.25 102.641231 
L 904.231534 102.789814 
L 906.213068 102.702838 
L 908.194602 103.007254 
L 910.176136 103.007253 
L 912.15767 103.224693 
L 918.102273 102.572374 
L 926.028409 102.267958 
L 929.991477 103.347909 
L 931.973011 103.652325 
L 933.954545 103.416765 
L 933.954545 103.416765 
" style="fill:none;stroke:#008b8b;stroke-linecap:square;stroke-width:1.5;"/>
   </g>
   <g id="line2d_26">
    <path clip-path="url(#pe67c54638c)" d="M 173.045455 197.394339 
L 175.026989 184.652354 
L 177.008523 178.495178 
L 178.990057 174.671857 
L 180.971591 170.203464 
L 182.953125 166.1772 
L 186.916193 158.726255 
L 190.879261 152.558205 
L 192.860795 149.753228 
L 194.84233 147.249043 
L 196.823864 144.491179 
L 198.805398 141.986995 
L 200.786932 139.79085 
L 202.768466 138.460842 
L 204.75 137.547594 
L 206.731534 136.862658 
L 212.676136 134.470816 
L 214.65767 134.028687 
L 216.639205 132.887127 
L 218.620739 131.999247 
L 222.583807 129.723374 
L 224.565341 128.353502 
L 226.546875 127.240934 
L 228.528409 125.874685 
L 230.509943 124.272877 
L 232.491477 123.167558 
L 234.473011 121.78319 
L 236.454545 120.859069 
L 238.43608 119.358734 
L 242.399148 117.557607 
L 244.380682 116.397928 
L 250.325284 114.328625 
L 256.269886 112.813793 
L 258.25142 112.186842 
L 264.196023 110.813347 
L 266.177557 110.113915 
L 268.159091 109.903723 
L 270.140625 109.36737 
L 278.066761 107.910524 
L 280.048295 107.627852 
L 282.02983 107.16398 
L 287.974432 106.743598 
L 303.826705 106.671117 
L 319.678977 104.65617 
L 323.642045 104.098074 
L 333.549716 102.884035 
L 343.457386 102.956518 
L 347.420455 103.028999 
L 373.180398 102.956519 
L 377.143466 102.884038 
L 414.792614 102.884037 
L 416.774148 102.666598 
L 418.755682 102.666599 
L 420.737216 102.449158 
L 422.71875 102.449157 
L 424.700284 102.231718 
L 434.607955 102.231717 
L 436.589489 102.014277 
L 438.571023 102.014277 
L 444.515625 101.361958 
L 446.497159 101.361958 
L 448.478693 101.144517 
L 450.460227 101.144518 
L 452.441761 100.927079 
L 454.423295 100.927079 
L 464.330966 99.839882 
L 466.3125 99.839882 
L 468.294034 99.622443 
L 933.954545 99.69492 
L 933.954545 99.69492 
" style="fill:none;stroke:#9400d3;stroke-linecap:square;stroke-width:1.5;"/>
   </g>
   <g id="line2d_27">
    <path clip-path="url(#pe67c54638c)" d="M 135 84.456 
L 972 84.456 
" style="fill:none;stroke:#ff0000;stroke-dasharray:2.96,1.28;stroke-dashoffset:0;stroke-width:0.8;"/>
   </g>
   <g id="line2d_28">
    <path clip-path="url(#pe67c54638c)" d="M 135 104.0256 
L 972 104.0256 
" style="fill:none;stroke:#fa8072;stroke-dasharray:2.96,1.28;stroke-dashoffset:0;stroke-width:0.8;"/>
   </g>
   <g id="line2d_29">
    <path clip-path="url(#pe67c54638c)" d="M 173.045455 144.723121 
L 175.026989 133.162562 
L 177.008523 127.001762 
L 178.990057 124.464961 
L 182.953125 124.464963 
L 184.934659 122.03688 
L 188.897727 122.036882 
L 190.879261 119.608805 
L 194.84233 119.608807 
L 196.823864 122.036886 
L 198.805398 122.036883 
L 200.786932 124.464965 
L 202.768466 124.464963 
L 204.75 126.893042 
L 208.713068 126.893042 
L 210.694602 124.464962 
L 212.676136 124.464962 
L 214.65767 126.893042 
L 216.639205 124.464963 
L 220.602273 124.464959 
L 222.583807 122.036882 
L 232.491477 122.036882 
L 234.473011 119.6088 
L 238.43608 119.6088 
L 240.417614 122.036879 
L 244.380682 117.180722 
L 246.362216 117.18072 
L 248.34375 114.752644 
L 250.325284 117.180719 
L 252.306818 117.180719 
L 254.288352 114.752642 
L 256.269886 114.752642 
L 262.214489 107.468399 
L 264.196023 107.468401 
L 270.140625 100.184159 
L 278.066761 100.184157 
L 280.048295 97.756079 
L 284.011364 97.756076 
L 285.992898 95.327999 
L 933.954545 95.328004 
L 933.954545 95.328004 
" style="fill:none;opacity:0.1;stroke:#008b8b;stroke-linecap:square;stroke-width:1.5;"/>
   </g>
   <g id="line2d_30">
    <path clip-path="url(#pe67c54638c)" d="M 173.045455 152.079834 
L 175.026989 141.062874 
L 177.008523 138.815996 
L 182.953125 138.815994 
L 212.676136 104.025602 
L 933.954545 104.025599 
L 933.954545 104.025599 
" style="fill:none;opacity:0.1;stroke:#008b8b;stroke-linecap:square;stroke-width:1.5;"/>
   </g>
   <g id="line2d_31">
    <path clip-path="url(#pe67c54638c)" d="M 173.045455 172.519209 
L 175.026989 161.647211 
L 177.008523 161.647213 
L 178.990057 163.821614 
L 180.971591 163.821614 
L 182.953125 165.996018 
L 186.916193 165.996016 
L 192.860795 159.472813 
L 196.823864 159.472817 
L 216.639205 137.728798 
L 224.565341 137.728801 
L 226.546875 135.554401 
L 280.048295 135.554398 
L 301.84517 106.852321 
L 303.826705 106.417437 
L 309.771307 98.589599 
L 311.752841 98.589601 
L 313.734375 100.764 
L 317.697443 100.763999 
L 331.568182 115.984792 
L 333.549716 115.984796 
L 341.475852 124.682388 
L 343.457386 124.682386 
L 347.420455 129.031182 
L 854.693182 129.03118 
L 856.674716 126.85678 
L 876.490057 126.856787 
L 878.471591 124.682386 
L 880.453125 124.682388 
L 882.434659 122.507988 
L 884.416193 122.507991 
L 886.397727 124.68239 
L 896.305398 124.682388 
L 902.25 118.159194 
L 906.213068 118.159191 
L 908.194602 120.333588 
L 910.176136 120.333587 
L 912.15767 122.507984 
L 918.102273 115.984783 
L 922.065341 115.984783 
L 924.046875 113.810386 
L 926.028409 113.810385 
L 931.973011 120.333577 
L 933.954545 120.333577 
L 933.954545 120.333577 
" style="fill:none;opacity:0.1;stroke:#008b8b;stroke-linecap:square;stroke-width:1.5;"/>
   </g>
   <g id="line2d_32">
    <path clip-path="url(#pe67c54638c)" d="M 173.045455 155.196461 
L 175.026989 140.048141 
L 178.990057 134.46718 
L 400.921875 134.46717 
L 402.903409 131.930373 
L 404.884943 131.930372 
L 406.866477 129.393573 
L 412.81108 129.393575 
L 414.792614 126.856775 
L 418.755682 126.856779 
L 428.663352 114.172791 
L 438.571023 114.172792 
L 442.534091 109.099193 
L 444.515625 111.635995 
L 452.441761 111.635994 
L 454.423295 114.172791 
L 460.367898 114.172792 
L 462.349432 116.709591 
L 464.330966 114.17279 
L 466.3125 116.709586 
L 468.294034 114.172789 
L 472.257102 119.246386 
L 474.238636 116.709587 
L 476.22017 116.709587 
L 478.201705 114.172789 
L 490.090909 114.172785 
L 492.072443 111.635986 
L 494.053977 111.635988 
L 496.035511 109.099192 
L 498.017045 109.099192 
L 499.99858 106.562393 
L 503.961648 106.562393 
L 505.943182 104.025592 
L 511.887784 104.025594 
L 513.869318 101.488797 
L 517.832386 101.488799 
L 519.81392 98.952 
L 529.721591 98.951997 
L 531.703125 96.415199 
L 616.909091 96.4152 
L 618.890625 98.951999 
L 646.632102 98.952006 
L 648.613636 96.415207 
L 779.394886 96.415203 
L 781.37642 98.952002 
L 809.117898 98.951997 
L 811.099432 96.415199 
L 933.954545 96.4152 
L 933.954545 96.4152 
" style="fill:none;opacity:0.1;stroke:#008b8b;stroke-linecap:square;stroke-width:1.5;"/>
   </g>
   <g id="line2d_33">
    <path clip-path="url(#pe67c54638c)" d="M 173.045455 161.031113 
L 175.026989 147.948475 
L 177.008523 147.151193 
L 178.990057 147.151192 
L 182.953125 142.729907 
L 190.879261 142.729912 
L 192.860795 140.301835 
L 196.823864 131.024393 
L 198.805398 128.596313 
L 200.786932 123.957591 
L 220.602273 99.676797 
L 933.954545 99.676798 
L 933.954545 99.676798 
" style="fill:none;opacity:0.1;stroke:#008b8b;stroke-linecap:square;stroke-width:1.5;"/>
   </g>
   <g id="line2d_34">
    <path clip-path="url(#pe67c54638c)" d="M 173.045455 157.733281 
L 175.026989 145.5204 
L 177.008523 143.237281 
L 180.971591 143.237282 
L 182.953125 140.446804 
L 351.383523 140.446792 
L 355.346591 135.880559 
L 361.291193 135.880559 
L 367.235795 129.031196 
L 369.21733 129.031198 
L 381.106534 115.332483 
L 385.069602 115.33248 
L 391.014205 108.48312 
L 396.958807 108.483124 
L 398.940341 106.200004 
L 933.954545 106.200012 
L 933.954545 106.200012 
" style="fill:none;opacity:0.1;stroke:#008b8b;stroke-linecap:square;stroke-width:1.5;"/>
   </g>
   <g id="line2d_35">
    <path clip-path="url(#pe67c54638c)" d="M 173.045455 142.657427 
L 175.026989 130.227106 
L 177.008523 132.546469 
L 180.971591 132.546468 
L 206.731534 102.394805 
L 864.600852 102.394791 
L 866.582386 103.119591 
L 894.323864 103.119594 
L 896.305398 102.394793 
L 933.954545 102.394804 
L 933.954545 102.394804 
" style="fill:none;opacity:0.1;stroke:#008b8b;stroke-linecap:square;stroke-width:1.5;"/>
   </g>
   <g id="line2d_36">
    <path clip-path="url(#pe67c54638c)" d="M 173.045455 164.111523 
L 175.026989 151.5 
L 177.008523 152.405996 
L 178.990057 150.59399 
L 182.953125 149.869187 
L 184.934659 147.151184 
L 186.916193 146.788783 
L 192.860795 138.634779 
L 198.805398 137.547579 
L 202.768466 132.111575 
L 204.75 131.749177 
L 206.731534 129.031176 
L 610.964489 129.031178 
L 614.927557 124.31998 
L 620.872159 124.319987 
L 626.816761 117.253188 
L 642.669034 117.253191 
L 644.650568 119.608791 
L 654.558239 119.608786 
L 656.539773 121.964385 
L 658.521307 119.608786 
L 660.502841 119.608786 
L 664.465909 114.897585 
L 670.410511 114.897588 
L 672.392045 117.253189 
L 674.37358 117.253188 
L 676.355114 114.897588 
L 680.318182 114.897593 
L 682.299716 117.253192 
L 684.28125 117.253192 
L 686.262784 114.897593 
L 688.244318 114.897593 
L 690.225852 112.541993 
L 694.18892 117.253193 
L 700.133523 110.186394 
L 702.115057 110.186391 
L 704.096591 107.830793 
L 706.078125 110.186394 
L 717.96733 110.18639 
L 719.948864 112.541989 
L 721.930398 112.541986 
L 723.911932 110.186386 
L 729.856534 110.186387 
L 731.838068 107.830787 
L 737.78267 107.830784 
L 741.745739 103.119585 
L 745.708807 103.119585 
L 747.690341 105.475186 
L 749.671875 105.475188 
L 751.653409 103.119589 
L 763.542614 103.119591 
L 767.505682 98.408393 
L 775.431818 98.408393 
L 779.394886 93.697192 
L 781.37642 93.697191 
L 783.357955 96.05279 
L 785.339489 96.052792 
L 789.302557 100.763988 
L 811.099432 100.76399 
L 813.080966 98.408394 
L 815.0625 98.408393 
L 819.025568 93.697195 
L 836.859375 93.697191 
L 840.822443 98.408388 
L 856.674716 98.408388 
L 858.65625 100.763987 
L 866.582386 100.763992 
L 870.545455 96.052795 
L 886.397727 96.052797 
L 888.379261 93.697199 
L 900.268466 93.697196 
L 904.231534 98.408391 
L 926.028409 98.408389 
L 929.991477 103.119587 
L 931.973011 103.119589 
L 933.954545 100.76399 
L 933.954545 100.76399 
" style="fill:none;opacity:0.1;stroke:#008b8b;stroke-linecap:square;stroke-width:1.5;"/>
   </g>
   <g id="line2d_37">
    <path clip-path="url(#pe67c54638c)" d="M 173.045455 186.978963 
L 175.026989 171.287041 
L 178.990057 161.647199 
L 180.971591 158.27688 
L 182.953125 155.885038 
L 184.934659 151.065114 
L 190.879261 143.88959 
L 192.860795 140.772952 
L 200.786932 131.205587 
L 202.768466 131.20559 
L 216.639205 115.984802 
L 218.620739 115.984804 
L 220.602273 113.810403 
L 224.565341 113.810399 
L 230.509943 107.2872 
L 246.362216 107.287191 
L 248.34375 105.112791 
L 252.306818 105.112785 
L 254.288352 102.938388 
L 260.232955 102.93839 
L 262.214489 100.76399 
L 933.954545 100.763999 
L 933.954545 100.763999 
" style="fill:none;opacity:0.1;stroke:#008b8b;stroke-linecap:square;stroke-width:1.5;"/>
   </g>
   <g id="line2d_38">
    <path clip-path="url(#pe67c54638c)" d="M 173.045455 146.063989 
L 175.026989 138.815987 
L 206.731534 138.81599 
L 210.694602 133.814869 
L 212.676136 133.814869 
L 218.620739 126.313189 
L 220.602273 126.313189 
L 236.454545 106.308711 
L 240.417614 106.308713 
L 242.399148 103.808155 
L 248.34375 103.808156 
L 250.325284 101.307596 
L 725.893466 101.307598 
L 727.875 102.177357 
L 745.708807 102.177365 
L 747.690341 103.047127 
L 773.450284 103.047124 
L 775.431818 103.916883 
L 777.413352 103.047123 
L 783.357955 103.047124 
L 785.339489 103.916881 
L 795.247159 103.91688 
L 797.228693 104.786639 
L 799.210227 104.786639 
L 801.191761 105.656395 
L 809.117898 105.656391 
L 811.099432 106.526153 
L 815.0625 106.526153 
L 817.044034 105.656395 
L 819.025568 105.656395 
L 821.007102 106.526155 
L 822.988636 106.526155 
L 824.97017 107.395911 
L 826.951705 106.526152 
L 828.933239 106.526151 
L 830.914773 105.656391 
L 832.896307 106.526148 
L 834.877841 105.65639 
L 840.822443 105.65639 
L 842.803977 106.526147 
L 844.785511 105.656389 
L 852.711648 105.656386 
L 854.693182 104.786628 
L 858.65625 106.526148 
L 860.637784 106.526151 
L 862.619318 105.656394 
L 868.56392 105.656394 
L 872.526989 103.916876 
L 876.490057 105.656394 
L 878.471591 105.656394 
L 880.453125 104.786636 
L 884.416193 106.526157 
L 888.379261 104.786639 
L 894.323864 107.395916 
L 902.25 107.395918 
L 906.213068 105.656402 
L 908.194602 106.526158 
L 918.102273 106.526155 
L 920.083807 105.656394 
L 926.028409 105.656391 
L 931.973011 108.265665 
L 933.954545 108.265664 
L 933.954545 108.265664 
" style="fill:none;opacity:0.1;stroke:#008b8b;stroke-linecap:square;stroke-width:1.5;"/>
   </g>
   <g id="line2d_39">
    <path clip-path="url(#pe67c54638c)" d="M 173.045455 192.9948 
L 175.026989 176.396878 
L 182.953125 153.493192 
L 200.786932 129.031177 
L 222.583807 129.031178 
L 224.565341 126.675579 
L 228.528409 126.675578 
L 230.509943 124.319979 
L 232.491477 124.319979 
L 234.473011 121.964377 
L 236.454545 121.964376 
L 252.306818 103.11959 
L 254.288352 103.119589 
L 258.25142 98.408391 
L 260.232955 98.408392 
L 262.214489 96.052793 
L 264.196023 96.052792 
L 266.177557 93.697194 
L 933.954545 93.697191 
L 933.954545 93.697191 
" style="fill:none;opacity:0.1;stroke:#9400d3;stroke-linecap:square;stroke-width:1.5;"/>
   </g>
   <g id="line2d_40">
    <path clip-path="url(#pe67c54638c)" d="M 173.045455 204.809038 
L 175.026989 194.553117 
L 192.860795 146.607594 
L 202.768466 135.155756 
L 204.75 130.661997 
L 230.509943 102.394788 
L 914.139205 102.394792 
L 916.120739 103.119589 
L 933.954545 103.119591 
L 933.954545 103.119591 
" style="fill:none;opacity:0.1;stroke:#9400d3;stroke-linecap:square;stroke-width:1.5;"/>
   </g>
   <g id="line2d_41">
    <path clip-path="url(#pe67c54638c)" d="M 173.045455 196.401363 
L 175.026989 187.522563 
L 177.008523 182.267764 
L 178.990057 179.223604 
L 186.916193 158.204407 
L 204.75 138.30864 
L 206.731534 138.308638 
L 208.713068 136.098 
L 303.826705 136.097984 
L 333.549716 99.676797 
L 933.954545 99.676801 
L 933.954545 99.676801 
" style="fill:none;opacity:0.1;stroke:#9400d3;stroke-linecap:square;stroke-width:1.5;"/>
   </g>
   <g id="line2d_42">
    <path clip-path="url(#pe67c54638c)" d="M 173.045455 216.007202 
L 175.026989 205.6788 
L 180.971591 196.437598 
L 198.805398 146.861281 
L 210.694602 132.292797 
L 220.602273 132.292793 
L 250.325284 95.328009 
L 933.954545 95.328009 
L 933.954545 95.328009 
" style="fill:none;opacity:0.1;stroke:#9400d3;stroke-linecap:square;stroke-width:1.5;"/>
   </g>
   <g id="line2d_43">
    <path clip-path="url(#pe67c54638c)" d="M 173.045455 220.972081 
L 175.026989 203.214479 
L 177.008523 192.704878 
L 178.990057 188.827196 
L 200.786932 113.085586 
L 202.768466 111.635986 
L 252.306818 111.635984 
L 270.140625 105.112792 
L 272.122159 105.112791 
L 282.02983 101.488797 
L 299.863636 101.488794 
L 301.84517 100.763995 
L 933.954545 100.763996 
L 933.954545 100.763996 
" style="fill:none;opacity:0.1;stroke:#9400d3;stroke-linecap:square;stroke-width:1.5;"/>
   </g>
   <g id="line2d_44">
    <path clip-path="url(#pe67c54638c)" d="M 173.045455 177.955192 
L 175.026989 164.51015 
L 180.971591 148.419586 
L 190.879261 134.467181 
L 194.84233 134.46718 
L 196.823864 131.930379 
L 214.65767 131.930374 
L 216.639205 129.393575 
L 218.620739 129.393575 
L 220.602273 126.856775 
L 224.565341 126.856776 
L 226.546875 129.393575 
L 230.509943 129.393578 
L 232.491477 126.856782 
L 236.454545 126.856782 
L 238.43608 124.319983 
L 252.306818 124.319983 
L 260.232955 114.172787 
L 262.214489 114.172786 
L 266.177557 109.099191 
L 268.159091 109.099191 
L 274.103693 101.488798 
L 276.085227 101.488799 
L 278.066761 98.952 
L 280.048295 98.951998 
L 282.02983 96.4152 
L 933.954545 96.415208 
L 933.954545 96.415208 
" style="fill:none;opacity:0.1;stroke:#9400d3;stroke-linecap:square;stroke-width:1.5;"/>
   </g>
   <g id="line2d_45">
    <path clip-path="url(#pe67c54638c)" d="M 173.045455 214.92 
L 202.768466 173.062804 
L 208.713068 173.062802 
L 212.676136 168.605281 
L 214.65767 168.605281 
L 230.509943 132.945122 
L 232.491477 129.212401 
L 238.43608 115.839842 
L 240.417614 114.390243 
L 242.399148 112.107125 
L 244.380682 107.649606 
L 248.34375 107.649605 
L 250.325284 108.374406 
L 254.288352 108.374407 
L 258.25142 109.824004 
L 268.159091 109.824004 
L 270.140625 109.099202 
L 276.085227 109.0992 
L 278.066761 109.823999 
L 280.048295 109.099199 
L 284.011364 109.099197 
L 287.974432 107.6496 
L 305.808239 107.649592 
L 307.789773 106.924793 
L 319.678977 106.924797 
L 321.660511 106.199995 
L 341.475852 106.2 
L 345.43892 107.649601 
L 371.198864 107.649605 
L 375.161932 106.200008 
L 933.954545 106.200004 
L 933.954545 106.200004 
" style="fill:none;opacity:0.1;stroke:#9400d3;stroke-linecap:square;stroke-width:1.5;"/>
   </g>
   <g id="line2d_46">
    <path clip-path="url(#pe67c54638c)" d="M 173.045455 189.334581 
L 175.026989 174.512422 
L 177.008523 166.938262 
L 180.971591 159.037946 
L 186.916193 155.667633 
L 200.786932 155.667634 
L 202.768466 153.420751 
L 204.75 153.420753 
L 206.731534 151.17387 
L 208.713068 149.796746 
L 230.509943 125.081027 
L 232.491477 125.081027 
L 234.473011 122.834144 
L 236.454545 122.834143 
L 238.43608 121.964386 
L 256.269886 121.964386 
L 285.992898 101.307597 
L 933.954545 101.307601 
L 933.954545 101.307601 
" style="fill:none;opacity:0.1;stroke:#9400d3;stroke-linecap:square;stroke-width:1.5;"/>
   </g>
   <g id="line2d_47">
    <path clip-path="url(#pe67c54638c)" d="M 173.045455 177.955215 
L 175.026989 161.357292 
L 177.008523 157.73329 
L 178.990057 157.733287 
L 200.786932 129.031173 
L 414.792614 129.03118 
L 416.774148 126.856783 
L 418.755682 126.856787 
L 420.737216 124.682385 
L 422.71875 124.682385 
L 424.700284 122.507987 
L 434.607955 122.50799 
L 436.589489 120.333592 
L 438.571023 120.33359 
L 444.515625 113.810391 
L 446.497159 113.81039 
L 448.478693 111.63599 
L 450.460227 111.635991 
L 452.441761 109.461592 
L 454.423295 109.461593 
L 464.330966 98.589602 
L 466.3125 98.589603 
L 468.294034 96.415207 
L 933.954545 96.4152 
L 933.954545 96.4152 
" style="fill:none;opacity:0.1;stroke:#9400d3;stroke-linecap:square;stroke-width:1.5;"/>
   </g>
   <g id="line2d_48">
    <path clip-path="url(#pe67c54638c)" d="M 173.045455 182.593917 
L 175.026989 166.648318 
L 177.008523 154.326717 
L 178.990057 149.253115 
L 180.971591 145.556635 
L 186.916193 138.815997 
L 224.565341 138.815996 
L 254.288352 104.025607 
L 933.954545 104.025602 
L 933.954545 104.025602 
" style="fill:none;opacity:0.1;stroke:#9400d3;stroke-linecap:square;stroke-width:1.5;"/>
   </g>
   <g id="patch_3">
    <path d="M 135 378 
L 135 51.84 
" style="fill:none;stroke:#000000;stroke-linecap:square;stroke-linejoin:miter;stroke-width:0.8;"/>
   </g>
   <g id="patch_4">
    <path d="M 972 378 
L 972 51.84 
" style="fill:none;stroke:#000000;stroke-linecap:square;stroke-linejoin:miter;stroke-width:0.8;"/>
   </g>
   <g id="patch_5">
    <path d="M 135 378 
L 972 378 
" style="fill:none;stroke:#000000;stroke-linecap:square;stroke-linejoin:miter;stroke-width:0.8;"/>
   </g>
   <g id="patch_6">
    <path d="M 135 51.84 
L 972 51.84 
" style="fill:none;stroke:#000000;stroke-linecap:square;stroke-linejoin:miter;stroke-width:0.8;"/>
   </g>
   <g id="legend_1">
    <g id="patch_7">
     <path d="M 150.4 367 
L 479.636875 367 
Q 484.036875 367 484.036875 362.6 
L 484.036875 235.6325 
Q 484.036875 231.2325 479.636875 231.2325 
L 150.4 231.2325 
Q 146 231.2325 146 235.6325 
L 146 362.6 
Q 146 367 150.4 367 
z
" style="fill:#ffffff;opacity:0.8;stroke:#cccccc;stroke-linejoin:miter;"/>
    </g>
    <g id="line2d_49">
     <path d="M 154.8 249.049062 
L 198.8 249.049062 
" style="fill:none;stroke:#008b8b;stroke-linecap:square;stroke-width:1.5;"/>
    </g>
    <g id="line2d_50"/>
    <g id="text_13">
     <!-- RNN -->
     <defs>
      <path d="M 44.390625 34.1875 
Q 47.5625 33.109375 50.5625 29.59375 
Q 53.5625 26.078125 56.59375 19.921875 
L 66.609375 0 
L 56 0 
L 46.6875 18.703125 
Q 43.0625 26.03125 39.671875 28.421875 
Q 36.28125 30.8125 30.421875 30.8125 
L 19.671875 30.8125 
L 19.671875 0 
L 9.8125 0 
L 9.8125 72.90625 
L 32.078125 72.90625 
Q 44.578125 72.90625 50.734375 67.671875 
Q 56.890625 62.453125 56.890625 51.90625 
Q 56.890625 45.015625 53.6875 40.46875 
Q 50.484375 35.9375 44.390625 34.1875 
z
M 19.671875 64.796875 
L 19.671875 38.921875 
L 32.078125 38.921875 
Q 39.203125 38.921875 42.84375 42.21875 
Q 46.484375 45.515625 46.484375 51.90625 
Q 46.484375 58.296875 42.84375 61.546875 
Q 39.203125 64.796875 32.078125 64.796875 
z
" id="DejaVuSans-52"/>
      <path d="M 9.8125 72.90625 
L 23.09375 72.90625 
L 55.421875 11.921875 
L 55.421875 72.90625 
L 64.984375 72.90625 
L 64.984375 0 
L 51.703125 0 
L 19.390625 60.984375 
L 19.390625 0 
L 9.8125 0 
z
" id="DejaVuSans-4e"/>
     </defs>
     <g transform="translate(216.4 256.749062)scale(0.22 -0.22)">
      <use xlink:href="#DejaVuSans-52"/>
      <use x="69.482422" xlink:href="#DejaVuSans-4e"/>
      <use x="144.287109" xlink:href="#DejaVuSans-4e"/>
     </g>
    </g>
    <g id="line2d_51">
     <path d="M 154.8 281.340937 
L 198.8 281.340937 
" style="fill:none;stroke:#9400d3;stroke-linecap:square;stroke-width:1.5;"/>
    </g>
    <g id="line2d_52"/>
    <g id="text_14">
     <!-- LSTM -->
     <defs>
      <path d="M 9.8125 72.90625 
L 19.671875 72.90625 
L 19.671875 8.296875 
L 55.171875 8.296875 
L 55.171875 0 
L 9.8125 0 
z
" id="DejaVuSans-4c"/>
      <path d="M 53.515625 70.515625 
L 53.515625 60.890625 
Q 47.90625 63.578125 42.921875 64.890625 
Q 37.9375 66.21875 33.296875 66.21875 
Q 25.25 66.21875 20.875 63.09375 
Q 16.5 59.96875 16.5 54.203125 
Q 16.5 49.359375 19.40625 46.890625 
Q 22.3125 44.4375 30.421875 42.921875 
L 36.375 41.703125 
Q 47.40625 39.59375 52.65625 34.296875 
Q 57.90625 29 57.90625 20.125 
Q 57.90625 9.515625 50.796875 4.046875 
Q 43.703125 -1.421875 29.984375 -1.421875 
Q 24.8125 -1.421875 18.96875 -0.25 
Q 13.140625 0.921875 6.890625 3.21875 
L 6.890625 13.375 
Q 12.890625 10.015625 18.65625 8.296875 
Q 24.421875 6.59375 29.984375 6.59375 
Q 38.421875 6.59375 43.015625 9.90625 
Q 47.609375 13.234375 47.609375 19.390625 
Q 47.609375 24.75 44.3125 27.78125 
Q 41.015625 30.8125 33.5 32.328125 
L 27.484375 33.5 
Q 16.453125 35.6875 11.515625 40.375 
Q 6.59375 45.0625 6.59375 53.421875 
Q 6.59375 63.09375 13.40625 68.65625 
Q 20.21875 74.21875 32.171875 74.21875 
Q 37.3125 74.21875 42.625 73.28125 
Q 47.953125 72.359375 53.515625 70.515625 
z
" id="DejaVuSans-53"/>
      <path d="M -0.296875 72.90625 
L 61.375 72.90625 
L 61.375 64.59375 
L 35.5 64.59375 
L 35.5 0 
L 25.59375 0 
L 25.59375 64.59375 
L -0.296875 64.59375 
z
" id="DejaVuSans-54"/>
      <path d="M 9.8125 72.90625 
L 24.515625 72.90625 
L 43.109375 23.296875 
L 61.8125 72.90625 
L 76.515625 72.90625 
L 76.515625 0 
L 66.890625 0 
L 66.890625 64.015625 
L 48.09375 14.015625 
L 38.1875 14.015625 
L 19.390625 64.015625 
L 19.390625 0 
L 9.8125 0 
z
" id="DejaVuSans-4d"/>
     </defs>
     <g transform="translate(216.4 289.040937)scale(0.22 -0.22)">
      <use xlink:href="#DejaVuSans-4c"/>
      <use x="55.712891" xlink:href="#DejaVuSans-53"/>
      <use x="119.189453" xlink:href="#DejaVuSans-54"/>
      <use x="180.273438" xlink:href="#DejaVuSans-4d"/>
     </g>
    </g>
    <g id="line2d_53">
     <path d="M 154.8 313.632812 
L 198.8 313.632812 
" style="fill:none;stroke:#ff0000;stroke-dasharray:2.96,1.28;stroke-dashoffset:0;stroke-width:0.8;"/>
    </g>
    <g id="line2d_54"/>
    <g id="text_15">
     <!-- rational + all fillers -->
     <defs>
      <path d="M 41.109375 46.296875 
Q 39.59375 47.171875 37.8125 47.578125 
Q 36.03125 48 33.890625 48 
Q 26.265625 48 22.1875 43.046875 
Q 18.109375 38.09375 18.109375 28.8125 
L 18.109375 0 
L 9.078125 0 
L 9.078125 54.6875 
L 18.109375 54.6875 
L 18.109375 46.1875 
Q 20.953125 51.171875 25.484375 53.578125 
Q 30.03125 56 36.53125 56 
Q 37.453125 56 38.578125 55.875 
Q 39.703125 55.765625 41.0625 55.515625 
z
" id="DejaVuSans-72"/>
      <path d="M 34.28125 27.484375 
Q 23.390625 27.484375 19.1875 25 
Q 14.984375 22.515625 14.984375 16.5 
Q 14.984375 11.71875 18.140625 8.90625 
Q 21.296875 6.109375 26.703125 6.109375 
Q 34.1875 6.109375 38.703125 11.40625 
Q 43.21875 16.703125 43.21875 25.484375 
L 43.21875 27.484375 
z
M 52.203125 31.203125 
L 52.203125 0 
L 43.21875 0 
L 43.21875 8.296875 
Q 40.140625 3.328125 35.546875 0.953125 
Q 30.953125 -1.421875 24.3125 -1.421875 
Q 15.921875 -1.421875 10.953125 3.296875 
Q 6 8.015625 6 15.921875 
Q 6 25.140625 12.171875 29.828125 
Q 18.359375 34.515625 30.609375 34.515625 
L 43.21875 34.515625 
L 43.21875 35.40625 
Q 43.21875 41.609375 39.140625 45 
Q 35.0625 48.390625 27.6875 48.390625 
Q 23 48.390625 18.546875 47.265625 
Q 14.109375 46.140625 10.015625 43.890625 
L 10.015625 52.203125 
Q 14.9375 54.109375 19.578125 55.046875 
Q 24.21875 56 28.609375 56 
Q 40.484375 56 46.34375 49.84375 
Q 52.203125 43.703125 52.203125 31.203125 
z
" id="DejaVuSans-61"/>
      <path d="M 18.3125 70.21875 
L 18.3125 54.6875 
L 36.8125 54.6875 
L 36.8125 47.703125 
L 18.3125 47.703125 
L 18.3125 18.015625 
Q 18.3125 11.328125 20.140625 9.421875 
Q 21.96875 7.515625 27.59375 7.515625 
L 36.8125 7.515625 
L 36.8125 0 
L 27.59375 0 
Q 17.1875 0 13.234375 3.875 
Q 9.28125 7.765625 9.28125 18.015625 
L 9.28125 47.703125 
L 2.6875 47.703125 
L 2.6875 54.6875 
L 9.28125 54.6875 
L 9.28125 70.21875 
z
" id="DejaVuSans-74"/>
      <path d="M 9.421875 54.6875 
L 18.40625 54.6875 
L 18.40625 0 
L 9.421875 0 
z
M 9.421875 75.984375 
L 18.40625 75.984375 
L 18.40625 64.59375 
L 9.421875 64.59375 
z
" id="DejaVuSans-69"/>
      <path d="M 30.609375 48.390625 
Q 23.390625 48.390625 19.1875 42.75 
Q 14.984375 37.109375 14.984375 27.296875 
Q 14.984375 17.484375 19.15625 11.84375 
Q 23.34375 6.203125 30.609375 6.203125 
Q 37.796875 6.203125 41.984375 11.859375 
Q 46.1875 17.53125 46.1875 27.296875 
Q 46.1875 37.015625 41.984375 42.703125 
Q 37.796875 48.390625 30.609375 48.390625 
z
M 30.609375 56 
Q 42.328125 56 49.015625 48.375 
Q 55.71875 40.765625 55.71875 27.296875 
Q 55.71875 13.875 49.015625 6.21875 
Q 42.328125 -1.421875 30.609375 -1.421875 
Q 18.84375 -1.421875 12.171875 6.21875 
Q 5.515625 13.875 5.515625 27.296875 
Q 5.515625 40.765625 12.171875 48.375 
Q 18.84375 56 30.609375 56 
z
" id="DejaVuSans-6f"/>
      <path d="M 54.890625 33.015625 
L 54.890625 0 
L 45.90625 0 
L 45.90625 32.71875 
Q 45.90625 40.484375 42.875 44.328125 
Q 39.84375 48.1875 33.796875 48.1875 
Q 26.515625 48.1875 22.3125 43.546875 
Q 18.109375 38.921875 18.109375 30.90625 
L 18.109375 0 
L 9.078125 0 
L 9.078125 54.6875 
L 18.109375 54.6875 
L 18.109375 46.1875 
Q 21.34375 51.125 25.703125 53.5625 
Q 30.078125 56 35.796875 56 
Q 45.21875 56 50.046875 50.171875 
Q 54.890625 44.34375 54.890625 33.015625 
z
" id="DejaVuSans-6e"/>
      <path d="M 9.421875 75.984375 
L 18.40625 75.984375 
L 18.40625 0 
L 9.421875 0 
z
" id="DejaVuSans-6c"/>
      <path id="DejaVuSans-20"/>
      <path d="M 46 62.703125 
L 46 35.5 
L 73.1875 35.5 
L 73.1875 27.203125 
L 46 27.203125 
L 46 0 
L 37.796875 0 
L 37.796875 27.203125 
L 10.59375 27.203125 
L 10.59375 35.5 
L 37.796875 35.5 
L 37.796875 62.703125 
z
" id="DejaVuSans-2b"/>
      <path d="M 37.109375 75.984375 
L 37.109375 68.5 
L 28.515625 68.5 
Q 23.6875 68.5 21.796875 66.546875 
Q 19.921875 64.59375 19.921875 59.515625 
L 19.921875 54.6875 
L 34.71875 54.6875 
L 34.71875 47.703125 
L 19.921875 47.703125 
L 19.921875 0 
L 10.890625 0 
L 10.890625 47.703125 
L 2.296875 47.703125 
L 2.296875 54.6875 
L 10.890625 54.6875 
L 10.890625 58.5 
Q 10.890625 67.625 15.140625 71.796875 
Q 19.390625 75.984375 28.609375 75.984375 
z
" id="DejaVuSans-66"/>
      <path d="M 56.203125 29.59375 
L 56.203125 25.203125 
L 14.890625 25.203125 
Q 15.484375 15.921875 20.484375 11.0625 
Q 25.484375 6.203125 34.421875 6.203125 
Q 39.59375 6.203125 44.453125 7.46875 
Q 49.3125 8.734375 54.109375 11.28125 
L 54.109375 2.78125 
Q 49.265625 0.734375 44.1875 -0.34375 
Q 39.109375 -1.421875 33.890625 -1.421875 
Q 20.796875 -1.421875 13.15625 6.1875 
Q 5.515625 13.8125 5.515625 26.8125 
Q 5.515625 40.234375 12.765625 48.109375 
Q 20.015625 56 32.328125 56 
Q 43.359375 56 49.78125 48.890625 
Q 56.203125 41.796875 56.203125 29.59375 
z
M 47.21875 32.234375 
Q 47.125 39.59375 43.09375 43.984375 
Q 39.0625 48.390625 32.421875 48.390625 
Q 24.90625 48.390625 20.390625 44.140625 
Q 15.875 39.890625 15.1875 32.171875 
z
" id="DejaVuSans-65"/>
      <path d="M 44.28125 53.078125 
L 44.28125 44.578125 
Q 40.484375 46.53125 36.375 47.5 
Q 32.28125 48.484375 27.875 48.484375 
Q 21.1875 48.484375 17.84375 46.4375 
Q 14.5 44.390625 14.5 40.28125 
Q 14.5 37.15625 16.890625 35.375 
Q 19.28125 33.59375 26.515625 31.984375 
L 29.59375 31.296875 
Q 39.15625 29.25 43.1875 25.515625 
Q 47.21875 21.78125 47.21875 15.09375 
Q 47.21875 7.46875 41.1875 3.015625 
Q 35.15625 -1.421875 24.609375 -1.421875 
Q 20.21875 -1.421875 15.453125 -0.5625 
Q 10.6875 0.296875 5.421875 2 
L 5.421875 11.28125 
Q 10.40625 8.6875 15.234375 7.390625 
Q 20.0625 6.109375 24.8125 6.109375 
Q 31.15625 6.109375 34.5625 8.28125 
Q 37.984375 10.453125 37.984375 14.40625 
Q 37.984375 18.0625 35.515625 20.015625 
Q 33.0625 21.96875 24.703125 23.78125 
L 21.578125 24.515625 
Q 13.234375 26.265625 9.515625 29.90625 
Q 5.8125 33.546875 5.8125 39.890625 
Q 5.8125 47.609375 11.28125 51.796875 
Q 16.75 56 26.8125 56 
Q 31.78125 56 36.171875 55.265625 
Q 40.578125 54.546875 44.28125 53.078125 
z
" id="DejaVuSans-73"/>
     </defs>
     <g transform="translate(216.4 321.332812)scale(0.22 -0.22)">
      <use xlink:href="#DejaVuSans-72"/>
      <use x="41.113281" xlink:href="#DejaVuSans-61"/>
      <use x="102.392578" xlink:href="#DejaVuSans-74"/>
      <use x="141.601562" xlink:href="#DejaVuSans-69"/>
      <use x="169.384766" xlink:href="#DejaVuSans-6f"/>
      <use x="230.566406" xlink:href="#DejaVuSans-6e"/>
      <use x="293.945312" xlink:href="#DejaVuSans-61"/>
      <use x="355.224609" xlink:href="#DejaVuSans-6c"/>
      <use x="383.007812" xlink:href="#DejaVuSans-20"/>
      <use x="414.794922" xlink:href="#DejaVuSans-2b"/>
      <use x="498.583984" xlink:href="#DejaVuSans-20"/>
      <use x="530.371094" xlink:href="#DejaVuSans-61"/>
      <use x="591.650391" xlink:href="#DejaVuSans-6c"/>
      <use x="619.433594" xlink:href="#DejaVuSans-6c"/>
      <use x="647.216797" xlink:href="#DejaVuSans-20"/>
      <use x="679.003906" xlink:href="#DejaVuSans-66"/>
      <use x="714.208984" xlink:href="#DejaVuSans-69"/>
      <use x="741.992188" xlink:href="#DejaVuSans-6c"/>
      <use x="769.775391" xlink:href="#DejaVuSans-6c"/>
      <use x="797.558594" xlink:href="#DejaVuSans-65"/>
      <use x="859.082031" xlink:href="#DejaVuSans-72"/>
      <use x="900.195312" xlink:href="#DejaVuSans-73"/>
     </g>
    </g>
    <g id="line2d_55">
     <path d="M 154.8 345.924688 
L 198.8 345.924688 
" style="fill:none;stroke:#fa8072;stroke-dasharray:2.96,1.28;stroke-dashoffset:0;stroke-width:0.8;"/>
    </g>
    <g id="line2d_56"/>
    <g id="text_16">
     <!-- pr matching + all fillers -->
     <defs>
      <path d="M 18.109375 8.203125 
L 18.109375 -20.796875 
L 9.078125 -20.796875 
L 9.078125 54.6875 
L 18.109375 54.6875 
L 18.109375 46.390625 
Q 20.953125 51.265625 25.265625 53.625 
Q 29.59375 56 35.59375 56 
Q 45.5625 56 51.78125 48.09375 
Q 58.015625 40.1875 58.015625 27.296875 
Q 58.015625 14.40625 51.78125 6.484375 
Q 45.5625 -1.421875 35.59375 -1.421875 
Q 29.59375 -1.421875 25.265625 0.953125 
Q 20.953125 3.328125 18.109375 8.203125 
z
M 48.6875 27.296875 
Q 48.6875 37.203125 44.609375 42.84375 
Q 40.53125 48.484375 33.40625 48.484375 
Q 26.265625 48.484375 22.1875 42.84375 
Q 18.109375 37.203125 18.109375 27.296875 
Q 18.109375 17.390625 22.1875 11.75 
Q 26.265625 6.109375 33.40625 6.109375 
Q 40.53125 6.109375 44.609375 11.75 
Q 48.6875 17.390625 48.6875 27.296875 
z
" id="DejaVuSans-70"/>
      <path d="M 52 44.1875 
Q 55.375 50.25 60.0625 53.125 
Q 64.75 56 71.09375 56 
Q 79.640625 56 84.28125 50.015625 
Q 88.921875 44.046875 88.921875 33.015625 
L 88.921875 0 
L 79.890625 0 
L 79.890625 32.71875 
Q 79.890625 40.578125 77.09375 44.375 
Q 74.3125 48.1875 68.609375 48.1875 
Q 61.625 48.1875 57.5625 43.546875 
Q 53.515625 38.921875 53.515625 30.90625 
L 53.515625 0 
L 44.484375 0 
L 44.484375 32.71875 
Q 44.484375 40.625 41.703125 44.40625 
Q 38.921875 48.1875 33.109375 48.1875 
Q 26.21875 48.1875 22.15625 43.53125 
Q 18.109375 38.875 18.109375 30.90625 
L 18.109375 0 
L 9.078125 0 
L 9.078125 54.6875 
L 18.109375 54.6875 
L 18.109375 46.1875 
Q 21.1875 51.21875 25.484375 53.609375 
Q 29.78125 56 35.6875 56 
Q 41.65625 56 45.828125 52.96875 
Q 50 49.953125 52 44.1875 
z
" id="DejaVuSans-6d"/>
      <path d="M 48.78125 52.59375 
L 48.78125 44.1875 
Q 44.96875 46.296875 41.140625 47.34375 
Q 37.3125 48.390625 33.40625 48.390625 
Q 24.65625 48.390625 19.8125 42.84375 
Q 14.984375 37.3125 14.984375 27.296875 
Q 14.984375 17.28125 19.8125 11.734375 
Q 24.65625 6.203125 33.40625 6.203125 
Q 37.3125 6.203125 41.140625 7.25 
Q 44.96875 8.296875 48.78125 10.40625 
L 48.78125 2.09375 
Q 45.015625 0.34375 40.984375 -0.53125 
Q 36.96875 -1.421875 32.421875 -1.421875 
Q 20.0625 -1.421875 12.78125 6.34375 
Q 5.515625 14.109375 5.515625 27.296875 
Q 5.515625 40.671875 12.859375 48.328125 
Q 20.21875 56 33.015625 56 
Q 37.15625 56 41.109375 55.140625 
Q 45.0625 54.296875 48.78125 52.59375 
z
" id="DejaVuSans-63"/>
      <path d="M 54.890625 33.015625 
L 54.890625 0 
L 45.90625 0 
L 45.90625 32.71875 
Q 45.90625 40.484375 42.875 44.328125 
Q 39.84375 48.1875 33.796875 48.1875 
Q 26.515625 48.1875 22.3125 43.546875 
Q 18.109375 38.921875 18.109375 30.90625 
L 18.109375 0 
L 9.078125 0 
L 9.078125 75.984375 
L 18.109375 75.984375 
L 18.109375 46.1875 
Q 21.34375 51.125 25.703125 53.5625 
Q 30.078125 56 35.796875 56 
Q 45.21875 56 50.046875 50.171875 
Q 54.890625 44.34375 54.890625 33.015625 
z
" id="DejaVuSans-68"/>
      <path d="M 45.40625 27.984375 
Q 45.40625 37.75 41.375 43.109375 
Q 37.359375 48.484375 30.078125 48.484375 
Q 22.859375 48.484375 18.828125 43.109375 
Q 14.796875 37.75 14.796875 27.984375 
Q 14.796875 18.265625 18.828125 12.890625 
Q 22.859375 7.515625 30.078125 7.515625 
Q 37.359375 7.515625 41.375 12.890625 
Q 45.40625 18.265625 45.40625 27.984375 
z
M 54.390625 6.78125 
Q 54.390625 -7.171875 48.1875 -13.984375 
Q 42 -20.796875 29.203125 -20.796875 
Q 24.46875 -20.796875 20.265625 -20.09375 
Q 16.0625 -19.390625 12.109375 -17.921875 
L 12.109375 -9.1875 
Q 16.0625 -11.328125 19.921875 -12.34375 
Q 23.78125 -13.375 27.78125 -13.375 
Q 36.625 -13.375 41.015625 -8.765625 
Q 45.40625 -4.15625 45.40625 5.171875 
L 45.40625 9.625 
Q 42.625 4.78125 38.28125 2.390625 
Q 33.9375 0 27.875 0 
Q 17.828125 0 11.671875 7.65625 
Q 5.515625 15.328125 5.515625 27.984375 
Q 5.515625 40.671875 11.671875 48.328125 
Q 17.828125 56 27.875 56 
Q 33.9375 56 38.28125 53.609375 
Q 42.625 51.21875 45.40625 46.390625 
L 45.40625 54.6875 
L 54.390625 54.6875 
z
" id="DejaVuSans-67"/>
     </defs>
     <g transform="translate(216.4 353.624687)scale(0.22 -0.22)">
      <use xlink:href="#DejaVuSans-70"/>
      <use x="63.476562" xlink:href="#DejaVuSans-72"/>
      <use x="104.589844" xlink:href="#DejaVuSans-20"/>
      <use x="136.376953" xlink:href="#DejaVuSans-6d"/>
      <use x="233.789062" xlink:href="#DejaVuSans-61"/>
      <use x="295.068359" xlink:href="#DejaVuSans-74"/>
      <use x="334.277344" xlink:href="#DejaVuSans-63"/>
      <use x="389.257812" xlink:href="#DejaVuSans-68"/>
      <use x="452.636719" xlink:href="#DejaVuSans-69"/>
      <use x="480.419922" xlink:href="#DejaVuSans-6e"/>
      <use x="543.798828" xlink:href="#DejaVuSans-67"/>
      <use x="607.275391" xlink:href="#DejaVuSans-20"/>
      <use x="639.0625" xlink:href="#DejaVuSans-2b"/>
      <use x="722.851562" xlink:href="#DejaVuSans-20"/>
      <use x="754.638672" xlink:href="#DejaVuSans-61"/>
      <use x="815.917969" xlink:href="#DejaVuSans-6c"/>
      <use x="843.701172" xlink:href="#DejaVuSans-6c"/>
      <use x="871.484375" xlink:href="#DejaVuSans-20"/>
      <use x="903.271484" xlink:href="#DejaVuSans-66"/>
      <use x="938.476562" xlink:href="#DejaVuSans-69"/>
      <use x="966.259766" xlink:href="#DejaVuSans-6c"/>
      <use x="994.042969" xlink:href="#DejaVuSans-6c"/>
      <use x="1021.826172" xlink:href="#DejaVuSans-65"/>
      <use x="1083.349609" xlink:href="#DejaVuSans-72"/>
      <use x="1124.462891" xlink:href="#DejaVuSans-73"/>
     </g>
    </g>
   </g>
  </g>
 </g>
 <defs>
  <clipPath id="pe67c54638c">
   <rect height="326.16" width="837" x="135" y="51.84"/>
  </clipPath>
 </defs>
</svg>
