<?xml version="1.0" encoding="utf-8" standalone="no"?>
<!DOCTYPE svg PUBLIC "-//W3C//DTD SVG 1.1//EN"
  "http://www.w3.org/Graphics/SVG/1.1/DTD/svg11.dtd">
<!-- Created with matplotlib (http://matplotlib.org/) -->
<svg height="432pt" version="1.1" viewBox="0 0 1080 432" width="1080pt" xmlns="http://www.w3.org/2000/svg" xmlns:xlink="http://www.w3.org/1999/xlink">
 <defs>
  <style type="text/css">
*{stroke-linecap:butt;stroke-linejoin:round;}
  </style>
 </defs>
 <g id="figure_1">
  <g id="patch_1">
   <path d="M 0 432 
L 1080 432 
L 1080 0 
L 0 0 
z
" style="fill:#ffffff;"/>
  </g>
  <g id="axes_1">
   <g id="patch_2">
    <path d="M 135 378 
L 972 378 
L 972 51.84 
L 135 51.84 
z
" style="fill:#ffffff;"/>
   </g>
   <g id="matplotlib.axis_1">
    <g id="xtick_1">
     <g id="line2d_1">
      <path clip-path="url(#pe7070c0e28)" d="M 135 378 
L 135 51.84 
" style="fill:none;stroke:#b0b0b0;stroke-linecap:square;stroke-width:0.8;"/>
     </g>
     <g id="line2d_2">
      <defs>
       <path d="M 0 0 
L 0 3.5 
" id="m757cbb88f3" style="stroke:#000000;stroke-width:0.8;"/>
      </defs>
      <g>
       <use style="stroke:#000000;stroke-width:0.8;" x="135" xlink:href="#m757cbb88f3" y="378"/>
      </g>
     </g>
     <g id="text_1">
      <!-- 0 -->
      <defs>
       <path d="M 31.78125 66.40625 
Q 24.171875 66.40625 20.328125 58.90625 
Q 16.5 51.421875 16.5 36.375 
Q 16.5 21.390625 20.328125 13.890625 
Q 24.171875 6.390625 31.78125 6.390625 
Q 39.453125 6.390625 43.28125 13.890625 
Q 47.125 21.390625 47.125 36.375 
Q 47.125 51.421875 43.28125 58.90625 
Q 39.453125 66.40625 31.78125 66.40625 
z
M 31.78125 74.21875 
Q 44.046875 74.21875 50.515625 64.515625 
Q 56.984375 54.828125 56.984375 36.375 
Q 56.984375 17.96875 50.515625 8.265625 
Q 44.046875 -1.421875 31.78125 -1.421875 
Q 19.53125 -1.421875 13.0625 8.265625 
Q 6.59375 17.96875 6.59375 36.375 
Q 6.59375 54.828125 13.0625 64.515625 
Q 19.53125 74.21875 31.78125 74.21875 
z
" id="DejaVuSans-30"/>
      </defs>
      <g transform="translate(128.00125 401.716563)scale(0.22 -0.22)">
       <use xlink:href="#DejaVuSans-30"/>
      </g>
     </g>
    </g>
    <g id="xtick_2">
     <g id="line2d_3">
      <path clip-path="url(#pe7070c0e28)" d="M 302.4 378 
L 302.4 51.84 
" style="fill:none;stroke:#b0b0b0;stroke-linecap:square;stroke-width:0.8;"/>
     </g>
     <g id="line2d_4">
      <g>
       <use style="stroke:#000000;stroke-width:0.8;" x="302.4" xlink:href="#m757cbb88f3" y="378"/>
      </g>
     </g>
     <g id="text_2">
      <!-- 2000 -->
      <defs>
       <path d="M 19.1875 8.296875 
L 53.609375 8.296875 
L 53.609375 0 
L 7.328125 0 
L 7.328125 8.296875 
Q 12.9375 14.109375 22.625 23.890625 
Q 32.328125 33.6875 34.8125 36.53125 
Q 39.546875 41.84375 41.421875 45.53125 
Q 43.3125 49.21875 43.3125 52.78125 
Q 43.3125 58.59375 39.234375 62.25 
Q 35.15625 65.921875 28.609375 65.921875 
Q 23.96875 65.921875 18.8125 64.3125 
Q 13.671875 62.703125 7.8125 59.421875 
L 7.8125 69.390625 
Q 13.765625 71.78125 18.9375 73 
Q 24.125 74.21875 28.421875 74.21875 
Q 39.75 74.21875 46.484375 68.546875 
Q 53.21875 62.890625 53.21875 53.421875 
Q 53.21875 48.921875 51.53125 44.890625 
Q 49.859375 40.875 45.40625 35.40625 
Q 44.1875 33.984375 37.640625 27.21875 
Q 31.109375 20.453125 19.1875 8.296875 
z
" id="DejaVuSans-32"/>
      </defs>
      <g transform="translate(274.405 401.716563)scale(0.22 -0.22)">
       <use xlink:href="#DejaVuSans-32"/>
       <use x="63.623047" xlink:href="#DejaVuSans-30"/>
       <use x="127.246094" xlink:href="#DejaVuSans-30"/>
       <use x="190.869141" xlink:href="#DejaVuSans-30"/>
      </g>
     </g>
    </g>
    <g id="xtick_3">
     <g id="line2d_5">
      <path clip-path="url(#pe7070c0e28)" d="M 469.8 378 
L 469.8 51.84 
" style="fill:none;stroke:#b0b0b0;stroke-linecap:square;stroke-width:0.8;"/>
     </g>
     <g id="line2d_6">
      <g>
       <use style="stroke:#000000;stroke-width:0.8;" x="469.8" xlink:href="#m757cbb88f3" y="378"/>
      </g>
     </g>
     <g id="text_3">
      <!-- 4000 -->
      <defs>
       <path d="M 37.796875 64.3125 
L 12.890625 25.390625 
L 37.796875 25.390625 
z
M 35.203125 72.90625 
L 47.609375 72.90625 
L 47.609375 25.390625 
L 58.015625 25.390625 
L 58.015625 17.1875 
L 47.609375 17.1875 
L 47.609375 0 
L 37.796875 0 
L 37.796875 17.1875 
L 4.890625 17.1875 
L 4.890625 26.703125 
z
" id="DejaVuSans-34"/>
      </defs>
      <g transform="translate(441.805 401.716563)scale(0.22 -0.22)">
       <use xlink:href="#DejaVuSans-34"/>
       <use x="63.623047" xlink:href="#DejaVuSans-30"/>
       <use x="127.246094" xlink:href="#DejaVuSans-30"/>
       <use x="190.869141" xlink:href="#DejaVuSans-30"/>
      </g>
     </g>
    </g>
    <g id="xtick_4">
     <g id="line2d_7">
      <path clip-path="url(#pe7070c0e28)" d="M 637.2 378 
L 637.2 51.84 
" style="fill:none;stroke:#b0b0b0;stroke-linecap:square;stroke-width:0.8;"/>
     </g>
     <g id="line2d_8">
      <g>
       <use style="stroke:#000000;stroke-width:0.8;" x="637.2" xlink:href="#m757cbb88f3" y="378"/>
      </g>
     </g>
     <g id="text_4">
      <!-- 6000 -->
      <defs>
       <path d="M 33.015625 40.375 
Q 26.375 40.375 22.484375 35.828125 
Q 18.609375 31.296875 18.609375 23.390625 
Q 18.609375 15.53125 22.484375 10.953125 
Q 26.375 6.390625 33.015625 6.390625 
Q 39.65625 6.390625 43.53125 10.953125 
Q 47.40625 15.53125 47.40625 23.390625 
Q 47.40625 31.296875 43.53125 35.828125 
Q 39.65625 40.375 33.015625 40.375 
z
M 52.59375 71.296875 
L 52.59375 62.3125 
Q 48.875 64.0625 45.09375 64.984375 
Q 41.3125 65.921875 37.59375 65.921875 
Q 27.828125 65.921875 22.671875 59.328125 
Q 17.53125 52.734375 16.796875 39.40625 
Q 19.671875 43.65625 24.015625 45.921875 
Q 28.375 48.1875 33.59375 48.1875 
Q 44.578125 48.1875 50.953125 41.515625 
Q 57.328125 34.859375 57.328125 23.390625 
Q 57.328125 12.15625 50.6875 5.359375 
Q 44.046875 -1.421875 33.015625 -1.421875 
Q 20.359375 -1.421875 13.671875 8.265625 
Q 6.984375 17.96875 6.984375 36.375 
Q 6.984375 53.65625 15.1875 63.9375 
Q 23.390625 74.21875 37.203125 74.21875 
Q 40.921875 74.21875 44.703125 73.484375 
Q 48.484375 72.75 52.59375 71.296875 
z
" id="DejaVuSans-36"/>
      </defs>
      <g transform="translate(609.205 401.716563)scale(0.22 -0.22)">
       <use xlink:href="#DejaVuSans-36"/>
       <use x="63.623047" xlink:href="#DejaVuSans-30"/>
       <use x="127.246094" xlink:href="#DejaVuSans-30"/>
       <use x="190.869141" xlink:href="#DejaVuSans-30"/>
      </g>
     </g>
    </g>
    <g id="xtick_5">
     <g id="line2d_9">
      <path clip-path="url(#pe7070c0e28)" d="M 804.6 378 
L 804.6 51.84 
" style="fill:none;stroke:#b0b0b0;stroke-linecap:square;stroke-width:0.8;"/>
     </g>
     <g id="line2d_10">
      <g>
       <use style="stroke:#000000;stroke-width:0.8;" x="804.6" xlink:href="#m757cbb88f3" y="378"/>
      </g>
     </g>
     <g id="text_5">
      <!-- 8000 -->
      <defs>
       <path d="M 31.78125 34.625 
Q 24.75 34.625 20.71875 30.859375 
Q 16.703125 27.09375 16.703125 20.515625 
Q 16.703125 13.921875 20.71875 10.15625 
Q 24.75 6.390625 31.78125 6.390625 
Q 38.8125 6.390625 42.859375 10.171875 
Q 46.921875 13.96875 46.921875 20.515625 
Q 46.921875 27.09375 42.890625 30.859375 
Q 38.875 34.625 31.78125 34.625 
z
M 21.921875 38.8125 
Q 15.578125 40.375 12.03125 44.71875 
Q 8.5 49.078125 8.5 55.328125 
Q 8.5 64.0625 14.71875 69.140625 
Q 20.953125 74.21875 31.78125 74.21875 
Q 42.671875 74.21875 48.875 69.140625 
Q 55.078125 64.0625 55.078125 55.328125 
Q 55.078125 49.078125 51.53125 44.71875 
Q 48 40.375 41.703125 38.8125 
Q 48.828125 37.15625 52.796875 32.3125 
Q 56.78125 27.484375 56.78125 20.515625 
Q 56.78125 9.90625 50.3125 4.234375 
Q 43.84375 -1.421875 31.78125 -1.421875 
Q 19.734375 -1.421875 13.25 4.234375 
Q 6.78125 9.90625 6.78125 20.515625 
Q 6.78125 27.484375 10.78125 32.3125 
Q 14.796875 37.15625 21.921875 38.8125 
z
M 18.3125 54.390625 
Q 18.3125 48.734375 21.84375 45.5625 
Q 25.390625 42.390625 31.78125 42.390625 
Q 38.140625 42.390625 41.71875 45.5625 
Q 45.3125 48.734375 45.3125 54.390625 
Q 45.3125 60.0625 41.71875 63.234375 
Q 38.140625 66.40625 31.78125 66.40625 
Q 25.390625 66.40625 21.84375 63.234375 
Q 18.3125 60.0625 18.3125 54.390625 
z
" id="DejaVuSans-38"/>
      </defs>
      <g transform="translate(776.605 401.716563)scale(0.22 -0.22)">
       <use xlink:href="#DejaVuSans-38"/>
       <use x="63.623047" xlink:href="#DejaVuSans-30"/>
       <use x="127.246094" xlink:href="#DejaVuSans-30"/>
       <use x="190.869141" xlink:href="#DejaVuSans-30"/>
      </g>
     </g>
    </g>
    <g id="xtick_6">
     <g id="line2d_11">
      <path clip-path="url(#pe7070c0e28)" d="M 972 378 
L 972 51.84 
" style="fill:none;stroke:#b0b0b0;stroke-linecap:square;stroke-width:0.8;"/>
     </g>
     <g id="line2d_12">
      <g>
       <use style="stroke:#000000;stroke-width:0.8;" x="972" xlink:href="#m757cbb88f3" y="378"/>
      </g>
     </g>
     <g id="text_6">
      <!-- 10000 -->
      <defs>
       <path d="M 12.40625 8.296875 
L 28.515625 8.296875 
L 28.515625 63.921875 
L 10.984375 60.40625 
L 10.984375 69.390625 
L 28.421875 72.90625 
L 38.28125 72.90625 
L 38.28125 8.296875 
L 54.390625 8.296875 
L 54.390625 0 
L 12.40625 0 
z
" id="DejaVuSans-31"/>
      </defs>
      <g transform="translate(937.00625 401.716563)scale(0.22 -0.22)">
       <use xlink:href="#DejaVuSans-31"/>
       <use x="63.623047" xlink:href="#DejaVuSans-30"/>
       <use x="127.246094" xlink:href="#DejaVuSans-30"/>
       <use x="190.869141" xlink:href="#DejaVuSans-30"/>
       <use x="254.492188" xlink:href="#DejaVuSans-30"/>
      </g>
     </g>
    </g>
   </g>
   <g id="matplotlib.axis_2">
    <g id="ytick_1">
     <g id="line2d_13">
      <path clip-path="url(#pe7070c0e28)" d="M 135 378 
L 972 378 
" style="fill:none;stroke:#b0b0b0;stroke-linecap:square;stroke-width:0.8;"/>
     </g>
     <g id="line2d_14">
      <defs>
       <path d="M 0 0 
L -3.5 0 
" id="me898a6420d" style="stroke:#000000;stroke-width:0.8;"/>
      </defs>
      <g>
       <use style="stroke:#000000;stroke-width:0.8;" x="135" xlink:href="#me898a6420d" y="378"/>
      </g>
     </g>
     <g id="text_7">
      <!-- 0.000 -->
      <defs>
       <path d="M 10.6875 12.40625 
L 21 12.40625 
L 21 0 
L 10.6875 0 
z
" id="DejaVuSans-2e"/>
      </defs>
      <g transform="translate(65.018125 386.358281)scale(0.22 -0.22)">
       <use xlink:href="#DejaVuSans-30"/>
       <use x="63.623047" xlink:href="#DejaVuSans-2e"/>
       <use x="95.410156" xlink:href="#DejaVuSans-30"/>
       <use x="159.033203" xlink:href="#DejaVuSans-30"/>
       <use x="222.65625" xlink:href="#DejaVuSans-30"/>
      </g>
     </g>
    </g>
    <g id="ytick_2">
     <g id="line2d_15">
      <path clip-path="url(#pe7070c0e28)" d="M 135 322.009718 
L 972 322.009718 
" style="fill:none;stroke:#b0b0b0;stroke-linecap:square;stroke-width:0.8;"/>
     </g>
     <g id="line2d_16">
      <g>
       <use style="stroke:#000000;stroke-width:0.8;" x="135" xlink:href="#me898a6420d" y="322.009718"/>
      </g>
     </g>
     <g id="text_8">
      <!-- 0.005 -->
      <defs>
       <path d="M 10.796875 72.90625 
L 49.515625 72.90625 
L 49.515625 64.59375 
L 19.828125 64.59375 
L 19.828125 46.734375 
Q 21.96875 47.46875 24.109375 47.828125 
Q 26.265625 48.1875 28.421875 48.1875 
Q 40.625 48.1875 47.75 41.5 
Q 54.890625 34.8125 54.890625 23.390625 
Q 54.890625 11.625 47.5625 5.09375 
Q 40.234375 -1.421875 26.90625 -1.421875 
Q 22.3125 -1.421875 17.546875 -0.640625 
Q 12.796875 0.140625 7.71875 1.703125 
L 7.71875 11.625 
Q 12.109375 9.234375 16.796875 8.0625 
Q 21.484375 6.890625 26.703125 6.890625 
Q 35.15625 6.890625 40.078125 11.328125 
Q 45.015625 15.765625 45.015625 23.390625 
Q 45.015625 31 40.078125 35.4375 
Q 35.15625 39.890625 26.703125 39.890625 
Q 22.75 39.890625 18.8125 39.015625 
Q 14.890625 38.140625 10.796875 36.28125 
z
" id="DejaVuSans-35"/>
      </defs>
      <g transform="translate(65.018125 330.368)scale(0.22 -0.22)">
       <use xlink:href="#DejaVuSans-30"/>
       <use x="63.623047" xlink:href="#DejaVuSans-2e"/>
       <use x="95.410156" xlink:href="#DejaVuSans-30"/>
       <use x="159.033203" xlink:href="#DejaVuSans-30"/>
       <use x="222.65625" xlink:href="#DejaVuSans-35"/>
      </g>
     </g>
    </g>
    <g id="ytick_3">
     <g id="line2d_17">
      <path clip-path="url(#pe7070c0e28)" d="M 135 266.019437 
L 972 266.019437 
" style="fill:none;stroke:#b0b0b0;stroke-linecap:square;stroke-width:0.8;"/>
     </g>
     <g id="line2d_18">
      <g>
       <use style="stroke:#000000;stroke-width:0.8;" x="135" xlink:href="#me898a6420d" y="266.019437"/>
      </g>
     </g>
     <g id="text_9">
      <!-- 0.010 -->
      <g transform="translate(65.018125 274.377718)scale(0.22 -0.22)">
       <use xlink:href="#DejaVuSans-30"/>
       <use x="63.623047" xlink:href="#DejaVuSans-2e"/>
       <use x="95.410156" xlink:href="#DejaVuSans-30"/>
       <use x="159.033203" xlink:href="#DejaVuSans-31"/>
       <use x="222.65625" xlink:href="#DejaVuSans-30"/>
      </g>
     </g>
    </g>
    <g id="ytick_4">
     <g id="line2d_19">
      <path clip-path="url(#pe7070c0e28)" d="M 135 210.029155 
L 972 210.029155 
" style="fill:none;stroke:#b0b0b0;stroke-linecap:square;stroke-width:0.8;"/>
     </g>
     <g id="line2d_20">
      <g>
       <use style="stroke:#000000;stroke-width:0.8;" x="135" xlink:href="#me898a6420d" y="210.029155"/>
      </g>
     </g>
     <g id="text_10">
      <!-- 0.015 -->
      <g transform="translate(65.018125 218.387436)scale(0.22 -0.22)">
       <use xlink:href="#DejaVuSans-30"/>
       <use x="63.623047" xlink:href="#DejaVuSans-2e"/>
       <use x="95.410156" xlink:href="#DejaVuSans-30"/>
       <use x="159.033203" xlink:href="#DejaVuSans-31"/>
       <use x="222.65625" xlink:href="#DejaVuSans-35"/>
      </g>
     </g>
    </g>
    <g id="ytick_5">
     <g id="line2d_21">
      <path clip-path="url(#pe7070c0e28)" d="M 135 154.038873 
L 972 154.038873 
" style="fill:none;stroke:#b0b0b0;stroke-linecap:square;stroke-width:0.8;"/>
     </g>
     <g id="line2d_22">
      <g>
       <use style="stroke:#000000;stroke-width:0.8;" x="135" xlink:href="#me898a6420d" y="154.038873"/>
      </g>
     </g>
     <g id="text_11">
      <!-- 0.020 -->
      <g transform="translate(65.018125 162.397155)scale(0.22 -0.22)">
       <use xlink:href="#DejaVuSans-30"/>
       <use x="63.623047" xlink:href="#DejaVuSans-2e"/>
       <use x="95.410156" xlink:href="#DejaVuSans-30"/>
       <use x="159.033203" xlink:href="#DejaVuSans-32"/>
       <use x="222.65625" xlink:href="#DejaVuSans-30"/>
      </g>
     </g>
    </g>
    <g id="ytick_6">
     <g id="line2d_23">
      <path clip-path="url(#pe7070c0e28)" d="M 135 98.048592 
L 972 98.048592 
" style="fill:none;stroke:#b0b0b0;stroke-linecap:square;stroke-width:0.8;"/>
     </g>
     <g id="line2d_24">
      <g>
       <use style="stroke:#000000;stroke-width:0.8;" x="135" xlink:href="#me898a6420d" y="98.048592"/>
      </g>
     </g>
     <g id="text_12">
      <!-- 0.025 -->
      <g transform="translate(65.018125 106.406873)scale(0.22 -0.22)">
       <use xlink:href="#DejaVuSans-30"/>
       <use x="63.623047" xlink:href="#DejaVuSans-2e"/>
       <use x="95.410156" xlink:href="#DejaVuSans-30"/>
       <use x="159.033203" xlink:href="#DejaVuSans-32"/>
       <use x="222.65625" xlink:href="#DejaVuSans-35"/>
      </g>
     </g>
    </g>
   </g>
   <g id="line2d_25">
    <path clip-path="url(#pe7070c0e28)" d="M 135 181.48497 
L 137.594008 185.52982 
L 140.188017 182.670349 
L 142.782025 193.781185 
L 145.376033 155.462282 
L 147.970041 200.834319 
L 150.56405 190.370677 
L 153.158058 181.369022 
L 155.752066 175.477566 
L 158.346074 192.35966 
L 160.940083 167.789744 
L 163.534091 163.098327 
L 166.128099 181.859546 
L 168.722107 165.820269 
L 171.316116 179.20039 
L 173.910124 171.551837 
L 176.504132 152.625495 
L 179.09814 181.241311 
L 181.692149 193.673142 
L 184.286157 211.695942 
L 186.880165 191.926801 
L 189.474174 202.779912 
L 192.068182 220.949373 
L 194.66219 209.996731 
L 197.256198 197.372539 
L 199.850207 223.701141 
L 202.444215 239.507579 
L 205.038223 276.141859 
L 207.632231 268.537061 
L 210.22624 229.960077 
L 212.820248 220.886542 
L 215.414256 210.363869 
L 218.008264 227.512733 
L 220.602273 245.743153 
L 223.196281 227.122117 
L 225.790289 225.722995 
L 228.384298 209.737338 
L 230.978306 185.195798 
L 233.572314 207.545672 
L 236.166322 179.890209 
L 238.760331 172.769807 
L 241.354339 169.904415 
L 243.948347 149.526906 
L 246.542355 158.174357 
L 249.136364 153.609887 
L 251.730372 149.719439 
L 254.32438 153.015158 
L 256.918388 160.704221 
L 259.512397 158.818215 
L 262.106405 176.499047 
L 264.700413 181.623621 
L 267.294421 178.073189 
L 269.88843 181.759579 
L 272.482438 167.349807 
L 275.076446 167.500803 
L 277.670455 169.169462 
L 280.264463 171.982869 
L 282.858471 154.659385 
L 285.452479 132.168981 
L 290.640496 149.152978 
L 293.234504 151.584184 
L 295.828512 130.159668 
L 298.422521 129.739203 
L 301.016529 127.904114 
L 303.610537 132.829993 
L 306.204545 144.754971 
L 308.798554 149.531778 
L 311.392562 139.406901 
L 313.98657 145.273611 
L 316.580579 151.808547 
L 321.768595 187.489194 
L 324.362603 203.032598 
L 326.956612 212.66032 
L 329.55062 206.220284 
L 332.144628 199.034079 
L 334.738636 203.905675 
L 337.332645 221.692025 
L 339.926653 211.585543 
L 342.520661 203.97436 
L 345.114669 188.977399 
L 347.708678 189.060141 
L 350.302686 196.53083 
L 352.896694 195.460592 
L 355.490702 187.859231 
L 360.678719 162.119776 
L 363.272727 159.609598 
L 365.866736 155.512837 
L 368.460744 144.555675 
L 371.054752 140.830288 
L 373.64876 129.046394 
L 376.242769 112.218775 
L 378.836777 116.504806 
L 381.430785 113.774839 
L 384.024793 127.225721 
L 386.618802 111.280926 
L 389.21281 111.086664 
L 391.806818 97.423433 
L 394.400826 103.175574 
L 396.994835 112.696801 
L 399.588843 123.352431 
L 402.182851 137.583648 
L 404.77686 132.792712 
L 407.370868 146.686853 
L 409.964876 154.395776 
L 412.558884 159.091635 
L 415.152893 147.38224 
L 417.746901 144.905116 
L 420.340909 138.28254 
L 422.934917 134.137609 
L 425.528926 140.282302 
L 428.122934 156.267721 
L 430.716942 160.295697 
L 433.31095 150.326948 
L 435.904959 141.819581 
L 438.498967 154.417827 
L 441.092975 151.167911 
L 443.686983 149.672161 
L 446.280992 139.001747 
L 448.875 128.882081 
L 451.469008 132.32107 
L 454.063017 145.929787 
L 456.657025 145.161399 
L 459.251033 141.768349 
L 461.845041 148.894224 
L 464.43905 142.279869 
L 467.033058 148.226676 
L 469.627066 158.004431 
L 472.221074 148.873781 
L 474.815083 127.65665 
L 477.409091 133.27846 
L 480.003099 128.894851 
L 482.597107 134.171395 
L 485.191116 134.445468 
L 487.785124 135.975579 
L 490.379132 130.715537 
L 492.97314 134.223122 
L 495.567149 139.317393 
L 498.161157 141.270153 
L 500.755165 142.896881 
L 503.349174 152.215605 
L 505.943182 153.370802 
L 508.53719 159.235395 
L 511.131198 154.488384 
L 513.725207 171.08003 
L 516.319215 157.616661 
L 518.913223 156.601111 
L 521.507231 154.365183 
L 524.10124 156.485512 
L 526.695248 165.579439 
L 529.289256 165.233113 
L 531.883264 156.493087 
L 537.071281 146.789128 
L 539.665289 150.006855 
L 544.853306 140.363153 
L 547.447314 131.04734 
L 550.041322 145.45024 
L 552.635331 144.192394 
L 555.229339 138.285692 
L 557.823347 130.902525 
L 560.417355 140.947463 
L 563.011364 138.644016 
L 565.605372 131.51882 
L 568.19938 128.279717 
L 570.793388 135.144776 
L 573.387397 142.704539 
L 575.981405 145.909536 
L 578.575413 133.650061 
L 581.169421 133.710599 
L 583.76343 148.672037 
L 586.357438 159.76682 
L 588.951446 139.261173 
L 591.545455 149.238875 
L 594.139463 147.952405 
L 596.733471 139.570586 
L 599.327479 125.708266 
L 601.921488 138.977131 
L 607.109504 159.960464 
L 609.703512 151.942228 
L 612.297521 163.045214 
L 614.891529 155.081428 
L 617.485537 166.42335 
L 620.079545 165.437857 
L 622.673554 156.394148 
L 625.267562 152.628417 
L 627.86157 152.559534 
L 630.455579 156.34811 
L 633.049587 166.146587 
L 635.643595 174.556417 
L 638.237603 187.343306 
L 640.831612 172.007168 
L 643.42562 163.772144 
L 646.019628 158.493755 
L 648.613636 154.162047 
L 651.207645 146.638167 
L 653.801653 147.111071 
L 656.395661 140.750281 
L 658.989669 156.993105 
L 661.583678 159.281024 
L 664.177686 152.40902 
L 666.771694 159.988696 
L 669.365702 149.064689 
L 671.959711 150.328732 
L 674.553719 153.376733 
L 677.147727 137.438803 
L 679.741736 135.5616 
L 682.335744 140.983296 
L 684.929752 134.29273 
L 687.52376 133.05571 
L 690.117769 123.291767 
L 692.711777 120.288167 
L 695.305785 124.799175 
L 697.899793 113.893279 
L 700.493802 98.669345 
L 703.08781 101.285489 
L 708.275826 102.782655 
L 710.869835 86.821398 
L 713.463843 80.32683 
L 716.057851 88.163816 
L 718.65186 88.296469 
L 721.245868 89.83671 
L 723.839876 100.581283 
L 726.433884 107.89903 
L 729.027893 106.330881 
L 731.621901 105.597289 
L 734.215909 97.445603 
L 736.809917 103.027354 
L 739.403926 100.860936 
L 741.997934 105.830515 
L 744.591942 111.62278 
L 747.18595 110.263748 
L 749.779959 117.847287 
L 752.373967 116.89251 
L 754.967975 118.216675 
L 757.561983 120.990663 
L 760.155992 113.798942 
L 762.75 114.657609 
L 765.344008 114.71504 
L 767.938017 118.220878 
L 770.532025 122.536792 
L 773.126033 131.83568 
L 775.720041 125.504687 
L 778.31405 141.727258 
L 780.908058 145.593704 
L 783.502066 141.304861 
L 786.096074 142.902214 
L 788.690083 141.665787 
L 791.284091 147.814933 
L 793.878099 137.530659 
L 796.472107 138.430774 
L 799.066116 135.984784 
L 801.660124 118.146673 
L 804.254132 122.191009 
L 806.84814 121.455248 
L 809.442149 121.179634 
L 812.036157 117.257639 
L 814.630165 118.52856 
L 817.224174 107.629102 
L 819.818182 122.643307 
L 822.41219 123.68228 
L 825.006198 139.928037 
L 827.600207 137.223733 
L 830.194215 140.018212 
L 832.788223 143.305572 
L 835.382231 138.463044 
L 837.97624 139.970469 
L 840.570248 160.450773 
L 843.164256 160.451621 
L 845.758264 167.557774 
L 848.352273 178.264061 
L 850.946281 180.480683 
L 853.540289 183.116475 
L 856.134298 187.124091 
L 858.728306 164.938513 
L 861.322314 161.89831 
L 863.916322 156.083814 
L 866.510331 163.828137 
L 869.104339 170.001161 
L 871.698347 159.234974 
L 874.292355 154.216012 
L 876.886364 151.614926 
L 879.480372 143.22849 
L 884.668388 133.539139 
L 887.262397 115.208244 
L 889.856405 109.614438 
L 892.450413 108.049527 
L 895.044421 102.519886 
L 897.63843 101.163789 
L 900.232438 103.92159 
L 902.826446 96.852941 
L 905.420455 90.117288 
L 908.014463 80.496239 
L 910.608471 87.726065 
L 913.202479 98.355703 
L 915.796488 109.621024 
L 918.390496 110.301001 
L 920.984504 115.399554 
L 923.578512 111.955246 
L 926.172521 112.770041 
L 928.766529 111.885688 
L 931.360537 125.261923 
L 933.954545 132.903767 
L 936.548554 134.843558 
L 939.142562 131.196646 
L 941.73657 135.268126 
L 944.330579 133.866731 
L 946.924587 131.350871 
L 949.518595 128.163319 
L 952.112603 118.640707 
L 954.706612 106.653867 
L 957.30062 102.281562 
L 959.894628 101.591568 
L 962.488636 107.953999 
L 965.082645 120.274983 
L 967.676653 135.251634 
L 970.270661 129.417553 
L 972.864669 118.48594 
L 975.458678 121.208647 
L 978.052686 122.061394 
L 980.646694 120.732861 
L 983.240702 119.263532 
L 985.834711 115.708172 
L 991.022727 144.827704 
L 993.616736 147.493355 
L 996.210744 147.349906 
L 998.804752 149.419342 
L 1001.39876 138.297711 
L 1003.992769 123.606713 
L 1006.586777 121.609642 
L 1009.180785 118.600773 
L 1011.774793 124.561737 
L 1014.368802 125.878983 
L 1016.96281 124.045512 
L 1019.556818 121.485704 
L 1022.150826 127.017565 
L 1024.744835 130.721456 
L 1027.338843 125.047301 
L 1029.932851 115.83472 
L 1032.52686 121.094694 
L 1035.120868 126.892871 
L 1040.308884 132.002089 
L 1042.902893 143.936438 
L 1045.496901 134.055157 
L 1048.090909 127.648001 
L 1050.684917 117.853937 
L 1053.278926 128.061332 
L 1055.872934 125.906222 
L 1058.466942 121.411539 
L 1061.06095 115.009234 
L 1063.654959 121.697149 
L 1066.248967 110.796963 
L 1068.842975 108.089109 
L 1071.436983 111.212169 
L 1074.030992 106.894794 
L 1076.625 94.501996 
L 1079.219008 93.09042 
L 1081 89.125449 
L 1081 89.125449 
" style="fill:none;stroke:#008b8b;stroke-linecap:square;stroke-width:1.5;"/>
   </g>
   <g id="line2d_26">
    <path clip-path="url(#pe7070c0e28)" d="M 135 312.192561 
L 137.594008 306.239445 
L 140.188017 304.419809 
L 142.782025 307.415446 
L 145.376033 303.137511 
L 147.970041 287.387619 
L 150.56405 292.693374 
L 153.158058 303.291552 
L 155.752066 278.912244 
L 158.346074 279.443425 
L 160.940083 272.932072 
L 163.534091 277.431621 
L 166.128099 274.388671 
L 168.722107 264.715734 
L 171.316116 271.300594 
L 173.910124 256.193369 
L 176.504132 271.060421 
L 179.09814 267.753567 
L 181.692149 262.005173 
L 184.286157 262.691391 
L 186.880165 265.043624 
L 189.474174 255.435594 
L 192.068182 256.453027 
L 194.66219 267.068619 
L 197.256198 262.42351 
L 199.850207 260.543361 
L 202.444215 260.847613 
L 205.038223 273.613573 
L 207.632231 269.494463 
L 210.22624 253.428061 
L 212.820248 266.881269 
L 215.414256 264.601113 
L 218.008264 271.475899 
L 220.602273 256.5521 
L 223.196281 257.630829 
L 225.790289 252.770256 
L 228.384298 255.88303 
L 230.978306 258.376521 
L 233.572314 251.533668 
L 236.166322 247.506787 
L 238.760331 258.535624 
L 241.354339 256.139487 
L 243.948347 267.358139 
L 246.542355 282.031578 
L 249.136364 284.83693 
L 251.730372 251.322849 
L 254.32438 237.311231 
L 256.918388 251.9116 
L 259.512397 240.478868 
L 262.106405 223.868518 
L 264.700413 229.737322 
L 267.294421 218.258581 
L 269.88843 211.409171 
L 272.482438 208.377181 
L 275.076446 196.473827 
L 277.670455 214.716998 
L 280.264463 215.474304 
L 282.858471 214.542091 
L 285.452479 202.496915 
L 288.046488 222.475781 
L 290.640496 233.825621 
L 293.234504 228.920424 
L 295.828512 228.613263 
L 298.422521 217.707313 
L 301.016529 208.995705 
L 303.610537 177.618642 
L 306.204545 171.118654 
L 308.798554 166.666489 
L 311.392562 165.7252 
L 313.98657 176.94714 
L 316.580579 171.530894 
L 319.174587 156.0418 
L 321.768595 156.672807 
L 324.362603 130.720407 
L 326.956612 112.365911 
L 329.55062 119.398115 
L 332.144628 102.060803 
L 334.738636 93.997553 
L 337.332645 98.750632 
L 339.926653 106.413806 
L 342.520661 121.586835 
L 345.114669 115.84266 
L 347.708678 103.973048 
L 350.302686 98.372482 
L 352.896694 87.777218 
L 355.490702 92.691945 
L 358.084711 104.021958 
L 360.678719 90.552851 
L 363.272727 80.872182 
L 365.866736 92.861471 
L 368.460744 89.983803 
L 371.054752 110.305052 
L 373.64876 94.273838 
L 376.242769 103.024982 
L 378.836777 102.077249 
L 381.430785 72.646611 
L 384.024793 73.813636 
L 386.618802 75.413251 
L 389.21281 90.753965 
L 391.806818 96.904292 
L 394.400826 85.688347 
L 396.994835 84.526281 
L 399.588843 89.315714 
L 402.182851 122.517189 
L 404.77686 123.899412 
L 407.370868 138.763431 
L 409.964876 120.919684 
L 412.558884 117.322303 
L 415.152893 117.964366 
L 417.746901 105.780883 
L 420.340909 128.275602 
L 422.934917 116.559192 
L 425.528926 101.776916 
L 428.122934 107.79581 
L 430.716942 103.451369 
L 433.31095 101.393224 
L 435.904959 111.015887 
L 438.498967 128.290167 
L 441.092975 138.600022 
L 443.686983 154.719264 
L 446.280992 146.876386 
L 448.875 150.706195 
L 451.469008 152.751123 
L 454.063017 143.148045 
L 456.657025 154.898133 
L 459.251033 157.805382 
L 461.845041 170.833375 
L 464.43905 169.4977 
L 467.033058 160.67699 
L 469.627066 182.933467 
L 472.221074 186.774579 
L 474.815083 194.931262 
L 477.409091 178.305447 
L 480.003099 179.055998 
L 482.597107 169.823937 
L 485.191116 173.554215 
L 487.785124 182.6475 
L 490.379132 182.310975 
L 492.97314 155.644372 
L 495.567149 166.074231 
L 498.161157 153.933934 
L 500.755165 147.091138 
L 503.349174 162.736947 
L 505.943182 158.690511 
L 508.53719 138.146671 
L 511.131198 143.885206 
L 513.725207 126.508275 
L 516.319215 122.826169 
L 518.913223 105.767296 
L 521.507231 103.838102 
L 524.10124 98.736498 
L 526.695248 66.150067 
L 529.289256 84.226101 
L 531.883264 93.756557 
L 534.477273 93.311058 
L 537.071281 97.679351 
L 539.665289 94.54915 
L 542.259298 77.913921 
L 544.853306 68.087312 
L 547.447314 91.639949 
L 550.041322 122.681731 
L 552.635331 110.397908 
L 555.229339 130.589372 
L 557.823347 152.791885 
L 560.417355 145.69426 
L 563.011364 161.820627 
L 565.605372 169.769058 
L 568.19938 161.834713 
L 570.793388 166.184133 
L 573.387397 143.433377 
L 575.981405 136.208469 
L 578.575413 161.916312 
L 581.169421 159.034323 
L 583.76343 190.02184 
L 586.357438 190.91125 
L 588.951446 169.054751 
L 594.139463 146.811215 
L 596.733471 132.616184 
L 599.327479 144.230204 
L 601.921488 140.068728 
L 604.515496 152.865246 
L 607.109504 164.116407 
L 609.703512 159.077983 
L 612.297521 185.487131 
L 614.891529 182.86671 
L 617.485537 167.133238 
L 620.079545 179.499953 
L 622.673554 181.656765 
L 625.267562 196.298033 
L 627.86157 193.467441 
L 630.455579 205.973271 
L 633.049587 200.326441 
L 635.643595 224.069978 
L 638.237603 233.147933 
L 640.831612 222.154404 
L 643.42562 221.085993 
L 646.019628 216.367872 
L 648.613636 207.871415 
L 651.207645 214.835494 
L 653.801653 228.694549 
L 656.395661 220.832735 
L 658.989669 224.534153 
L 661.583678 230.576623 
L 664.177686 228.576207 
L 666.771694 228.341816 
L 669.365702 202.793473 
L 671.959711 198.568191 
L 674.553719 190.909256 
L 677.147727 196.620835 
L 679.741736 205.152535 
L 682.335744 205.330218 
L 684.929752 218.855257 
L 687.52376 228.481962 
L 690.117769 220.880893 
L 692.711777 213.724952 
L 695.305785 221.057767 
L 697.899793 212.304076 
L 703.08781 206.636089 
L 705.681818 199.666153 
L 708.275826 217.917101 
L 710.869835 221.388125 
L 713.463843 230.973052 
L 716.057851 207.648353 
L 718.65186 200.402295 
L 721.245868 205.452284 
L 723.839876 199.478327 
L 726.433884 189.966495 
L 731.621901 224.723541 
L 734.215909 224.053713 
L 736.809917 240.685937 
L 739.403926 255.33496 
L 741.997934 236.078495 
L 744.591942 248.155175 
L 747.18595 238.128544 
L 749.779959 243.603105 
L 752.373967 242.938156 
L 754.967975 259.248814 
L 757.561983 253.183361 
L 760.155992 249.933875 
L 762.75 261.246899 
L 765.344008 275.069114 
L 767.938017 271.750994 
L 770.532025 271.653626 
L 773.126033 277.284157 
L 775.720041 278.128031 
L 778.31405 269.63421 
L 780.908058 274.683417 
L 783.502066 281.432899 
L 786.096074 310.945198 
L 788.690083 307.551356 
L 791.284091 299.229422 
L 793.878099 295.046365 
L 796.472107 305.644633 
L 799.066116 305.348531 
L 801.660124 300.732104 
L 804.254132 287.665371 
L 806.84814 280.651261 
L 809.442149 281.626294 
L 812.036157 275.170662 
L 814.630165 271.774034 
L 817.224174 285.251381 
L 819.818182 283.494587 
L 822.41219 269.612367 
L 825.006198 267.435642 
L 827.600207 256.152886 
L 830.194215 268.184666 
L 832.788223 271.145904 
L 835.382231 263.536411 
L 837.97624 260.54591 
L 840.570248 268.751815 
L 843.164256 262.303994 
L 845.758264 270.963931 
L 848.352273 285.170529 
L 850.946281 280.109043 
L 853.540289 277.257848 
L 856.134298 276.218171 
L 858.728306 275.67185 
L 861.322314 284.90177 
L 863.916322 284.692864 
L 866.510331 302.562573 
L 869.104339 298.435086 
L 871.698347 289.12096 
L 874.292355 280.512661 
L 876.886364 286.958494 
L 879.480372 284.941351 
L 882.07438 290.656349 
L 884.668388 290.368095 
L 887.262397 294.064796 
L 889.856405 301.574326 
L 892.450413 305.79368 
L 895.044421 306.424412 
L 897.63843 308.481574 
L 900.232438 304.200817 
L 902.826446 309.318741 
L 905.420455 318.830722 
L 908.014463 327.293913 
L 910.608471 331.763149 
L 913.202479 334.115205 
L 915.796488 335.828621 
L 918.390496 336.750806 
L 920.984504 335.099406 
L 923.578512 340.129755 
L 926.172521 332.34853 
L 928.766529 326.430854 
L 931.360537 322.905257 
L 933.954545 321.267804 
L 936.548554 312.403297 
L 939.142562 309.54204 
L 941.73657 307.463064 
L 944.330579 303.260902 
L 946.924587 298.591277 
L 949.518595 301.068585 
L 954.706612 297.811998 
L 957.30062 301.239587 
L 959.894628 299.373218 
L 962.488636 290.683519 
L 965.082645 286.056855 
L 967.676653 285.75114 
L 970.270661 290.014457 
L 972.864669 290.23893 
L 975.458678 303.066628 
L 978.052686 304.141658 
L 980.646694 301.818267 
L 983.240702 303.528853 
L 985.834711 307.158264 
L 988.428719 313.882786 
L 991.022727 307.950225 
L 993.616736 306.53985 
L 996.210744 300.266993 
L 998.804752 299.62605 
L 1001.39876 304.796469 
L 1003.992769 311.944759 
L 1006.586777 325.168765 
L 1009.180785 326.614951 
L 1011.774793 327.119069 
L 1014.368802 318.483274 
L 1016.96281 316.009658 
L 1019.556818 312.815553 
L 1022.150826 303.96564 
L 1024.744835 305.603652 
L 1027.338843 302.837539 
L 1029.932851 312.162088 
L 1032.52686 306.64002 
L 1035.120868 312.823933 
L 1037.714876 315.680161 
L 1040.308884 318.766845 
L 1042.902893 320.727974 
L 1045.496901 317.913833 
L 1048.090909 325.245008 
L 1050.684917 319.116453 
L 1053.278926 323.316716 
L 1055.872934 324.932898 
L 1058.466942 329.519214 
L 1061.06095 352.351404 
L 1063.654959 348.595953 
L 1066.248967 337.564242 
L 1068.842975 336.87087 
L 1071.436983 344.829806 
L 1074.030992 339.729496 
L 1076.625 340.112816 
L 1079.219008 344.45738 
L 1081 340.799284 
L 1081 340.799284 
" style="fill:none;stroke:#9400d3;stroke-linecap:square;stroke-width:1.5;"/>
   </g>
   <g id="patch_3">
    <path d="M 135 378 
L 135 51.84 
" style="fill:none;stroke:#000000;stroke-linecap:square;stroke-linejoin:miter;stroke-width:0.8;"/>
   </g>
   <g id="patch_4">
    <path d="M 972 378 
L 972 51.84 
" style="fill:none;stroke:#000000;stroke-linecap:square;stroke-linejoin:miter;stroke-width:0.8;"/>
   </g>
   <g id="patch_5">
    <path d="M 135 378 
L 972 378 
" style="fill:none;stroke:#000000;stroke-linecap:square;stroke-linejoin:miter;stroke-width:0.8;"/>
   </g>
   <g id="patch_6">
    <path d="M 135 51.84 
L 972 51.84 
" style="fill:none;stroke:#000000;stroke-linecap:square;stroke-linejoin:miter;stroke-width:0.8;"/>
   </g>
  </g>
 </g>
 <defs>
  <clipPath id="pe7070c0e28">
   <rect height="326.16" width="837" x="135" y="51.84"/>
  </clipPath>
 </defs>
</svg>
