<?xml version="1.0" encoding="utf-8" standalone="no"?>
<!DOCTYPE svg PUBLIC "-//W3C//DTD SVG 1.1//EN"
  "http://www.w3.org/Graphics/SVG/1.1/DTD/svg11.dtd">
<!-- Created with matplotlib (http://matplotlib.org/) -->
<svg height="432pt" version="1.1" viewBox="0 0 1080 432" width="1080pt" xmlns="http://www.w3.org/2000/svg" xmlns:xlink="http://www.w3.org/1999/xlink">
 <defs>
  <style type="text/css">
*{stroke-linecap:butt;stroke-linejoin:round;}
  </style>
 </defs>
 <g id="figure_1">
  <g id="patch_1">
   <path d="M 0 432 
L 1080 432 
L 1080 0 
L 0 0 
z
" style="fill:#ffffff;"/>
  </g>
  <g id="axes_1">
   <g id="patch_2">
    <path d="M 135 378 
L 972 378 
L 972 51.84 
L 135 51.84 
z
" style="fill:#ffffff;"/>
   </g>
   <g id="matplotlib.axis_1">
    <g id="xtick_1">
     <g id="line2d_1">
      <path clip-path="url(#p1ae4912d38)" d="M 135 378 
L 135 51.84 
" style="fill:none;stroke:#b0b0b0;stroke-linecap:square;stroke-width:0.8;"/>
     </g>
     <g id="line2d_2">
      <defs>
       <path d="M 0 0 
L 0 3.5 
" id="m423e0ece01" style="stroke:#000000;stroke-width:0.8;"/>
      </defs>
      <g>
       <use style="stroke:#000000;stroke-width:0.8;" x="135" xlink:href="#m423e0ece01" y="378"/>
      </g>
     </g>
     <g id="text_1">
      <!-- 0 -->
      <defs>
       <path d="M 31.78125 66.40625 
Q 24.171875 66.40625 20.328125 58.90625 
Q 16.5 51.421875 16.5 36.375 
Q 16.5 21.390625 20.328125 13.890625 
Q 24.171875 6.390625 31.78125 6.390625 
Q 39.453125 6.390625 43.28125 13.890625 
Q 47.125 21.390625 47.125 36.375 
Q 47.125 51.421875 43.28125 58.90625 
Q 39.453125 66.40625 31.78125 66.40625 
z
M 31.78125 74.21875 
Q 44.046875 74.21875 50.515625 64.515625 
Q 56.984375 54.828125 56.984375 36.375 
Q 56.984375 17.96875 50.515625 8.265625 
Q 44.046875 -1.421875 31.78125 -1.421875 
Q 19.53125 -1.421875 13.0625 8.265625 
Q 6.59375 17.96875 6.59375 36.375 
Q 6.59375 54.828125 13.0625 64.515625 
Q 19.53125 74.21875 31.78125 74.21875 
z
" id="DejaVuSans-30"/>
      </defs>
      <g transform="translate(128.00125 401.716563)scale(0.22 -0.22)">
       <use xlink:href="#DejaVuSans-30"/>
      </g>
     </g>
    </g>
    <g id="xtick_2">
     <g id="line2d_3">
      <path clip-path="url(#p1ae4912d38)" d="M 302.4 378 
L 302.4 51.84 
" style="fill:none;stroke:#b0b0b0;stroke-linecap:square;stroke-width:0.8;"/>
     </g>
     <g id="line2d_4">
      <g>
       <use style="stroke:#000000;stroke-width:0.8;" x="302.4" xlink:href="#m423e0ece01" y="378"/>
      </g>
     </g>
     <g id="text_2">
      <!-- 2000 -->
      <defs>
       <path d="M 19.1875 8.296875 
L 53.609375 8.296875 
L 53.609375 0 
L 7.328125 0 
L 7.328125 8.296875 
Q 12.9375 14.109375 22.625 23.890625 
Q 32.328125 33.6875 34.8125 36.53125 
Q 39.546875 41.84375 41.421875 45.53125 
Q 43.3125 49.21875 43.3125 52.78125 
Q 43.3125 58.59375 39.234375 62.25 
Q 35.15625 65.921875 28.609375 65.921875 
Q 23.96875 65.921875 18.8125 64.3125 
Q 13.671875 62.703125 7.8125 59.421875 
L 7.8125 69.390625 
Q 13.765625 71.78125 18.9375 73 
Q 24.125 74.21875 28.421875 74.21875 
Q 39.75 74.21875 46.484375 68.546875 
Q 53.21875 62.890625 53.21875 53.421875 
Q 53.21875 48.921875 51.53125 44.890625 
Q 49.859375 40.875 45.40625 35.40625 
Q 44.1875 33.984375 37.640625 27.21875 
Q 31.109375 20.453125 19.1875 8.296875 
z
" id="DejaVuSans-32"/>
      </defs>
      <g transform="translate(274.405 401.716563)scale(0.22 -0.22)">
       <use xlink:href="#DejaVuSans-32"/>
       <use x="63.623047" xlink:href="#DejaVuSans-30"/>
       <use x="127.246094" xlink:href="#DejaVuSans-30"/>
       <use x="190.869141" xlink:href="#DejaVuSans-30"/>
      </g>
     </g>
    </g>
    <g id="xtick_3">
     <g id="line2d_5">
      <path clip-path="url(#p1ae4912d38)" d="M 469.8 378 
L 469.8 51.84 
" style="fill:none;stroke:#b0b0b0;stroke-linecap:square;stroke-width:0.8;"/>
     </g>
     <g id="line2d_6">
      <g>
       <use style="stroke:#000000;stroke-width:0.8;" x="469.8" xlink:href="#m423e0ece01" y="378"/>
      </g>
     </g>
     <g id="text_3">
      <!-- 4000 -->
      <defs>
       <path d="M 37.796875 64.3125 
L 12.890625 25.390625 
L 37.796875 25.390625 
z
M 35.203125 72.90625 
L 47.609375 72.90625 
L 47.609375 25.390625 
L 58.015625 25.390625 
L 58.015625 17.1875 
L 47.609375 17.1875 
L 47.609375 0 
L 37.796875 0 
L 37.796875 17.1875 
L 4.890625 17.1875 
L 4.890625 26.703125 
z
" id="DejaVuSans-34"/>
      </defs>
      <g transform="translate(441.805 401.716563)scale(0.22 -0.22)">
       <use xlink:href="#DejaVuSans-34"/>
       <use x="63.623047" xlink:href="#DejaVuSans-30"/>
       <use x="127.246094" xlink:href="#DejaVuSans-30"/>
       <use x="190.869141" xlink:href="#DejaVuSans-30"/>
      </g>
     </g>
    </g>
    <g id="xtick_4">
     <g id="line2d_7">
      <path clip-path="url(#p1ae4912d38)" d="M 637.2 378 
L 637.2 51.84 
" style="fill:none;stroke:#b0b0b0;stroke-linecap:square;stroke-width:0.8;"/>
     </g>
     <g id="line2d_8">
      <g>
       <use style="stroke:#000000;stroke-width:0.8;" x="637.2" xlink:href="#m423e0ece01" y="378"/>
      </g>
     </g>
     <g id="text_4">
      <!-- 6000 -->
      <defs>
       <path d="M 33.015625 40.375 
Q 26.375 40.375 22.484375 35.828125 
Q 18.609375 31.296875 18.609375 23.390625 
Q 18.609375 15.53125 22.484375 10.953125 
Q 26.375 6.390625 33.015625 6.390625 
Q 39.65625 6.390625 43.53125 10.953125 
Q 47.40625 15.53125 47.40625 23.390625 
Q 47.40625 31.296875 43.53125 35.828125 
Q 39.65625 40.375 33.015625 40.375 
z
M 52.59375 71.296875 
L 52.59375 62.3125 
Q 48.875 64.0625 45.09375 64.984375 
Q 41.3125 65.921875 37.59375 65.921875 
Q 27.828125 65.921875 22.671875 59.328125 
Q 17.53125 52.734375 16.796875 39.40625 
Q 19.671875 43.65625 24.015625 45.921875 
Q 28.375 48.1875 33.59375 48.1875 
Q 44.578125 48.1875 50.953125 41.515625 
Q 57.328125 34.859375 57.328125 23.390625 
Q 57.328125 12.15625 50.6875 5.359375 
Q 44.046875 -1.421875 33.015625 -1.421875 
Q 20.359375 -1.421875 13.671875 8.265625 
Q 6.984375 17.96875 6.984375 36.375 
Q 6.984375 53.65625 15.1875 63.9375 
Q 23.390625 74.21875 37.203125 74.21875 
Q 40.921875 74.21875 44.703125 73.484375 
Q 48.484375 72.75 52.59375 71.296875 
z
" id="DejaVuSans-36"/>
      </defs>
      <g transform="translate(609.205 401.716563)scale(0.22 -0.22)">
       <use xlink:href="#DejaVuSans-36"/>
       <use x="63.623047" xlink:href="#DejaVuSans-30"/>
       <use x="127.246094" xlink:href="#DejaVuSans-30"/>
       <use x="190.869141" xlink:href="#DejaVuSans-30"/>
      </g>
     </g>
    </g>
    <g id="xtick_5">
     <g id="line2d_9">
      <path clip-path="url(#p1ae4912d38)" d="M 804.6 378 
L 804.6 51.84 
" style="fill:none;stroke:#b0b0b0;stroke-linecap:square;stroke-width:0.8;"/>
     </g>
     <g id="line2d_10">
      <g>
       <use style="stroke:#000000;stroke-width:0.8;" x="804.6" xlink:href="#m423e0ece01" y="378"/>
      </g>
     </g>
     <g id="text_5">
      <!-- 8000 -->
      <defs>
       <path d="M 31.78125 34.625 
Q 24.75 34.625 20.71875 30.859375 
Q 16.703125 27.09375 16.703125 20.515625 
Q 16.703125 13.921875 20.71875 10.15625 
Q 24.75 6.390625 31.78125 6.390625 
Q 38.8125 6.390625 42.859375 10.171875 
Q 46.921875 13.96875 46.921875 20.515625 
Q 46.921875 27.09375 42.890625 30.859375 
Q 38.875 34.625 31.78125 34.625 
z
M 21.921875 38.8125 
Q 15.578125 40.375 12.03125 44.71875 
Q 8.5 49.078125 8.5 55.328125 
Q 8.5 64.0625 14.71875 69.140625 
Q 20.953125 74.21875 31.78125 74.21875 
Q 42.671875 74.21875 48.875 69.140625 
Q 55.078125 64.0625 55.078125 55.328125 
Q 55.078125 49.078125 51.53125 44.71875 
Q 48 40.375 41.703125 38.8125 
Q 48.828125 37.15625 52.796875 32.3125 
Q 56.78125 27.484375 56.78125 20.515625 
Q 56.78125 9.90625 50.3125 4.234375 
Q 43.84375 -1.421875 31.78125 -1.421875 
Q 19.734375 -1.421875 13.25 4.234375 
Q 6.78125 9.90625 6.78125 20.515625 
Q 6.78125 27.484375 10.78125 32.3125 
Q 14.796875 37.15625 21.921875 38.8125 
z
M 18.3125 54.390625 
Q 18.3125 48.734375 21.84375 45.5625 
Q 25.390625 42.390625 31.78125 42.390625 
Q 38.140625 42.390625 41.71875 45.5625 
Q 45.3125 48.734375 45.3125 54.390625 
Q 45.3125 60.0625 41.71875 63.234375 
Q 38.140625 66.40625 31.78125 66.40625 
Q 25.390625 66.40625 21.84375 63.234375 
Q 18.3125 60.0625 18.3125 54.390625 
z
" id="DejaVuSans-38"/>
      </defs>
      <g transform="translate(776.605 401.716563)scale(0.22 -0.22)">
       <use xlink:href="#DejaVuSans-38"/>
       <use x="63.623047" xlink:href="#DejaVuSans-30"/>
       <use x="127.246094" xlink:href="#DejaVuSans-30"/>
       <use x="190.869141" xlink:href="#DejaVuSans-30"/>
      </g>
     </g>
    </g>
    <g id="xtick_6">
     <g id="line2d_11">
      <path clip-path="url(#p1ae4912d38)" d="M 972 378 
L 972 51.84 
" style="fill:none;stroke:#b0b0b0;stroke-linecap:square;stroke-width:0.8;"/>
     </g>
     <g id="line2d_12">
      <g>
       <use style="stroke:#000000;stroke-width:0.8;" x="972" xlink:href="#m423e0ece01" y="378"/>
      </g>
     </g>
     <g id="text_6">
      <!-- 10000 -->
      <defs>
       <path d="M 12.40625 8.296875 
L 28.515625 8.296875 
L 28.515625 63.921875 
L 10.984375 60.40625 
L 10.984375 69.390625 
L 28.421875 72.90625 
L 38.28125 72.90625 
L 38.28125 8.296875 
L 54.390625 8.296875 
L 54.390625 0 
L 12.40625 0 
z
" id="DejaVuSans-31"/>
      </defs>
      <g transform="translate(937.00625 401.716563)scale(0.22 -0.22)">
       <use xlink:href="#DejaVuSans-31"/>
       <use x="63.623047" xlink:href="#DejaVuSans-30"/>
       <use x="127.246094" xlink:href="#DejaVuSans-30"/>
       <use x="190.869141" xlink:href="#DejaVuSans-30"/>
       <use x="254.492188" xlink:href="#DejaVuSans-30"/>
      </g>
     </g>
    </g>
   </g>
   <g id="matplotlib.axis_2">
    <g id="ytick_1">
     <g id="line2d_13">
      <path clip-path="url(#p1ae4912d38)" d="M 135 378 
L 972 378 
" style="fill:none;stroke:#b0b0b0;stroke-linecap:square;stroke-width:0.8;"/>
     </g>
     <g id="line2d_14">
      <defs>
       <path d="M 0 0 
L -3.5 0 
" id="mcc1898b671" style="stroke:#000000;stroke-width:0.8;"/>
      </defs>
      <g>
       <use style="stroke:#000000;stroke-width:0.8;" x="135" xlink:href="#mcc1898b671" y="378"/>
      </g>
     </g>
     <g id="text_7">
      <!-- 0.000 -->
      <defs>
       <path d="M 10.6875 12.40625 
L 21 12.40625 
L 21 0 
L 10.6875 0 
z
" id="DejaVuSans-2e"/>
      </defs>
      <g transform="translate(65.018125 386.358281)scale(0.22 -0.22)">
       <use xlink:href="#DejaVuSans-30"/>
       <use x="63.623047" xlink:href="#DejaVuSans-2e"/>
       <use x="95.410156" xlink:href="#DejaVuSans-30"/>
       <use x="159.033203" xlink:href="#DejaVuSans-30"/>
       <use x="222.65625" xlink:href="#DejaVuSans-30"/>
      </g>
     </g>
    </g>
    <g id="ytick_2">
     <g id="line2d_15">
      <path clip-path="url(#p1ae4912d38)" d="M 135 327.676239 
L 972 327.676239 
" style="fill:none;stroke:#b0b0b0;stroke-linecap:square;stroke-width:0.8;"/>
     </g>
     <g id="line2d_16">
      <g>
       <use style="stroke:#000000;stroke-width:0.8;" x="135" xlink:href="#mcc1898b671" y="327.676239"/>
      </g>
     </g>
     <g id="text_8">
      <!-- 0.005 -->
      <defs>
       <path d="M 10.796875 72.90625 
L 49.515625 72.90625 
L 49.515625 64.59375 
L 19.828125 64.59375 
L 19.828125 46.734375 
Q 21.96875 47.46875 24.109375 47.828125 
Q 26.265625 48.1875 28.421875 48.1875 
Q 40.625 48.1875 47.75 41.5 
Q 54.890625 34.8125 54.890625 23.390625 
Q 54.890625 11.625 47.5625 5.09375 
Q 40.234375 -1.421875 26.90625 -1.421875 
Q 22.3125 -1.421875 17.546875 -0.640625 
Q 12.796875 0.140625 7.71875 1.703125 
L 7.71875 11.625 
Q 12.109375 9.234375 16.796875 8.0625 
Q 21.484375 6.890625 26.703125 6.890625 
Q 35.15625 6.890625 40.078125 11.328125 
Q 45.015625 15.765625 45.015625 23.390625 
Q 45.015625 31 40.078125 35.4375 
Q 35.15625 39.890625 26.703125 39.890625 
Q 22.75 39.890625 18.8125 39.015625 
Q 14.890625 38.140625 10.796875 36.28125 
z
" id="DejaVuSans-35"/>
      </defs>
      <g transform="translate(65.018125 336.03452)scale(0.22 -0.22)">
       <use xlink:href="#DejaVuSans-30"/>
       <use x="63.623047" xlink:href="#DejaVuSans-2e"/>
       <use x="95.410156" xlink:href="#DejaVuSans-30"/>
       <use x="159.033203" xlink:href="#DejaVuSans-30"/>
       <use x="222.65625" xlink:href="#DejaVuSans-35"/>
      </g>
     </g>
    </g>
    <g id="ytick_3">
     <g id="line2d_17">
      <path clip-path="url(#p1ae4912d38)" d="M 135 277.352478 
L 972 277.352478 
" style="fill:none;stroke:#b0b0b0;stroke-linecap:square;stroke-width:0.8;"/>
     </g>
     <g id="line2d_18">
      <g>
       <use style="stroke:#000000;stroke-width:0.8;" x="135" xlink:href="#mcc1898b671" y="277.352478"/>
      </g>
     </g>
     <g id="text_9">
      <!-- 0.010 -->
      <g transform="translate(65.018125 285.71076)scale(0.22 -0.22)">
       <use xlink:href="#DejaVuSans-30"/>
       <use x="63.623047" xlink:href="#DejaVuSans-2e"/>
       <use x="95.410156" xlink:href="#DejaVuSans-30"/>
       <use x="159.033203" xlink:href="#DejaVuSans-31"/>
       <use x="222.65625" xlink:href="#DejaVuSans-30"/>
      </g>
     </g>
    </g>
    <g id="ytick_4">
     <g id="line2d_19">
      <path clip-path="url(#p1ae4912d38)" d="M 135 227.028717 
L 972 227.028717 
" style="fill:none;stroke:#b0b0b0;stroke-linecap:square;stroke-width:0.8;"/>
     </g>
     <g id="line2d_20">
      <g>
       <use style="stroke:#000000;stroke-width:0.8;" x="135" xlink:href="#mcc1898b671" y="227.028717"/>
      </g>
     </g>
     <g id="text_10">
      <!-- 0.015 -->
      <g transform="translate(65.018125 235.386999)scale(0.22 -0.22)">
       <use xlink:href="#DejaVuSans-30"/>
       <use x="63.623047" xlink:href="#DejaVuSans-2e"/>
       <use x="95.410156" xlink:href="#DejaVuSans-30"/>
       <use x="159.033203" xlink:href="#DejaVuSans-31"/>
       <use x="222.65625" xlink:href="#DejaVuSans-35"/>
      </g>
     </g>
    </g>
    <g id="ytick_5">
     <g id="line2d_21">
      <path clip-path="url(#p1ae4912d38)" d="M 135 176.704957 
L 972 176.704957 
" style="fill:none;stroke:#b0b0b0;stroke-linecap:square;stroke-width:0.8;"/>
     </g>
     <g id="line2d_22">
      <g>
       <use style="stroke:#000000;stroke-width:0.8;" x="135" xlink:href="#mcc1898b671" y="176.704957"/>
      </g>
     </g>
     <g id="text_11">
      <!-- 0.020 -->
      <g transform="translate(65.018125 185.063238)scale(0.22 -0.22)">
       <use xlink:href="#DejaVuSans-30"/>
       <use x="63.623047" xlink:href="#DejaVuSans-2e"/>
       <use x="95.410156" xlink:href="#DejaVuSans-30"/>
       <use x="159.033203" xlink:href="#DejaVuSans-32"/>
       <use x="222.65625" xlink:href="#DejaVuSans-30"/>
      </g>
     </g>
    </g>
    <g id="ytick_6">
     <g id="line2d_23">
      <path clip-path="url(#p1ae4912d38)" d="M 135 126.381196 
L 972 126.381196 
" style="fill:none;stroke:#b0b0b0;stroke-linecap:square;stroke-width:0.8;"/>
     </g>
     <g id="line2d_24">
      <g>
       <use style="stroke:#000000;stroke-width:0.8;" x="135" xlink:href="#mcc1898b671" y="126.381196"/>
      </g>
     </g>
     <g id="text_12">
      <!-- 0.025 -->
      <g transform="translate(65.018125 134.739477)scale(0.22 -0.22)">
       <use xlink:href="#DejaVuSans-30"/>
       <use x="63.623047" xlink:href="#DejaVuSans-2e"/>
       <use x="95.410156" xlink:href="#DejaVuSans-30"/>
       <use x="159.033203" xlink:href="#DejaVuSans-32"/>
       <use x="222.65625" xlink:href="#DejaVuSans-35"/>
      </g>
     </g>
    </g>
    <g id="ytick_7">
     <g id="line2d_25">
      <path clip-path="url(#p1ae4912d38)" d="M 135 76.057435 
L 972 76.057435 
" style="fill:none;stroke:#b0b0b0;stroke-linecap:square;stroke-width:0.8;"/>
     </g>
     <g id="line2d_26">
      <g>
       <use style="stroke:#000000;stroke-width:0.8;" x="135" xlink:href="#mcc1898b671" y="76.057435"/>
      </g>
     </g>
     <g id="text_13">
      <!-- 0.030 -->
      <defs>
       <path d="M 40.578125 39.3125 
Q 47.65625 37.796875 51.625 33 
Q 55.609375 28.21875 55.609375 21.1875 
Q 55.609375 10.40625 48.1875 4.484375 
Q 40.765625 -1.421875 27.09375 -1.421875 
Q 22.515625 -1.421875 17.65625 -0.515625 
Q 12.796875 0.390625 7.625 2.203125 
L 7.625 11.71875 
Q 11.71875 9.328125 16.59375 8.109375 
Q 21.484375 6.890625 26.8125 6.890625 
Q 36.078125 6.890625 40.9375 10.546875 
Q 45.796875 14.203125 45.796875 21.1875 
Q 45.796875 27.640625 41.28125 31.265625 
Q 36.765625 34.90625 28.71875 34.90625 
L 20.21875 34.90625 
L 20.21875 43.015625 
L 29.109375 43.015625 
Q 36.375 43.015625 40.234375 45.921875 
Q 44.09375 48.828125 44.09375 54.296875 
Q 44.09375 59.90625 40.109375 62.90625 
Q 36.140625 65.921875 28.71875 65.921875 
Q 24.65625 65.921875 20.015625 65.03125 
Q 15.375 64.15625 9.8125 62.3125 
L 9.8125 71.09375 
Q 15.4375 72.65625 20.34375 73.4375 
Q 25.25 74.21875 29.59375 74.21875 
Q 40.828125 74.21875 47.359375 69.109375 
Q 53.90625 64.015625 53.90625 55.328125 
Q 53.90625 49.265625 50.4375 45.09375 
Q 46.96875 40.921875 40.578125 39.3125 
z
" id="DejaVuSans-33"/>
      </defs>
      <g transform="translate(65.018125 84.415716)scale(0.22 -0.22)">
       <use xlink:href="#DejaVuSans-30"/>
       <use x="63.623047" xlink:href="#DejaVuSans-2e"/>
       <use x="95.410156" xlink:href="#DejaVuSans-30"/>
       <use x="159.033203" xlink:href="#DejaVuSans-33"/>
       <use x="222.65625" xlink:href="#DejaVuSans-30"/>
      </g>
     </g>
    </g>
   </g>
   <g id="line2d_27">
    <path clip-path="url(#p1ae4912d38)" d="M 135 201.373359 
L 137.594008 205.008848 
L 140.188017 202.438771 
L 142.782025 212.42513 
L 145.376033 177.984308 
L 147.970041 218.764449 
L 150.56405 209.359785 
L 153.158058 201.269146 
L 155.752066 195.973937 
L 158.346074 211.147472 
L 160.940083 189.064164 
L 163.534091 184.847544 
L 166.128099 201.710026 
L 168.722107 187.294011 
L 171.316116 199.319991 
L 173.910124 192.445513 
L 176.504132 175.43462 
L 179.09814 201.15436 
L 181.692149 212.328022 
L 184.286157 228.526816 
L 186.880165 210.75842 
L 189.474174 220.513137 
L 192.068182 236.84375 
L 194.66219 226.999575 
L 197.256198 215.65302 
L 199.850207 239.317024 
L 202.444215 253.523764 
L 205.038223 286.450456 
L 207.632231 279.615305 
L 210.22624 244.942522 
L 212.820248 236.787278 
L 215.414256 227.329556 
L 218.008264 242.742862 
L 220.602273 259.128264 
L 223.196281 242.391779 
L 225.790289 241.134255 
L 228.384298 226.766434 
L 230.978306 204.708631 
L 233.572314 224.796577 
L 236.166322 199.939997 
L 238.760331 193.540218 
L 241.354339 190.964819 
L 243.948347 172.649625 
L 246.542355 180.421907 
L 249.136364 176.319386 
L 251.730372 172.822672 
L 254.32438 175.784847 
L 256.918388 182.695734 
L 259.512397 181.000603 
L 262.106405 196.892038 
L 264.700413 201.497978 
L 267.294421 198.306869 
L 269.88843 201.620176 
L 272.482438 188.668751 
L 275.076446 188.804466 
L 277.670455 190.304247 
L 280.264463 192.832922 
L 282.858471 177.262669 
L 285.452479 157.048416 
L 290.640496 172.31354 
L 293.234504 174.498695 
L 295.828512 155.242456 
L 298.422521 154.864544 
L 301.016529 153.215177 
L 303.610537 157.64253 
L 306.204545 168.360636 
L 308.798554 172.654003 
L 311.392562 163.55382 
L 313.98657 168.826786 
L 316.580579 174.700351 
L 321.768595 206.769923 
L 324.362603 220.74025 
L 326.956612 229.393594 
L 329.55062 223.605325 
L 332.144628 217.146403 
L 334.738636 221.524966 
L 337.332645 237.511242 
L 339.926653 228.427591 
L 342.520661 221.586701 
L 345.114669 208.107513 
L 347.708678 208.181882 
L 350.302686 214.896496 
L 352.896694 213.934572 
L 355.490702 207.10251 
L 360.678719 183.968028 
L 363.272727 181.711893 
L 365.866736 178.029747 
L 368.460744 168.18151 
L 371.054752 164.833151 
L 373.64876 154.241852 
L 376.242769 139.117279 
L 378.836777 142.969541 
L 381.430785 140.515861 
L 384.024793 152.605441 
L 386.618802 138.274345 
L 389.21281 138.099744 
L 391.806818 125.819306 
L 394.400826 130.989299 
L 396.994835 139.546926 
L 399.588843 149.124149 
L 402.182851 161.915089 
L 404.77686 157.609022 
L 407.370868 170.097001 
L 409.964876 177.025739 
L 412.558884 181.246351 
L 415.152893 170.72201 
L 417.746901 168.495585 
L 420.340909 162.54325 
L 422.934917 158.817808 
L 425.528926 164.340625 
L 428.122934 178.708232 
L 430.716942 182.328555 
L 433.31095 173.368698 
L 435.904959 165.722323 
L 438.498967 177.045558 
L 441.092975 174.124551 
L 443.686983 172.780179 
L 446.280992 163.189669 
L 448.875 154.094169 
L 451.469008 157.185113 
L 454.063017 169.416554 
L 456.657025 168.725931 
L 459.251033 165.676276 
L 461.845041 172.080974 
L 464.43905 166.136027 
L 467.033058 171.480985 
L 469.627066 180.269178 
L 472.221074 172.0626 
L 474.815083 152.992757 
L 477.409091 158.04561 
L 480.003099 154.105645 
L 482.597107 158.848175 
L 485.191116 159.09451 
L 487.785124 160.469765 
L 490.379132 155.742069 
L 492.97314 158.894667 
L 495.567149 163.47337 
L 498.161157 165.2285 
L 500.755165 166.690595 
L 503.349174 175.066213 
L 505.943182 176.104498 
L 508.53719 181.375562 
L 511.131198 177.108974 
L 513.725207 192.021455 
L 516.319215 179.920653 
L 518.913223 179.007882 
L 521.507231 176.998241 
L 524.10124 178.903982 
L 526.695248 187.077554 
L 529.289256 186.766279 
L 531.883264 178.91079 
L 537.071281 170.188924 
L 539.665289 173.081 
L 544.853306 164.413294 
L 547.447314 156.040292 
L 550.041322 168.985539 
L 552.635331 167.854994 
L 555.229339 162.546083 
L 557.823347 155.910132 
L 560.417355 164.938468 
L 563.011364 162.868142 
L 565.605372 156.464055 
L 568.19938 153.552767 
L 570.793388 159.723044 
L 573.387397 166.517718 
L 575.981405 169.398352 
L 578.575413 158.379603 
L 581.169421 158.434014 
L 583.76343 171.881273 
L 586.357438 181.853204 
L 588.951446 163.42284 
L 591.545455 172.390744 
L 594.139463 171.234472 
L 596.733471 163.700939 
L 599.327479 151.241561 
L 601.921488 163.167544 
L 607.109504 182.02725 
L 609.703512 174.820503 
L 612.297521 184.799806 
L 614.891529 177.641999 
L 617.485537 187.836056 
L 620.079545 186.950301 
L 622.673554 178.821864 
L 625.267562 175.437246 
L 627.86157 175.375334 
L 630.455579 178.780486 
L 633.049587 187.587303 
L 635.643595 195.146013 
L 638.237603 206.6388 
L 640.831612 192.854762 
L 643.42562 185.453167 
L 646.019628 180.70898 
L 648.613636 176.815664 
L 651.207645 170.053242 
L 653.801653 170.478285 
L 656.395661 164.761242 
L 658.989669 179.360204 
L 661.583678 181.416573 
L 664.177686 175.240053 
L 666.771694 182.052625 
L 669.365702 172.234187 
L 671.959711 173.370301 
L 674.553719 176.109828 
L 677.147727 161.784903 
L 679.741736 160.097683 
L 682.335744 164.970674 
L 684.929752 158.95723 
L 687.52376 157.845404 
L 690.117769 149.069625 
L 692.711777 146.370005 
L 695.305785 150.424475 
L 697.899793 140.622315 
L 700.493802 126.939126 
L 703.08781 129.290501 
L 708.275826 130.636146 
L 710.869835 116.290255 
L 713.463843 110.452972 
L 716.057851 117.496813 
L 718.65186 117.61604 
L 721.245868 119.000401 
L 723.839876 128.657565 
L 726.433884 135.234716 
L 729.027893 133.825272 
L 731.621901 133.165924 
L 734.215909 125.839232 
L 736.809917 130.85608 
L 739.403926 128.908915 
L 741.997934 133.375546 
L 744.591942 138.581602 
L 747.18595 137.360112 
L 749.779959 144.176155 
L 752.373967 143.318007 
L 754.967975 144.508159 
L 757.561983 147.001405 
L 760.155992 140.537525 
L 762.75 141.30929 
L 765.344008 141.360909 
L 767.938017 144.511937 
L 770.532025 148.391057 
L 773.126033 156.748847 
L 775.720041 151.058585 
L 778.31405 165.639344 
L 780.908058 169.114484 
L 783.502066 165.259696 
L 786.096074 166.695388 
L 788.690083 165.584093 
L 791.284091 171.110913 
L 793.878099 161.867463 
L 796.472107 162.676481 
L 799.066116 160.478039 
L 801.660124 144.445241 
L 804.254132 148.080269 
L 806.84814 147.418971 
L 809.442149 147.17125 
L 812.036157 143.646183 
L 814.630165 144.78848 
L 817.224174 134.992107 
L 819.818182 148.486792 
L 822.41219 149.420616 
L 825.006198 164.022214 
L 827.600207 161.5916 
L 830.194215 164.103262 
L 832.788223 167.057923 
L 835.382231 162.705485 
L 837.97624 164.060351 
L 840.570248 182.467937 
L 843.164256 182.468699 
L 845.758264 188.855671 
L 848.352273 198.478423 
L 850.946281 200.470712 
L 853.540289 202.839747 
L 856.134298 206.44177 
L 858.728306 186.501493 
L 861.322314 183.768976 
L 863.916322 178.542938 
L 866.510331 185.503494 
L 869.104339 191.051774 
L 871.698347 181.375184 
L 874.292355 176.864168 
L 876.886364 174.526326 
L 879.480372 166.988642 
L 884.668388 158.279907 
L 887.262397 141.804198 
L 889.856405 136.776516 
L 892.450413 135.369982 
L 895.044421 130.39997 
L 897.63843 129.181118 
L 900.232438 131.659815 
L 902.826446 125.306552 
L 905.420455 119.252583 
L 908.014463 110.605236 
L 910.608471 117.103365 
L 913.202479 126.657225 
L 915.796488 136.782435 
L 918.390496 137.393594 
L 920.984504 141.976146 
L 923.578512 138.880421 
L 926.172521 139.612754 
L 928.766529 138.817903 
L 931.360537 150.840389 
L 933.954545 157.708838 
L 936.548554 159.452311 
L 939.142562 156.174487 
L 941.73657 159.833911 
L 944.330579 158.574345 
L 946.924587 156.313103 
L 949.518595 153.448149 
L 952.112603 144.889277 
L 954.706612 134.11557 
L 957.30062 130.185766 
L 959.894628 129.565604 
L 962.488636 135.284122 
L 965.082645 146.358155 
L 967.676653 159.819088 
L 970.270661 154.575448 
L 972.864669 144.750173 
L 975.458678 147.197327 
L 978.052686 147.963772 
L 980.646694 146.769693 
L 983.240702 145.449069 
L 985.834711 142.253531 
L 991.022727 168.426007 
L 993.616736 170.82188 
L 996.210744 170.692949 
L 998.804752 172.552947 
L 1001.39876 162.556886 
L 1003.992769 149.352696 
L 1006.586777 147.55774 
L 1009.180785 144.853385 
L 1011.774793 150.211067 
L 1014.368802 151.395 
L 1016.96281 149.747086 
L 1019.556818 147.446345 
L 1022.150826 152.418352 
L 1024.744835 155.747389 
L 1027.338843 150.647489 
L 1029.932851 142.367271 
L 1032.52686 147.094907 
L 1035.120868 152.306277 
L 1040.308884 156.898415 
L 1042.902893 167.624943 
L 1045.496901 158.743701 
L 1048.090909 152.984984 
L 1050.684917 144.182132 
L 1053.278926 153.356483 
L 1055.872934 151.419482 
L 1058.466942 147.379686 
L 1061.06095 141.625328 
L 1063.654959 147.63639 
L 1066.248967 137.839362 
L 1068.842975 135.405558 
L 1071.436983 138.212547 
L 1074.030992 134.332114 
L 1076.625 123.193535 
L 1079.219008 121.924818 
L 1081 118.361123 
L 1081 118.361123 
" style="fill:none;stroke:#008b8b;stroke-linecap:square;stroke-width:1.5;"/>
   </g>
   <g id="line2d_28">
    <path clip-path="url(#p1ae4912d38)" d="M 135 235.559066 
L 137.594008 232.577828 
L 140.188017 232.478867 
L 142.782025 223.076105 
L 145.376033 232.646841 
L 147.970041 232.789994 
L 150.56405 232.703812 
L 153.158058 241.924462 
L 155.752066 259.491824 
L 158.346074 287.474656 
L 160.940083 280.742388 
L 163.534091 279.822625 
L 166.128099 280.603942 
L 168.722107 282.428293 
L 171.316116 285.958335 
L 173.910124 295.560274 
L 176.504132 281.57399 
L 179.09814 283.834669 
L 181.692149 290.419244 
L 184.286157 286.606649 
L 186.880165 287.765203 
L 189.474174 267.61894 
L 192.068182 260.232252 
L 194.66219 260.428984 
L 197.256198 249.823128 
L 199.850207 257.621128 
L 202.444215 284.328257 
L 205.038223 292.597087 
L 207.632231 295.107322 
L 210.22624 304.050126 
L 215.414256 291.451474 
L 218.008264 262.815362 
L 220.602273 257.520819 
L 223.196281 255.485682 
L 225.790289 268.062806 
L 228.384298 274.746784 
L 230.978306 250.237513 
L 233.572314 252.491728 
L 236.166322 258.205611 
L 238.760331 267.064959 
L 241.354339 242.8757 
L 243.948347 247.054057 
L 246.542355 217.144246 
L 249.136364 200.337187 
L 251.730372 206.595406 
L 254.32438 220.551178 
L 256.918388 236.102648 
L 259.512397 233.649159 
L 262.106405 240.609548 
L 264.700413 252.376391 
L 267.294421 256.306431 
L 269.88843 241.931504 
L 272.482438 233.615829 
L 275.076446 236.264648 
L 277.670455 231.537557 
L 280.264463 214.848934 
L 282.858471 207.928432 
L 285.452479 215.236756 
L 288.046488 210.360714 
L 293.234504 155.235552 
L 295.828512 181.138548 
L 298.422521 178.577676 
L 301.016529 180.294799 
L 303.610537 150.421819 
L 306.204545 153.819132 
L 308.798554 178.095115 
L 311.392562 192.23268 
L 313.98657 186.519682 
L 316.580579 199.943564 
L 319.174587 211.788444 
L 321.768595 205.474409 
L 324.362603 210.039981 
L 326.956612 193.307304 
L 329.55062 208.320942 
L 332.144628 211.223152 
L 334.738636 182.13256 
L 337.332645 208.768792 
L 339.926653 181.688549 
L 342.520661 185.907797 
L 345.114669 178.520538 
L 347.708678 161.741669 
L 350.302686 134.650981 
L 352.896694 119.220414 
L 355.490702 120.957942 
L 358.084711 112.904904 
L 360.678719 99.016618 
L 363.272727 80.97804 
L 365.866736 81.789936 
L 368.460744 122.304243 
L 371.054752 120.072555 
L 373.64876 118.638239 
L 376.242769 142.7811 
L 378.836777 146.748704 
L 381.430785 142.445554 
L 384.024793 127.900097 
L 386.618802 125.597472 
L 389.21281 98.040375 
L 391.806818 90.998648 
L 394.400826 66.035963 
L 396.994835 88.680922 
L 399.588843 99.687127 
L 402.182851 158.532808 
L 404.77686 151.521827 
L 407.370868 149.876249 
L 409.964876 157.469008 
L 412.558884 187.42597 
L 415.152893 165.048902 
L 417.746901 192.407893 
L 420.340909 192.377689 
L 422.934917 187.955048 
L 425.528926 194.12195 
L 428.122934 216.818768 
L 430.716942 219.438503 
L 433.31095 193.284346 
L 435.904959 213.321686 
L 438.498967 201.021834 
L 441.092975 193.049383 
L 443.686983 208.817875 
L 446.280992 170.856641 
L 448.875 153.213694 
L 451.469008 141.652287 
L 454.063017 139.41926 
L 456.657025 136.787613 
L 459.251033 128.123622 
L 461.845041 128.872431 
L 464.43905 129.123091 
L 467.033058 116.053481 
L 469.627066 141.620178 
L 472.221074 110.506009 
L 474.815083 101.598794 
L 477.409091 155.558999 
L 480.003099 152.874735 
L 482.597107 132.005633 
L 485.191116 102.294428 
L 490.379132 145.077242 
L 492.97314 136.644872 
L 495.567149 100.591439 
L 498.161157 99.072265 
L 500.755165 84.958924 
L 503.349174 116.776722 
L 505.943182 117.94441 
L 508.53719 96.077203 
L 511.131198 105.840879 
L 513.725207 122.963816 
L 516.319215 148.866985 
L 518.913223 154.893355 
L 521.507231 166.183542 
L 524.10124 171.559587 
L 526.695248 150.1032 
L 529.289256 123.13959 
L 531.883264 122.193717 
L 534.477273 131.121625 
L 537.071281 128.693728 
L 539.665289 149.580986 
L 542.259298 121.658764 
L 544.853306 122.23319 
L 547.447314 141.225675 
L 550.041322 143.62542 
L 552.635331 153.975571 
L 555.229339 113.976999 
L 557.823347 98.301723 
L 560.417355 100.795319 
L 563.011364 108.030618 
L 565.605372 144.055524 
L 568.19938 145.30434 
L 570.793388 157.017133 
L 573.387397 153.501947 
L 575.981405 160.964993 
L 578.575413 161.628216 
L 581.169421 192.52501 
L 583.76343 188.112146 
L 586.357438 166.160935 
L 588.951446 178.841884 
L 591.545455 182.898029 
L 594.139463 214.597413 
L 596.733471 225.714985 
L 599.327479 225.466198 
L 601.921488 235.023689 
L 604.515496 207.214094 
L 607.109504 195.692855 
L 609.703512 187.467386 
L 612.297521 196.353998 
L 614.891529 160.400457 
L 617.485537 169.338107 
L 620.079545 169.571397 
L 622.673554 171.034189 
L 625.267562 164.882203 
L 627.86157 157.505804 
L 630.455579 161.639218 
L 633.049587 159.821806 
L 635.643595 172.013008 
L 638.237603 183.167076 
L 640.831612 179.623522 
L 643.42562 170.093589 
L 646.019628 162.367417 
L 648.613636 158.111906 
L 651.207645 165.742645 
L 653.801653 188.566686 
L 656.395661 167.000469 
L 658.989669 170.863989 
L 664.177686 172.978365 
L 666.771694 175.757531 
L 669.365702 189.392078 
L 671.959711 211.329393 
L 674.553719 222.88195 
L 677.147727 217.760872 
L 679.741736 227.816891 
L 682.335744 242.84457 
L 684.929752 239.572883 
L 687.52376 257.977573 
L 690.117769 260.436224 
L 692.711777 252.544213 
L 695.305785 255.100675 
L 697.899793 269.57182 
L 700.493802 274.847638 
L 703.08781 271.009857 
L 705.681818 264.784921 
L 708.275826 264.804097 
L 710.869835 257.222568 
L 713.463843 251.503628 
L 716.057851 280.999964 
L 718.65186 269.933887 
L 721.245868 275.514211 
L 723.839876 289.32108 
L 726.433884 278.256838 
L 729.027893 287.948143 
L 731.621901 298.272381 
L 734.215909 301.018612 
L 736.809917 305.676122 
L 739.403926 301.261393 
L 741.997934 295.429484 
L 744.591942 307.72171 
L 747.18595 306.034217 
L 749.779959 315.814996 
L 752.373967 303.8542 
L 754.967975 310.924352 
L 757.561983 308.001375 
L 760.155992 302.870606 
L 762.75 306.192705 
L 765.344008 293.003135 
L 767.938017 292.430936 
L 770.532025 280.795209 
L 773.126033 292.412535 
L 775.720041 255.891744 
L 778.31405 274.072294 
L 780.908058 264.16641 
L 783.502066 251.089006 
L 786.096074 265.271088 
L 788.690083 256.738292 
L 791.284091 271.507174 
L 793.878099 258.414241 
L 796.472107 273.273963 
L 799.066116 282.543809 
L 801.660124 274.219499 
L 804.254132 273.721956 
L 806.84814 270.843497 
L 809.442149 275.50287 
L 812.036157 271.517027 
L 814.630165 293.570159 
L 817.224174 289.785044 
L 819.818182 294.106726 
L 822.41219 279.234878 
L 825.006198 280.195304 
L 827.600207 291.008444 
L 830.194215 279.77607 
L 832.788223 289.964102 
L 835.382231 277.852643 
L 837.97624 282.82119 
L 840.570248 278.681757 
L 843.164256 278.925804 
L 845.758264 273.794173 
L 848.352273 248.91979 
L 850.946281 252.813356 
L 853.540289 250.321097 
L 856.134298 254.211563 
L 858.728306 244.062654 
L 861.322314 257.135094 
L 863.916322 261.254049 
L 866.510331 261.210746 
L 869.104339 254.232066 
L 871.698347 255.614822 
L 874.292355 264.386302 
L 876.886364 256.341477 
L 879.480372 263.898013 
L 882.07438 274.520639 
L 884.668388 280.071857 
L 887.262397 289.252475 
L 889.856405 292.284651 
L 892.450413 294.601065 
L 895.044421 294.560446 
L 897.63843 301.149975 
L 900.232438 286.776886 
L 902.826446 285.994591 
L 905.420455 291.93896 
L 908.014463 315.300769 
L 910.608471 317.138768 
L 915.796488 316.518182 
L 918.390496 307.189236 
L 920.984504 302.471488 
L 923.578512 305.448396 
L 926.172521 303.024577 
L 928.766529 297.352457 
L 931.360537 303.491975 
L 933.954545 302.738078 
L 936.548554 294.786872 
L 939.142562 296.078524 
L 941.73657 292.703482 
L 944.330579 283.983131 
L 946.924587 281.88171 
L 949.518595 283.257523 
L 952.112603 285.67879 
L 954.706612 286.190133 
L 957.30062 291.570744 
L 959.894628 290.748754 
L 962.488636 290.135685 
L 965.082645 291.935865 
L 967.676653 304.041516 
L 970.270661 295.142803 
L 972.864669 295.510075 
L 975.458678 300.438903 
L 978.052686 296.532825 
L 980.646694 296.022621 
L 983.240702 292.513093 
L 985.834711 305.26004 
L 988.428719 301.042533 
L 991.022727 297.798615 
L 993.616736 300.886383 
L 996.210744 291.204027 
L 998.804752 299.478641 
L 1003.992769 304.202481 
L 1006.586777 305.742828 
L 1009.180785 308.003745 
L 1011.774793 305.029841 
L 1014.368802 307.453035 
L 1016.96281 311.74646 
L 1019.556818 310.881503 
L 1022.150826 316.726865 
L 1024.744835 313.228604 
L 1027.338843 313.111619 
L 1029.932851 319.407994 
L 1032.52686 314.697933 
L 1035.120868 316.267748 
L 1037.714876 313.552372 
L 1040.308884 321.448428 
L 1042.902893 326.390353 
L 1045.496901 322.934574 
L 1048.090909 325.979148 
L 1050.684917 321.582617 
L 1053.278926 315.796539 
L 1055.872934 323.087982 
L 1058.466942 325.627667 
L 1061.06095 317.64402 
L 1063.654959 328.248993 
L 1066.248967 332.368348 
L 1068.842975 326.207989 
L 1071.436983 329.660827 
L 1074.030992 323.50253 
L 1076.625 319.001459 
L 1079.219008 315.877082 
L 1081 312.406931 
L 1081 312.406931 
" style="fill:none;stroke:#9400d3;stroke-linecap:square;stroke-width:1.5;"/>
   </g>
   <g id="patch_3">
    <path d="M 135 378 
L 135 51.84 
" style="fill:none;stroke:#000000;stroke-linecap:square;stroke-linejoin:miter;stroke-width:0.8;"/>
   </g>
   <g id="patch_4">
    <path d="M 972 378 
L 972 51.84 
" style="fill:none;stroke:#000000;stroke-linecap:square;stroke-linejoin:miter;stroke-width:0.8;"/>
   </g>
   <g id="patch_5">
    <path d="M 135 378 
L 972 378 
" style="fill:none;stroke:#000000;stroke-linecap:square;stroke-linejoin:miter;stroke-width:0.8;"/>
   </g>
   <g id="patch_6">
    <path d="M 135 51.84 
L 972 51.84 
" style="fill:none;stroke:#000000;stroke-linecap:square;stroke-linejoin:miter;stroke-width:0.8;"/>
   </g>
  </g>
 </g>
 <defs>
  <clipPath id="p1ae4912d38">
   <rect height="326.16" width="837" x="135" y="51.84"/>
  </clipPath>
 </defs>
</svg>
