<?xml version="1.0" encoding="utf-8" standalone="no"?>
<!DOCTYPE svg PUBLIC "-//W3C//DTD SVG 1.1//EN"
  "http://www.w3.org/Graphics/SVG/1.1/DTD/svg11.dtd">
<!-- Created with matplotlib (http://matplotlib.org/) -->
<svg height="1080pt" version="1.1" viewBox="0 0 10800 1080" width="10800pt" xmlns="http://www.w3.org/2000/svg" xmlns:xlink="http://www.w3.org/1999/xlink">
 <defs>
  <style type="text/css">
*{stroke-linecap:butt;stroke-linejoin:round;}
  </style>
 </defs>
 <g id="figure_1">
  <g id="patch_1">
   <path d="M 0 1080 
L 10800 1080 
L 10800 0 
L 0 0 
z
" style="fill:#ffffff;"/>
  </g>
  <g id="axes_1">
   <g id="patch_2">
    <path d="M 1350 945 
L 3010.714286 945 
L 3010.714286 129.6 
L 1350 129.6 
z
" style="fill:#ffffff;"/>
   </g>
   <g id="matplotlib.axis_1">
    <g id="xtick_1">
     <g id="line2d_1">
      <path clip-path="url(#pcb36c22f77)" d="M 1425.487013 945 
L 1425.487013 129.6 
" style="fill:none;stroke:#b0b0b0;stroke-linecap:square;stroke-width:0.8;"/>
     </g>
     <g id="line2d_2">
      <defs>
       <path d="M 0 0 
L 0 3.5 
" id="m4179a0e93b" style="stroke:#000000;stroke-width:0.8;"/>
      </defs>
      <g>
       <use style="stroke:#000000;stroke-width:0.8;" x="1425.487013" xlink:href="#m4179a0e93b" y="945"/>
      </g>
     </g>
     <g id="text_1">
      <!-- 0 -->
      <defs>
       <path d="M 31.78125 66.40625 
Q 24.171875 66.40625 20.328125 58.90625 
Q 16.5 51.421875 16.5 36.375 
Q 16.5 21.390625 20.328125 13.890625 
Q 24.171875 6.390625 31.78125 6.390625 
Q 39.453125 6.390625 43.28125 13.890625 
Q 47.125 21.390625 47.125 36.375 
Q 47.125 51.421875 43.28125 58.90625 
Q 39.453125 66.40625 31.78125 66.40625 
z
M 31.78125 74.21875 
Q 44.046875 74.21875 50.515625 64.515625 
Q 56.984375 54.828125 56.984375 36.375 
Q 56.984375 17.96875 50.515625 8.265625 
Q 44.046875 -1.421875 31.78125 -1.421875 
Q 19.53125 -1.421875 13.0625 8.265625 
Q 6.59375 17.96875 6.59375 36.375 
Q 6.59375 54.828125 13.0625 64.515625 
Q 19.53125 74.21875 31.78125 74.21875 
z
" id="DejaVuSans-30"/>
      </defs>
      <g transform="translate(1418.488263 968.716563)scale(0.22 -0.22)">
       <use xlink:href="#DejaVuSans-30"/>
      </g>
     </g>
    </g>
    <g id="xtick_2">
     <g id="line2d_3">
      <path clip-path="url(#pcb36c22f77)" d="M 1753.691417 945 
L 1753.691417 129.6 
" style="fill:none;stroke:#b0b0b0;stroke-linecap:square;stroke-width:0.8;"/>
     </g>
     <g id="line2d_4">
      <g>
       <use style="stroke:#000000;stroke-width:0.8;" x="1753.691417" xlink:href="#m4179a0e93b" y="945"/>
      </g>
     </g>
     <g id="text_2">
      <!-- 50 -->
      <defs>
       <path d="M 10.796875 72.90625 
L 49.515625 72.90625 
L 49.515625 64.59375 
L 19.828125 64.59375 
L 19.828125 46.734375 
Q 21.96875 47.46875 24.109375 47.828125 
Q 26.265625 48.1875 28.421875 48.1875 
Q 40.625 48.1875 47.75 41.5 
Q 54.890625 34.8125 54.890625 23.390625 
Q 54.890625 11.625 47.5625 5.09375 
Q 40.234375 -1.421875 26.90625 -1.421875 
Q 22.3125 -1.421875 17.546875 -0.640625 
Q 12.796875 0.140625 7.71875 1.703125 
L 7.71875 11.625 
Q 12.109375 9.234375 16.796875 8.0625 
Q 21.484375 6.890625 26.703125 6.890625 
Q 35.15625 6.890625 40.078125 11.328125 
Q 45.015625 15.765625 45.015625 23.390625 
Q 45.015625 31 40.078125 35.4375 
Q 35.15625 39.890625 26.703125 39.890625 
Q 22.75 39.890625 18.8125 39.015625 
Q 14.890625 38.140625 10.796875 36.28125 
z
" id="DejaVuSans-35"/>
      </defs>
      <g transform="translate(1739.693917 968.716563)scale(0.22 -0.22)">
       <use xlink:href="#DejaVuSans-35"/>
       <use x="63.623047" xlink:href="#DejaVuSans-30"/>
      </g>
     </g>
    </g>
    <g id="xtick_3">
     <g id="line2d_5">
      <path clip-path="url(#pcb36c22f77)" d="M 2081.895822 945 
L 2081.895822 129.6 
" style="fill:none;stroke:#b0b0b0;stroke-linecap:square;stroke-width:0.8;"/>
     </g>
     <g id="line2d_6">
      <g>
       <use style="stroke:#000000;stroke-width:0.8;" x="2081.895822" xlink:href="#m4179a0e93b" y="945"/>
      </g>
     </g>
     <g id="text_3">
      <!-- 100 -->
      <defs>
       <path d="M 12.40625 8.296875 
L 28.515625 8.296875 
L 28.515625 63.921875 
L 10.984375 60.40625 
L 10.984375 69.390625 
L 28.421875 72.90625 
L 38.28125 72.90625 
L 38.28125 8.296875 
L 54.390625 8.296875 
L 54.390625 0 
L 12.40625 0 
z
" id="DejaVuSans-31"/>
      </defs>
      <g transform="translate(2060.899572 968.716563)scale(0.22 -0.22)">
       <use xlink:href="#DejaVuSans-31"/>
       <use x="63.623047" xlink:href="#DejaVuSans-30"/>
       <use x="127.246094" xlink:href="#DejaVuSans-30"/>
      </g>
     </g>
    </g>
    <g id="xtick_4">
     <g id="line2d_7">
      <path clip-path="url(#pcb36c22f77)" d="M 2410.100226 945 
L 2410.100226 129.6 
" style="fill:none;stroke:#b0b0b0;stroke-linecap:square;stroke-width:0.8;"/>
     </g>
     <g id="line2d_8">
      <g>
       <use style="stroke:#000000;stroke-width:0.8;" x="2410.100226" xlink:href="#m4179a0e93b" y="945"/>
      </g>
     </g>
     <g id="text_4">
      <!-- 150 -->
      <g transform="translate(2389.103976 968.716563)scale(0.22 -0.22)">
       <use xlink:href="#DejaVuSans-31"/>
       <use x="63.623047" xlink:href="#DejaVuSans-35"/>
       <use x="127.246094" xlink:href="#DejaVuSans-30"/>
      </g>
     </g>
    </g>
    <g id="xtick_5">
     <g id="line2d_9">
      <path clip-path="url(#pcb36c22f77)" d="M 2738.30463 945 
L 2738.30463 129.6 
" style="fill:none;stroke:#b0b0b0;stroke-linecap:square;stroke-width:0.8;"/>
     </g>
     <g id="line2d_10">
      <g>
       <use style="stroke:#000000;stroke-width:0.8;" x="2738.30463" xlink:href="#m4179a0e93b" y="945"/>
      </g>
     </g>
     <g id="text_5">
      <!-- 200 -->
      <defs>
       <path d="M 19.1875 8.296875 
L 53.609375 8.296875 
L 53.609375 0 
L 7.328125 0 
L 7.328125 8.296875 
Q 12.9375 14.109375 22.625 23.890625 
Q 32.328125 33.6875 34.8125 36.53125 
Q 39.546875 41.84375 41.421875 45.53125 
Q 43.3125 49.21875 43.3125 52.78125 
Q 43.3125 58.59375 39.234375 62.25 
Q 35.15625 65.921875 28.609375 65.921875 
Q 23.96875 65.921875 18.8125 64.3125 
Q 13.671875 62.703125 7.8125 59.421875 
L 7.8125 69.390625 
Q 13.765625 71.78125 18.9375 73 
Q 24.125 74.21875 28.421875 74.21875 
Q 39.75 74.21875 46.484375 68.546875 
Q 53.21875 62.890625 53.21875 53.421875 
Q 53.21875 48.921875 51.53125 44.890625 
Q 49.859375 40.875 45.40625 35.40625 
Q 44.1875 33.984375 37.640625 27.21875 
Q 31.109375 20.453125 19.1875 8.296875 
z
" id="DejaVuSans-32"/>
      </defs>
      <g transform="translate(2717.30838 968.716563)scale(0.22 -0.22)">
       <use xlink:href="#DejaVuSans-32"/>
       <use x="63.623047" xlink:href="#DejaVuSans-30"/>
       <use x="127.246094" xlink:href="#DejaVuSans-30"/>
      </g>
     </g>
    </g>
   </g>
   <g id="matplotlib.axis_2">
    <g id="ytick_1">
     <g id="line2d_11">
      <path clip-path="url(#pcb36c22f77)" d="M 1350 945 
L 3010.714286 945 
" style="fill:none;stroke:#b0b0b0;stroke-linecap:square;stroke-width:0.8;"/>
     </g>
     <g id="line2d_12">
      <defs>
       <path d="M 0 0 
L -3.5 0 
" id="mf2eb2133d9" style="stroke:#000000;stroke-width:0.8;"/>
      </defs>
      <g>
       <use style="stroke:#000000;stroke-width:0.8;" x="1350" xlink:href="#mf2eb2133d9" y="945"/>
      </g>
     </g>
     <g id="text_6">
      <!-- 0.4 -->
      <defs>
       <path d="M 10.6875 12.40625 
L 21 12.40625 
L 21 0 
L 10.6875 0 
z
" id="DejaVuSans-2e"/>
       <path d="M 37.796875 64.3125 
L 12.890625 25.390625 
L 37.796875 25.390625 
z
M 35.203125 72.90625 
L 47.609375 72.90625 
L 47.609375 25.390625 
L 58.015625 25.390625 
L 58.015625 17.1875 
L 47.609375 17.1875 
L 47.609375 0 
L 37.796875 0 
L 37.796875 17.1875 
L 4.890625 17.1875 
L 4.890625 26.703125 
z
" id="DejaVuSans-34"/>
      </defs>
      <g transform="translate(1308.013125 953.358281)scale(0.22 -0.22)">
       <use xlink:href="#DejaVuSans-30"/>
       <use x="63.623047" xlink:href="#DejaVuSans-2e"/>
       <use x="95.410156" xlink:href="#DejaVuSans-34"/>
      </g>
     </g>
    </g>
    <g id="ytick_2">
     <g id="line2d_13">
      <path clip-path="url(#pcb36c22f77)" d="M 1350 809.1 
L 3010.714286 809.1 
" style="fill:none;stroke:#b0b0b0;stroke-linecap:square;stroke-width:0.8;"/>
     </g>
     <g id="line2d_14">
      <g>
       <use style="stroke:#000000;stroke-width:0.8;" x="1350" xlink:href="#mf2eb2133d9" y="809.1"/>
      </g>
     </g>
     <g id="text_7">
      <!-- 0.5 -->
      <g transform="translate(1308.013125 817.458281)scale(0.22 -0.22)">
       <use xlink:href="#DejaVuSans-30"/>
       <use x="63.623047" xlink:href="#DejaVuSans-2e"/>
       <use x="95.410156" xlink:href="#DejaVuSans-35"/>
      </g>
     </g>
    </g>
    <g id="ytick_3">
     <g id="line2d_15">
      <path clip-path="url(#pcb36c22f77)" d="M 1350 673.2 
L 3010.714286 673.2 
" style="fill:none;stroke:#b0b0b0;stroke-linecap:square;stroke-width:0.8;"/>
     </g>
     <g id="line2d_16">
      <g>
       <use style="stroke:#000000;stroke-width:0.8;" x="1350" xlink:href="#mf2eb2133d9" y="673.2"/>
      </g>
     </g>
     <g id="text_8">
      <!-- 0.6 -->
      <defs>
       <path d="M 33.015625 40.375 
Q 26.375 40.375 22.484375 35.828125 
Q 18.609375 31.296875 18.609375 23.390625 
Q 18.609375 15.53125 22.484375 10.953125 
Q 26.375 6.390625 33.015625 6.390625 
Q 39.65625 6.390625 43.53125 10.953125 
Q 47.40625 15.53125 47.40625 23.390625 
Q 47.40625 31.296875 43.53125 35.828125 
Q 39.65625 40.375 33.015625 40.375 
z
M 52.59375 71.296875 
L 52.59375 62.3125 
Q 48.875 64.0625 45.09375 64.984375 
Q 41.3125 65.921875 37.59375 65.921875 
Q 27.828125 65.921875 22.671875 59.328125 
Q 17.53125 52.734375 16.796875 39.40625 
Q 19.671875 43.65625 24.015625 45.921875 
Q 28.375 48.1875 33.59375 48.1875 
Q 44.578125 48.1875 50.953125 41.515625 
Q 57.328125 34.859375 57.328125 23.390625 
Q 57.328125 12.15625 50.6875 5.359375 
Q 44.046875 -1.421875 33.015625 -1.421875 
Q 20.359375 -1.421875 13.671875 8.265625 
Q 6.984375 17.96875 6.984375 36.375 
Q 6.984375 53.65625 15.1875 63.9375 
Q 23.390625 74.21875 37.203125 74.21875 
Q 40.921875 74.21875 44.703125 73.484375 
Q 48.484375 72.75 52.59375 71.296875 
z
" id="DejaVuSans-36"/>
      </defs>
      <g transform="translate(1308.013125 681.558281)scale(0.22 -0.22)">
       <use xlink:href="#DejaVuSans-30"/>
       <use x="63.623047" xlink:href="#DejaVuSans-2e"/>
       <use x="95.410156" xlink:href="#DejaVuSans-36"/>
      </g>
     </g>
    </g>
    <g id="ytick_4">
     <g id="line2d_17">
      <path clip-path="url(#pcb36c22f77)" d="M 1350 537.3 
L 3010.714286 537.3 
" style="fill:none;stroke:#b0b0b0;stroke-linecap:square;stroke-width:0.8;"/>
     </g>
     <g id="line2d_18">
      <g>
       <use style="stroke:#000000;stroke-width:0.8;" x="1350" xlink:href="#mf2eb2133d9" y="537.3"/>
      </g>
     </g>
     <g id="text_9">
      <!-- 0.7 -->
      <defs>
       <path d="M 8.203125 72.90625 
L 55.078125 72.90625 
L 55.078125 68.703125 
L 28.609375 0 
L 18.3125 0 
L 43.21875 64.59375 
L 8.203125 64.59375 
z
" id="DejaVuSans-37"/>
      </defs>
      <g transform="translate(1308.013125 545.658281)scale(0.22 -0.22)">
       <use xlink:href="#DejaVuSans-30"/>
       <use x="63.623047" xlink:href="#DejaVuSans-2e"/>
       <use x="95.410156" xlink:href="#DejaVuSans-37"/>
      </g>
     </g>
    </g>
    <g id="ytick_5">
     <g id="line2d_19">
      <path clip-path="url(#pcb36c22f77)" d="M 1350 401.4 
L 3010.714286 401.4 
" style="fill:none;stroke:#b0b0b0;stroke-linecap:square;stroke-width:0.8;"/>
     </g>
     <g id="line2d_20">
      <g>
       <use style="stroke:#000000;stroke-width:0.8;" x="1350" xlink:href="#mf2eb2133d9" y="401.4"/>
      </g>
     </g>
     <g id="text_10">
      <!-- 0.8 -->
      <defs>
       <path d="M 31.78125 34.625 
Q 24.75 34.625 20.71875 30.859375 
Q 16.703125 27.09375 16.703125 20.515625 
Q 16.703125 13.921875 20.71875 10.15625 
Q 24.75 6.390625 31.78125 6.390625 
Q 38.8125 6.390625 42.859375 10.171875 
Q 46.921875 13.96875 46.921875 20.515625 
Q 46.921875 27.09375 42.890625 30.859375 
Q 38.875 34.625 31.78125 34.625 
z
M 21.921875 38.8125 
Q 15.578125 40.375 12.03125 44.71875 
Q 8.5 49.078125 8.5 55.328125 
Q 8.5 64.0625 14.71875 69.140625 
Q 20.953125 74.21875 31.78125 74.21875 
Q 42.671875 74.21875 48.875 69.140625 
Q 55.078125 64.0625 55.078125 55.328125 
Q 55.078125 49.078125 51.53125 44.71875 
Q 48 40.375 41.703125 38.8125 
Q 48.828125 37.15625 52.796875 32.3125 
Q 56.78125 27.484375 56.78125 20.515625 
Q 56.78125 9.90625 50.3125 4.234375 
Q 43.84375 -1.421875 31.78125 -1.421875 
Q 19.734375 -1.421875 13.25 4.234375 
Q 6.78125 9.90625 6.78125 20.515625 
Q 6.78125 27.484375 10.78125 32.3125 
Q 14.796875 37.15625 21.921875 38.8125 
z
M 18.3125 54.390625 
Q 18.3125 48.734375 21.84375 45.5625 
Q 25.390625 42.390625 31.78125 42.390625 
Q 38.140625 42.390625 41.71875 45.5625 
Q 45.3125 48.734375 45.3125 54.390625 
Q 45.3125 60.0625 41.71875 63.234375 
Q 38.140625 66.40625 31.78125 66.40625 
Q 25.390625 66.40625 21.84375 63.234375 
Q 18.3125 60.0625 18.3125 54.390625 
z
" id="DejaVuSans-38"/>
      </defs>
      <g transform="translate(1308.013125 409.758281)scale(0.22 -0.22)">
       <use xlink:href="#DejaVuSans-30"/>
       <use x="63.623047" xlink:href="#DejaVuSans-2e"/>
       <use x="95.410156" xlink:href="#DejaVuSans-38"/>
      </g>
     </g>
    </g>
    <g id="ytick_6">
     <g id="line2d_21">
      <path clip-path="url(#pcb36c22f77)" d="M 1350 265.5 
L 3010.714286 265.5 
" style="fill:none;stroke:#b0b0b0;stroke-linecap:square;stroke-width:0.8;"/>
     </g>
     <g id="line2d_22">
      <g>
       <use style="stroke:#000000;stroke-width:0.8;" x="1350" xlink:href="#mf2eb2133d9" y="265.5"/>
      </g>
     </g>
     <g id="text_11">
      <!-- 0.9 -->
      <defs>
       <path d="M 10.984375 1.515625 
L 10.984375 10.5 
Q 14.703125 8.734375 18.5 7.8125 
Q 22.3125 6.890625 25.984375 6.890625 
Q 35.75 6.890625 40.890625 13.453125 
Q 46.046875 20.015625 46.78125 33.40625 
Q 43.953125 29.203125 39.59375 26.953125 
Q 35.25 24.703125 29.984375 24.703125 
Q 19.046875 24.703125 12.671875 31.3125 
Q 6.296875 37.9375 6.296875 49.421875 
Q 6.296875 60.640625 12.9375 67.421875 
Q 19.578125 74.21875 30.609375 74.21875 
Q 43.265625 74.21875 49.921875 64.515625 
Q 56.59375 54.828125 56.59375 36.375 
Q 56.59375 19.140625 48.40625 8.859375 
Q 40.234375 -1.421875 26.421875 -1.421875 
Q 22.703125 -1.421875 18.890625 -0.6875 
Q 15.09375 0.046875 10.984375 1.515625 
z
M 30.609375 32.421875 
Q 37.25 32.421875 41.125 36.953125 
Q 45.015625 41.5 45.015625 49.421875 
Q 45.015625 57.28125 41.125 61.84375 
Q 37.25 66.40625 30.609375 66.40625 
Q 23.96875 66.40625 20.09375 61.84375 
Q 16.21875 57.28125 16.21875 49.421875 
Q 16.21875 41.5 20.09375 36.953125 
Q 23.96875 32.421875 30.609375 32.421875 
z
" id="DejaVuSans-39"/>
      </defs>
      <g transform="translate(1308.013125 273.858281)scale(0.22 -0.22)">
       <use xlink:href="#DejaVuSans-30"/>
       <use x="63.623047" xlink:href="#DejaVuSans-2e"/>
       <use x="95.410156" xlink:href="#DejaVuSans-39"/>
      </g>
     </g>
    </g>
    <g id="ytick_7">
     <g id="line2d_23">
      <path clip-path="url(#pcb36c22f77)" d="M 1350 129.6 
L 3010.714286 129.6 
" style="fill:none;stroke:#b0b0b0;stroke-linecap:square;stroke-width:0.8;"/>
     </g>
     <g id="line2d_24">
      <g>
       <use style="stroke:#000000;stroke-width:0.8;" x="1350" xlink:href="#mf2eb2133d9" y="129.6"/>
      </g>
     </g>
     <g id="text_12">
      <!-- 1.0 -->
      <g transform="translate(1308.013125 137.958281)scale(0.22 -0.22)">
       <use xlink:href="#DejaVuSans-31"/>
       <use x="63.623047" xlink:href="#DejaVuSans-2e"/>
       <use x="95.410156" xlink:href="#DejaVuSans-30"/>
      </g>
     </g>
    </g>
   </g>
   <g id="line2d_25">
    <path clip-path="url(#pcb36c22f77)" d="M 1425.487013 537.3 
L 1432.051101 537.3 
L 1438.615189 492 
L 1445.179277 492 
L 1458.307453 401.4 
L 1484.563806 582.6 
L 1491.127894 537.3 
L 1497.691982 582.6 
L 1504.25607 582.6 
L 1523.948334 446.7 
L 1537.07651 446.7 
L 1543.640599 401.4 
L 1556.768775 401.4 
L 1563.332863 446.7 
L 1569.896951 401.4 
L 1583.025127 401.4 
L 1589.589215 446.7 
L 1602.717391 446.7 
L 1609.281479 492 
L 1615.845567 492 
L 1622.409656 537.3 
L 1648.666008 537.3 
L 1655.230096 582.6 
L 1668.358272 582.6 
L 1674.92236 537.3 
L 1681.486448 537.3 
L 1688.050536 582.6 
L 1694.614625 537.3 
L 1707.742801 537.3 
L 1714.306889 582.6 
L 1747.127329 582.6 
L 1753.691417 627.9 
L 1760.255505 582.6 
L 1766.819593 627.9 
L 1779.94777 627.9 
L 1786.511858 582.6 
L 1793.075946 627.9 
L 1799.640034 627.9 
L 1806.204122 582.6 
L 1819.332298 582.6 
L 1832.460474 673.2 
L 1852.152739 673.2 
L 1865.280915 582.6 
L 1871.845003 627.9 
L 1884.973179 537.3 
L 1911.229531 537.3 
L 1917.793619 582.6 
L 1937.485884 582.6 
L 1944.049972 627.9 
L 1957.178148 627.9 
L 1963.742236 582.6 
L 1976.870412 673.2 
L 1983.4345 673.2 
L 1989.998588 627.9 
L 1996.562676 627.9 
L 2003.126765 673.2 
L 2009.690853 673.2 
L 2016.254941 627.9 
L 2022.819029 627.9 
L 2029.383117 582.6 
L 2035.947205 582.6 
L 2042.511293 627.9 
L 2049.075381 582.6 
L 2055.639469 627.9 
L 2062.203557 627.9 
L 2068.767645 582.6 
L 2101.588086 582.6 
L 2114.716262 492 
L 2127.844438 582.6 
L 2134.408526 582.6 
L 2147.536702 492 
L 2154.100791 492 
L 2160.664879 537.3 
L 2173.793055 446.7 
L 2180.357143 492 
L 2186.921231 492 
L 2193.485319 537.3 
L 2206.613495 537.3 
L 2213.177583 582.6 
L 2219.741671 537.3 
L 2232.869848 537.3 
L 2239.433936 492 
L 2252.562112 492 
L 2259.1262 537.3 
L 2311.638905 537.3 
L 2324.767081 446.7 
L 2344.459345 446.7 
L 2351.023433 492 
L 2364.151609 492 
L 2370.715697 537.3 
L 2383.843874 537.3 
L 2390.407962 492 
L 2396.97205 492 
L 2403.536138 537.3 
L 2410.100226 492 
L 2429.79249 627.9 
L 2442.920666 627.9 
L 2456.048842 537.3 
L 2488.869283 537.3 
L 2501.997459 627.9 
L 2515.125635 627.9 
L 2534.817899 763.8 
L 2541.381988 763.8 
L 2554.510164 673.2 
L 2561.074252 673.2 
L 2574.202428 582.6 
L 2587.330604 673.2 
L 2600.45878 582.6 
L 2613.586957 582.6 
L 2626.715133 492 
L 2633.279221 492 
L 2666.099661 718.5 
L 2679.227837 718.5 
L 2685.791925 763.8 
L 2705.48419 763.8 
L 2712.048278 809.1 
L 2718.612366 809.1 
L 2731.740542 718.5 
L 2738.30463 718.5 
L 2751.432806 809.1 
L 2757.996894 809.1 
L 2764.560982 854.4 
L 2771.125071 854.4 
L 2784.253247 763.8 
L 2797.381423 763.8 
L 2797.381423 763.8 
" style="fill:none;stroke:#32cd32;stroke-linecap:square;stroke-width:5;"/>
   </g>
   <g id="line2d_26">
    <path clip-path="url(#pcb36c22f77)" d="M 1425.487013 569.441429 
L 1445.179277 501.491429 
L 1451.743365 484.503929 
L 1458.307453 474.796786 
L 1464.871542 452.146786 
L 1471.43563 456.676786 
L 1477.999718 501.976786 
L 1491.127894 456.676786 
L 1497.691982 440.498214 
L 1504.25607 440.498214 
L 1517.384246 395.198214 
L 1523.948334 400.231548 
L 1537.07651 409.291548 
L 1543.640599 409.291548 
L 1550.204687 363.991548 
L 1556.768775 375.316548 
L 1563.332863 379.846548 
L 1569.896951 334.546548 
L 1576.461039 317.559048 
L 1583.025127 327.625714 
L 1589.589215 327.625714 
L 1596.153303 347.04 
L 1602.717391 355.276364 
L 1609.281479 355.276364 
L 1615.845567 394.104935 
L 1622.409656 424.304935 
L 1628.973744 446.954935 
L 1635.537832 454.504935 
L 1642.10192 458.623117 
L 1648.666008 452.960617 
L 1655.230096 481.54276 
L 1661.794184 481.54276 
L 1668.358272 469.46276 
L 1674.92236 424.16276 
L 1681.486448 427.398474 
L 1688.050536 472.698474 
L 1694.614625 477.552045 
L 1701.178713 519.832045 
L 1707.742801 519.832045 
L 1714.306889 524.865379 
L 1720.870977 519.832045 
L 1727.435065 521.773474 
L 1733.999153 521.773474 
L 1740.563241 520.263474 
L 1747.127329 525.592886 
L 1753.691417 514.267886 
L 1760.255505 500.677886 
L 1766.819593 500.677886 
L 1773.383682 507.369931 
L 1779.94777 503.774693 
L 1786.511858 515.099693 
L 1793.075946 499.460407 
L 1799.640034 502.549044 
L 1806.204122 507.317465 
L 1812.76821 462.017465 
L 1819.332298 456.688053 
L 1825.896386 434.038053 
L 1832.460474 461.334207 
L 1839.024562 457.216025 
L 1845.58865 470.158882 
L 1852.152739 432.118498 
L 1858.716827 436.648498 
L 1865.280915 429.098498 
L 1871.845003 437.092615 
L 1878.409091 433.856901 
L 1884.973179 398.623568 
L 1891.537267 394.451199 
L 1898.101355 360.664949 
L 1904.665443 371.989949 
L 1911.229531 370.19233 
L 1917.793619 376.98733 
L 1924.357708 378.510019 
L 1930.921796 385.305019 
L 1937.485884 374.735019 
L 1944.049972 407.910608 
L 1950.61406 430.560608 
L 1957.178148 421.500608 
L 1963.742236 425.439738 
L 1970.306324 449.756621 
L 1976.870412 443.285192 
L 1983.4345 442.619016 
L 1989.998588 447.337766 
L 1996.562676 475.876766 
L 2003.126765 471.108345 
L 2009.690853 471.108345 
L 2016.254941 431.137757 
L 2022.819029 433.802463 
L 2029.383117 405.92554 
L 2035.947205 405.92554 
L 2042.511293 402.042682 
L 2049.075381 403.326488 
L 2055.639469 435.036488 
L 2062.203557 436.546488 
L 2068.767645 433.08237 
L 2075.331733 439.87737 
L 2081.895822 439.347546 
L 2088.45991 439.347546 
L 2095.023998 442.178796 
L 2101.588086 437.102072 
L 2108.152174 444.738357 
L 2114.716262 446.179721 
L 2121.28035 476.237603 
L 2127.844438 467.177603 
L 2134.408526 470.952603 
L 2140.972614 441.507603 
L 2147.536702 418.857603 
L 2154.100791 418.857603 
L 2160.664879 414.918473 
L 2167.228967 382.365226 
L 2173.793055 392.819072 
L 2180.357143 393.032249 
L 2186.921231 427.950999 
L 2193.485319 427.724499 
L 2200.049407 434.802624 
L 2206.613495 438.741754 
L 2213.177583 448.448897 
L 2219.741671 484.11496 
L 2226.305759 483.617158 
L 2232.869848 483.617158 
L 2239.433936 482.107158 
L 2245.998024 486.711151 
L 2252.562112 460.178294 
L 2259.1262 456.780794 
L 2265.690288 462.317461 
L 2272.254376 461.993889 
L 2278.818464 455.941662 
L 2285.382552 448.789031 
L 2291.94664 439.523122 
L 2298.510728 443.503878 
L 2305.074816 442.004292 
L 2311.638905 439.945201 
L 2318.202993 403.862766 
L 2324.767081 411.507141 
L 2331.331169 440.952141 
L 2337.895257 443.582464 
L 2344.459345 453.019964 
L 2351.023433 489.259964 
L 2357.587521 489.259964 
L 2364.151609 485.141782 
L 2370.715697 483.455678 
L 2377.279785 482.493053 
L 2383.843874 443.327428 
L 2390.407962 411.239928 
L 2396.97205 444.025803 
L 2403.536138 441.898672 
L 2410.100226 441.251529 
L 2416.664314 413.579584 
L 2423.228402 445.438924 
L 2429.79249 445.438924 
L 2436.356578 446.600463 
L 2442.920666 444.778049 
L 2449.484754 474.708406 
L 2456.048842 486.033406 
L 2462.612931 480.084921 
L 2469.177019 480.919944 
L 2475.741107 485.824218 
L 2482.305195 498.767075 
L 2488.869283 508.398307 
L 2495.433371 503.831775 
L 2501.997459 539.759361 
L 2508.561547 541.818452 
L 2515.125635 551.173886 
L 2521.689723 571.464511 
L 2528.253811 540.257845 
L 2534.817899 563.138575 
L 2541.381988 564.682893 
L 2547.946076 540.522893 
L 2554.510164 548.576226 
L 2561.074252 556.341941 
L 2567.63834 554.235963 
L 2574.202428 554.985412 
L 2580.766516 559.798537 
L 2587.330604 560.484901 
L 2593.894692 525.518198 
L 2600.45878 530.177626 
L 2607.022868 532.442626 
L 2613.586957 555.758803 
L 2620.151045 528.753034 
L 2626.715133 536.303034 
L 2633.279221 532.624829 
L 2639.843309 532.22746 
L 2646.407397 533.121539 
L 2652.971485 553.884039 
L 2659.535573 549.765857 
L 2666.099661 551.704304 
L 2672.663749 549.607081 
L 2679.227837 547.199108 
L 2685.791925 572.572422 
L 2692.356014 566.909922 
L 2698.920102 556.251098 
L 2705.48419 552.132916 
L 2712.048278 579.138686 
L 2718.612366 559.23414 
L 2725.176454 565.219726 
L 2731.740542 539.708673 
L 2738.30463 545.199582 
L 2744.868718 543.186249 
L 2751.432806 569.703968 
L 2757.996894 570.705996 
L 2764.560982 573.892057 
L 2771.125071 572.041567 
L 2777.689159 566.978626 
L 2784.253247 567.236012 
L 2790.817335 569.133715 
L 2797.381423 568.055143 
L 2797.381423 568.055143 
" style="fill:none;stroke:#fa8072;stroke-linecap:square;stroke-width:3;"/>
   </g>
   <g id="line2d_27">
    <path clip-path="url(#pcb36c22f77)" d="M 1350 809.1 
L 3010.714286 809.1 
" style="fill:none;opacity:0.7;stroke:#ff0000;stroke-dasharray:5.55,2.4;stroke-dashoffset:0;stroke-width:1.5;"/>
   </g>
   <g id="patch_3">
    <path d="M 1350 945 
L 1350 129.6 
" style="fill:none;stroke:#000000;stroke-linecap:square;stroke-linejoin:miter;stroke-width:0.8;"/>
   </g>
   <g id="patch_4">
    <path d="M 3010.714286 945 
L 3010.714286 129.6 
" style="fill:none;stroke:#000000;stroke-linecap:square;stroke-linejoin:miter;stroke-width:0.8;"/>
   </g>
   <g id="patch_5">
    <path d="M 1350 945 
L 3010.714286 945 
" style="fill:none;stroke:#000000;stroke-linecap:square;stroke-linejoin:miter;stroke-width:0.8;"/>
   </g>
   <g id="patch_6">
    <path d="M 1350 129.6 
L 3010.714286 129.6 
" style="fill:none;stroke:#000000;stroke-linecap:square;stroke-linejoin:miter;stroke-width:0.8;"/>
   </g>
  </g>
  <g id="axes_2">
   <g id="patch_7">
    <path d="M 3027.321429 945 
L 4688.035714 945 
L 4688.035714 129.6 
L 3027.321429 129.6 
z
" style="fill:#ffffff;"/>
   </g>
   <g id="matplotlib.axis_3">
    <g id="xtick_6">
     <g id="line2d_28">
      <path clip-path="url(#p64668818dd)" d="M 3102.808442 945 
L 3102.808442 129.6 
" style="fill:none;stroke:#b0b0b0;stroke-linecap:square;stroke-width:0.8;"/>
     </g>
     <g id="line2d_29">
      <g>
       <use style="stroke:#000000;stroke-width:0.8;" x="3102.808442" xlink:href="#m4179a0e93b" y="945"/>
      </g>
     </g>
     <g id="text_13">
      <!-- 0 -->
      <g transform="translate(3095.809692 968.716563)scale(0.22 -0.22)">
       <use xlink:href="#DejaVuSans-30"/>
      </g>
     </g>
    </g>
    <g id="xtick_7">
     <g id="line2d_30">
      <path clip-path="url(#p64668818dd)" d="M 3431.012846 945 
L 3431.012846 129.6 
" style="fill:none;stroke:#b0b0b0;stroke-linecap:square;stroke-width:0.8;"/>
     </g>
     <g id="line2d_31">
      <g>
       <use style="stroke:#000000;stroke-width:0.8;" x="3431.012846" xlink:href="#m4179a0e93b" y="945"/>
      </g>
     </g>
     <g id="text_14">
      <!-- 50 -->
      <g transform="translate(3417.015346 968.716563)scale(0.22 -0.22)">
       <use xlink:href="#DejaVuSans-35"/>
       <use x="63.623047" xlink:href="#DejaVuSans-30"/>
      </g>
     </g>
    </g>
    <g id="xtick_8">
     <g id="line2d_32">
      <path clip-path="url(#p64668818dd)" d="M 3759.21725 945 
L 3759.21725 129.6 
" style="fill:none;stroke:#b0b0b0;stroke-linecap:square;stroke-width:0.8;"/>
     </g>
     <g id="line2d_33">
      <g>
       <use style="stroke:#000000;stroke-width:0.8;" x="3759.21725" xlink:href="#m4179a0e93b" y="945"/>
      </g>
     </g>
     <g id="text_15">
      <!-- 100 -->
      <g transform="translate(3738.221 968.716563)scale(0.22 -0.22)">
       <use xlink:href="#DejaVuSans-31"/>
       <use x="63.623047" xlink:href="#DejaVuSans-30"/>
       <use x="127.246094" xlink:href="#DejaVuSans-30"/>
      </g>
     </g>
    </g>
    <g id="xtick_9">
     <g id="line2d_34">
      <path clip-path="url(#p64668818dd)" d="M 4087.421654 945 
L 4087.421654 129.6 
" style="fill:none;stroke:#b0b0b0;stroke-linecap:square;stroke-width:0.8;"/>
     </g>
     <g id="line2d_35">
      <g>
       <use style="stroke:#000000;stroke-width:0.8;" x="4087.421654" xlink:href="#m4179a0e93b" y="945"/>
      </g>
     </g>
     <g id="text_16">
      <!-- 150 -->
      <g transform="translate(4066.425404 968.716563)scale(0.22 -0.22)">
       <use xlink:href="#DejaVuSans-31"/>
       <use x="63.623047" xlink:href="#DejaVuSans-35"/>
       <use x="127.246094" xlink:href="#DejaVuSans-30"/>
      </g>
     </g>
    </g>
    <g id="xtick_10">
     <g id="line2d_36">
      <path clip-path="url(#p64668818dd)" d="M 4415.626059 945 
L 4415.626059 129.6 
" style="fill:none;stroke:#b0b0b0;stroke-linecap:square;stroke-width:0.8;"/>
     </g>
     <g id="line2d_37">
      <g>
       <use style="stroke:#000000;stroke-width:0.8;" x="4415.626059" xlink:href="#m4179a0e93b" y="945"/>
      </g>
     </g>
     <g id="text_17">
      <!-- 200 -->
      <g transform="translate(4394.629809 968.716563)scale(0.22 -0.22)">
       <use xlink:href="#DejaVuSans-32"/>
       <use x="63.623047" xlink:href="#DejaVuSans-30"/>
       <use x="127.246094" xlink:href="#DejaVuSans-30"/>
      </g>
     </g>
    </g>
   </g>
   <g id="matplotlib.axis_4">
    <g id="ytick_8">
     <g id="line2d_38">
      <path clip-path="url(#p64668818dd)" d="M 3027.321429 945 
L 4688.035714 945 
" style="fill:none;stroke:#b0b0b0;stroke-linecap:square;stroke-width:0.8;"/>
     </g>
     <g id="line2d_39">
      <g>
       <use style="stroke:#000000;stroke-width:0.8;" x="3027.321429" xlink:href="#mf2eb2133d9" y="945"/>
      </g>
     </g>
    </g>
    <g id="ytick_9">
     <g id="line2d_40">
      <path clip-path="url(#p64668818dd)" d="M 3027.321429 809.1 
L 4688.035714 809.1 
" style="fill:none;stroke:#b0b0b0;stroke-linecap:square;stroke-width:0.8;"/>
     </g>
     <g id="line2d_41">
      <g>
       <use style="stroke:#000000;stroke-width:0.8;" x="3027.321429" xlink:href="#mf2eb2133d9" y="809.1"/>
      </g>
     </g>
    </g>
    <g id="ytick_10">
     <g id="line2d_42">
      <path clip-path="url(#p64668818dd)" d="M 3027.321429 673.2 
L 4688.035714 673.2 
" style="fill:none;stroke:#b0b0b0;stroke-linecap:square;stroke-width:0.8;"/>
     </g>
     <g id="line2d_43">
      <g>
       <use style="stroke:#000000;stroke-width:0.8;" x="3027.321429" xlink:href="#mf2eb2133d9" y="673.2"/>
      </g>
     </g>
    </g>
    <g id="ytick_11">
     <g id="line2d_44">
      <path clip-path="url(#p64668818dd)" d="M 3027.321429 537.3 
L 4688.035714 537.3 
" style="fill:none;stroke:#b0b0b0;stroke-linecap:square;stroke-width:0.8;"/>
     </g>
     <g id="line2d_45">
      <g>
       <use style="stroke:#000000;stroke-width:0.8;" x="3027.321429" xlink:href="#mf2eb2133d9" y="537.3"/>
      </g>
     </g>
    </g>
    <g id="ytick_12">
     <g id="line2d_46">
      <path clip-path="url(#p64668818dd)" d="M 3027.321429 401.4 
L 4688.035714 401.4 
" style="fill:none;stroke:#b0b0b0;stroke-linecap:square;stroke-width:0.8;"/>
     </g>
     <g id="line2d_47">
      <g>
       <use style="stroke:#000000;stroke-width:0.8;" x="3027.321429" xlink:href="#mf2eb2133d9" y="401.4"/>
      </g>
     </g>
    </g>
    <g id="ytick_13">
     <g id="line2d_48">
      <path clip-path="url(#p64668818dd)" d="M 3027.321429 265.5 
L 4688.035714 265.5 
" style="fill:none;stroke:#b0b0b0;stroke-linecap:square;stroke-width:0.8;"/>
     </g>
     <g id="line2d_49">
      <g>
       <use style="stroke:#000000;stroke-width:0.8;" x="3027.321429" xlink:href="#mf2eb2133d9" y="265.5"/>
      </g>
     </g>
    </g>
    <g id="ytick_14">
     <g id="line2d_50">
      <path clip-path="url(#p64668818dd)" d="M 3027.321429 129.6 
L 4688.035714 129.6 
" style="fill:none;stroke:#b0b0b0;stroke-linecap:square;stroke-width:0.8;"/>
     </g>
     <g id="line2d_51">
      <g>
       <use style="stroke:#000000;stroke-width:0.8;" x="3027.321429" xlink:href="#mf2eb2133d9" y="129.6"/>
      </g>
     </g>
    </g>
   </g>
   <g id="line2d_52">
    <path clip-path="url(#p64668818dd)" d="M 3102.808442 673.2 
L 3109.37253 627.9 
L 3122.500706 627.9 
L 3129.064794 582.6 
L 3135.628882 582.6 
L 3142.19297 627.9 
L 3148.757058 582.6 
L 3155.321146 582.6 
L 3168.449322 673.2 
L 3175.013411 673.2 
L 3181.577499 718.5 
L 3188.141587 718.5 
L 3194.705675 763.8 
L 3220.962027 763.8 
L 3240.654291 627.9 
L 3253.782468 718.5 
L 3260.346556 673.2 
L 3266.910644 718.5 
L 3273.474732 718.5 
L 3280.03882 673.2 
L 3306.295172 673.2 
L 3312.85926 718.5 
L 3319.423348 673.2 
L 3332.551525 763.8 
L 3339.115613 718.5 
L 3352.243789 718.5 
L 3358.807877 673.2 
L 3385.064229 673.2 
L 3391.628317 627.9 
L 3411.320582 763.8 
L 3450.70511 763.8 
L 3457.269198 809.1 
L 3463.833286 763.8 
L 3470.397374 809.1 
L 3483.525551 809.1 
L 3490.089639 854.4 
L 3496.653727 854.4 
L 3503.217815 899.7 
L 3509.781903 854.4 
L 3516.345991 854.4 
L 3529.474167 763.8 
L 3542.602343 763.8 
L 3549.166431 809.1 
L 3555.730519 809.1 
L 3575.422784 673.2 
L 3588.55096 673.2 
L 3595.115048 627.9 
L 3601.679136 627.9 
L 3614.807312 537.3 
L 3627.935488 537.3 
L 3634.499577 582.6 
L 3647.627753 582.6 
L 3654.191841 537.3 
L 3660.755929 537.3 
L 3667.320017 492 
L 3673.884105 492 
L 3680.448193 446.7 
L 3693.576369 446.7 
L 3700.140457 401.4 
L 3706.704545 401.4 
L 3726.39681 537.3 
L 3739.524986 537.3 
L 3746.089074 492 
L 3752.653162 492 
L 3765.781338 582.6 
L 3772.345426 582.6 
L 3778.909514 627.9 
L 3792.037691 627.9 
L 3798.601779 582.6 
L 3818.294043 582.6 
L 3824.858131 627.9 
L 3831.422219 582.6 
L 3837.986307 582.6 
L 3844.550395 537.3 
L 3851.114483 582.6 
L 3870.806748 582.6 
L 3877.370836 627.9 
L 3890.499012 627.9 
L 3897.0631 673.2 
L 3903.627188 673.2 
L 3910.191276 627.9 
L 3916.755364 627.9 
L 3923.319452 582.6 
L 3929.88354 627.9 
L 3936.447628 627.9 
L 3943.011717 673.2 
L 3956.139893 673.2 
L 3962.703981 627.9 
L 4008.652597 627.9 
L 4015.216685 673.2 
L 4021.780774 627.9 
L 4067.72939 627.9 
L 4080.857566 537.3 
L 4087.421654 537.3 
L 4093.985743 492 
L 4100.549831 492 
L 4107.113919 537.3 
L 4133.370271 537.3 
L 4139.934359 492 
L 4146.498447 492 
L 4153.062535 446.7 
L 4166.190711 446.7 
L 4172.7548 401.4 
L 4179.318888 401.4 
L 4199.011152 537.3 
L 4205.57524 537.3 
L 4212.139328 492 
L 4225.267504 582.6 
L 4238.39568 582.6 
L 4244.959768 537.3 
L 4258.087945 627.9 
L 4264.652033 627.9 
L 4271.216121 673.2 
L 4290.908385 673.2 
L 4297.472473 718.5 
L 4310.600649 627.9 
L 4317.164737 673.2 
L 4323.728826 627.9 
L 4343.42109 627.9 
L 4349.985178 673.2 
L 4376.24153 673.2 
L 4395.933794 537.3 
L 4409.061971 627.9 
L 4422.190147 537.3 
L 4435.318323 537.3 
L 4441.882411 582.6 
L 4455.010587 492 
L 4461.574675 537.3 
L 4468.138763 492 
L 4481.26694 492 
L 4487.831028 537.3 
L 4494.395116 492 
L 4514.08738 492 
L 4520.651468 537.3 
L 4540.343732 537.3 
L 4546.90782 492 
L 4579.728261 492 
L 4592.856437 582.6 
L 4599.420525 582.6 
L 4605.984613 537.3 
L 4612.548701 537.3 
L 4612.548701 537.3 
" style="fill:none;stroke:#32cd32;stroke-linecap:square;stroke-width:5;"/>
   </g>
   <g id="line2d_53">
    <path clip-path="url(#p64668818dd)" d="M 3102.808442 596.19 
L 3109.37253 573.54 
L 3115.936618 573.54 
L 3122.500706 565.99 
L 3129.064794 543.34 
L 3135.628882 532.015 
L 3142.19297 532.015 
L 3148.757058 538.486429 
L 3155.321146 523.386429 
L 3161.885234 553.586429 
L 3168.449322 587.561429 
L 3175.013411 587.561429 
L 3181.577499 595.111429 
L 3188.141587 595.111429 
L 3194.705675 617.761429 
L 3201.269763 610.211429 
L 3207.833851 615.244762 
L 3214.397939 625.311429 
L 3220.962027 627.198929 
L 3227.526115 615.873929 
L 3234.090203 586.01711 
L 3240.654291 578.46711 
L 3247.218379 582.349968 
L 3253.782468 592.416634 
L 3260.346556 554.666634 
L 3266.910644 562.902998 
L 3273.474732 571.962998 
L 3280.03882 556.107998 
L 3286.602908 546.400855 
L 3293.166996 535.075855 
L 3299.731084 539.605855 
L 3306.295172 539.605855 
L 3312.85926 532.055855 
L 3319.423348 528.280855 
L 3325.987436 528.280855 
L 3332.551525 524.505855 
L 3339.115613 514.2104 
L 3345.679701 517.805639 
L 3352.243789 513.491353 
L 3358.807877 490.260584 
L 3365.371965 456.285584 
L 3371.936053 410.985584 
L 3378.500141 422.310584 
L 3385.064229 435.900584 
L 3391.628317 390.600584 
L 3398.192405 411.740584 
L 3404.756494 406.70725 
L 3411.320582 410.579045 
L 3417.88467 404.916545 
L 3424.448758 393.591545 
L 3431.012846 401.827909 
L 3437.576934 393.199337 
L 3444.141022 422.071865 
L 3450.70511 449.755198 
L 3457.269198 449.755198 
L 3463.833286 452.843834 
L 3470.397374 455.108834 
L 3476.961462 443.783834 
L 3483.525551 465.687131 
L 3490.089639 510.987131 
L 3496.653727 516.523798 
L 3503.217815 529.466655 
L 3509.781903 514.366655 
L 3516.345991 512.578497 
L 3522.910079 512.578497 
L 3529.474167 550.328497 
L 3536.038255 547.033952 
L 3542.602343 548.292285 
L 3549.166431 556.381571 
L 3555.730519 555.07484 
L 3562.294608 561.546269 
L 3568.858696 561.546269 
L 3575.422784 538.230092 
L 3581.986872 534.347235 
L 3588.55096 542.975806 
L 3595.115048 517.39463 
L 3601.679136 540.04463 
L 3608.243224 526.106168 
L 3614.807312 541.961168 
L 3621.3714 541.961168 
L 3627.935488 536.401623 
L 3634.499577 567.680194 
L 3641.063665 537.18981 
L 3647.627753 499.43981 
L 3654.191841 502.104516 
L 3660.755929 497.250944 
L 3667.320017 523.675944 
L 3673.884105 529.853217 
L 3680.448193 505.07373 
L 3687.012281 468.26748 
L 3693.576369 494.440813 
L 3700.140457 487.406652 
L 3706.704545 522.047828 
L 3713.268634 549.816868 
L 3719.832722 589.454368 
L 3726.39681 553.69121 
L 3732.960898 554.697877 
L 3739.524986 552.432877 
L 3746.089074 552.432877 
L 3752.653162 556.307219 
L 3759.21725 549.835791 
L 3765.781338 584.476967 
L 3772.345426 586.401477 
L 3778.909514 613.282796 
L 3785.473602 607.170891 
L 3792.037691 602.420763 
L 3798.601779 588.830763 
L 3805.165867 597.067126 
L 3811.729955 606.558555 
L 3818.294043 614.647841 
L 3824.858131 621.639797 
L 3831.422219 591.768058 
L 3837.986307 620.709725 
L 3844.550395 628.259725 
L 3851.114483 659.077628 
L 3857.678571 684.693699 
L 3864.24266 665.063699 
L 3870.806748 670.807479 
L 3877.370836 671.526527 
L 3883.934924 705.948566 
L 3890.499012 692.358566 
L 3897.0631 686.44987 
L 3903.627188 656.338694 
L 3910.191276 624.695312 
L 3916.755364 620.985398 
L 3923.319452 615.762841 
L 3929.88354 642.759811 
L 3936.447628 644.269811 
L 3943.011717 644.269811 
L 3949.575805 644.580795 
L 3956.139893 679.651763 
L 3962.703981 649.128768 
L 3969.268069 641.578768 
L 3975.832157 604.990307 
L 3982.396245 616.412102 
L 3988.960333 642.860549 
L 3995.524421 643.238049 
L 4002.088509 654.415971 
L 4008.652597 625.980906 
L 4015.216685 631.313842 
L 4021.780774 625.521004 
L 4028.344862 630.5856 
L 4034.90895 605.418933 
L 4041.473038 606.105297 
L 4048.037126 580.433033 
L 4054.601214 582.320533 
L 4061.165302 571.750533 
L 4074.293478 564.102282 
L 4080.857566 528.532439 
L 4087.421654 517.572761 
L 4093.985743 526.340503 
L 4100.549831 528.963135 
L 4107.113919 557.275635 
L 4113.678007 533.428049 
L 4120.242095 544.213763 
L 4126.806183 545.480896 
L 4133.370271 547.265441 
L 4139.934359 535.940441 
L 4146.498447 534.328979 
L 4153.062535 506.992158 
L 4159.626623 513.855794 
L 4166.190711 522.244683 
L 4172.7548 535.18754 
L 4179.318888 521.249078 
L 4185.882976 495.363364 
L 4192.447064 522.514326 
L 4199.011152 503.10004 
L 4205.57524 500.903676 
L 4212.139328 499.677608 
L 4218.703416 491.68349 
L 4225.267504 478.740633 
L 4231.831592 499.23349 
L 4238.39568 498.371545 
L 4244.959768 499.6212 
L 4251.523857 498.003343 
L 4258.087945 525.958749 
L 4264.652033 529.194463 
L 4271.216121 536.785947 
L 4277.780209 533.064001 
L 4284.344297 527.036178 
L 4290.908385 525.475254 
L 4297.472473 518.322623 
L 4304.036561 498.406243 
L 4310.600649 493.37291 
L 4317.164737 517.101481 
L 4323.728826 490.095712 
L 4330.292914 487.807833 
L 4336.857002 501.397833 
L 4343.42109 503.890417 
L 4349.985178 507.090754 
L 4356.549266 499.593551 
L 4363.113354 491.662238 
L 4369.677442 489.653863 
L 4376.24153 499.72053 
L 4382.805618 496.604657 
L 4389.369706 499.986784 
L 4395.933794 503.222498 
L 4402.497883 503.653926 
L 4409.061971 533.633635 
L 4415.626059 540.527113 
L 4422.190147 540.527113 
L 4428.754235 543.942589 
L 4435.318323 548.922716 
L 4441.882411 574.180898 
L 4448.446499 553.148755 
L 4455.010587 524.989295 
L 4461.574675 558.964295 
L 4468.138763 554.312956 
L 4474.702851 557.841588 
L 4481.26694 560.309857 
L 4487.831028 562.395347 
L 4494.395116 576.122619 
L 4500.959204 568.535427 
L 4507.523292 569.41626 
L 4514.08738 562.56416 
L 4520.651468 564.562689 
L 4527.215556 558.879893 
L 4533.779644 554.898984 
L 4540.343732 551.904183 
L 4546.90782 549.808725 
L 4553.471909 556.171936 
L 4560.035997 562.006026 
L 4566.600085 558.040774 
L 4573.164173 557.300578 
L 4579.728261 561.050905 
L 4586.292349 555.845433 
L 4592.856437 564.964264 
L 4599.420525 596.242836 
L 4605.984613 564.13364 
L 4612.548701 566.87846 
L 4612.548701 566.87846 
" style="fill:none;stroke:#fa8072;stroke-linecap:square;stroke-width:3;"/>
   </g>
   <g id="line2d_54">
    <path clip-path="url(#p64668818dd)" d="M 3027.321429 809.1 
L 4688.035714 809.1 
" style="fill:none;opacity:0.7;stroke:#ff0000;stroke-dasharray:5.55,2.4;stroke-dashoffset:0;stroke-width:1.5;"/>
   </g>
   <g id="patch_8">
    <path d="M 3027.321429 945 
L 3027.321429 129.6 
" style="fill:none;stroke:#000000;stroke-linecap:square;stroke-linejoin:miter;stroke-width:0.8;"/>
   </g>
   <g id="patch_9">
    <path d="M 4688.035714 945 
L 4688.035714 129.6 
" style="fill:none;stroke:#000000;stroke-linecap:square;stroke-linejoin:miter;stroke-width:0.8;"/>
   </g>
   <g id="patch_10">
    <path d="M 3027.321429 945 
L 4688.035714 945 
" style="fill:none;stroke:#000000;stroke-linecap:square;stroke-linejoin:miter;stroke-width:0.8;"/>
   </g>
   <g id="patch_11">
    <path d="M 3027.321429 129.6 
L 4688.035714 129.6 
" style="fill:none;stroke:#000000;stroke-linecap:square;stroke-linejoin:miter;stroke-width:0.8;"/>
   </g>
  </g>
  <g id="axes_3">
   <g id="patch_12">
    <path d="M 4704.642857 945 
L 6365.357143 945 
L 6365.357143 129.6 
L 4704.642857 129.6 
z
" style="fill:#ffffff;"/>
   </g>
   <g id="matplotlib.axis_5">
    <g id="xtick_11">
     <g id="line2d_55">
      <path clip-path="url(#pef1f1dde8a)" d="M 4780.12987 945 
L 4780.12987 129.6 
" style="fill:none;stroke:#b0b0b0;stroke-linecap:square;stroke-width:0.8;"/>
     </g>
     <g id="line2d_56">
      <g>
       <use style="stroke:#000000;stroke-width:0.8;" x="4780.12987" xlink:href="#m4179a0e93b" y="945"/>
      </g>
     </g>
     <g id="text_18">
      <!-- 0 -->
      <g transform="translate(4773.13112 968.716563)scale(0.22 -0.22)">
       <use xlink:href="#DejaVuSans-30"/>
      </g>
     </g>
    </g>
    <g id="xtick_12">
     <g id="line2d_57">
      <path clip-path="url(#pef1f1dde8a)" d="M 5108.334274 945 
L 5108.334274 129.6 
" style="fill:none;stroke:#b0b0b0;stroke-linecap:square;stroke-width:0.8;"/>
     </g>
     <g id="line2d_58">
      <g>
       <use style="stroke:#000000;stroke-width:0.8;" x="5108.334274" xlink:href="#m4179a0e93b" y="945"/>
      </g>
     </g>
     <g id="text_19">
      <!-- 50 -->
      <g transform="translate(5094.336774 968.716563)scale(0.22 -0.22)">
       <use xlink:href="#DejaVuSans-35"/>
       <use x="63.623047" xlink:href="#DejaVuSans-30"/>
      </g>
     </g>
    </g>
    <g id="xtick_13">
     <g id="line2d_59">
      <path clip-path="url(#pef1f1dde8a)" d="M 5436.538679 945 
L 5436.538679 129.6 
" style="fill:none;stroke:#b0b0b0;stroke-linecap:square;stroke-width:0.8;"/>
     </g>
     <g id="line2d_60">
      <g>
       <use style="stroke:#000000;stroke-width:0.8;" x="5436.538679" xlink:href="#m4179a0e93b" y="945"/>
      </g>
     </g>
     <g id="text_20">
      <!-- 100 -->
      <g transform="translate(5415.542429 968.716563)scale(0.22 -0.22)">
       <use xlink:href="#DejaVuSans-31"/>
       <use x="63.623047" xlink:href="#DejaVuSans-30"/>
       <use x="127.246094" xlink:href="#DejaVuSans-30"/>
      </g>
     </g>
    </g>
    <g id="xtick_14">
     <g id="line2d_61">
      <path clip-path="url(#pef1f1dde8a)" d="M 5764.743083 945 
L 5764.743083 129.6 
" style="fill:none;stroke:#b0b0b0;stroke-linecap:square;stroke-width:0.8;"/>
     </g>
     <g id="line2d_62">
      <g>
       <use style="stroke:#000000;stroke-width:0.8;" x="5764.743083" xlink:href="#m4179a0e93b" y="945"/>
      </g>
     </g>
     <g id="text_21">
      <!-- 150 -->
      <g transform="translate(5743.746833 968.716563)scale(0.22 -0.22)">
       <use xlink:href="#DejaVuSans-31"/>
       <use x="63.623047" xlink:href="#DejaVuSans-35"/>
       <use x="127.246094" xlink:href="#DejaVuSans-30"/>
      </g>
     </g>
    </g>
    <g id="xtick_15">
     <g id="line2d_63">
      <path clip-path="url(#pef1f1dde8a)" d="M 6092.947487 945 
L 6092.947487 129.6 
" style="fill:none;stroke:#b0b0b0;stroke-linecap:square;stroke-width:0.8;"/>
     </g>
     <g id="line2d_64">
      <g>
       <use style="stroke:#000000;stroke-width:0.8;" x="6092.947487" xlink:href="#m4179a0e93b" y="945"/>
      </g>
     </g>
     <g id="text_22">
      <!-- 200 -->
      <g transform="translate(6071.951237 968.716563)scale(0.22 -0.22)">
       <use xlink:href="#DejaVuSans-32"/>
       <use x="63.623047" xlink:href="#DejaVuSans-30"/>
       <use x="127.246094" xlink:href="#DejaVuSans-30"/>
      </g>
     </g>
    </g>
   </g>
   <g id="matplotlib.axis_6">
    <g id="ytick_15">
     <g id="line2d_65">
      <path clip-path="url(#pef1f1dde8a)" d="M 4704.642857 945 
L 6365.357143 945 
" style="fill:none;stroke:#b0b0b0;stroke-linecap:square;stroke-width:0.8;"/>
     </g>
     <g id="line2d_66">
      <g>
       <use style="stroke:#000000;stroke-width:0.8;" x="4704.642857" xlink:href="#mf2eb2133d9" y="945"/>
      </g>
     </g>
    </g>
    <g id="ytick_16">
     <g id="line2d_67">
      <path clip-path="url(#pef1f1dde8a)" d="M 4704.642857 809.1 
L 6365.357143 809.1 
" style="fill:none;stroke:#b0b0b0;stroke-linecap:square;stroke-width:0.8;"/>
     </g>
     <g id="line2d_68">
      <g>
       <use style="stroke:#000000;stroke-width:0.8;" x="4704.642857" xlink:href="#mf2eb2133d9" y="809.1"/>
      </g>
     </g>
    </g>
    <g id="ytick_17">
     <g id="line2d_69">
      <path clip-path="url(#pef1f1dde8a)" d="M 4704.642857 673.2 
L 6365.357143 673.2 
" style="fill:none;stroke:#b0b0b0;stroke-linecap:square;stroke-width:0.8;"/>
     </g>
     <g id="line2d_70">
      <g>
       <use style="stroke:#000000;stroke-width:0.8;" x="4704.642857" xlink:href="#mf2eb2133d9" y="673.2"/>
      </g>
     </g>
    </g>
    <g id="ytick_18">
     <g id="line2d_71">
      <path clip-path="url(#pef1f1dde8a)" d="M 4704.642857 537.3 
L 6365.357143 537.3 
" style="fill:none;stroke:#b0b0b0;stroke-linecap:square;stroke-width:0.8;"/>
     </g>
     <g id="line2d_72">
      <g>
       <use style="stroke:#000000;stroke-width:0.8;" x="4704.642857" xlink:href="#mf2eb2133d9" y="537.3"/>
      </g>
     </g>
    </g>
    <g id="ytick_19">
     <g id="line2d_73">
      <path clip-path="url(#pef1f1dde8a)" d="M 4704.642857 401.4 
L 6365.357143 401.4 
" style="fill:none;stroke:#b0b0b0;stroke-linecap:square;stroke-width:0.8;"/>
     </g>
     <g id="line2d_74">
      <g>
       <use style="stroke:#000000;stroke-width:0.8;" x="4704.642857" xlink:href="#mf2eb2133d9" y="401.4"/>
      </g>
     </g>
    </g>
    <g id="ytick_20">
     <g id="line2d_75">
      <path clip-path="url(#pef1f1dde8a)" d="M 4704.642857 265.5 
L 6365.357143 265.5 
" style="fill:none;stroke:#b0b0b0;stroke-linecap:square;stroke-width:0.8;"/>
     </g>
     <g id="line2d_76">
      <g>
       <use style="stroke:#000000;stroke-width:0.8;" x="4704.642857" xlink:href="#mf2eb2133d9" y="265.5"/>
      </g>
     </g>
    </g>
    <g id="ytick_21">
     <g id="line2d_77">
      <path clip-path="url(#pef1f1dde8a)" d="M 4704.642857 129.6 
L 6365.357143 129.6 
" style="fill:none;stroke:#b0b0b0;stroke-linecap:square;stroke-width:0.8;"/>
     </g>
     <g id="line2d_78">
      <g>
       <use style="stroke:#000000;stroke-width:0.8;" x="4704.642857" xlink:href="#mf2eb2133d9" y="129.6"/>
      </g>
     </g>
    </g>
   </g>
   <g id="line2d_79">
    <path clip-path="url(#pef1f1dde8a)" d="M 4780.12987 809.1 
L 4793.258046 809.1 
L 4799.822134 854.4 
L 4819.514399 854.4 
L 4826.078487 809.1 
L 4839.206663 809.1 
L 4845.770751 854.4 
L 4858.898927 854.4 
L 4872.027103 763.8 
L 4885.15528 763.8 
L 4891.719368 809.1 
L 4898.283456 809.1 
L 4911.411632 899.7 
L 4917.97572 854.4 
L 4931.103896 854.4 
L 4937.667984 899.7 
L 4944.232072 899.7 
L 4950.79616 854.4 
L 4963.924337 854.4 
L 4970.488425 809.1 
L 4977.052513 809.1 
L 4983.616601 854.4 
L 4996.744777 854.4 
L 5003.308865 809.1 
L 5009.872953 809.1 
L 5016.437041 763.8 
L 5023.001129 763.8 
L 5029.565217 809.1 
L 5042.693394 809.1 
L 5062.385658 945 
L 5068.949746 945 
L 5075.513834 899.7 
L 5082.077922 899.7 
L 5088.64201 854.4 
L 5101.770186 854.4 
L 5108.334274 809.1 
L 5121.462451 809.1 
L 5128.026539 854.4 
L 5134.590627 854.4 
L 5141.154715 899.7 
L 5154.282891 899.7 
L 5160.846979 854.4 
L 5167.411067 899.7 
L 5187.103331 899.7 
L 5193.66742 854.4 
L 5239.616036 854.4 
L 5252.744212 763.8 
L 5292.128741 763.8 
L 5298.692829 718.5 
L 5311.821005 718.5 
L 5318.385093 763.8 
L 5331.513269 763.8 
L 5338.077357 718.5 
L 5344.641446 718.5 
L 5357.769622 809.1 
L 5403.718238 809.1 
L 5416.846414 899.7 
L 5423.410503 899.7 
L 5436.538679 809.1 
L 5443.102767 809.1 
L 5449.666855 854.4 
L 5456.230943 809.1 
L 5462.795031 809.1 
L 5469.359119 854.4 
L 5475.923207 809.1 
L 5482.487295 854.4 
L 5502.17956 854.4 
L 5508.743648 899.7 
L 5521.871824 809.1 
L 5541.564088 809.1 
L 5554.692264 718.5 
L 5561.256352 718.5 
L 5580.948617 582.6 
L 5587.512705 582.6 
L 5600.640881 673.2 
L 5613.769057 582.6 
L 5620.333145 582.6 
L 5633.461321 673.2 
L 5640.025409 673.2 
L 5646.589497 627.9 
L 5653.153586 627.9 
L 5659.717674 673.2 
L 5666.281762 627.9 
L 5672.84585 673.2 
L 5685.974026 582.6 
L 5692.538114 582.6 
L 5699.102202 627.9 
L 5705.66629 582.6 
L 5712.230378 582.6 
L 5718.794466 627.9 
L 5725.358554 582.6 
L 5731.922643 582.6 
L 5738.486731 627.9 
L 5745.050819 627.9 
L 5751.614907 673.2 
L 5758.178995 627.9 
L 5764.743083 627.9 
L 5771.307171 673.2 
L 5777.871259 673.2 
L 5784.435347 718.5 
L 5790.999435 718.5 
L 5797.563523 673.2 
L 5810.6917 763.8 
L 5817.255788 718.5 
L 5823.819876 718.5 
L 5830.383964 673.2 
L 5836.948052 673.2 
L 5850.076228 763.8 
L 5856.640316 763.8 
L 5863.204404 809.1 
L 5869.768492 763.8 
L 5876.33258 763.8 
L 5882.896669 809.1 
L 5889.460757 809.1 
L 5896.024845 763.8 
L 5902.588933 763.8 
L 5909.153021 809.1 
L 5922.281197 809.1 
L 5928.845285 854.4 
L 5941.973461 854.4 
L 5948.537549 809.1 
L 5955.101637 854.4 
L 5981.35799 854.4 
L 5987.922078 809.1 
L 5994.486166 854.4 
L 6001.050254 854.4 
L 6007.614342 809.1 
L 6014.17843 854.4 
L 6020.742518 854.4 
L 6027.306606 899.7 
L 6033.870695 899.7 
L 6040.434783 854.4 
L 6053.562959 854.4 
L 6060.127047 809.1 
L 6079.819311 809.1 
L 6086.383399 854.4 
L 6092.947487 854.4 
L 6099.511575 899.7 
L 6106.075663 899.7 
L 6112.639752 854.4 
L 6119.20384 854.4 
L 6125.767928 809.1 
L 6132.332016 809.1 
L 6138.896104 854.4 
L 6145.460192 854.4 
L 6152.02428 809.1 
L 6158.588368 854.4 
L 6165.152456 854.4 
L 6171.716544 899.7 
L 6178.280632 854.4 
L 6184.84472 854.4 
L 6191.408809 809.1 
L 6211.101073 809.1 
L 6224.229249 718.5 
L 6230.793337 763.8 
L 6237.357425 763.8 
L 6237.357425 763.8 
" style="fill:none;stroke:#32cd32;stroke-linecap:square;stroke-width:5;"/>
   </g>
   <g id="line2d_80">
    <path clip-path="url(#pef1f1dde8a)" d="M 4780.12987 797.775 
L 4786.693958 786.45 
L 4793.258046 797.775 
L 4799.822134 817.189286 
L 4806.386222 803.599286 
L 4812.950311 780.949286 
L 4826.078487 750.749286 
L 4832.642575 758.299286 
L 4839.206663 712.999286 
L 4845.770751 679.024286 
L 4852.334839 647.314286 
L 4858.898927 631.135714 
L 4865.463015 597.160714 
L 4872.027103 574.510714 
L 4878.591191 557.523214 
L 4885.15528 575.139881 
L 4891.719368 552.489881 
L 4898.283456 512.223214 
L 4904.847544 494.103214 
L 4911.411632 494.103214 
L 4917.97572 479.003214 
L 4924.539808 483.533214 
L 4931.103896 514.739881 
L 4937.667984 524.806548 
L 4944.232072 528.924729 
L 4950.79616 518.629275 
L 4957.360248 511.079275 
L 4963.924337 538.762608 
L 4970.488425 543.292608 
L 4977.052513 501.767608 
L 4983.616601 500.896454 
L 4990.180689 466.921454 
L 4996.744777 470.157169 
L 5003.308865 471.551015 
L 5009.872953 503.261015 
L 5016.437041 516.301924 
L 5023.001129 514.414424 
L 5029.565217 500.687151 
L 5036.129305 510.753818 
L 5042.693394 529.628818 
L 5049.257482 521.072151 
L 5055.82157 519.634056 
L 5062.385658 518.016199 
L 5068.949746 518.016199 
L 5075.513834 518.393699 
L 5082.077922 493.227032 
L 5088.64201 502.287032 
L 5095.206098 497.253699 
L 5101.770186 525.130622 
L 5108.334274 536.455622 
L 5114.898363 552.634193 
L 5121.462451 583.337527 
L 5128.026539 543.07086 
L 5134.590627 525.454193 
L 5141.154715 525.454193 
L 5147.718803 517.21783 
L 5154.282891 527.284496 
L 5160.846979 492.051163 
L 5167.411067 476.951163 
L 5173.975155 488.276163 
L 5180.539243 491.412317 
L 5187.103331 503.492317 
L 5193.66742 519.670888 
L 5200.231508 554.517042 
L 5206.795596 534.728095 
L 5213.359684 547.08264 
L 5219.923772 552.74514 
L 5226.48786 536.272413 
L 5233.051948 563.955746 
L 5239.616036 545.080746 
L 5246.180124 550.833127 
L 5252.744212 581.562952 
L 5259.3083 586.955809 
L 5265.872388 600.279338 
L 5272.436477 603.299338 
L 5279.000565 597.259338 
L 5285.564653 629.724338 
L 5292.128741 636.195767 
L 5298.692829 619.643844 
L 5305.256917 594.162594 
L 5311.821005 595.600689 
L 5318.385093 595.371901 
L 5324.949181 595.371901 
L 5331.513269 604.511375 
L 5338.077357 635.98605 
L 5344.641446 636.901202 
L 5351.205534 638.755588 
L 5357.769622 651.698445 
L 5364.33371 673.593445 
L 5370.897798 692.468445 
L 5377.461886 682.114159 
L 5384.025974 670.034159 
L 5390.590062 659.248445 
L 5397.15415 654.718445 
L 5403.718238 654.993546 
L 5410.282326 631.584934 
L 5416.846414 620.259934 
L 5423.410503 656.499934 
L 5429.974591 618.749934 
L 5436.538679 646.323847 
L 5443.102767 649.128132 
L 5449.666855 647.339974 
L 5456.230943 638.711403 
L 5462.795031 633.624237 
L 5469.359119 643.439237 
L 5475.923207 645.038061 
L 5482.487295 606.344311 
L 5489.051383 599.872882 
L 5495.615471 599.872882 
L 5502.17956 603.459132 
L 5508.743648 595.379308 
L 5515.307736 562.891429 
L 5521.871824 574.581751 
L 5528.435912 567.740104 
L 5535 541.207247 
L 5541.564088 545.233913 
L 5548.128176 546.902861 
L 5554.692264 533.960004 
L 5561.256352 515.840004 
L 5567.82044 515.085004 
L 5574.384529 523.174289 
L 5580.948617 523.174289 
L 5587.512705 499.661432 
L 5594.076793 469.87325 
L 5600.640881 468.549097 
L 5607.204969 471.955112 
L 5613.769057 476.485112 
L 5620.333145 448.481475 
L 5626.897233 485.392586 
L 5633.461321 457.818673 
L 5640.025409 480.091173 
L 5646.589497 491.416173 
L 5653.153586 498.268274 
L 5659.717674 490.03191 
L 5666.281762 477.628339 
L 5672.84585 474.847776 
L 5679.409938 481.723669 
L 5685.974026 494.078215 
L 5692.538114 482.753215 
L 5699.102202 480.968669 
L 5705.66629 483.249218 
L 5712.230378 491.604552 
L 5718.794466 489.762055 
L 5725.358554 491.835282 
L 5731.922643 494.100282 
L 5738.486731 524.677782 
L 5745.050819 549.139782 
L 5751.614907 560.011782 
L 5758.178995 548.686782 
L 5764.743083 529.056782 
L 5771.307171 535.52821 
L 5777.871259 545.137301 
L 5784.435347 577.518412 
L 5790.999435 566.536594 
L 5797.563523 565.731261 
L 5804.127612 588.381261 
L 5810.6917 618.796975 
L 5817.255788 610.560612 
L 5823.819876 583.021914 
L 5830.383964 593.088581 
L 5836.948052 569.722633 
L 5843.51214 541.605391 
L 5850.076228 535.529862 
L 5856.640316 547.347253 
L 5863.204404 577.408083 
L 5869.768492 569.529822 
L 5876.33258 571.147679 
L 5882.896669 568.500276 
L 5889.460757 568.500276 
L 5896.024845 568.774822 
L 5902.588933 566.866805 
L 5909.153021 566.448652 
L 5915.717109 563.072254 
L 5922.281197 561.605048 
L 5928.845285 550.280048 
L 5935.409373 520.34969 
L 5941.973461 495.240548 
L 5948.537549 493.428548 
L 5955.101637 529.920214 
L 5961.665726 516.330214 
L 5968.229814 510.454838 
L 5974.793902 510.55289 
L 5981.35799 490.251779 
L 5987.922078 497.22101 
L 5994.486166 492.590343 
L 6001.050254 486.223293 
L 6007.614342 485.252578 
L 6014.17843 490.479501 
L 6020.742518 490.81423 
L 6027.306606 489.807564 
L 6033.870695 494.298512 
L 6040.434783 483.826865 
L 6046.998871 489.521722 
L 6053.562959 486.76433 
L 6060.127047 462.586618 
L 6066.691135 469.058046 
L 6073.255223 466.226796 
L 6079.819311 468.874199 
L 6086.383399 477.367949 
L 6092.947487 478.44652 
L 6099.511575 468.537145 
L 6106.075663 468.437585 
L 6112.639752 472.032823 
L 6119.20384 469.81534 
L 6125.767928 502.172483 
L 6132.332016 502.259935 
L 6138.896104 498.377078 
L 6145.460192 528.771917 
L 6152.02428 498.751679 
L 6158.588368 498.751679 
L 6165.152456 491.863959 
L 6171.716544 496.313066 
L 6178.280632 490.721985 
L 6184.84472 493.289597 
L 6191.408809 496.621339 
L 6197.972897 478.96149 
L 6204.536985 444.98649 
L 6211.101073 454.451458 
L 6217.665161 458.611662 
L 6224.229249 454.081662 
L 6230.793337 440.114162 
L 6237.357425 470.209301 
L 6237.357425 470.209301 
" style="fill:none;stroke:#fa8072;stroke-linecap:square;stroke-width:3;"/>
   </g>
   <g id="line2d_81">
    <path clip-path="url(#pef1f1dde8a)" d="M 4704.642857 809.1 
L 6365.357143 809.1 
" style="fill:none;opacity:0.7;stroke:#ff0000;stroke-dasharray:5.55,2.4;stroke-dashoffset:0;stroke-width:1.5;"/>
   </g>
   <g id="patch_13">
    <path d="M 4704.642857 945 
L 4704.642857 129.6 
" style="fill:none;stroke:#000000;stroke-linecap:square;stroke-linejoin:miter;stroke-width:0.8;"/>
   </g>
   <g id="patch_14">
    <path d="M 6365.357143 945 
L 6365.357143 129.6 
" style="fill:none;stroke:#000000;stroke-linecap:square;stroke-linejoin:miter;stroke-width:0.8;"/>
   </g>
   <g id="patch_15">
    <path d="M 4704.642857 945 
L 6365.357143 945 
" style="fill:none;stroke:#000000;stroke-linecap:square;stroke-linejoin:miter;stroke-width:0.8;"/>
   </g>
   <g id="patch_16">
    <path d="M 4704.642857 129.6 
L 6365.357143 129.6 
" style="fill:none;stroke:#000000;stroke-linecap:square;stroke-linejoin:miter;stroke-width:0.8;"/>
   </g>
  </g>
  <g id="axes_4">
   <g id="patch_17">
    <path d="M 6381.964286 945 
L 8042.678571 945 
L 8042.678571 129.6 
L 6381.964286 129.6 
z
" style="fill:#ffffff;"/>
   </g>
   <g id="matplotlib.axis_7">
    <g id="xtick_16">
     <g id="line2d_82">
      <path clip-path="url(#p57df5ee0fb)" d="M 6457.451299 945 
L 6457.451299 129.6 
" style="fill:none;stroke:#b0b0b0;stroke-linecap:square;stroke-width:0.8;"/>
     </g>
     <g id="line2d_83">
      <g>
       <use style="stroke:#000000;stroke-width:0.8;" x="6457.451299" xlink:href="#m4179a0e93b" y="945"/>
      </g>
     </g>
     <g id="text_23">
      <!-- 0 -->
      <g transform="translate(6450.452549 968.716563)scale(0.22 -0.22)">
       <use xlink:href="#DejaVuSans-30"/>
      </g>
     </g>
    </g>
    <g id="xtick_17">
     <g id="line2d_84">
      <path clip-path="url(#p57df5ee0fb)" d="M 6785.655703 945 
L 6785.655703 129.6 
" style="fill:none;stroke:#b0b0b0;stroke-linecap:square;stroke-width:0.8;"/>
     </g>
     <g id="line2d_85">
      <g>
       <use style="stroke:#000000;stroke-width:0.8;" x="6785.655703" xlink:href="#m4179a0e93b" y="945"/>
      </g>
     </g>
     <g id="text_24">
      <!-- 50 -->
      <g transform="translate(6771.658203 968.716563)scale(0.22 -0.22)">
       <use xlink:href="#DejaVuSans-35"/>
       <use x="63.623047" xlink:href="#DejaVuSans-30"/>
      </g>
     </g>
    </g>
    <g id="xtick_18">
     <g id="line2d_86">
      <path clip-path="url(#p57df5ee0fb)" d="M 7113.860107 945 
L 7113.860107 129.6 
" style="fill:none;stroke:#b0b0b0;stroke-linecap:square;stroke-width:0.8;"/>
     </g>
     <g id="line2d_87">
      <g>
       <use style="stroke:#000000;stroke-width:0.8;" x="7113.860107" xlink:href="#m4179a0e93b" y="945"/>
      </g>
     </g>
     <g id="text_25">
      <!-- 100 -->
      <g transform="translate(7092.863857 968.716563)scale(0.22 -0.22)">
       <use xlink:href="#DejaVuSans-31"/>
       <use x="63.623047" xlink:href="#DejaVuSans-30"/>
       <use x="127.246094" xlink:href="#DejaVuSans-30"/>
      </g>
     </g>
    </g>
    <g id="xtick_19">
     <g id="line2d_88">
      <path clip-path="url(#p57df5ee0fb)" d="M 7442.064512 945 
L 7442.064512 129.6 
" style="fill:none;stroke:#b0b0b0;stroke-linecap:square;stroke-width:0.8;"/>
     </g>
     <g id="line2d_89">
      <g>
       <use style="stroke:#000000;stroke-width:0.8;" x="7442.064512" xlink:href="#m4179a0e93b" y="945"/>
      </g>
     </g>
     <g id="text_26">
      <!-- 150 -->
      <g transform="translate(7421.068262 968.716563)scale(0.22 -0.22)">
       <use xlink:href="#DejaVuSans-31"/>
       <use x="63.623047" xlink:href="#DejaVuSans-35"/>
       <use x="127.246094" xlink:href="#DejaVuSans-30"/>
      </g>
     </g>
    </g>
    <g id="xtick_20">
     <g id="line2d_90">
      <path clip-path="url(#p57df5ee0fb)" d="M 7770.268916 945 
L 7770.268916 129.6 
" style="fill:none;stroke:#b0b0b0;stroke-linecap:square;stroke-width:0.8;"/>
     </g>
     <g id="line2d_91">
      <g>
       <use style="stroke:#000000;stroke-width:0.8;" x="7770.268916" xlink:href="#m4179a0e93b" y="945"/>
      </g>
     </g>
     <g id="text_27">
      <!-- 200 -->
      <g transform="translate(7749.272666 968.716563)scale(0.22 -0.22)">
       <use xlink:href="#DejaVuSans-32"/>
       <use x="63.623047" xlink:href="#DejaVuSans-30"/>
       <use x="127.246094" xlink:href="#DejaVuSans-30"/>
      </g>
     </g>
    </g>
   </g>
   <g id="matplotlib.axis_8">
    <g id="ytick_22">
     <g id="line2d_92">
      <path clip-path="url(#p57df5ee0fb)" d="M 6381.964286 945 
L 8042.678571 945 
" style="fill:none;stroke:#b0b0b0;stroke-linecap:square;stroke-width:0.8;"/>
     </g>
     <g id="line2d_93">
      <g>
       <use style="stroke:#000000;stroke-width:0.8;" x="6381.964286" xlink:href="#mf2eb2133d9" y="945"/>
      </g>
     </g>
    </g>
    <g id="ytick_23">
     <g id="line2d_94">
      <path clip-path="url(#p57df5ee0fb)" d="M 6381.964286 809.1 
L 8042.678571 809.1 
" style="fill:none;stroke:#b0b0b0;stroke-linecap:square;stroke-width:0.8;"/>
     </g>
     <g id="line2d_95">
      <g>
       <use style="stroke:#000000;stroke-width:0.8;" x="6381.964286" xlink:href="#mf2eb2133d9" y="809.1"/>
      </g>
     </g>
    </g>
    <g id="ytick_24">
     <g id="line2d_96">
      <path clip-path="url(#p57df5ee0fb)" d="M 6381.964286 673.2 
L 8042.678571 673.2 
" style="fill:none;stroke:#b0b0b0;stroke-linecap:square;stroke-width:0.8;"/>
     </g>
     <g id="line2d_97">
      <g>
       <use style="stroke:#000000;stroke-width:0.8;" x="6381.964286" xlink:href="#mf2eb2133d9" y="673.2"/>
      </g>
     </g>
    </g>
    <g id="ytick_25">
     <g id="line2d_98">
      <path clip-path="url(#p57df5ee0fb)" d="M 6381.964286 537.3 
L 8042.678571 537.3 
" style="fill:none;stroke:#b0b0b0;stroke-linecap:square;stroke-width:0.8;"/>
     </g>
     <g id="line2d_99">
      <g>
       <use style="stroke:#000000;stroke-width:0.8;" x="6381.964286" xlink:href="#mf2eb2133d9" y="537.3"/>
      </g>
     </g>
    </g>
    <g id="ytick_26">
     <g id="line2d_100">
      <path clip-path="url(#p57df5ee0fb)" d="M 6381.964286 401.4 
L 8042.678571 401.4 
" style="fill:none;stroke:#b0b0b0;stroke-linecap:square;stroke-width:0.8;"/>
     </g>
     <g id="line2d_101">
      <g>
       <use style="stroke:#000000;stroke-width:0.8;" x="6381.964286" xlink:href="#mf2eb2133d9" y="401.4"/>
      </g>
     </g>
    </g>
    <g id="ytick_27">
     <g id="line2d_102">
      <path clip-path="url(#p57df5ee0fb)" d="M 6381.964286 265.5 
L 8042.678571 265.5 
" style="fill:none;stroke:#b0b0b0;stroke-linecap:square;stroke-width:0.8;"/>
     </g>
     <g id="line2d_103">
      <g>
       <use style="stroke:#000000;stroke-width:0.8;" x="6381.964286" xlink:href="#mf2eb2133d9" y="265.5"/>
      </g>
     </g>
    </g>
    <g id="ytick_28">
     <g id="line2d_104">
      <path clip-path="url(#p57df5ee0fb)" d="M 6381.964286 129.6 
L 8042.678571 129.6 
" style="fill:none;stroke:#b0b0b0;stroke-linecap:square;stroke-width:0.8;"/>
     </g>
     <g id="line2d_105">
      <g>
       <use style="stroke:#000000;stroke-width:0.8;" x="6381.964286" xlink:href="#mf2eb2133d9" y="129.6"/>
      </g>
     </g>
    </g>
   </g>
   <g id="line2d_106">
    <path clip-path="url(#p57df5ee0fb)" d="M 6457.451299 673.2 
L 6470.579475 673.2 
L 6477.143563 718.5 
L 6483.707651 673.2 
L 6496.835827 673.2 
L 6516.528091 809.1 
L 6523.09218 809.1 
L 6529.656268 763.8 
L 6542.784444 763.8 
L 6549.348532 718.5 
L 6555.91262 763.8 
L 6562.476708 763.8 
L 6569.040796 809.1 
L 6575.604884 809.1 
L 6588.73306 899.7 
L 6608.425325 899.7 
L 6621.553501 990.3 
L 6634.681677 990.3 
L 6641.245765 945 
L 6693.75847 945 
L 6700.322558 899.7 
L 6706.886646 899.7 
L 6720.014822 809.1 
L 6726.57891 854.4 
L 6746.271174 854.4 
L 6752.835263 809.1 
L 6759.399351 854.4 
L 6805.347967 854.4 
L 6831.60432 673.2 
L 6838.168408 673.2 
L 6844.732496 718.5 
L 6857.860672 718.5 
L 6864.42476 763.8 
L 6870.988848 718.5 
L 6877.552936 763.8 
L 6890.681112 673.2 
L 6897.2452 718.5 
L 6903.809289 673.2 
L 6916.937465 673.2 
L 6930.065641 582.6 
L 6936.629729 627.9 
L 6943.193817 627.9 
L 6949.757905 673.2 
L 6982.578346 446.7 
L 6989.142434 492 
L 7008.834698 492 
L 7015.398786 537.3 
L 7021.962874 537.3 
L 7028.526962 582.6 
L 7035.09105 582.6 
L 7041.655138 537.3 
L 7054.783315 537.3 
L 7061.347403 492 
L 7067.911491 492 
L 7074.475579 446.7 
L 7087.603755 446.7 
L 7094.167843 401.4 
L 7100.731931 401.4 
L 7120.424195 537.3 
L 7133.552372 537.3 
L 7140.11646 582.6 
L 7146.680548 537.3 
L 7159.808724 537.3 
L 7172.9369 627.9 
L 7179.500988 627.9 
L 7192.629164 537.3 
L 7205.75734 627.9 
L 7218.885517 627.9 
L 7225.449605 582.6 
L 7238.577781 673.2 
L 7277.962309 673.2 
L 7284.526398 718.5 
L 7291.090486 718.5 
L 7297.654574 763.8 
L 7310.78275 673.2 
L 7317.346838 673.2 
L 7323.910926 718.5 
L 7337.039102 718.5 
L 7343.60319 763.8 
L 7350.167278 763.8 
L 7356.731366 809.1 
L 7363.295455 763.8 
L 7369.859543 763.8 
L 7376.423631 809.1 
L 7396.115895 809.1 
L 7402.679983 763.8 
L 7422.372247 763.8 
L 7435.500423 673.2 
L 7442.064512 673.2 
L 7448.6286 718.5 
L 7488.013128 718.5 
L 7494.577216 673.2 
L 7501.141304 718.5 
L 7507.705392 718.5 
L 7533.961745 537.3 
L 7540.525833 537.3 
L 7547.089921 582.6 
L 7553.654009 582.6 
L 7560.218097 627.9 
L 7566.782185 582.6 
L 7573.346273 582.6 
L 7579.910361 627.9 
L 7593.038538 627.9 
L 7599.602626 673.2 
L 7612.730802 673.2 
L 7638.987154 854.4 
L 7645.551242 809.1 
L 7658.679418 899.7 
L 7737.448475 899.7 
L 7750.576652 809.1 
L 7757.14074 809.1 
L 7763.704828 854.4 
L 7776.833004 763.8 
L 7783.397092 809.1 
L 7789.96118 809.1 
L 7803.089356 718.5 
L 7822.781621 718.5 
L 7835.909797 627.9 
L 7849.037973 627.9 
L 7855.602061 582.6 
L 7862.166149 627.9 
L 7862.166149 627.9 
" style="fill:none;stroke:#32cd32;stroke-linecap:square;stroke-width:5;"/>
   </g>
   <g id="line2d_107">
    <path clip-path="url(#p57df5ee0fb)" d="M 6457.451299 605.357857 
L 6464.015387 590.257857 
L 6470.579475 593.493571 
L 6477.143563 590.257857 
L 6483.707651 590.257857 
L 6490.271739 567.607857 
L 6503.399915 567.607857 
L 6509.964003 572.137857 
L 6516.528091 572.137857 
L 6523.09218 594.787857 
L 6529.656268 589.125357 
L 6536.220356 566.475357 
L 6542.784444 566.475357 
L 6549.348532 530.235357 
L 6555.91262 484.935357 
L 6562.476708 490.597857 
L 6569.040796 466.689524 
L 6582.168972 466.689524 
L 6588.73306 455.364524 
L 6595.297149 464.424524 
L 6601.861237 455.364524 
L 6608.425325 478.014524 
L 6614.989413 523.314524 
L 6621.553501 523.314524 
L 6628.117589 510.371667 
L 6634.681677 496.781667 
L 6641.245765 535.610238 
L 6647.809853 505.410238 
L 6654.373941 519.3487 
L 6660.938029 536.507791 
L 6667.502117 510.622076 
L 6674.066206 530.036362 
L 6680.630294 537.586362 
L 6687.194382 551.524824 
L 6700.322558 551.524824 
L 6706.886646 524.344824 
L 6713.450734 524.344824 
L 6720.014822 509.244824 
L 6726.57891 469.607324 
L 6733.142998 490.515016 
L 6739.707086 501.840016 
L 6746.271174 507.880016 
L 6752.835263 517.946682 
L 6759.399351 506.621682 
L 6765.963439 506.621682 
L 6772.527527 517.075529 
L 6779.091615 526.135529 
L 6785.655703 566.402195 
L 6792.219791 587.542195 
L 6798.783879 584.611019 
L 6805.347967 561.961019 
L 6811.912055 521.990431 
L 6818.476143 535.580431 
L 6825.040232 535.580431 
L 6831.60432 525.284976 
L 6838.168408 523.520041 
L 6844.732496 532.580041 
L 6851.296584 527.701579 
L 6857.860672 512.052489 
L 6864.42476 523.377489 
L 6870.988848 495.873917 
L 6877.552936 473.910281 
L 6884.117024 469.031819 
L 6890.681112 446.381819 
L 6897.2452 491.681819 
L 6903.809289 499.231819 
L 6910.373377 536.981819 
L 6916.937465 538.968661 
L 6923.501553 545.763661 
L 6930.065641 537.210514 
L 6936.629729 529.121229 
L 6943.193817 524.680052 
L 6949.757905 525.067232 
L 6956.321993 554.250886 
L 6962.886081 550.655648 
L 6969.450169 552.019193 
L 6976.014257 556.549193 
L 6982.578346 519.302526 
L 6989.142434 498.809669 
L 6995.706522 522.125845 
L 7002.27061 528.034541 
L 7008.834698 533.577129 
L 7015.398786 562.622423 
L 7021.962874 572.159265 
L 7028.526962 568.86472 
L 7035.09105 540.861084 
L 7041.655138 544.297635 
L 7048.219226 540.900135 
L 7054.783315 554.490135 
L 7061.347403 552.225135 
L 7067.911491 549.393885 
L 7074.475579 547.197522 
L 7081.039667 546.131639 
L 7087.603755 551.794139 
L 7094.167843 517.819139 
L 7100.731931 550.239728 
L 7107.296019 535.139728 
L 7113.860107 535.139728 
L 7120.424195 566.094728 
L 7126.988283 561.290182 
L 7133.552372 567.114468 
L 7140.11646 579.105644 
L 7146.680548 580.342121 
L 7153.244636 558.179967 
L 7159.808724 561.775205 
L 7166.372812 549.957814 
L 7172.9369 555.782099 
L 7179.500988 559.73133 
L 7186.065076 569.438473 
L 7192.629164 542.174584 
L 7199.193252 536.265888 
L 7205.75734 534.930731 
L 7212.321429 498.766865 
L 7218.885517 489.230023 
L 7225.449605 487.322655 
L 7232.013693 483.295988 
L 7238.577781 475.329436 
L 7245.141869 480.538936 
L 7251.705957 470.243482 
L 7258.270045 470.243482 
L 7264.834133 470.378303 
L 7271.398221 470.809732 
L 7277.962309 468.660775 
L 7284.526398 473.064942 
L 7291.090486 473.064942 
L 7297.654574 472.217081 
L 7304.218662 449.567081 
L 7310.78275 445.692739 
L 7317.346838 417.649882 
L 7323.910926 419.537382 
L 7330.475014 418.355643 
L 7337.039102 428.062785 
L 7343.60319 420.902463 
L 7350.167278 413.547875 
L 7356.731366 439.721208 
L 7363.295455 452.664065 
L 7369.859543 442.309779 
L 7376.423631 473.090549 
L 7382.987719 463.905295 
L 7389.551807 479.844184 
L 7396.115895 488.555722 
L 7402.679983 488.07888 
L 7409.244071 517.847452 
L 7415.808159 526.615194 
L 7422.372247 552.682562 
L 7428.936335 556.142979 
L 7435.500423 564.764592 
L 7442.064512 559.737753 
L 7448.6286 547.383208 
L 7455.192688 546.712096 
L 7461.756776 542.980822 
L 7468.320864 547.443877 
L 7474.884952 549.688001 
L 7481.44904 547.71062 
L 7488.013128 544.774509 
L 7494.577216 518.428705 
L 7501.141304 563.728705 
L 7507.705392 595.816205 
L 7514.269481 598.463607 
L 7520.833569 599.596107 
L 7527.397657 591.717846 
L 7533.961745 572.303561 
L 7540.525833 574.484672 
L 7547.089921 580.803831 
L 7553.654009 554.172922 
L 7560.218097 549.574802 
L 7566.782185 551.588135 
L 7573.346273 519.959757 
L 7579.910361 520.563333 
L 7586.474449 505.840833 
L 7593.038538 507.858242 
L 7599.602626 509.40037 
L 7606.166714 473.16037 
L 7612.730802 472.126774 
L 7619.29489 443.024956 
L 7625.858978 434.531206 
L 7632.423066 432.473471 
L 7638.987154 435.19858 
L 7645.551242 442.74858 
L 7652.11533 479.659691 
L 7658.679418 474.762394 
L 7665.243506 471.638256 
L 7671.807595 468.195124 
L 7678.371683 460.105838 
L 7684.935771 489.466949 
L 7691.499859 476.690026 
L 7698.063947 469.140026 
L 7704.628035 443.744572 
L 7711.192123 442.262026 
L 7717.756211 440.036763 
L 7724.320299 444.456275 
L 7730.884387 467.018824 
L 7737.448475 471.632712 
L 7744.012564 470.642965 
L 7750.576652 468.240692 
L 7757.14074 470.349801 
L 7763.704828 496.648968 
L 7770.268916 525.570742 
L 7776.833004 526.063134 
L 7783.397092 529.041189 
L 7789.96118 525.20572 
L 7796.525268 525.676926 
L 7803.089356 559.651926 
L 7809.653444 560.977779 
L 7816.217532 564.669942 
L 7822.781621 599.26267 
L 7829.345709 595.138023 
L 7835.909797 586.567753 
L 7842.473885 587.588023 
L 7849.037973 548.759452 
L 7855.602061 555.65293 
L 7862.166149 558.444713 
L 7862.166149 558.444713 
" style="fill:none;stroke:#fa8072;stroke-linecap:square;stroke-width:3;"/>
   </g>
   <g id="line2d_108">
    <path clip-path="url(#p57df5ee0fb)" d="M 6381.964286 809.1 
L 8042.678571 809.1 
" style="fill:none;opacity:0.7;stroke:#ff0000;stroke-dasharray:5.55,2.4;stroke-dashoffset:0;stroke-width:1.5;"/>
   </g>
   <g id="patch_18">
    <path d="M 6381.964286 945 
L 6381.964286 129.6 
" style="fill:none;stroke:#000000;stroke-linecap:square;stroke-linejoin:miter;stroke-width:0.8;"/>
   </g>
   <g id="patch_19">
    <path d="M 8042.678571 945 
L 8042.678571 129.6 
" style="fill:none;stroke:#000000;stroke-linecap:square;stroke-linejoin:miter;stroke-width:0.8;"/>
   </g>
   <g id="patch_20">
    <path d="M 6381.964286 945 
L 8042.678571 945 
" style="fill:none;stroke:#000000;stroke-linecap:square;stroke-linejoin:miter;stroke-width:0.8;"/>
   </g>
   <g id="patch_21">
    <path d="M 6381.964286 129.6 
L 8042.678571 129.6 
" style="fill:none;stroke:#000000;stroke-linecap:square;stroke-linejoin:miter;stroke-width:0.8;"/>
   </g>
  </g>
  <g id="axes_5">
   <g id="patch_22">
    <path d="M 8059.285714 945 
L 9720 945 
L 9720 129.6 
L 8059.285714 129.6 
z
" style="fill:#ffffff;"/>
   </g>
   <g id="matplotlib.axis_9">
    <g id="xtick_21">
     <g id="line2d_109">
      <path clip-path="url(#p99f436b5fc)" d="M 8134.772727 945 
L 8134.772727 129.6 
" style="fill:none;stroke:#b0b0b0;stroke-linecap:square;stroke-width:0.8;"/>
     </g>
     <g id="line2d_110">
      <g>
       <use style="stroke:#000000;stroke-width:0.8;" x="8134.772727" xlink:href="#m4179a0e93b" y="945"/>
      </g>
     </g>
     <g id="text_28">
      <!-- 0 -->
      <g transform="translate(8127.773977 968.716563)scale(0.22 -0.22)">
       <use xlink:href="#DejaVuSans-30"/>
      </g>
     </g>
    </g>
    <g id="xtick_22">
     <g id="line2d_111">
      <path clip-path="url(#p99f436b5fc)" d="M 8462.977132 945 
L 8462.977132 129.6 
" style="fill:none;stroke:#b0b0b0;stroke-linecap:square;stroke-width:0.8;"/>
     </g>
     <g id="line2d_112">
      <g>
       <use style="stroke:#000000;stroke-width:0.8;" x="8462.977132" xlink:href="#m4179a0e93b" y="945"/>
      </g>
     </g>
     <g id="text_29">
      <!-- 50 -->
      <g transform="translate(8448.979632 968.716563)scale(0.22 -0.22)">
       <use xlink:href="#DejaVuSans-35"/>
       <use x="63.623047" xlink:href="#DejaVuSans-30"/>
      </g>
     </g>
    </g>
    <g id="xtick_23">
     <g id="line2d_113">
      <path clip-path="url(#p99f436b5fc)" d="M 8791.181536 945 
L 8791.181536 129.6 
" style="fill:none;stroke:#b0b0b0;stroke-linecap:square;stroke-width:0.8;"/>
     </g>
     <g id="line2d_114">
      <g>
       <use style="stroke:#000000;stroke-width:0.8;" x="8791.181536" xlink:href="#m4179a0e93b" y="945"/>
      </g>
     </g>
     <g id="text_30">
      <!-- 100 -->
      <g transform="translate(8770.185286 968.716563)scale(0.22 -0.22)">
       <use xlink:href="#DejaVuSans-31"/>
       <use x="63.623047" xlink:href="#DejaVuSans-30"/>
       <use x="127.246094" xlink:href="#DejaVuSans-30"/>
      </g>
     </g>
    </g>
    <g id="xtick_24">
     <g id="line2d_115">
      <path clip-path="url(#p99f436b5fc)" d="M 9119.38594 945 
L 9119.38594 129.6 
" style="fill:none;stroke:#b0b0b0;stroke-linecap:square;stroke-width:0.8;"/>
     </g>
     <g id="line2d_116">
      <g>
       <use style="stroke:#000000;stroke-width:0.8;" x="9119.38594" xlink:href="#m4179a0e93b" y="945"/>
      </g>
     </g>
     <g id="text_31">
      <!-- 150 -->
      <g transform="translate(9098.38969 968.716563)scale(0.22 -0.22)">
       <use xlink:href="#DejaVuSans-31"/>
       <use x="63.623047" xlink:href="#DejaVuSans-35"/>
       <use x="127.246094" xlink:href="#DejaVuSans-30"/>
      </g>
     </g>
    </g>
    <g id="xtick_25">
     <g id="line2d_117">
      <path clip-path="url(#p99f436b5fc)" d="M 9447.590344 945 
L 9447.590344 129.6 
" style="fill:none;stroke:#b0b0b0;stroke-linecap:square;stroke-width:0.8;"/>
     </g>
     <g id="line2d_118">
      <g>
       <use style="stroke:#000000;stroke-width:0.8;" x="9447.590344" xlink:href="#m4179a0e93b" y="945"/>
      </g>
     </g>
     <g id="text_32">
      <!-- 200 -->
      <g transform="translate(9426.594094 968.716563)scale(0.22 -0.22)">
       <use xlink:href="#DejaVuSans-32"/>
       <use x="63.623047" xlink:href="#DejaVuSans-30"/>
       <use x="127.246094" xlink:href="#DejaVuSans-30"/>
      </g>
     </g>
    </g>
   </g>
   <g id="matplotlib.axis_10">
    <g id="ytick_29">
     <g id="line2d_119">
      <path clip-path="url(#p99f436b5fc)" d="M 8059.285714 945 
L 9720 945 
" style="fill:none;stroke:#b0b0b0;stroke-linecap:square;stroke-width:0.8;"/>
     </g>
     <g id="line2d_120">
      <g>
       <use style="stroke:#000000;stroke-width:0.8;" x="8059.285714" xlink:href="#mf2eb2133d9" y="945"/>
      </g>
     </g>
    </g>
    <g id="ytick_30">
     <g id="line2d_121">
      <path clip-path="url(#p99f436b5fc)" d="M 8059.285714 809.1 
L 9720 809.1 
" style="fill:none;stroke:#b0b0b0;stroke-linecap:square;stroke-width:0.8;"/>
     </g>
     <g id="line2d_122">
      <g>
       <use style="stroke:#000000;stroke-width:0.8;" x="8059.285714" xlink:href="#mf2eb2133d9" y="809.1"/>
      </g>
     </g>
    </g>
    <g id="ytick_31">
     <g id="line2d_123">
      <path clip-path="url(#p99f436b5fc)" d="M 8059.285714 673.2 
L 9720 673.2 
" style="fill:none;stroke:#b0b0b0;stroke-linecap:square;stroke-width:0.8;"/>
     </g>
     <g id="line2d_124">
      <g>
       <use style="stroke:#000000;stroke-width:0.8;" x="8059.285714" xlink:href="#mf2eb2133d9" y="673.2"/>
      </g>
     </g>
    </g>
    <g id="ytick_32">
     <g id="line2d_125">
      <path clip-path="url(#p99f436b5fc)" d="M 8059.285714 537.3 
L 9720 537.3 
" style="fill:none;stroke:#b0b0b0;stroke-linecap:square;stroke-width:0.8;"/>
     </g>
     <g id="line2d_126">
      <g>
       <use style="stroke:#000000;stroke-width:0.8;" x="8059.285714" xlink:href="#mf2eb2133d9" y="537.3"/>
      </g>
     </g>
    </g>
    <g id="ytick_33">
     <g id="line2d_127">
      <path clip-path="url(#p99f436b5fc)" d="M 8059.285714 401.4 
L 9720 401.4 
" style="fill:none;stroke:#b0b0b0;stroke-linecap:square;stroke-width:0.8;"/>
     </g>
     <g id="line2d_128">
      <g>
       <use style="stroke:#000000;stroke-width:0.8;" x="8059.285714" xlink:href="#mf2eb2133d9" y="401.4"/>
      </g>
     </g>
    </g>
    <g id="ytick_34">
     <g id="line2d_129">
      <path clip-path="url(#p99f436b5fc)" d="M 8059.285714 265.5 
L 9720 265.5 
" style="fill:none;stroke:#b0b0b0;stroke-linecap:square;stroke-width:0.8;"/>
     </g>
     <g id="line2d_130">
      <g>
       <use style="stroke:#000000;stroke-width:0.8;" x="8059.285714" xlink:href="#mf2eb2133d9" y="265.5"/>
      </g>
     </g>
    </g>
    <g id="ytick_35">
     <g id="line2d_131">
      <path clip-path="url(#p99f436b5fc)" d="M 8059.285714 129.6 
L 9720 129.6 
" style="fill:none;stroke:#b0b0b0;stroke-linecap:square;stroke-width:0.8;"/>
     </g>
     <g id="line2d_132">
      <g>
       <use style="stroke:#000000;stroke-width:0.8;" x="8059.285714" xlink:href="#mf2eb2133d9" y="129.6"/>
      </g>
     </g>
    </g>
   </g>
   <g id="line2d_133">
    <path clip-path="url(#p99f436b5fc)" d="M 8134.772727 899.7 
L 8141.336815 854.4 
L 8167.593168 854.4 
L 8174.157256 809.1 
L 8193.84952 809.1 
L 8200.413608 854.4 
L 8206.977696 809.1 
L 8213.541784 854.4 
L 8220.105872 809.1 
L 8239.798137 809.1 
L 8246.362225 763.8 
L 8266.054489 763.8 
L 8279.182665 673.2 
L 8285.746753 673.2 
L 8298.874929 763.8 
L 8305.439018 718.5 
L 8312.003106 718.5 
L 8325.131282 809.1 
L 8331.69537 809.1 
L 8338.259458 854.4 
L 8344.823546 809.1 
L 8351.387634 809.1 
L 8364.51581 718.5 
L 8390.772163 718.5 
L 8397.336251 673.2 
L 8403.900339 718.5 
L 8443.284867 718.5 
L 8449.848955 763.8 
L 8456.413043 763.8 
L 8469.54122 854.4 
L 8489.233484 854.4 
L 8495.797572 809.1 
L 8502.36166 809.1 
L 8515.489836 718.5 
L 8541.746189 718.5 
L 8548.310277 763.8 
L 8561.438453 763.8 
L 8568.002541 809.1 
L 8574.566629 763.8 
L 8581.130717 763.8 
L 8587.694805 718.5 
L 8600.822981 718.5 
L 8607.387069 673.2 
L 8613.951158 718.5 
L 8627.079334 718.5 
L 8633.643422 673.2 
L 8646.771598 673.2 
L 8653.335686 718.5 
L 8659.899774 718.5 
L 8666.463862 673.2 
L 8679.592038 763.8 
L 8686.156126 718.5 
L 8692.720215 763.8 
L 8699.284303 763.8 
L 8705.848391 809.1 
L 8712.412479 809.1 
L 8725.540655 718.5 
L 8732.104743 718.5 
L 8738.668831 763.8 
L 8751.797007 763.8 
L 8758.361095 809.1 
L 8764.925184 763.8 
L 8791.181536 945 
L 8797.745624 899.7 
L 8804.309712 899.7 
L 8817.437888 809.1 
L 8824.001976 809.1 
L 8837.130152 899.7 
L 8856.822417 763.8 
L 8863.386505 809.1 
L 8869.950593 763.8 
L 8896.206945 763.8 
L 8902.771033 718.5 
L 8922.463298 718.5 
L 8929.027386 673.2 
L 8942.155562 673.2 
L 8948.71965 718.5 
L 8955.283738 718.5 
L 8961.847826 763.8 
L 8974.976002 763.8 
L 8981.54009 718.5 
L 8994.668267 718.5 
L 9001.232355 763.8 
L 9007.796443 763.8 
L 9014.360531 809.1 
L 9020.924619 809.1 
L 9034.052795 718.5 
L 9040.616883 763.8 
L 9047.180971 763.8 
L 9053.745059 809.1 
L 9060.309147 809.1 
L 9066.873235 854.4 
L 9073.437324 854.4 
L 9080.001412 899.7 
L 9086.5655 854.4 
L 9106.257764 854.4 
L 9125.950028 990.3 
L 9132.514116 945 
L 9145.642292 945 
L 9171.898645 763.8 
L 9178.462733 809.1 
L 9185.026821 763.8 
L 9198.154997 763.8 
L 9204.719085 809.1 
L 9211.283173 763.8 
L 9224.41135 854.4 
L 9230.975438 854.4 
L 9237.539526 809.1 
L 9244.103614 809.1 
L 9257.23179 718.5 
L 9290.05223 718.5 
L 9296.616318 763.8 
L 9303.180407 763.8 
L 9309.744495 718.5 
L 9316.308583 718.5 
L 9322.872671 673.2 
L 9329.436759 718.5 
L 9342.564935 627.9 
L 9362.257199 627.9 
L 9368.821287 673.2 
L 9381.949464 673.2 
L 9388.513552 718.5 
L 9395.07764 673.2 
L 9401.641728 673.2 
L 9408.205816 718.5 
L 9421.333992 718.5 
L 9427.89808 763.8 
L 9434.462168 763.8 
L 9447.590344 854.4 
L 9454.154433 854.4 
L 9473.846697 718.5 
L 9493.538961 718.5 
L 9500.103049 763.8 
L 9513.231225 763.8 
L 9519.795313 809.1 
L 9526.359401 763.8 
L 9539.487578 763.8 
L 9546.051666 809.1 
L 9552.615754 809.1 
L 9559.179842 854.4 
L 9559.179842 854.4 
" style="fill:none;stroke:#32cd32;stroke-linecap:square;stroke-width:5;"/>
   </g>
   <g id="line2d_134">
    <path clip-path="url(#p99f436b5fc)" d="M 8134.772727 599.21 
L 8141.336815 603.74 
L 8147.900903 581.09 
L 8154.464992 571.382857 
L 8161.02908 548.732857 
L 8167.593168 551.968571 
L 8174.157256 540.643571 
L 8180.721344 540.643571 
L 8187.285432 517.993571 
L 8193.84952 517.993571 
L 8200.413608 563.293571 
L 8206.977696 570.843571 
L 8213.541784 593.493571 
L 8220.105872 570.843571 
L 8226.66996 577.315 
L 8233.234049 616.143571 
L 8239.798137 638.793571 
L 8246.362225 633.760238 
L 8252.926313 639.422738 
L 8259.490401 646.972738 
L 8266.054489 643.197738 
L 8272.618577 654.522738 
L 8279.182665 616.772738 
L 8285.746753 594.122738 
L 8292.310841 576.506071 
L 8298.874929 567.446071 
L 8305.439018 533.471071 
L 8312.003106 539.133571 
L 8318.567194 564.048571 
L 8325.131282 523.781905 
L 8331.69537 519.135751 
L 8338.259458 502.022418 
L 8344.823546 502.022418 
L 8351.387634 495.550989 
L 8357.951722 495.550989 
L 8364.51581 469.665275 
L 8371.079898 458.340275 
L 8377.643986 464.380275 
L 8384.208075 464.380275 
L 8390.772163 473.440275 
L 8397.336251 433.802775 
L 8403.900339 471.552775 
L 8410.464427 490.718159 
L 8417.028515 478.522005 
L 8423.592603 481.110577 
L 8430.156691 447.944505 
L 8436.720779 402.644505 
L 8443.284867 403.902839 
L 8449.848955 403.569751 
L 8456.413043 396.019751 
L 8462.977132 409.377443 
L 8469.54122 393.198871 
L 8476.105308 395.356014 
L 8482.669396 403.592378 
L 8495.797572 403.592378 
L 8502.36166 444.362378 
L 8508.925748 448.766545 
L 8515.489836 417.294966 
L 8522.053924 412.261632 
L 8528.618012 419.927786 
L 8535.182101 450.63112 
L 8541.746189 473.28112 
L 8548.310277 489.459691 
L 8554.874365 493.989691 
L 8561.438453 503.049691 
L 8568.002541 510.018922 
L 8574.566629 510.156194 
L 8581.130717 548.984766 
L 8587.694805 548.984766 
L 8594.258893 552.382266 
L 8600.822981 548.607266 
L 8607.387069 514.341881 
L 8613.951158 549.188035 
L 8620.515246 543.363749 
L 8627.079334 546.329821 
L 8633.643422 577.324558 
L 8640.20751 574.235921 
L 8646.771598 568.90651 
L 8653.335686 575.87574 
L 8659.899774 585.168048 
L 8666.463862 583.729953 
L 8673.02795 576.85406 
L 8679.592038 579.27652 
L 8686.156126 580.714615 
L 8692.720215 618.766615 
L 8699.284303 577.996615 
L 8705.848391 597.374948 
L 8712.412479 600.156527 
L 8718.976567 628.199384 
L 8725.540655 614.847806 
L 8732.104743 576.742511 
L 8738.668831 554.092511 
L 8745.232919 539.936261 
L 8751.797007 542.375492 
L 8758.361095 533.315492 
L 8764.925184 553.920174 
L 8771.489272 593.042902 
L 8778.05336 562.70808 
L 8784.617448 557.962366 
L 8791.181536 553.935699 
L 8797.745624 518.073199 
L 8804.309712 515.053199 
L 8810.8738 478.813199 
L 8817.437888 480.906897 
L 8824.001976 476.217456 
L 8830.566064 475.422719 
L 8837.130152 503.426355 
L 8843.694241 518.526355 
L 8850.258329 518.526355 
L 8856.822417 496.820105 
L 8863.386505 509.906772 
L 8869.950593 510.699522 
L 8876.514681 506.512127 
L 8883.078769 506.288974 
L 8889.642857 506.741974 
L 8896.206945 514.978338 
L 8902.771033 490.301759 
L 8909.335121 488.187759 
L 8915.899209 464.263084 
L 8922.463298 468.123234 
L 8929.027386 474.784999 
L 8935.591474 490.96357 
L 8942.155562 519.141249 
L 8948.71965 552.245095 
L 8955.283738 552.245095 
L 8961.847826 562.421182 
L 8968.411914 517.121182 
L 8974.976002 512.745614 
L 8981.54009 514.608601 
L 8988.104178 509.575267 
L 8994.668267 512.721101 
L 9001.232355 511.315239 
L 9007.796443 507.917739 
L 9014.360531 517.688327 
L 9020.924619 550.478926 
L 9034.052795 490.510355 
L 9040.616883 483.288616 
L 9047.180971 482.228081 
L 9053.745059 479.982606 
L 9060.309147 465.486606 
L 9066.873235 461.862606 
L 9073.437324 497.067178 
L 9080.001412 530.078902 
L 9086.5655 536.873902 
L 9093.129588 538.17438 
L 9099.693676 536.425959 
L 9106.257764 534.474575 
L 9112.821852 530.356393 
L 9119.38594 539.847821 
L 9125.950028 530.521351 
L 9132.514116 518.589654 
L 9139.078204 490.75725 
L 9145.642292 487.894888 
L 9152.206381 496.388638 
L 9158.770469 495.310066 
L 9165.334557 506.635066 
L 9171.898645 502.516884 
L 9178.462733 508.922945 
L 9185.026821 516.170945 
L 9191.590909 507.362612 
L 9198.154997 516.481717 
L 9204.719085 519.879217 
L 9211.283173 511.748448 
L 9217.847261 486.939771 
L 9224.41135 495.707513 
L 9230.975438 523.966084 
L 9237.539526 522.798934 
L 9244.103614 524.138239 
L 9250.667702 517.889963 
L 9257.23179 525.590963 
L 9263.795878 532.062391 
L 9270.359966 498.152106 
L 9276.924054 465.140381 
L 9283.488142 428.22927 
L 9290.05223 421.712428 
L 9296.616318 424.354928 
L 9303.180407 428.959599 
L 9309.744495 440.60817 
L 9316.308583 456.46317 
L 9322.872671 492.70317 
L 9329.436759 496.950045 
L 9336.000847 524.038607 
L 9342.564935 519.185035 
L 9349.129023 515.724619 
L 9355.693111 479.05319 
L 9362.257199 475.27819 
L 9368.821287 492.26569 
L 9375.385375 524.982357 
L 9388.513552 525.040808 
L 9395.07764 524.122565 
L 9401.641728 520.553474 
L 9408.205816 513.584244 
L 9414.769904 501.663191 
L 9421.333992 497.792746 
L 9427.89808 503.832746 
L 9434.462168 503.161635 
L 9441.026256 505.179544 
L 9447.590344 517.170721 
L 9454.154433 519.435721 
L 9460.718521 517.732713 
L 9467.282609 515.359856 
L 9473.846697 517.919914 
L 9480.410785 519.497025 
L 9486.974873 554.807794 
L 9493.538961 561.499839 
L 9500.103049 553.410554 
L 9506.667137 575.47361 
L 9513.231225 551.205753 
L 9519.795313 514.965753 
L 9526.359401 516.179146 
L 9532.92349 491.57656 
L 9539.487578 464.25275 
L 9546.051666 469.067243 
L 9552.615754 472.842243 
L 9559.179842 505.558909 
L 9559.179842 505.558909 
" style="fill:none;stroke:#fa8072;stroke-linecap:square;stroke-width:3;"/>
   </g>
   <g id="line2d_135">
    <path clip-path="url(#p99f436b5fc)" d="M 8059.285714 809.1 
L 9720 809.1 
" style="fill:none;opacity:0.7;stroke:#ff0000;stroke-dasharray:5.55,2.4;stroke-dashoffset:0;stroke-width:1.5;"/>
   </g>
   <g id="patch_23">
    <path d="M 8059.285714 945 
L 8059.285714 129.6 
" style="fill:none;stroke:#000000;stroke-linecap:square;stroke-linejoin:miter;stroke-width:0.8;"/>
   </g>
   <g id="patch_24">
    <path d="M 9720 945 
L 9720 129.6 
" style="fill:none;stroke:#000000;stroke-linecap:square;stroke-linejoin:miter;stroke-width:0.8;"/>
   </g>
   <g id="patch_25">
    <path d="M 8059.285714 945 
L 9720 945 
" style="fill:none;stroke:#000000;stroke-linecap:square;stroke-linejoin:miter;stroke-width:0.8;"/>
   </g>
   <g id="patch_26">
    <path d="M 8059.285714 129.6 
L 9720 129.6 
" style="fill:none;stroke:#000000;stroke-linecap:square;stroke-linejoin:miter;stroke-width:0.8;"/>
   </g>
  </g>
 </g>
 <defs>
  <clipPath id="pcb36c22f77">
   <rect height="815.4" width="1660.714286" x="1350" y="129.6"/>
  </clipPath>
  <clipPath id="p64668818dd">
   <rect height="815.4" width="1660.714286" x="3027.321429" y="129.6"/>
  </clipPath>
  <clipPath id="pef1f1dde8a">
   <rect height="815.4" width="1660.714286" x="4704.642857" y="129.6"/>
  </clipPath>
  <clipPath id="p57df5ee0fb">
   <rect height="815.4" width="1660.714286" x="6381.964286" y="129.6"/>
  </clipPath>
  <clipPath id="p99f436b5fc">
   <rect height="815.4" width="1660.714286" x="8059.285714" y="129.6"/>
  </clipPath>
 </defs>
</svg>
