<?xml version="1.0" encoding="utf-8" standalone="no"?>
<!DOCTYPE svg PUBLIC "-//W3C//DTD SVG 1.1//EN"
  "http://www.w3.org/Graphics/SVG/1.1/DTD/svg11.dtd">
<!-- Created with matplotlib (http://matplotlib.org/) -->
<svg height="1080pt" version="1.1" viewBox="0 0 10800 1080" width="10800pt" xmlns="http://www.w3.org/2000/svg" xmlns:xlink="http://www.w3.org/1999/xlink">
 <defs>
  <style type="text/css">
*{stroke-linecap:butt;stroke-linejoin:round;}
  </style>
 </defs>
 <g id="figure_1">
  <g id="patch_1">
   <path d="M 0 1080 
L 10800 1080 
L 10800 0 
L 0 0 
z
" style="fill:#ffffff;"/>
  </g>
  <g id="axes_1">
   <g id="patch_2">
    <path d="M 1350 945 
L 3010.714286 945 
L 3010.714286 129.6 
L 1350 129.6 
z
" style="fill:#ffffff;"/>
   </g>
   <g id="matplotlib.axis_1">
    <g id="xtick_1">
     <g id="line2d_1">
      <path clip-path="url(#p0acdc4be41)" d="M 1425.487013 945 
L 1425.487013 129.6 
" style="fill:none;stroke:#b0b0b0;stroke-linecap:square;stroke-width:0.8;"/>
     </g>
     <g id="line2d_2">
      <defs>
       <path d="M 0 0 
L 0 3.5 
" id="m6c91427d8e" style="stroke:#000000;stroke-width:0.8;"/>
      </defs>
      <g>
       <use style="stroke:#000000;stroke-width:0.8;" x="1425.487013" xlink:href="#m6c91427d8e" y="945"/>
      </g>
     </g>
     <g id="text_1">
      <!-- 0 -->
      <defs>
       <path d="M 31.78125 66.40625 
Q 24.171875 66.40625 20.328125 58.90625 
Q 16.5 51.421875 16.5 36.375 
Q 16.5 21.390625 20.328125 13.890625 
Q 24.171875 6.390625 31.78125 6.390625 
Q 39.453125 6.390625 43.28125 13.890625 
Q 47.125 21.390625 47.125 36.375 
Q 47.125 51.421875 43.28125 58.90625 
Q 39.453125 66.40625 31.78125 66.40625 
z
M 31.78125 74.21875 
Q 44.046875 74.21875 50.515625 64.515625 
Q 56.984375 54.828125 56.984375 36.375 
Q 56.984375 17.96875 50.515625 8.265625 
Q 44.046875 -1.421875 31.78125 -1.421875 
Q 19.53125 -1.421875 13.0625 8.265625 
Q 6.59375 17.96875 6.59375 36.375 
Q 6.59375 54.828125 13.0625 64.515625 
Q 19.53125 74.21875 31.78125 74.21875 
z
" id="DejaVuSans-30"/>
      </defs>
      <g transform="translate(1418.488263 968.716563)scale(0.22 -0.22)">
       <use xlink:href="#DejaVuSans-30"/>
      </g>
     </g>
    </g>
    <g id="xtick_2">
     <g id="line2d_3">
      <path clip-path="url(#p0acdc4be41)" d="M 1712.509876 945 
L 1712.509876 129.6 
" style="fill:none;stroke:#b0b0b0;stroke-linecap:square;stroke-width:0.8;"/>
     </g>
     <g id="line2d_4">
      <g>
       <use style="stroke:#000000;stroke-width:0.8;" x="1712.509876" xlink:href="#m6c91427d8e" y="945"/>
      </g>
     </g>
     <g id="text_2">
      <!-- 50 -->
      <defs>
       <path d="M 10.796875 72.90625 
L 49.515625 72.90625 
L 49.515625 64.59375 
L 19.828125 64.59375 
L 19.828125 46.734375 
Q 21.96875 47.46875 24.109375 47.828125 
Q 26.265625 48.1875 28.421875 48.1875 
Q 40.625 48.1875 47.75 41.5 
Q 54.890625 34.8125 54.890625 23.390625 
Q 54.890625 11.625 47.5625 5.09375 
Q 40.234375 -1.421875 26.90625 -1.421875 
Q 22.3125 -1.421875 17.546875 -0.640625 
Q 12.796875 0.140625 7.71875 1.703125 
L 7.71875 11.625 
Q 12.109375 9.234375 16.796875 8.0625 
Q 21.484375 6.890625 26.703125 6.890625 
Q 35.15625 6.890625 40.078125 11.328125 
Q 45.015625 15.765625 45.015625 23.390625 
Q 45.015625 31 40.078125 35.4375 
Q 35.15625 39.890625 26.703125 39.890625 
Q 22.75 39.890625 18.8125 39.015625 
Q 14.890625 38.140625 10.796875 36.28125 
z
" id="DejaVuSans-35"/>
      </defs>
      <g transform="translate(1698.512376 968.716563)scale(0.22 -0.22)">
       <use xlink:href="#DejaVuSans-35"/>
       <use x="63.623047" xlink:href="#DejaVuSans-30"/>
      </g>
     </g>
    </g>
    <g id="xtick_3">
     <g id="line2d_5">
      <path clip-path="url(#p0acdc4be41)" d="M 1999.532739 945 
L 1999.532739 129.6 
" style="fill:none;stroke:#b0b0b0;stroke-linecap:square;stroke-width:0.8;"/>
     </g>
     <g id="line2d_6">
      <g>
       <use style="stroke:#000000;stroke-width:0.8;" x="1999.532739" xlink:href="#m6c91427d8e" y="945"/>
      </g>
     </g>
     <g id="text_3">
      <!-- 100 -->
      <defs>
       <path d="M 12.40625 8.296875 
L 28.515625 8.296875 
L 28.515625 63.921875 
L 10.984375 60.40625 
L 10.984375 69.390625 
L 28.421875 72.90625 
L 38.28125 72.90625 
L 38.28125 8.296875 
L 54.390625 8.296875 
L 54.390625 0 
L 12.40625 0 
z
" id="DejaVuSans-31"/>
      </defs>
      <g transform="translate(1978.536489 968.716563)scale(0.22 -0.22)">
       <use xlink:href="#DejaVuSans-31"/>
       <use x="63.623047" xlink:href="#DejaVuSans-30"/>
       <use x="127.246094" xlink:href="#DejaVuSans-30"/>
      </g>
     </g>
    </g>
    <g id="xtick_4">
     <g id="line2d_7">
      <path clip-path="url(#p0acdc4be41)" d="M 2286.555602 945 
L 2286.555602 129.6 
" style="fill:none;stroke:#b0b0b0;stroke-linecap:square;stroke-width:0.8;"/>
     </g>
     <g id="line2d_8">
      <g>
       <use style="stroke:#000000;stroke-width:0.8;" x="2286.555602" xlink:href="#m6c91427d8e" y="945"/>
      </g>
     </g>
     <g id="text_4">
      <!-- 150 -->
      <g transform="translate(2265.559352 968.716563)scale(0.22 -0.22)">
       <use xlink:href="#DejaVuSans-31"/>
       <use x="63.623047" xlink:href="#DejaVuSans-35"/>
       <use x="127.246094" xlink:href="#DejaVuSans-30"/>
      </g>
     </g>
    </g>
    <g id="xtick_5">
     <g id="line2d_9">
      <path clip-path="url(#p0acdc4be41)" d="M 2573.578465 945 
L 2573.578465 129.6 
" style="fill:none;stroke:#b0b0b0;stroke-linecap:square;stroke-width:0.8;"/>
     </g>
     <g id="line2d_10">
      <g>
       <use style="stroke:#000000;stroke-width:0.8;" x="2573.578465" xlink:href="#m6c91427d8e" y="945"/>
      </g>
     </g>
     <g id="text_5">
      <!-- 200 -->
      <defs>
       <path d="M 19.1875 8.296875 
L 53.609375 8.296875 
L 53.609375 0 
L 7.328125 0 
L 7.328125 8.296875 
Q 12.9375 14.109375 22.625 23.890625 
Q 32.328125 33.6875 34.8125 36.53125 
Q 39.546875 41.84375 41.421875 45.53125 
Q 43.3125 49.21875 43.3125 52.78125 
Q 43.3125 58.59375 39.234375 62.25 
Q 35.15625 65.921875 28.609375 65.921875 
Q 23.96875 65.921875 18.8125 64.3125 
Q 13.671875 62.703125 7.8125 59.421875 
L 7.8125 69.390625 
Q 13.765625 71.78125 18.9375 73 
Q 24.125 74.21875 28.421875 74.21875 
Q 39.75 74.21875 46.484375 68.546875 
Q 53.21875 62.890625 53.21875 53.421875 
Q 53.21875 48.921875 51.53125 44.890625 
Q 49.859375 40.875 45.40625 35.40625 
Q 44.1875 33.984375 37.640625 27.21875 
Q 31.109375 20.453125 19.1875 8.296875 
z
" id="DejaVuSans-32"/>
      </defs>
      <g transform="translate(2552.582215 968.716563)scale(0.22 -0.22)">
       <use xlink:href="#DejaVuSans-32"/>
       <use x="63.623047" xlink:href="#DejaVuSans-30"/>
       <use x="127.246094" xlink:href="#DejaVuSans-30"/>
      </g>
     </g>
    </g>
    <g id="xtick_6">
     <g id="line2d_11">
      <path clip-path="url(#p0acdc4be41)" d="M 2860.601328 945 
L 2860.601328 129.6 
" style="fill:none;stroke:#b0b0b0;stroke-linecap:square;stroke-width:0.8;"/>
     </g>
     <g id="line2d_12">
      <g>
       <use style="stroke:#000000;stroke-width:0.8;" x="2860.601328" xlink:href="#m6c91427d8e" y="945"/>
      </g>
     </g>
     <g id="text_6">
      <!-- 250 -->
      <g transform="translate(2839.605078 968.716563)scale(0.22 -0.22)">
       <use xlink:href="#DejaVuSans-32"/>
       <use x="63.623047" xlink:href="#DejaVuSans-35"/>
       <use x="127.246094" xlink:href="#DejaVuSans-30"/>
      </g>
     </g>
    </g>
   </g>
   <g id="matplotlib.axis_2">
    <g id="ytick_1">
     <g id="line2d_13">
      <path clip-path="url(#p0acdc4be41)" d="M 1350 945 
L 3010.714286 945 
" style="fill:none;stroke:#b0b0b0;stroke-linecap:square;stroke-width:0.8;"/>
     </g>
     <g id="line2d_14">
      <defs>
       <path d="M 0 0 
L -3.5 0 
" id="m7473dba8a5" style="stroke:#000000;stroke-width:0.8;"/>
      </defs>
      <g>
       <use style="stroke:#000000;stroke-width:0.8;" x="1350" xlink:href="#m7473dba8a5" y="945"/>
      </g>
     </g>
     <g id="text_7">
      <!-- 0.4 -->
      <defs>
       <path d="M 10.6875 12.40625 
L 21 12.40625 
L 21 0 
L 10.6875 0 
z
" id="DejaVuSans-2e"/>
       <path d="M 37.796875 64.3125 
L 12.890625 25.390625 
L 37.796875 25.390625 
z
M 35.203125 72.90625 
L 47.609375 72.90625 
L 47.609375 25.390625 
L 58.015625 25.390625 
L 58.015625 17.1875 
L 47.609375 17.1875 
L 47.609375 0 
L 37.796875 0 
L 37.796875 17.1875 
L 4.890625 17.1875 
L 4.890625 26.703125 
z
" id="DejaVuSans-34"/>
      </defs>
      <g transform="translate(1308.013125 953.358281)scale(0.22 -0.22)">
       <use xlink:href="#DejaVuSans-30"/>
       <use x="63.623047" xlink:href="#DejaVuSans-2e"/>
       <use x="95.410156" xlink:href="#DejaVuSans-34"/>
      </g>
     </g>
    </g>
    <g id="ytick_2">
     <g id="line2d_15">
      <path clip-path="url(#p0acdc4be41)" d="M 1350 809.1 
L 3010.714286 809.1 
" style="fill:none;stroke:#b0b0b0;stroke-linecap:square;stroke-width:0.8;"/>
     </g>
     <g id="line2d_16">
      <g>
       <use style="stroke:#000000;stroke-width:0.8;" x="1350" xlink:href="#m7473dba8a5" y="809.1"/>
      </g>
     </g>
     <g id="text_8">
      <!-- 0.5 -->
      <g transform="translate(1308.013125 817.458281)scale(0.22 -0.22)">
       <use xlink:href="#DejaVuSans-30"/>
       <use x="63.623047" xlink:href="#DejaVuSans-2e"/>
       <use x="95.410156" xlink:href="#DejaVuSans-35"/>
      </g>
     </g>
    </g>
    <g id="ytick_3">
     <g id="line2d_17">
      <path clip-path="url(#p0acdc4be41)" d="M 1350 673.2 
L 3010.714286 673.2 
" style="fill:none;stroke:#b0b0b0;stroke-linecap:square;stroke-width:0.8;"/>
     </g>
     <g id="line2d_18">
      <g>
       <use style="stroke:#000000;stroke-width:0.8;" x="1350" xlink:href="#m7473dba8a5" y="673.2"/>
      </g>
     </g>
     <g id="text_9">
      <!-- 0.6 -->
      <defs>
       <path d="M 33.015625 40.375 
Q 26.375 40.375 22.484375 35.828125 
Q 18.609375 31.296875 18.609375 23.390625 
Q 18.609375 15.53125 22.484375 10.953125 
Q 26.375 6.390625 33.015625 6.390625 
Q 39.65625 6.390625 43.53125 10.953125 
Q 47.40625 15.53125 47.40625 23.390625 
Q 47.40625 31.296875 43.53125 35.828125 
Q 39.65625 40.375 33.015625 40.375 
z
M 52.59375 71.296875 
L 52.59375 62.3125 
Q 48.875 64.0625 45.09375 64.984375 
Q 41.3125 65.921875 37.59375 65.921875 
Q 27.828125 65.921875 22.671875 59.328125 
Q 17.53125 52.734375 16.796875 39.40625 
Q 19.671875 43.65625 24.015625 45.921875 
Q 28.375 48.1875 33.59375 48.1875 
Q 44.578125 48.1875 50.953125 41.515625 
Q 57.328125 34.859375 57.328125 23.390625 
Q 57.328125 12.15625 50.6875 5.359375 
Q 44.046875 -1.421875 33.015625 -1.421875 
Q 20.359375 -1.421875 13.671875 8.265625 
Q 6.984375 17.96875 6.984375 36.375 
Q 6.984375 53.65625 15.1875 63.9375 
Q 23.390625 74.21875 37.203125 74.21875 
Q 40.921875 74.21875 44.703125 73.484375 
Q 48.484375 72.75 52.59375 71.296875 
z
" id="DejaVuSans-36"/>
      </defs>
      <g transform="translate(1308.013125 681.558281)scale(0.22 -0.22)">
       <use xlink:href="#DejaVuSans-30"/>
       <use x="63.623047" xlink:href="#DejaVuSans-2e"/>
       <use x="95.410156" xlink:href="#DejaVuSans-36"/>
      </g>
     </g>
    </g>
    <g id="ytick_4">
     <g id="line2d_19">
      <path clip-path="url(#p0acdc4be41)" d="M 1350 537.3 
L 3010.714286 537.3 
" style="fill:none;stroke:#b0b0b0;stroke-linecap:square;stroke-width:0.8;"/>
     </g>
     <g id="line2d_20">
      <g>
       <use style="stroke:#000000;stroke-width:0.8;" x="1350" xlink:href="#m7473dba8a5" y="537.3"/>
      </g>
     </g>
     <g id="text_10">
      <!-- 0.7 -->
      <defs>
       <path d="M 8.203125 72.90625 
L 55.078125 72.90625 
L 55.078125 68.703125 
L 28.609375 0 
L 18.3125 0 
L 43.21875 64.59375 
L 8.203125 64.59375 
z
" id="DejaVuSans-37"/>
      </defs>
      <g transform="translate(1308.013125 545.658281)scale(0.22 -0.22)">
       <use xlink:href="#DejaVuSans-30"/>
       <use x="63.623047" xlink:href="#DejaVuSans-2e"/>
       <use x="95.410156" xlink:href="#DejaVuSans-37"/>
      </g>
     </g>
    </g>
    <g id="ytick_5">
     <g id="line2d_21">
      <path clip-path="url(#p0acdc4be41)" d="M 1350 401.4 
L 3010.714286 401.4 
" style="fill:none;stroke:#b0b0b0;stroke-linecap:square;stroke-width:0.8;"/>
     </g>
     <g id="line2d_22">
      <g>
       <use style="stroke:#000000;stroke-width:0.8;" x="1350" xlink:href="#m7473dba8a5" y="401.4"/>
      </g>
     </g>
     <g id="text_11">
      <!-- 0.8 -->
      <defs>
       <path d="M 31.78125 34.625 
Q 24.75 34.625 20.71875 30.859375 
Q 16.703125 27.09375 16.703125 20.515625 
Q 16.703125 13.921875 20.71875 10.15625 
Q 24.75 6.390625 31.78125 6.390625 
Q 38.8125 6.390625 42.859375 10.171875 
Q 46.921875 13.96875 46.921875 20.515625 
Q 46.921875 27.09375 42.890625 30.859375 
Q 38.875 34.625 31.78125 34.625 
z
M 21.921875 38.8125 
Q 15.578125 40.375 12.03125 44.71875 
Q 8.5 49.078125 8.5 55.328125 
Q 8.5 64.0625 14.71875 69.140625 
Q 20.953125 74.21875 31.78125 74.21875 
Q 42.671875 74.21875 48.875 69.140625 
Q 55.078125 64.0625 55.078125 55.328125 
Q 55.078125 49.078125 51.53125 44.71875 
Q 48 40.375 41.703125 38.8125 
Q 48.828125 37.15625 52.796875 32.3125 
Q 56.78125 27.484375 56.78125 20.515625 
Q 56.78125 9.90625 50.3125 4.234375 
Q 43.84375 -1.421875 31.78125 -1.421875 
Q 19.734375 -1.421875 13.25 4.234375 
Q 6.78125 9.90625 6.78125 20.515625 
Q 6.78125 27.484375 10.78125 32.3125 
Q 14.796875 37.15625 21.921875 38.8125 
z
M 18.3125 54.390625 
Q 18.3125 48.734375 21.84375 45.5625 
Q 25.390625 42.390625 31.78125 42.390625 
Q 38.140625 42.390625 41.71875 45.5625 
Q 45.3125 48.734375 45.3125 54.390625 
Q 45.3125 60.0625 41.71875 63.234375 
Q 38.140625 66.40625 31.78125 66.40625 
Q 25.390625 66.40625 21.84375 63.234375 
Q 18.3125 60.0625 18.3125 54.390625 
z
" id="DejaVuSans-38"/>
      </defs>
      <g transform="translate(1308.013125 409.758281)scale(0.22 -0.22)">
       <use xlink:href="#DejaVuSans-30"/>
       <use x="63.623047" xlink:href="#DejaVuSans-2e"/>
       <use x="95.410156" xlink:href="#DejaVuSans-38"/>
      </g>
     </g>
    </g>
    <g id="ytick_6">
     <g id="line2d_23">
      <path clip-path="url(#p0acdc4be41)" d="M 1350 265.5 
L 3010.714286 265.5 
" style="fill:none;stroke:#b0b0b0;stroke-linecap:square;stroke-width:0.8;"/>
     </g>
     <g id="line2d_24">
      <g>
       <use style="stroke:#000000;stroke-width:0.8;" x="1350" xlink:href="#m7473dba8a5" y="265.5"/>
      </g>
     </g>
     <g id="text_12">
      <!-- 0.9 -->
      <defs>
       <path d="M 10.984375 1.515625 
L 10.984375 10.5 
Q 14.703125 8.734375 18.5 7.8125 
Q 22.3125 6.890625 25.984375 6.890625 
Q 35.75 6.890625 40.890625 13.453125 
Q 46.046875 20.015625 46.78125 33.40625 
Q 43.953125 29.203125 39.59375 26.953125 
Q 35.25 24.703125 29.984375 24.703125 
Q 19.046875 24.703125 12.671875 31.3125 
Q 6.296875 37.9375 6.296875 49.421875 
Q 6.296875 60.640625 12.9375 67.421875 
Q 19.578125 74.21875 30.609375 74.21875 
Q 43.265625 74.21875 49.921875 64.515625 
Q 56.59375 54.828125 56.59375 36.375 
Q 56.59375 19.140625 48.40625 8.859375 
Q 40.234375 -1.421875 26.421875 -1.421875 
Q 22.703125 -1.421875 18.890625 -0.6875 
Q 15.09375 0.046875 10.984375 1.515625 
z
M 30.609375 32.421875 
Q 37.25 32.421875 41.125 36.953125 
Q 45.015625 41.5 45.015625 49.421875 
Q 45.015625 57.28125 41.125 61.84375 
Q 37.25 66.40625 30.609375 66.40625 
Q 23.96875 66.40625 20.09375 61.84375 
Q 16.21875 57.28125 16.21875 49.421875 
Q 16.21875 41.5 20.09375 36.953125 
Q 23.96875 32.421875 30.609375 32.421875 
z
" id="DejaVuSans-39"/>
      </defs>
      <g transform="translate(1308.013125 273.858281)scale(0.22 -0.22)">
       <use xlink:href="#DejaVuSans-30"/>
       <use x="63.623047" xlink:href="#DejaVuSans-2e"/>
       <use x="95.410156" xlink:href="#DejaVuSans-39"/>
      </g>
     </g>
    </g>
    <g id="ytick_7">
     <g id="line2d_25">
      <path clip-path="url(#p0acdc4be41)" d="M 1350 129.6 
L 3010.714286 129.6 
" style="fill:none;stroke:#b0b0b0;stroke-linecap:square;stroke-width:0.8;"/>
     </g>
     <g id="line2d_26">
      <g>
       <use style="stroke:#000000;stroke-width:0.8;" x="1350" xlink:href="#m7473dba8a5" y="129.6"/>
      </g>
     </g>
     <g id="text_13">
      <!-- 1.0 -->
      <g transform="translate(1308.013125 137.958281)scale(0.22 -0.22)">
       <use xlink:href="#DejaVuSans-31"/>
       <use x="63.623047" xlink:href="#DejaVuSans-2e"/>
       <use x="95.410156" xlink:href="#DejaVuSans-30"/>
      </g>
     </g>
    </g>
   </g>
   <g id="line2d_27">
    <path clip-path="url(#p0acdc4be41)" d="M 1425.487013 673.2 
L 1431.22747 718.5 
L 1436.967928 718.5 
L 1459.929757 899.7 
L 1477.151128 763.8 
L 1482.891586 809.1 
L 1494.3725 809.1 
L 1500.112957 763.8 
L 1511.593872 763.8 
L 1517.334329 718.5 
L 1523.074786 718.5 
L 1528.815244 763.8 
L 1534.555701 718.5 
L 1551.777073 718.5 
L 1557.51753 763.8 
L 1563.257987 763.8 
L 1568.998445 718.5 
L 1580.479359 718.5 
L 1586.219816 763.8 
L 1591.960274 718.5 
L 1609.181645 718.5 
L 1626.403017 582.6 
L 1637.883932 582.6 
L 1643.624389 627.9 
L 1649.364846 627.9 
L 1666.586218 492 
L 1678.067132 492 
L 1683.80759 537.3 
L 1689.548047 537.3 
L 1701.028962 446.7 
L 1723.990791 446.7 
L 1729.731248 401.4 
L 1741.212162 401.4 
L 1746.95262 356.1 
L 1752.693077 356.1 
L 1758.433534 310.8 
L 1764.173991 356.1 
L 1769.914449 356.1 
L 1775.654906 310.8 
L 1787.13582 310.8 
L 1792.876278 356.1 
L 1804.357192 356.1 
L 1810.097649 401.4 
L 1850.28085 401.4 
L 1856.021308 356.1 
L 1861.761765 401.4 
L 1867.502222 401.4 
L 1878.983137 492 
L 1884.723594 492 
L 1890.464051 537.3 
L 1896.204508 537.3 
L 1907.685423 627.9 
L 1913.42588 627.9 
L 1924.906795 718.5 
L 1976.57091 718.5 
L 1988.051825 627.9 
L 2011.013654 627.9 
L 2022.494568 718.5 
L 2028.235025 718.5 
L 2033.975483 673.2 
L 2039.71594 673.2 
L 2051.196854 582.6 
L 2056.937312 627.9 
L 2062.677769 582.6 
L 2068.418226 582.6 
L 2074.158684 537.3 
L 2079.899141 537.3 
L 2085.639598 582.6 
L 2097.120513 492 
L 2102.86097 537.3 
L 2108.601427 492 
L 2137.303713 492 
L 2143.044171 537.3 
L 2154.525085 537.3 
L 2160.265542 582.6 
L 2177.486914 582.6 
L 2183.227371 627.9 
L 2194.708286 537.3 
L 2211.929658 673.2 
L 2223.410572 673.2 
L 2229.15103 627.9 
L 2234.891487 627.9 
L 2246.372401 718.5 
L 2263.593773 718.5 
L 2269.33423 763.8 
L 2275.074688 718.5 
L 2298.036517 718.5 
L 2303.776974 763.8 
L 2320.998346 627.9 
L 2332.47926 627.9 
L 2338.219718 673.2 
L 2349.700632 673.2 
L 2355.441089 627.9 
L 2366.922004 718.5 
L 2384.143376 582.6 
L 2407.105205 582.6 
L 2418.586119 492 
L 2430.067034 492 
L 2435.807491 537.3 
L 2441.547948 537.3 
L 2447.288406 582.6 
L 2453.028863 582.6 
L 2458.76932 627.9 
L 2464.509777 627.9 
L 2470.250235 673.2 
L 2493.212064 673.2 
L 2498.952521 718.5 
L 2510.433435 627.9 
L 2527.654807 763.8 
L 2533.395264 763.8 
L 2539.135722 718.5 
L 2556.357093 718.5 
L 2567.838008 809.1 
L 2579.318923 809.1 
L 2585.05938 854.4 
L 2590.799837 854.4 
L 2619.502123 627.9 
L 2625.242581 673.2 
L 2630.983038 627.9 
L 2636.723495 627.9 
L 2648.20441 537.3 
L 2659.685324 537.3 
L 2665.425781 582.6 
L 2671.166239 537.3 
L 2682.647153 627.9 
L 2688.38761 582.6 
L 2694.128068 582.6 
L 2705.608982 492 
L 2711.34944 492 
L 2717.089897 537.3 
L 2728.570811 537.3 
L 2740.051726 446.7 
L 2745.792183 492 
L 2751.53264 492 
L 2757.273098 446.7 
L 2774.494469 446.7 
L 2785.975384 537.3 
L 2791.715841 537.3 
L 2797.456298 492 
L 2803.196756 537.3 
L 2808.937213 537.3 
L 2814.67767 582.6 
L 2831.899042 582.6 
L 2837.639499 537.3 
L 2843.379957 582.6 
L 2849.120414 537.3 
L 2849.120414 537.3 
" style="fill:none;stroke:#0000cd;stroke-linecap:square;stroke-width:5;"/>
   </g>
   <g id="line2d_28">
    <path clip-path="url(#p0acdc4be41)" d="M 1425.487013 536.976429 
L 1431.22747 559.626429 
L 1436.967928 559.626429 
L 1442.708385 582.276429 
L 1448.448842 582.276429 
L 1454.189299 604.926429 
L 1459.929757 638.901429 
L 1465.670214 629.463929 
L 1471.410671 663.438929 
L 1477.151128 640.788929 
L 1482.891586 640.788929 
L 1488.632043 635.755595 
L 1494.3725 644.815595 
L 1500.112957 633.490595 
L 1505.853415 648.590595 
L 1511.593872 639.530595 
L 1517.334329 625.940595 
L 1523.074786 625.940595 
L 1528.815244 627.828095 
L 1534.555701 663.061429 
L 1540.296158 678.161429 
L 1546.036615 691.751429 
L 1551.777073 732.018095 
L 1557.51753 732.018095 
L 1563.257987 741.725238 
L 1568.998445 708.779784 
L 1574.738902 740.489784 
L 1580.479359 751.814784 
L 1586.219816 768.287511 
L 1591.960274 753.873874 
L 1597.700731 764.327721 
L 1603.441188 726.577721 
L 1609.181645 717.866182 
L 1614.922103 679.535413 
L 1620.66256 696.95849 
L 1626.403017 659.20849 
L 1632.143474 634.29349 
L 1637.883932 634.29349 
L 1643.624389 607.86849 
L 1655.105303 607.86849 
L 1660.845761 577.66849 
L 1666.586218 538.839918 
L 1672.326675 547.899918 
L 1678.067132 538.462418 
L 1683.80759 512.289085 
L 1689.548047 499.346228 
L 1695.288504 499.346228 
L 1701.028962 491.418728 
L 1706.769419 456.185395 
L 1712.509876 462.225395 
L 1718.250333 454.297895 
L 1723.990791 423.091228 
L 1729.731248 438.191228 
L 1735.471705 428.484085 
L 1741.212162 424.365903 
L 1746.95262 397.689237 
L 1752.693077 394.857987 
L 1758.433534 383.714671 
L 1764.173991 407.454778 
L 1769.914449 406.060932 
L 1775.654906 409.169755 
L 1781.395363 398.715909 
L 1787.13582 399.296678 
L 1792.876278 423.05542 
L 1798.616735 425.800874 
L 1804.357192 446.940874 
L 1810.097649 478.084624 
L 1815.838107 475.303045 
L 1821.578564 491.158045 
L 1827.319021 501.816869 
L 1833.059479 501.287044 
L 1838.799936 506.140616 
L 1844.540393 539.144901 
L 1850.28085 533.482401 
L 1856.021308 523.415735 
L 1861.761765 519.748592 
L 1867.502222 513.277163 
L 1873.242679 543.477163 
L 1878.983137 584.462878 
L 1884.723594 548.222878 
L 1890.464051 577.793711 
L 1896.204508 576.283711 
L 1901.944966 575.597347 
L 1907.685423 620.897347 
L 1913.42588 635.310984 
L 1919.166337 636.186346 
L 1924.906795 664.364025 
L 1930.647252 659.034613 
L 1936.387709 661.033142 
L 1942.128167 651.973142 
L 1947.868624 649.808069 
L 1953.609081 652.794882 
L 1959.349538 650.907382 
L 1965.089996 622.938064 
L 1970.830453 622.490435 
L 1976.57091 625.510435 
L 1982.311367 594.366685 
L 1988.051825 595.034264 
L 1993.792282 584.212598 
L 1999.532739 577.038389 
L 2005.273196 575.495665 
L 2011.013654 570.210665 
L 2016.754111 541.297992 
L 2022.494568 549.534356 
L 2028.235025 549.534356 
L 2033.975483 543.494356 
L 2039.71594 584.025935 
L 2045.456397 558.704396 
L 2051.196854 520.954396 
L 2056.937312 558.704396 
L 2062.677769 538.571063 
L 2068.418226 544.344592 
L 2074.158684 541.255956 
L 2079.899141 508.696581 
L 2085.639598 486.046581 
L 2091.380055 491.009885 
L 2097.120513 469.438457 
L 2102.86097 481.518457 
L 2108.601427 453.205957 
L 2114.341884 486.151411 
L 2120.082342 482.690995 
L 2125.822799 484.308852 
L 2131.563256 489.100198 
L 2137.303713 489.211227 
L 2143.044171 517.113401 
L 2148.784628 517.868401 
L 2154.525085 512.205901 
L 2160.265542 543.009901 
L 2166.006 537.976568 
L 2171.746457 544.558619 
L 2177.486914 551.664502 
L 2183.227371 577.981644 
L 2188.967829 570.492532 
L 2194.708286 567.58558 
L 2200.448743 602.099865 
L 2206.189201 635.156622 
L 2211.929658 635.395043 
L 2217.670115 629.692945 
L 2223.410572 640.515852 
L 2229.15103 616.704313 
L 2234.891487 610.372055 
L 2240.631944 628.758526 
L 2246.372401 662.733526 
L 2252.112859 683.967901 
L 2257.853316 691.517901 
L 2263.593773 685.679234 
L 2269.33423 703.524689 
L 2275.074688 697.916117 
L 2280.815145 704.836951 
L 2286.555602 676.659917 
L 2292.296059 679.620701 
L 2298.036517 671.531416 
L 2303.776974 668.0468 
L 2309.517431 667.077816 
L 2315.257888 643.349245 
L 2320.998346 618.746659 
L 2326.738803 628.073129 
L 2332.47926 622.976879 
L 2338.219718 661.565768 
L 2343.960175 674.149101 
L 2349.700632 665.52053 
L 2355.441089 639.958387 
L 2361.181547 643.355887 
L 2366.922004 670.113975 
L 2372.662461 645.03719 
L 2378.402918 624.664433 
L 2384.143376 592.954433 
L 2389.883833 597.072615 
L 2395.62429 591.781736 
L 2401.364747 586.651608 
L 2407.105205 590.238411 
L 2412.845662 570.519588 
L 2418.586119 538.306254 
L 2424.326576 541.137504 
L 2430.067034 550.575004 
L 2435.807491 557.190243 
L 2441.547948 569.544788 
L 2447.288406 581.193359 
L 2453.028863 576.84639 
L 2458.76932 608.317969 
L 2464.509777 615.423851 
L 2470.250235 652.84559 
L 2475.990692 662.054931 
L 2487.471606 657.490068 
L 2493.212064 655.667654 
L 2498.952521 656.048326 
L 2504.692978 629.93791 
L 2510.433435 606.449021 
L 2516.173893 619.77255 
L 2521.91435 622.109455 
L 2527.654807 644.993765 
L 2533.395264 644.170129 
L 2539.135722 622.536475 
L 2544.876179 629.708975 
L 2550.616636 626.084975 
L 2556.357093 629.104975 
L 2562.097551 651.983763 
L 2567.838008 680.171284 
L 2573.578465 680.074489 
L 2579.318923 704.252202 
L 2596.540294 702.230588 
L 2602.280752 695.152463 
L 2608.021209 699.578085 
L 2613.761666 662.367371 
L 2619.502123 655.572371 
L 2625.242581 678.330744 
L 2630.983038 653.415744 
L 2636.723495 649.334663 
L 2642.463952 620.972924 
L 2648.20441 612.721853 
L 2653.944867 610.389332 
L 2659.685324 608.439483 
L 2665.425781 635.735636 
L 2671.166239 639.352023 
L 2676.906696 670.810356 
L 2682.647153 670.810356 
L 2688.38761 649.200242 
L 2694.128068 653.459216 
L 2699.868525 633.5745 
L 2705.608982 632.888137 
L 2711.34944 636.455719 
L 2717.089897 629.789621 
L 2722.830354 636.301496 
L 2728.570811 632.031841 
L 2740.051726 580.151533 
L 2745.792183 584.26075 
L 2751.53264 557.265334 
L 2757.273098 553.314752 
L 2763.013555 554.480314 
L 2768.754012 527.532622 
L 2774.494469 528.408961 
L 2780.234927 544.250677 
L 2785.975384 545.868534 
L 2791.715841 541.014962 
L 2797.456298 519.9296 
L 2803.196756 521.782782 
L 2808.937213 520.056171 
L 2814.67767 549.249504 
L 2820.418127 541.322004 
L 2826.158585 542.426882 
L 2831.899042 541.692288 
L 2837.639499 514.724395 
L 2843.379957 532.607532 
L 2849.120414 509.058723 
L 2849.120414 509.058723 
" style="fill:none;stroke:#fa8072;stroke-linecap:square;stroke-width:3;"/>
   </g>
   <g id="line2d_29">
    <path clip-path="url(#p0acdc4be41)" d="M 1350 809.1 
L 3010.714286 809.1 
" style="fill:none;opacity:0.7;stroke:#ff0000;stroke-dasharray:5.55,2.4;stroke-dashoffset:0;stroke-width:1.5;"/>
   </g>
   <g id="patch_3">
    <path d="M 1350 945 
L 1350 129.6 
" style="fill:none;stroke:#000000;stroke-linecap:square;stroke-linejoin:miter;stroke-width:0.8;"/>
   </g>
   <g id="patch_4">
    <path d="M 3010.714286 945 
L 3010.714286 129.6 
" style="fill:none;stroke:#000000;stroke-linecap:square;stroke-linejoin:miter;stroke-width:0.8;"/>
   </g>
   <g id="patch_5">
    <path d="M 1350 945 
L 3010.714286 945 
" style="fill:none;stroke:#000000;stroke-linecap:square;stroke-linejoin:miter;stroke-width:0.8;"/>
   </g>
   <g id="patch_6">
    <path d="M 1350 129.6 
L 3010.714286 129.6 
" style="fill:none;stroke:#000000;stroke-linecap:square;stroke-linejoin:miter;stroke-width:0.8;"/>
   </g>
  </g>
  <g id="axes_2">
   <g id="patch_7">
    <path d="M 3027.321429 945 
L 4688.035714 945 
L 4688.035714 129.6 
L 3027.321429 129.6 
z
" style="fill:#ffffff;"/>
   </g>
   <g id="matplotlib.axis_3">
    <g id="xtick_7">
     <g id="line2d_30">
      <path clip-path="url(#p2a7ba7544a)" d="M 3102.808442 945 
L 3102.808442 129.6 
" style="fill:none;stroke:#b0b0b0;stroke-linecap:square;stroke-width:0.8;"/>
     </g>
     <g id="line2d_31">
      <g>
       <use style="stroke:#000000;stroke-width:0.8;" x="3102.808442" xlink:href="#m6c91427d8e" y="945"/>
      </g>
     </g>
     <g id="text_14">
      <!-- 0 -->
      <g transform="translate(3095.809692 968.716563)scale(0.22 -0.22)">
       <use xlink:href="#DejaVuSans-30"/>
      </g>
     </g>
    </g>
    <g id="xtick_8">
     <g id="line2d_32">
      <path clip-path="url(#p2a7ba7544a)" d="M 3389.831305 945 
L 3389.831305 129.6 
" style="fill:none;stroke:#b0b0b0;stroke-linecap:square;stroke-width:0.8;"/>
     </g>
     <g id="line2d_33">
      <g>
       <use style="stroke:#000000;stroke-width:0.8;" x="3389.831305" xlink:href="#m6c91427d8e" y="945"/>
      </g>
     </g>
     <g id="text_15">
      <!-- 50 -->
      <g transform="translate(3375.833805 968.716563)scale(0.22 -0.22)">
       <use xlink:href="#DejaVuSans-35"/>
       <use x="63.623047" xlink:href="#DejaVuSans-30"/>
      </g>
     </g>
    </g>
    <g id="xtick_9">
     <g id="line2d_34">
      <path clip-path="url(#p2a7ba7544a)" d="M 3676.854168 945 
L 3676.854168 129.6 
" style="fill:none;stroke:#b0b0b0;stroke-linecap:square;stroke-width:0.8;"/>
     </g>
     <g id="line2d_35">
      <g>
       <use style="stroke:#000000;stroke-width:0.8;" x="3676.854168" xlink:href="#m6c91427d8e" y="945"/>
      </g>
     </g>
     <g id="text_16">
      <!-- 100 -->
      <g transform="translate(3655.857918 968.716563)scale(0.22 -0.22)">
       <use xlink:href="#DejaVuSans-31"/>
       <use x="63.623047" xlink:href="#DejaVuSans-30"/>
       <use x="127.246094" xlink:href="#DejaVuSans-30"/>
      </g>
     </g>
    </g>
    <g id="xtick_10">
     <g id="line2d_36">
      <path clip-path="url(#p2a7ba7544a)" d="M 3963.877031 945 
L 3963.877031 129.6 
" style="fill:none;stroke:#b0b0b0;stroke-linecap:square;stroke-width:0.8;"/>
     </g>
     <g id="line2d_37">
      <g>
       <use style="stroke:#000000;stroke-width:0.8;" x="3963.877031" xlink:href="#m6c91427d8e" y="945"/>
      </g>
     </g>
     <g id="text_17">
      <!-- 150 -->
      <g transform="translate(3942.880781 968.716563)scale(0.22 -0.22)">
       <use xlink:href="#DejaVuSans-31"/>
       <use x="63.623047" xlink:href="#DejaVuSans-35"/>
       <use x="127.246094" xlink:href="#DejaVuSans-30"/>
      </g>
     </g>
    </g>
    <g id="xtick_11">
     <g id="line2d_38">
      <path clip-path="url(#p2a7ba7544a)" d="M 4250.899894 945 
L 4250.899894 129.6 
" style="fill:none;stroke:#b0b0b0;stroke-linecap:square;stroke-width:0.8;"/>
     </g>
     <g id="line2d_39">
      <g>
       <use style="stroke:#000000;stroke-width:0.8;" x="4250.899894" xlink:href="#m6c91427d8e" y="945"/>
      </g>
     </g>
     <g id="text_18">
      <!-- 200 -->
      <g transform="translate(4229.903644 968.716563)scale(0.22 -0.22)">
       <use xlink:href="#DejaVuSans-32"/>
       <use x="63.623047" xlink:href="#DejaVuSans-30"/>
       <use x="127.246094" xlink:href="#DejaVuSans-30"/>
      </g>
     </g>
    </g>
    <g id="xtick_12">
     <g id="line2d_40">
      <path clip-path="url(#p2a7ba7544a)" d="M 4537.922757 945 
L 4537.922757 129.6 
" style="fill:none;stroke:#b0b0b0;stroke-linecap:square;stroke-width:0.8;"/>
     </g>
     <g id="line2d_41">
      <g>
       <use style="stroke:#000000;stroke-width:0.8;" x="4537.922757" xlink:href="#m6c91427d8e" y="945"/>
      </g>
     </g>
     <g id="text_19">
      <!-- 250 -->
      <g transform="translate(4516.926507 968.716563)scale(0.22 -0.22)">
       <use xlink:href="#DejaVuSans-32"/>
       <use x="63.623047" xlink:href="#DejaVuSans-35"/>
       <use x="127.246094" xlink:href="#DejaVuSans-30"/>
      </g>
     </g>
    </g>
   </g>
   <g id="matplotlib.axis_4">
    <g id="ytick_8">
     <g id="line2d_42">
      <path clip-path="url(#p2a7ba7544a)" d="M 3027.321429 945 
L 4688.035714 945 
" style="fill:none;stroke:#b0b0b0;stroke-linecap:square;stroke-width:0.8;"/>
     </g>
     <g id="line2d_43">
      <g>
       <use style="stroke:#000000;stroke-width:0.8;" x="3027.321429" xlink:href="#m7473dba8a5" y="945"/>
      </g>
     </g>
    </g>
    <g id="ytick_9">
     <g id="line2d_44">
      <path clip-path="url(#p2a7ba7544a)" d="M 3027.321429 809.1 
L 4688.035714 809.1 
" style="fill:none;stroke:#b0b0b0;stroke-linecap:square;stroke-width:0.8;"/>
     </g>
     <g id="line2d_45">
      <g>
       <use style="stroke:#000000;stroke-width:0.8;" x="3027.321429" xlink:href="#m7473dba8a5" y="809.1"/>
      </g>
     </g>
    </g>
    <g id="ytick_10">
     <g id="line2d_46">
      <path clip-path="url(#p2a7ba7544a)" d="M 3027.321429 673.2 
L 4688.035714 673.2 
" style="fill:none;stroke:#b0b0b0;stroke-linecap:square;stroke-width:0.8;"/>
     </g>
     <g id="line2d_47">
      <g>
       <use style="stroke:#000000;stroke-width:0.8;" x="3027.321429" xlink:href="#m7473dba8a5" y="673.2"/>
      </g>
     </g>
    </g>
    <g id="ytick_11">
     <g id="line2d_48">
      <path clip-path="url(#p2a7ba7544a)" d="M 3027.321429 537.3 
L 4688.035714 537.3 
" style="fill:none;stroke:#b0b0b0;stroke-linecap:square;stroke-width:0.8;"/>
     </g>
     <g id="line2d_49">
      <g>
       <use style="stroke:#000000;stroke-width:0.8;" x="3027.321429" xlink:href="#m7473dba8a5" y="537.3"/>
      </g>
     </g>
    </g>
    <g id="ytick_12">
     <g id="line2d_50">
      <path clip-path="url(#p2a7ba7544a)" d="M 3027.321429 401.4 
L 4688.035714 401.4 
" style="fill:none;stroke:#b0b0b0;stroke-linecap:square;stroke-width:0.8;"/>
     </g>
     <g id="line2d_51">
      <g>
       <use style="stroke:#000000;stroke-width:0.8;" x="3027.321429" xlink:href="#m7473dba8a5" y="401.4"/>
      </g>
     </g>
    </g>
    <g id="ytick_13">
     <g id="line2d_52">
      <path clip-path="url(#p2a7ba7544a)" d="M 3027.321429 265.5 
L 4688.035714 265.5 
" style="fill:none;stroke:#b0b0b0;stroke-linecap:square;stroke-width:0.8;"/>
     </g>
     <g id="line2d_53">
      <g>
       <use style="stroke:#000000;stroke-width:0.8;" x="3027.321429" xlink:href="#m7473dba8a5" y="265.5"/>
      </g>
     </g>
    </g>
    <g id="ytick_14">
     <g id="line2d_54">
      <path clip-path="url(#p2a7ba7544a)" d="M 3027.321429 129.6 
L 4688.035714 129.6 
" style="fill:none;stroke:#b0b0b0;stroke-linecap:square;stroke-width:0.8;"/>
     </g>
     <g id="line2d_55">
      <g>
       <use style="stroke:#000000;stroke-width:0.8;" x="3027.321429" xlink:href="#m7473dba8a5" y="129.6"/>
      </g>
     </g>
    </g>
   </g>
   <g id="line2d_56">
    <path clip-path="url(#p2a7ba7544a)" d="M 3102.808442 718.5 
L 3108.548899 718.5 
L 3114.289356 673.2 
L 3120.029813 673.2 
L 3131.510728 582.6 
L 3137.251185 582.6 
L 3148.7321 673.2 
L 3160.213014 582.6 
L 3165.953471 627.9 
L 3188.9153 627.9 
L 3194.655758 673.2 
L 3200.396215 627.9 
L 3206.136672 673.2 
L 3211.87713 673.2 
L 3217.617587 627.9 
L 3223.358044 673.2 
L 3229.098501 627.9 
L 3246.319873 627.9 
L 3252.06033 673.2 
L 3275.022159 673.2 
L 3280.762617 627.9 
L 3286.503074 673.2 
L 3292.243531 673.2 
L 3297.983988 718.5 
L 3315.20536 718.5 
L 3320.945817 673.2 
L 3326.686275 718.5 
L 3332.426732 718.5 
L 3338.167189 673.2 
L 3343.907647 673.2 
L 3349.648104 627.9 
L 3355.388561 627.9 
L 3361.129018 673.2 
L 3366.869476 627.9 
L 3372.609933 627.9 
L 3378.35039 582.6 
L 3384.090847 627.9 
L 3407.052676 627.9 
L 3412.793134 673.2 
L 3430.014505 673.2 
L 3435.754963 718.5 
L 3458.716792 718.5 
L 3464.457249 763.8 
L 3470.197706 763.8 
L 3475.938164 809.1 
L 3481.678621 809.1 
L 3487.419078 763.8 
L 3493.159535 809.1 
L 3498.899993 809.1 
L 3510.380907 899.7 
L 3516.121364 854.4 
L 3533.342736 854.4 
L 3544.823651 945 
L 3550.564108 945 
L 3556.304565 899.7 
L 3562.045022 899.7 
L 3567.78548 854.4 
L 3579.266394 945 
L 3585.006852 899.7 
L 3607.968681 899.7 
L 3619.449595 990.3 
L 3625.190052 990.3 
L 3636.670967 899.7 
L 3642.411424 899.7 
L 3648.151881 854.4 
L 3653.892339 854.4 
L 3659.632796 899.7 
L 3671.11371 899.7 
L 3682.594625 809.1 
L 3699.815997 809.1 
L 3705.556454 763.8 
L 3711.296911 763.8 
L 3717.037369 718.5 
L 3722.777826 718.5 
L 3728.518283 763.8 
L 3734.25874 763.8 
L 3739.999198 809.1 
L 3745.739655 763.8 
L 3757.220569 763.8 
L 3762.961027 809.1 
L 3768.701484 809.1 
L 3785.922856 673.2 
L 3803.144227 673.2 
L 3808.884685 718.5 
L 3814.625142 718.5 
L 3820.365599 763.8 
L 3826.106056 718.5 
L 3831.846514 718.5 
L 3837.586971 673.2 
L 3849.067886 673.2 
L 3854.808343 718.5 
L 3860.5488 718.5 
L 3877.770172 854.4 
L 3894.991544 854.4 
L 3900.732001 809.1 
L 3906.472458 854.4 
L 3912.212915 809.1 
L 3929.434287 809.1 
L 3940.915202 718.5 
L 3946.655659 718.5 
L 3958.136574 809.1 
L 3963.877031 763.8 
L 3981.098403 763.8 
L 3992.579317 673.2 
L 3998.319774 673.2 
L 4004.060232 627.9 
L 4009.800689 627.9 
L 4015.541146 582.6 
L 4021.281603 582.6 
L 4027.022061 537.3 
L 4032.762518 537.3 
L 4038.502975 492 
L 4044.243432 492 
L 4055.724347 401.4 
L 4072.945719 537.3 
L 4078.686176 492 
L 4084.426633 492 
L 4090.167091 537.3 
L 4095.907548 492 
L 4113.12892 492 
L 4118.869377 537.3 
L 4130.350291 446.7 
L 4147.571663 582.6 
L 4153.31212 537.3 
L 4159.052578 537.3 
L 4164.793035 582.6 
L 4176.273949 582.6 
L 4204.976236 809.1 
L 4216.45715 809.1 
L 4222.197608 854.4 
L 4233.678522 854.4 
L 4245.159437 763.8 
L 4250.899894 763.8 
L 4256.640351 809.1 
L 4262.380808 763.8 
L 4268.121266 763.8 
L 4273.861723 809.1 
L 4291.083095 809.1 
L 4296.823552 854.4 
L 4302.564009 854.4 
L 4308.304466 809.1 
L 4314.044924 809.1 
L 4319.785381 763.8 
L 4325.525838 809.1 
L 4331.266295 809.1 
L 4337.006753 763.8 
L 4348.487667 763.8 
L 4371.449496 582.6 
L 4377.189954 582.6 
L 4382.930411 627.9 
L 4388.670868 582.6 
L 4400.151783 582.6 
L 4405.89224 537.3 
L 4423.113612 537.3 
L 4428.854069 492 
L 4434.594526 537.3 
L 4451.815898 537.3 
L 4457.556355 582.6 
L 4463.296813 537.3 
L 4480.518184 537.3 
L 4486.258642 492 
L 4509.220471 492 
L 4514.960928 537.3 
L 4520.701385 537.3 
L 4526.441842 582.6 
L 4543.663214 582.6 
L 4555.144129 492 
L 4560.884586 537.3 
L 4566.625043 492 
L 4583.846415 492 
L 4589.586872 537.3 
L 4595.32733 537.3 
L 4601.067787 582.6 
L 4606.808244 582.6 
L 4606.808244 582.6 
" style="fill:none;stroke:#0000cd;stroke-linecap:square;stroke-width:5;"/>
   </g>
   <g id="line2d_57">
    <path clip-path="url(#p2a7ba7544a)" d="M 3102.808442 588.64 
L 3108.548899 573.54 
L 3125.770271 505.59 
L 3131.510728 528.24 
L 3137.251185 513.14 
L 3142.991642 535.79 
L 3148.7321 535.79 
L 3154.472557 555.204286 
L 3160.213014 555.204286 
L 3165.953471 539.025714 
L 3171.693929 539.025714 
L 3177.434386 516.375714 
L 3183.174843 499.388214 
L 3188.9153 476.738214 
L 3194.655758 481.268214 
L 3200.396215 442.439643 
L 3206.136672 476.414643 
L 3211.87713 480.532825 
L 3217.617587 440.895325 
L 3223.358044 477.958961 
L 3229.098501 443.983961 
L 3234.838959 436.433961 
L 3240.579416 432.658961 
L 3246.319873 405.478961 
L 3252.06033 428.128961 
L 3257.800788 419.068961 
L 3263.541245 419.068961 
L 3269.281702 433.007423 
L 3275.022159 438.040756 
L 3280.762617 445.590756 
L 3286.503074 487.406141 
L 3292.243531 519.763283 
L 3297.983988 565.063283 
L 3303.724446 565.063283 
L 3309.464903 548.453283 
L 3315.20536 548.453283 
L 3320.945817 525.803283 
L 3326.686275 515.448998 
L 3338.167189 515.448998 
L 3343.907647 530.548998 
L 3349.648104 530.548998 
L 3355.388561 530.926498 
L 3361.129018 530.926498 
L 3366.869476 530.171498 
L 3372.609933 523.700069 
L 3378.35039 497.719187 
L 3384.090847 500.072433 
L 3389.831305 494.409933 
L 3395.571762 457.346297 
L 3401.312219 465.840047 
L 3407.052676 471.77219 
L 3412.793134 505.74719 
L 3418.533591 528.39719 
L 3424.274048 505.74719 
L 3430.014505 510.27719 
L 3435.754963 530.410523 
L 3441.49542 521.505395 
L 3447.235877 528.393114 
L 3452.976335 516.528829 
L 3458.716792 482.707562 
L 3464.457249 492.414705 
L 3470.197706 488.296523 
L 3475.938164 488.296523 
L 3481.678621 492.826523 
L 3487.419078 509.005094 
L 3493.159535 520.330094 
L 3498.899993 514.290094 
L 3504.64045 521.840094 
L 3510.380907 523.862416 
L 3516.121364 548.022416 
L 3521.861822 570.672416 
L 3527.602279 605.814234 
L 3533.342736 628.464234 
L 3539.083193 636.014234 
L 3544.823651 636.014234 
L 3550.564108 635.570116 
L 3556.304565 639.165354 
L 3562.045022 645.205354 
L 3567.78548 652.174585 
L 3573.525937 658.780835 
L 3579.266394 694.373692 
L 3585.006852 649.073692 
L 3590.747309 668.892442 
L 3596.487766 677.386192 
L 3602.228223 680.406192 
L 3607.968681 665.602271 
L 3613.709138 668.563055 
L 3619.449595 663.794634 
L 3625.190052 696.011093 
L 3630.93051 706.136976 
L 3642.411424 635.348372 
L 3648.151881 596.519801 
L 3653.892339 586.636164 
L 3659.632796 551.292208 
L 3665.373253 549.674351 
L 3671.11371 555.282922 
L 3676.854168 554.204351 
L 3682.594625 553.260601 
L 3688.335082 519.033934 
L 3694.075539 511.483934 
L 3699.815997 477.097116 
L 3705.556454 461.416347 
L 3711.296911 486.897597 
L 3717.037369 491.666018 
L 3722.777826 491.26865 
L 3728.518283 487.673411 
L 3734.25874 487.542107 
L 3739.999198 492.317321 
L 3745.739655 481.747321 
L 3751.480112 468.804464 
L 3757.220569 468.804464 
L 3762.961027 467.321428 
L 3768.701484 464.263678 
L 3774.441941 463.508678 
L 3780.182398 463.508678 
L 3785.922856 491.75456 
L 3791.663313 523.4305 
L 3797.40377 501.301856 
L 3803.144227 522.441856 
L 3808.884685 549.621856 
L 3814.625142 552.453106 
L 3820.365599 584.810248 
L 3826.106056 581.800808 
L 3831.846514 615.737932 
L 3837.586971 628.680789 
L 3843.327428 658.880789 
L 3849.067886 660.645724 
L 3854.808343 692.487028 
L 3860.5488 699.144017 
L 3866.289257 723.435322 
L 3872.029715 727.965322 
L 3877.770172 728.546091 
L 3883.510629 701.177341 
L 3889.251086 705.84642 
L 3894.991544 707.753788 
L 3900.732001 711.577814 
L 3906.472458 712.917119 
L 3912.212915 705.858881 
L 3917.953373 710.04042 
L 3923.69383 715.433277 
L 3929.434287 730.533277 
L 3935.174744 699.395389 
L 3940.915202 702.195752 
L 3946.655659 704.838252 
L 3952.396116 710.167664 
L 3958.136574 689.027664 
L 3963.877031 658.910631 
L 3969.617488 650.117102 
L 3975.357945 615.240973 
L 3981.098403 618.687712 
L 3986.83886 623.136819 
L 3992.579317 592.118592 
L 3998.319774 597.677383 
L 4004.060232 601.780644 
L 4009.800689 579.130644 
L 4015.541146 580.166073 
L 4021.281603 617.229709 
L 4027.022061 587.210819 
L 4032.762518 581.991925 
L 4038.502975 546.847495 
L 4044.243432 545.370321 
L 4049.98389 546.880321 
L 4055.724347 574.932477 
L 4061.464804 578.437834 
L 4067.205261 605.140992 
L 4072.945719 606.170537 
L 4078.686176 606.472537 
L 4084.426633 641.04633 
L 4090.167091 642.788638 
L 4095.907548 610.36805 
L 4101.648005 605.46055 
L 4107.388462 605.841756 
L 4113.12892 606.373134 
L 4118.869377 634.929183 
L 4124.609834 633.330359 
L 4130.350291 626.724109 
L 4136.090749 623.448571 
L 4141.831206 628.827946 
L 4147.571663 632.937825 
L 4153.31212 640.816085 
L 4159.052578 635.423228 
L 4164.793035 638.937883 
L 4170.533492 634.623598 
L 4176.273949 602.805741 
L 4182.014407 612.414831 
L 4187.754864 581.877302 
L 4193.495321 545.071052 
L 4199.235778 540.875781 
L 4204.976236 543.885748 
L 4210.716693 548.965344 
L 4216.45715 547.111635 
L 4222.197608 574.291635 
L 4227.938065 545.86198 
L 4233.678522 541.155486 
L 4239.418979 514.452329 
L 4245.159437 511.216614 
L 4250.899894 508.520186 
L 4256.640351 508.520186 
L 4262.380808 534.306339 
L 4268.121266 537.785261 
L 4273.861723 562.826094 
L 4279.60218 560.833426 
L 4285.342637 561.91351 
L 4291.083095 532.728295 
L 4296.823552 532.238565 
L 4308.304466 537.321852 
L 4314.044924 564.323588 
L 4319.785381 563.136289 
L 4325.525838 553.763876 
L 4331.266295 555.852174 
L 4337.006753 555.256121 
L 4342.74721 556.550407 
L 4348.487667 551.489418 
L 4354.228125 553.205327 
L 4359.968582 551.185308 
L 4365.709039 547.377765 
L 4371.449496 549.278747 
L 4377.189954 547.791469 
L 4382.930411 573.535966 
L 4388.670868 574.979349 
L 4394.411325 547.084085 
L 4400.151783 548.477932 
L 4405.89224 547.791568 
L 4411.632697 543.261568 
L 4417.373154 545.364782 
L 4423.113612 547.857157 
L 4428.854069 513.016669 
L 4434.594526 484.704169 
L 4440.334983 486.124868 
L 4446.075441 458.657249 
L 4451.815898 459.480885 
L 4457.556355 457.560559 
L 4463.296813 455.904857 
L 4469.03727 457.243962 
L 4474.777727 453.775043 
L 4480.518184 456.762744 
L 4486.258642 426.323061 
L 4491.999099 428.6257 
L 4497.739556 433.879932 
L 4503.480013 442.361635 
L 4509.220471 470.64102 
L 4514.960928 500.968488 
L 4520.701385 522.208048 
L 4532.1823 518.232479 
L 4537.922757 521.599606 
L 4543.663214 521.867427 
L 4549.403671 522.933309 
L 4555.144129 527.985198 
L 4560.884586 533.647698 
L 4566.625043 535.097556 
L 4572.3655 562.209564 
L 4578.105958 564.72623 
L 4583.846415 565.463672 
L 4589.586872 591.942601 
L 4595.32733 593.656655 
L 4601.067787 594.38487 
L 4606.808244 595.938765 
L 4606.808244 595.938765 
" style="fill:none;stroke:#fa8072;stroke-linecap:square;stroke-width:3;"/>
   </g>
   <g id="line2d_58">
    <path clip-path="url(#p2a7ba7544a)" d="M 3027.321429 809.1 
L 4688.035714 809.1 
" style="fill:none;opacity:0.7;stroke:#ff0000;stroke-dasharray:5.55,2.4;stroke-dashoffset:0;stroke-width:1.5;"/>
   </g>
   <g id="patch_8">
    <path d="M 3027.321429 945 
L 3027.321429 129.6 
" style="fill:none;stroke:#000000;stroke-linecap:square;stroke-linejoin:miter;stroke-width:0.8;"/>
   </g>
   <g id="patch_9">
    <path d="M 4688.035714 945 
L 4688.035714 129.6 
" style="fill:none;stroke:#000000;stroke-linecap:square;stroke-linejoin:miter;stroke-width:0.8;"/>
   </g>
   <g id="patch_10">
    <path d="M 3027.321429 945 
L 4688.035714 945 
" style="fill:none;stroke:#000000;stroke-linecap:square;stroke-linejoin:miter;stroke-width:0.8;"/>
   </g>
   <g id="patch_11">
    <path d="M 3027.321429 129.6 
L 4688.035714 129.6 
" style="fill:none;stroke:#000000;stroke-linecap:square;stroke-linejoin:miter;stroke-width:0.8;"/>
   </g>
  </g>
  <g id="axes_3">
   <g id="patch_12">
    <path d="M 4704.642857 945 
L 6365.357143 945 
L 6365.357143 129.6 
L 4704.642857 129.6 
z
" style="fill:#ffffff;"/>
   </g>
   <g id="matplotlib.axis_5">
    <g id="xtick_13">
     <g id="line2d_59">
      <path clip-path="url(#pd016876011)" d="M 4780.12987 945 
L 4780.12987 129.6 
" style="fill:none;stroke:#b0b0b0;stroke-linecap:square;stroke-width:0.8;"/>
     </g>
     <g id="line2d_60">
      <g>
       <use style="stroke:#000000;stroke-width:0.8;" x="4780.12987" xlink:href="#m6c91427d8e" y="945"/>
      </g>
     </g>
     <g id="text_20">
      <!-- 0 -->
      <g transform="translate(4773.13112 968.716563)scale(0.22 -0.22)">
       <use xlink:href="#DejaVuSans-30"/>
      </g>
     </g>
    </g>
    <g id="xtick_14">
     <g id="line2d_61">
      <path clip-path="url(#pd016876011)" d="M 5067.152733 945 
L 5067.152733 129.6 
" style="fill:none;stroke:#b0b0b0;stroke-linecap:square;stroke-width:0.8;"/>
     </g>
     <g id="line2d_62">
      <g>
       <use style="stroke:#000000;stroke-width:0.8;" x="5067.152733" xlink:href="#m6c91427d8e" y="945"/>
      </g>
     </g>
     <g id="text_21">
      <!-- 50 -->
      <g transform="translate(5053.155233 968.716563)scale(0.22 -0.22)">
       <use xlink:href="#DejaVuSans-35"/>
       <use x="63.623047" xlink:href="#DejaVuSans-30"/>
      </g>
     </g>
    </g>
    <g id="xtick_15">
     <g id="line2d_63">
      <path clip-path="url(#pd016876011)" d="M 5354.175596 945 
L 5354.175596 129.6 
" style="fill:none;stroke:#b0b0b0;stroke-linecap:square;stroke-width:0.8;"/>
     </g>
     <g id="line2d_64">
      <g>
       <use style="stroke:#000000;stroke-width:0.8;" x="5354.175596" xlink:href="#m6c91427d8e" y="945"/>
      </g>
     </g>
     <g id="text_22">
      <!-- 100 -->
      <g transform="translate(5333.179346 968.716563)scale(0.22 -0.22)">
       <use xlink:href="#DejaVuSans-31"/>
       <use x="63.623047" xlink:href="#DejaVuSans-30"/>
       <use x="127.246094" xlink:href="#DejaVuSans-30"/>
      </g>
     </g>
    </g>
    <g id="xtick_16">
     <g id="line2d_65">
      <path clip-path="url(#pd016876011)" d="M 5641.198459 945 
L 5641.198459 129.6 
" style="fill:none;stroke:#b0b0b0;stroke-linecap:square;stroke-width:0.8;"/>
     </g>
     <g id="line2d_66">
      <g>
       <use style="stroke:#000000;stroke-width:0.8;" x="5641.198459" xlink:href="#m6c91427d8e" y="945"/>
      </g>
     </g>
     <g id="text_23">
      <!-- 150 -->
      <g transform="translate(5620.202209 968.716563)scale(0.22 -0.22)">
       <use xlink:href="#DejaVuSans-31"/>
       <use x="63.623047" xlink:href="#DejaVuSans-35"/>
       <use x="127.246094" xlink:href="#DejaVuSans-30"/>
      </g>
     </g>
    </g>
    <g id="xtick_17">
     <g id="line2d_67">
      <path clip-path="url(#pd016876011)" d="M 5928.221322 945 
L 5928.221322 129.6 
" style="fill:none;stroke:#b0b0b0;stroke-linecap:square;stroke-width:0.8;"/>
     </g>
     <g id="line2d_68">
      <g>
       <use style="stroke:#000000;stroke-width:0.8;" x="5928.221322" xlink:href="#m6c91427d8e" y="945"/>
      </g>
     </g>
     <g id="text_24">
      <!-- 200 -->
      <g transform="translate(5907.225072 968.716563)scale(0.22 -0.22)">
       <use xlink:href="#DejaVuSans-32"/>
       <use x="63.623047" xlink:href="#DejaVuSans-30"/>
       <use x="127.246094" xlink:href="#DejaVuSans-30"/>
      </g>
     </g>
    </g>
    <g id="xtick_18">
     <g id="line2d_69">
      <path clip-path="url(#pd016876011)" d="M 6215.244185 945 
L 6215.244185 129.6 
" style="fill:none;stroke:#b0b0b0;stroke-linecap:square;stroke-width:0.8;"/>
     </g>
     <g id="line2d_70">
      <g>
       <use style="stroke:#000000;stroke-width:0.8;" x="6215.244185" xlink:href="#m6c91427d8e" y="945"/>
      </g>
     </g>
     <g id="text_25">
      <!-- 250 -->
      <g transform="translate(6194.247935 968.716563)scale(0.22 -0.22)">
       <use xlink:href="#DejaVuSans-32"/>
       <use x="63.623047" xlink:href="#DejaVuSans-35"/>
       <use x="127.246094" xlink:href="#DejaVuSans-30"/>
      </g>
     </g>
    </g>
   </g>
   <g id="matplotlib.axis_6">
    <g id="ytick_15">
     <g id="line2d_71">
      <path clip-path="url(#pd016876011)" d="M 4704.642857 945 
L 6365.357143 945 
" style="fill:none;stroke:#b0b0b0;stroke-linecap:square;stroke-width:0.8;"/>
     </g>
     <g id="line2d_72">
      <g>
       <use style="stroke:#000000;stroke-width:0.8;" x="4704.642857" xlink:href="#m7473dba8a5" y="945"/>
      </g>
     </g>
    </g>
    <g id="ytick_16">
     <g id="line2d_73">
      <path clip-path="url(#pd016876011)" d="M 4704.642857 809.1 
L 6365.357143 809.1 
" style="fill:none;stroke:#b0b0b0;stroke-linecap:square;stroke-width:0.8;"/>
     </g>
     <g id="line2d_74">
      <g>
       <use style="stroke:#000000;stroke-width:0.8;" x="4704.642857" xlink:href="#m7473dba8a5" y="809.1"/>
      </g>
     </g>
    </g>
    <g id="ytick_17">
     <g id="line2d_75">
      <path clip-path="url(#pd016876011)" d="M 4704.642857 673.2 
L 6365.357143 673.2 
" style="fill:none;stroke:#b0b0b0;stroke-linecap:square;stroke-width:0.8;"/>
     </g>
     <g id="line2d_76">
      <g>
       <use style="stroke:#000000;stroke-width:0.8;" x="4704.642857" xlink:href="#m7473dba8a5" y="673.2"/>
      </g>
     </g>
    </g>
    <g id="ytick_18">
     <g id="line2d_77">
      <path clip-path="url(#pd016876011)" d="M 4704.642857 537.3 
L 6365.357143 537.3 
" style="fill:none;stroke:#b0b0b0;stroke-linecap:square;stroke-width:0.8;"/>
     </g>
     <g id="line2d_78">
      <g>
       <use style="stroke:#000000;stroke-width:0.8;" x="4704.642857" xlink:href="#m7473dba8a5" y="537.3"/>
      </g>
     </g>
    </g>
    <g id="ytick_19">
     <g id="line2d_79">
      <path clip-path="url(#pd016876011)" d="M 4704.642857 401.4 
L 6365.357143 401.4 
" style="fill:none;stroke:#b0b0b0;stroke-linecap:square;stroke-width:0.8;"/>
     </g>
     <g id="line2d_80">
      <g>
       <use style="stroke:#000000;stroke-width:0.8;" x="4704.642857" xlink:href="#m7473dba8a5" y="401.4"/>
      </g>
     </g>
    </g>
    <g id="ytick_20">
     <g id="line2d_81">
      <path clip-path="url(#pd016876011)" d="M 4704.642857 265.5 
L 6365.357143 265.5 
" style="fill:none;stroke:#b0b0b0;stroke-linecap:square;stroke-width:0.8;"/>
     </g>
     <g id="line2d_82">
      <g>
       <use style="stroke:#000000;stroke-width:0.8;" x="4704.642857" xlink:href="#m7473dba8a5" y="265.5"/>
      </g>
     </g>
    </g>
    <g id="ytick_21">
     <g id="line2d_83">
      <path clip-path="url(#pd016876011)" d="M 4704.642857 129.6 
L 6365.357143 129.6 
" style="fill:none;stroke:#b0b0b0;stroke-linecap:square;stroke-width:0.8;"/>
     </g>
     <g id="line2d_84">
      <g>
       <use style="stroke:#000000;stroke-width:0.8;" x="4704.642857" xlink:href="#m7473dba8a5" y="129.6"/>
      </g>
     </g>
    </g>
   </g>
   <g id="line2d_85">
    <path clip-path="url(#pd016876011)" d="M 4780.12987 446.7 
L 4803.091699 446.7 
L 4808.832156 401.4 
L 4814.572614 401.4 
L 4820.313071 446.7 
L 4831.793985 446.7 
L 4843.2749 537.3 
L 4849.015357 537.3 
L 4854.755815 582.6 
L 4860.496272 582.6 
L 4866.236729 537.3 
L 4871.977186 582.6 
L 4877.717644 582.6 
L 4883.458101 537.3 
L 4917.900844 537.3 
L 4923.641302 492 
L 4935.122216 492 
L 4940.862673 537.3 
L 4946.603131 537.3 
L 4952.343588 582.6 
L 4958.084045 582.6 
L 4969.56496 673.2 
L 4992.526789 673.2 
L 4998.267246 718.5 
L 5004.007703 718.5 
L 5009.748161 673.2 
L 5015.488618 673.2 
L 5021.229075 718.5 
L 5038.450447 718.5 
L 5044.190904 673.2 
L 5084.374105 673.2 
L 5090.114562 627.9 
L 5107.335934 627.9 
L 5141.778678 356.1 
L 5147.519135 356.1 
L 5159.000049 446.7 
L 5164.740507 446.7 
L 5170.480964 401.4 
L 5181.961878 401.4 
L 5187.702336 356.1 
L 5210.664165 356.1 
L 5245.106908 627.9 
L 5273.809195 627.9 
L 5279.549652 673.2 
L 5296.771024 673.2 
L 5308.251938 763.8 
L 5313.992395 763.8 
L 5319.732853 809.1 
L 5325.47331 763.8 
L 5331.213767 763.8 
L 5336.954224 718.5 
L 5348.435139 718.5 
L 5359.916054 809.1 
L 5371.396968 718.5 
L 5382.877883 718.5 
L 5394.358797 627.9 
L 5400.099254 627.9 
L 5417.320626 492 
L 5423.061083 537.3 
L 5428.801541 537.3 
L 5440.282455 627.9 
L 5446.022912 627.9 
L 5451.76337 582.6 
L 5468.984741 582.6 
L 5474.725199 537.3 
L 5486.206113 537.3 
L 5491.946571 492 
L 5497.687028 537.3 
L 5509.167942 537.3 
L 5520.648857 627.9 
L 5543.610686 627.9 
L 5555.0916 718.5 
L 5560.832058 718.5 
L 5566.572515 763.8 
L 5572.312972 718.5 
L 5583.793887 718.5 
L 5589.534344 763.8 
L 5595.274801 718.5 
L 5601.015259 718.5 
L 5612.496173 627.9 
L 5618.23663 673.2 
L 5623.977088 673.2 
L 5641.198459 809.1 
L 5646.938917 809.1 
L 5652.679374 763.8 
L 5664.160288 763.8 
L 5675.641203 673.2 
L 5681.38166 718.5 
L 5698.603032 582.6 
L 5710.083946 582.6 
L 5715.824404 627.9 
L 5721.564861 627.9 
L 5727.305318 582.6 
L 5744.52669 582.6 
L 5756.007605 673.2 
L 5761.748062 627.9 
L 5767.488519 627.9 
L 5773.228976 673.2 
L 5784.709891 673.2 
L 5790.450348 627.9 
L 5796.190805 673.2 
L 5801.931263 627.9 
L 5807.67172 627.9 
L 5813.412177 582.6 
L 5824.893092 582.6 
L 5830.633549 627.9 
L 5847.854921 627.9 
L 5853.595378 582.6 
L 5870.81675 582.6 
L 5876.557207 537.3 
L 5882.297664 582.6 
L 5893.778579 492 
L 5910.999951 492 
L 5916.740408 537.3 
L 5928.221322 537.3 
L 5933.96178 582.6 
L 5951.183151 582.6 
L 5956.923609 627.9 
L 5962.664066 627.9 
L 5968.404523 582.6 
L 5997.10681 582.6 
L 6002.847267 537.3 
L 6014.328181 537.3 
L 6020.068639 582.6 
L 6037.29001 582.6 
L 6048.770925 673.2 
L 6060.251839 673.2 
L 6071.732754 763.8 
L 6083.213668 763.8 
L 6088.954126 718.5 
L 6100.43504 718.5 
L 6106.175498 673.2 
L 6111.915955 718.5 
L 6117.656412 673.2 
L 6123.396869 718.5 
L 6134.877784 718.5 
L 6140.618241 763.8 
L 6146.358698 763.8 
L 6152.099156 718.5 
L 6157.839613 763.8 
L 6169.320527 763.8 
L 6180.801442 854.4 
L 6198.022814 854.4 
L 6198.022814 854.4 
" style="fill:none;stroke:#0000cd;stroke-linecap:square;stroke-width:5;"/>
   </g>
   <g id="line2d_86">
    <path clip-path="url(#pd016876011)" d="M 4780.12987 544.095 
L 4785.870327 544.095 
L 4791.610785 540.859286 
L 4797.351242 518.209286 
L 4803.091699 518.209286 
L 4808.832156 510.659286 
L 4814.572614 510.659286 
L 4820.313071 515.692619 
L 4831.793985 515.692619 
L 4837.534443 524.752619 
L 4843.2749 513.427619 
L 4860.496272 513.427619 
L 4866.236729 490.777619 
L 4871.977186 498.327619 
L 4877.717644 507.387619 
L 4883.458101 507.387619 
L 4889.198558 539.744762 
L 4894.939015 543.862944 
L 4900.679473 539.332944 
L 4906.41993 494.032944 
L 4912.160387 494.032944 
L 4917.900844 487.561515 
L 4923.641302 464.911515 
L 4929.381759 472.461515 
L 4935.122216 472.461515 
L 4940.862673 463.401515 
L 4946.603131 418.101515 
L 4952.343588 412.439015 
L 4958.084045 404.889015 
L 4963.824502 397.829275 
L 4969.56496 417.962608 
L 4975.305417 401.784037 
L 4981.045874 386.684037 
L 4986.786332 390.802219 
L 4992.526789 398.123431 
L 4998.267246 443.423431 
L 5004.007703 466.073431 
L 5009.748161 472.113431 
L 5015.488618 506.088431 
L 5021.229075 548.152716 
L 5026.969532 548.152716 
L 5032.70999 557.212716 
L 5038.450447 565.44908 
L 5044.190904 561.67408 
L 5049.931361 561.10783 
L 5055.671819 564.592445 
L 5061.412276 535.471017 
L 5067.152733 534.372835 
L 5072.89319 523.802835 
L 5078.633648 523.802835 
L 5084.374105 527.577835 
L 5090.114562 496.299264 
L 5101.595477 526.499264 
L 5107.335934 533.651895 
L 5113.076391 511.568145 
L 5118.816849 518.363145 
L 5124.557306 505.150645 
L 5130.297763 500.504491 
L 5136.03822 497.857089 
L 5141.778678 492.823755 
L 5147.519135 486.352327 
L 5153.259592 528.167711 
L 5159.000049 524.04953 
L 5164.740507 514.211651 
L 5170.480964 477.148015 
L 5181.961878 457.014681 
L 5187.702336 416.483102 
L 5193.442793 376.803027 
L 5199.18325 413.043027 
L 5204.923707 410.454456 
L 5210.664165 413.543092 
L 5216.404622 447.518092 
L 5222.145079 478.284342 
L 5227.885537 474.799727 
L 5233.625994 512.334012 
L 5239.366451 524.414012 
L 5245.106908 534.336869 
L 5250.847366 541.886869 
L 5256.587823 538.111869 
L 5262.32828 539.055619 
L 5268.068737 559.548477 
L 5273.809195 551.998477 
L 5279.549652 556.925845 
L 5285.290109 550.319595 
L 5291.030566 577.499595 
L 5296.771024 571.459595 
L 5302.511481 606.305749 
L 5308.251938 596.598606 
L 5313.992395 618.170035 
L 5319.732853 657.430035 
L 5325.47331 625.05215 
L 5331.213767 665.82215 
L 5336.954224 678.405483 
L 5342.694682 706.40912 
L 5348.435139 693.825786 
L 5359.916054 697.290461 
L 5365.656511 706.23125 
L 5371.396968 680.650074 
L 5377.137425 686.761978 
L 5382.877883 675.436978 
L 5388.61834 647.753645 
L 5394.358797 613.262066 
L 5400.099254 620.057066 
L 5405.839712 588.823908 
L 5411.580169 580.195337 
L 5417.320626 603.49248 
L 5423.061083 606.728194 
L 5428.801541 613.880825 
L 5434.541998 644.509803 
L 5440.282455 643.763099 
L 5446.022912 628.663099 
L 5451.76337 620.701281 
L 5463.244284 623.688455 
L 5468.984741 625.953455 
L 5474.725199 589.282027 
L 5480.465656 595.753455 
L 5486.206113 563.021157 
L 5491.946571 558.607311 
L 5497.687028 549.169811 
L 5503.427485 514.577084 
L 5509.167942 511.221528 
L 5514.9084 481.158801 
L 5520.648857 492.483801 
L 5526.389314 487.747892 
L 5532.129771 488.826463 
L 5537.870229 485.051463 
L 5543.610686 508.758157 
L 5549.351143 507.046823 
L 5555.0916 513.224096 
L 5560.832058 506.93243 
L 5566.572515 512.617855 
L 5572.312972 509.446855 
L 5578.053429 507.788273 
L 5583.793887 511.383511 
L 5589.534344 480.806011 
L 5595.274801 473.504913 
L 5601.015259 471.788281 
L 5606.755716 436.021109 
L 5612.496173 411.744955 
L 5618.23663 421.592782 
L 5623.977088 424.7226 
L 5629.717545 421.0986 
L 5635.458002 387.615991 
L 5641.198459 385.350991 
L 5646.938917 381.949343 
L 5652.679374 378.713628 
L 5658.419831 380.814498 
L 5664.160288 356.197376 
L 5669.900746 365.634876 
L 5675.641203 369.91145 
L 5681.38166 401.579505 
L 5687.122117 404.462233 
L 5692.862575 402.844375 
L 5698.603032 404.2699 
L 5704.343489 401.753233 
L 5710.083946 433.031805 
L 5715.824404 409.325111 
L 5721.564861 407.164649 
L 5727.305318 410.35979 
L 5733.045776 411.618124 
L 5738.786233 440.619116 
L 5744.52669 473.235116 
L 5750.267147 507.636856 
L 5756.007605 497.570189 
L 5761.748062 529.118403 
L 5767.488519 561.873788 
L 5773.228976 567.762788 
L 5778.969434 571.485357 
L 5784.709891 560.915357 
L 5790.450348 586.138499 
L 5796.190805 617.326862 
L 5801.931263 620.950862 
L 5807.67172 622.336853 
L 5813.412177 618.130424 
L 5819.152634 617.021683 
L 5824.893092 621.780086 
L 5830.633549 627.065086 
L 5836.374006 620.833113 
L 5842.114463 615.925613 
L 5847.854921 609.354624 
L 5853.595378 573.492124 
L 5859.335835 573.492124 
L 5865.076293 572.552723 
L 5870.81675 578.128108 
L 5876.557207 584.143555 
L 5882.297664 552.660929 
L 5888.038122 553.327106 
L 5893.778579 548.862442 
L 5899.519036 543.163001 
L 5905.259493 548.664552 
L 5910.999951 543.527895 
L 5916.740408 518.612895 
L 5922.480865 517.514713 
L 5928.221322 562.814713 
L 5933.96178 558.912822 
L 5939.702237 532.739489 
L 5945.442694 526.743901 
L 5951.183151 523.242092 
L 5956.923609 531.735842 
L 5962.664066 499.789012 
L 5968.404523 468.902648 
L 5974.14498 499.480148 
L 5979.885438 506.191259 
L 5985.625895 516.437688 
L 5991.366352 521.15853 
L 5997.10681 519.635841 
L 6002.847267 515.174478 
L 6008.587724 519.413783 
L 6014.328181 525.542606 
L 6020.068639 531.298047 
L 6025.809096 535.99129 
L 6031.549553 537.950209 
L 6037.29001 532.579967 
L 6043.030468 559.382467 
L 6048.770925 548.333687 
L 6054.511382 575.558793 
L 6060.251839 576.588339 
L 6065.992297 579.891464 
L 6071.732754 611.164205 
L 6077.473211 606.291821 
L 6083.213668 578.445068 
L 6088.954126 569.865523 
L 6100.43504 502.083123 
L 6106.175498 476.768417 
L 6111.915955 476.768417 
L 6117.656412 478.645824 
L 6123.396869 486.99056 
L 6129.137327 512.181426 
L 6134.877784 520.382288 
L 6140.618241 522.798288 
L 6146.358698 488.058085 
L 6152.099156 487.051418 
L 6157.839613 484.105077 
L 6163.58007 484.326053 
L 6169.320527 489.775677 
L 6175.060985 518.675198 
L 6180.801442 520.505501 
L 6186.541899 517.396678 
L 6192.282356 542.604534 
L 6198.022814 539.42129 
L 6198.022814 539.42129 
" style="fill:none;stroke:#fa8072;stroke-linecap:square;stroke-width:3;"/>
   </g>
   <g id="line2d_87">
    <path clip-path="url(#pd016876011)" d="M 4704.642857 809.1 
L 6365.357143 809.1 
" style="fill:none;opacity:0.7;stroke:#ff0000;stroke-dasharray:5.55,2.4;stroke-dashoffset:0;stroke-width:1.5;"/>
   </g>
   <g id="patch_13">
    <path d="M 4704.642857 945 
L 4704.642857 129.6 
" style="fill:none;stroke:#000000;stroke-linecap:square;stroke-linejoin:miter;stroke-width:0.8;"/>
   </g>
   <g id="patch_14">
    <path d="M 6365.357143 945 
L 6365.357143 129.6 
" style="fill:none;stroke:#000000;stroke-linecap:square;stroke-linejoin:miter;stroke-width:0.8;"/>
   </g>
   <g id="patch_15">
    <path d="M 4704.642857 945 
L 6365.357143 945 
" style="fill:none;stroke:#000000;stroke-linecap:square;stroke-linejoin:miter;stroke-width:0.8;"/>
   </g>
   <g id="patch_16">
    <path d="M 4704.642857 129.6 
L 6365.357143 129.6 
" style="fill:none;stroke:#000000;stroke-linecap:square;stroke-linejoin:miter;stroke-width:0.8;"/>
   </g>
  </g>
  <g id="axes_4">
   <g id="patch_17">
    <path d="M 6381.964286 945 
L 8042.678571 945 
L 8042.678571 129.6 
L 6381.964286 129.6 
z
" style="fill:#ffffff;"/>
   </g>
   <g id="matplotlib.axis_7">
    <g id="xtick_19">
     <g id="line2d_88">
      <path clip-path="url(#pc5181659bf)" d="M 6457.451299 945 
L 6457.451299 129.6 
" style="fill:none;stroke:#b0b0b0;stroke-linecap:square;stroke-width:0.8;"/>
     </g>
     <g id="line2d_89">
      <g>
       <use style="stroke:#000000;stroke-width:0.8;" x="6457.451299" xlink:href="#m6c91427d8e" y="945"/>
      </g>
     </g>
     <g id="text_26">
      <!-- 0 -->
      <g transform="translate(6450.452549 968.716563)scale(0.22 -0.22)">
       <use xlink:href="#DejaVuSans-30"/>
      </g>
     </g>
    </g>
    <g id="xtick_20">
     <g id="line2d_90">
      <path clip-path="url(#pc5181659bf)" d="M 6744.474162 945 
L 6744.474162 129.6 
" style="fill:none;stroke:#b0b0b0;stroke-linecap:square;stroke-width:0.8;"/>
     </g>
     <g id="line2d_91">
      <g>
       <use style="stroke:#000000;stroke-width:0.8;" x="6744.474162" xlink:href="#m6c91427d8e" y="945"/>
      </g>
     </g>
     <g id="text_27">
      <!-- 50 -->
      <g transform="translate(6730.476662 968.716563)scale(0.22 -0.22)">
       <use xlink:href="#DejaVuSans-35"/>
       <use x="63.623047" xlink:href="#DejaVuSans-30"/>
      </g>
     </g>
    </g>
    <g id="xtick_21">
     <g id="line2d_92">
      <path clip-path="url(#pc5181659bf)" d="M 7031.497025 945 
L 7031.497025 129.6 
" style="fill:none;stroke:#b0b0b0;stroke-linecap:square;stroke-width:0.8;"/>
     </g>
     <g id="line2d_93">
      <g>
       <use style="stroke:#000000;stroke-width:0.8;" x="7031.497025" xlink:href="#m6c91427d8e" y="945"/>
      </g>
     </g>
     <g id="text_28">
      <!-- 100 -->
      <g transform="translate(7010.500775 968.716563)scale(0.22 -0.22)">
       <use xlink:href="#DejaVuSans-31"/>
       <use x="63.623047" xlink:href="#DejaVuSans-30"/>
       <use x="127.246094" xlink:href="#DejaVuSans-30"/>
      </g>
     </g>
    </g>
    <g id="xtick_22">
     <g id="line2d_94">
      <path clip-path="url(#pc5181659bf)" d="M 7318.519888 945 
L 7318.519888 129.6 
" style="fill:none;stroke:#b0b0b0;stroke-linecap:square;stroke-width:0.8;"/>
     </g>
     <g id="line2d_95">
      <g>
       <use style="stroke:#000000;stroke-width:0.8;" x="7318.519888" xlink:href="#m6c91427d8e" y="945"/>
      </g>
     </g>
     <g id="text_29">
      <!-- 150 -->
      <g transform="translate(7297.523638 968.716563)scale(0.22 -0.22)">
       <use xlink:href="#DejaVuSans-31"/>
       <use x="63.623047" xlink:href="#DejaVuSans-35"/>
       <use x="127.246094" xlink:href="#DejaVuSans-30"/>
      </g>
     </g>
    </g>
    <g id="xtick_23">
     <g id="line2d_96">
      <path clip-path="url(#pc5181659bf)" d="M 7605.542751 945 
L 7605.542751 129.6 
" style="fill:none;stroke:#b0b0b0;stroke-linecap:square;stroke-width:0.8;"/>
     </g>
     <g id="line2d_97">
      <g>
       <use style="stroke:#000000;stroke-width:0.8;" x="7605.542751" xlink:href="#m6c91427d8e" y="945"/>
      </g>
     </g>
     <g id="text_30">
      <!-- 200 -->
      <g transform="translate(7584.546501 968.716563)scale(0.22 -0.22)">
       <use xlink:href="#DejaVuSans-32"/>
       <use x="63.623047" xlink:href="#DejaVuSans-30"/>
       <use x="127.246094" xlink:href="#DejaVuSans-30"/>
      </g>
     </g>
    </g>
    <g id="xtick_24">
     <g id="line2d_98">
      <path clip-path="url(#pc5181659bf)" d="M 7892.565614 945 
L 7892.565614 129.6 
" style="fill:none;stroke:#b0b0b0;stroke-linecap:square;stroke-width:0.8;"/>
     </g>
     <g id="line2d_99">
      <g>
       <use style="stroke:#000000;stroke-width:0.8;" x="7892.565614" xlink:href="#m6c91427d8e" y="945"/>
      </g>
     </g>
     <g id="text_31">
      <!-- 250 -->
      <g transform="translate(7871.569364 968.716563)scale(0.22 -0.22)">
       <use xlink:href="#DejaVuSans-32"/>
       <use x="63.623047" xlink:href="#DejaVuSans-35"/>
       <use x="127.246094" xlink:href="#DejaVuSans-30"/>
      </g>
     </g>
    </g>
   </g>
   <g id="matplotlib.axis_8">
    <g id="ytick_22">
     <g id="line2d_100">
      <path clip-path="url(#pc5181659bf)" d="M 6381.964286 945 
L 8042.678571 945 
" style="fill:none;stroke:#b0b0b0;stroke-linecap:square;stroke-width:0.8;"/>
     </g>
     <g id="line2d_101">
      <g>
       <use style="stroke:#000000;stroke-width:0.8;" x="6381.964286" xlink:href="#m7473dba8a5" y="945"/>
      </g>
     </g>
    </g>
    <g id="ytick_23">
     <g id="line2d_102">
      <path clip-path="url(#pc5181659bf)" d="M 6381.964286 809.1 
L 8042.678571 809.1 
" style="fill:none;stroke:#b0b0b0;stroke-linecap:square;stroke-width:0.8;"/>
     </g>
     <g id="line2d_103">
      <g>
       <use style="stroke:#000000;stroke-width:0.8;" x="6381.964286" xlink:href="#m7473dba8a5" y="809.1"/>
      </g>
     </g>
    </g>
    <g id="ytick_24">
     <g id="line2d_104">
      <path clip-path="url(#pc5181659bf)" d="M 6381.964286 673.2 
L 8042.678571 673.2 
" style="fill:none;stroke:#b0b0b0;stroke-linecap:square;stroke-width:0.8;"/>
     </g>
     <g id="line2d_105">
      <g>
       <use style="stroke:#000000;stroke-width:0.8;" x="6381.964286" xlink:href="#m7473dba8a5" y="673.2"/>
      </g>
     </g>
    </g>
    <g id="ytick_25">
     <g id="line2d_106">
      <path clip-path="url(#pc5181659bf)" d="M 6381.964286 537.3 
L 8042.678571 537.3 
" style="fill:none;stroke:#b0b0b0;stroke-linecap:square;stroke-width:0.8;"/>
     </g>
     <g id="line2d_107">
      <g>
       <use style="stroke:#000000;stroke-width:0.8;" x="6381.964286" xlink:href="#m7473dba8a5" y="537.3"/>
      </g>
     </g>
    </g>
    <g id="ytick_26">
     <g id="line2d_108">
      <path clip-path="url(#pc5181659bf)" d="M 6381.964286 401.4 
L 8042.678571 401.4 
" style="fill:none;stroke:#b0b0b0;stroke-linecap:square;stroke-width:0.8;"/>
     </g>
     <g id="line2d_109">
      <g>
       <use style="stroke:#000000;stroke-width:0.8;" x="6381.964286" xlink:href="#m7473dba8a5" y="401.4"/>
      </g>
     </g>
    </g>
    <g id="ytick_27">
     <g id="line2d_110">
      <path clip-path="url(#pc5181659bf)" d="M 6381.964286 265.5 
L 8042.678571 265.5 
" style="fill:none;stroke:#b0b0b0;stroke-linecap:square;stroke-width:0.8;"/>
     </g>
     <g id="line2d_111">
      <g>
       <use style="stroke:#000000;stroke-width:0.8;" x="6381.964286" xlink:href="#m7473dba8a5" y="265.5"/>
      </g>
     </g>
    </g>
    <g id="ytick_28">
     <g id="line2d_112">
      <path clip-path="url(#pc5181659bf)" d="M 6381.964286 129.6 
L 8042.678571 129.6 
" style="fill:none;stroke:#b0b0b0;stroke-linecap:square;stroke-width:0.8;"/>
     </g>
     <g id="line2d_113">
      <g>
       <use style="stroke:#000000;stroke-width:0.8;" x="6381.964286" xlink:href="#m7473dba8a5" y="129.6"/>
      </g>
     </g>
    </g>
   </g>
   <g id="line2d_114">
    <path clip-path="url(#pc5181659bf)" d="M 6457.451299 673.2 
L 6474.67267 673.2 
L 6486.153585 763.8 
L 6491.894042 763.8 
L 6503.374957 673.2 
L 6520.596329 673.2 
L 6532.077243 582.6 
L 6537.8177 627.9 
L 6543.558158 582.6 
L 6555.039072 582.6 
L 6560.779529 627.9 
L 6566.519987 627.9 
L 6572.260444 582.6 
L 6578.000901 627.9 
L 6583.741358 582.6 
L 6612.443645 582.6 
L 6623.924559 673.2 
L 6629.665017 673.2 
L 6635.405474 718.5 
L 6641.145931 718.5 
L 6652.626846 627.9 
L 6658.367303 627.9 
L 6669.848217 718.5 
L 6681.329132 718.5 
L 6687.069589 673.2 
L 6692.810046 673.2 
L 6698.550504 718.5 
L 6704.290961 718.5 
L 6710.031418 673.2 
L 6715.771875 718.5 
L 6721.512333 718.5 
L 6727.25279 763.8 
L 6732.993247 763.8 
L 6744.474162 854.4 
L 6750.214619 809.1 
L 6796.138277 809.1 
L 6813.359649 673.2 
L 6819.100106 673.2 
L 6824.840563 718.5 
L 6842.061935 582.6 
L 6847.802392 627.9 
L 6865.023764 627.9 
L 6870.764222 582.6 
L 6882.245136 582.6 
L 6887.985593 537.3 
L 6905.206965 537.3 
L 6916.68788 446.7 
L 6922.428337 492 
L 6968.351995 492 
L 6991.313824 673.2 
L 7002.794739 673.2 
L 7008.535196 718.5 
L 7014.275653 718.5 
L 7020.01611 673.2 
L 7031.497025 763.8 
L 7037.237482 718.5 
L 7042.977939 763.8 
L 7065.939768 763.8 
L 7077.420683 673.2 
L 7088.901597 673.2 
L 7094.642055 627.9 
L 7106.122969 718.5 
L 7134.825256 718.5 
L 7146.30617 627.9 
L 7152.046627 627.9 
L 7169.267999 492 
L 7175.008456 492 
L 7180.748914 446.7 
L 7192.229828 446.7 
L 7197.970285 401.4 
L 7232.413029 401.4 
L 7238.153486 446.7 
L 7249.634401 446.7 
L 7261.115315 537.3 
L 7266.855773 537.3 
L 7278.336687 446.7 
L 7289.817602 537.3 
L 7318.519888 537.3 
L 7324.260345 492 
L 7330.000802 492 
L 7335.74126 537.3 
L 7352.962631 537.3 
L 7370.184003 673.2 
L 7375.924461 627.9 
L 7381.664918 627.9 
L 7387.405375 582.6 
L 7404.626747 582.6 
L 7410.367204 537.3 
L 7416.107661 537.3 
L 7421.848119 582.6 
L 7433.329033 492 
L 7473.512234 492 
L 7479.252691 446.7 
L 7484.993148 492 
L 7490.733606 492 
L 7502.21452 582.6 
L 7507.954978 582.6 
L 7513.695435 627.9 
L 7525.176349 627.9 
L 7542.397721 492 
L 7548.138178 537.3 
L 7565.35955 537.3 
L 7571.100007 582.6 
L 7599.802294 582.6 
L 7605.542751 627.9 
L 7611.283208 627.9 
L 7617.023665 673.2 
L 7622.764123 673.2 
L 7634.245037 582.6 
L 7639.985495 627.9 
L 7657.206866 627.9 
L 7662.947324 673.2 
L 7685.909153 492 
L 7703.130524 492 
L 7714.611439 582.6 
L 7720.351896 537.3 
L 7737.573268 537.3 
L 7743.313725 492 
L 7760.535097 492 
L 7766.275554 446.7 
L 7783.496926 446.7 
L 7789.237383 401.4 
L 7806.458755 401.4 
L 7812.199212 356.1 
L 7817.93967 356.1 
L 7823.680127 401.4 
L 7835.161041 310.8 
L 7858.12287 310.8 
L 7869.603785 401.4 
L 7875.344242 401.4 
L 7881.0847 356.1 
L 7886.825157 356.1 
L 7904.046529 492 
L 7915.527443 492 
L 7921.2679 537.3 
L 7944.229729 537.3 
L 7949.970187 492 
L 7955.710644 537.3 
L 7955.710644 537.3 
" style="fill:none;stroke:#0000cd;stroke-linecap:square;stroke-width:5;"/>
   </g>
   <g id="line2d_115">
    <path clip-path="url(#pc5181659bf)" d="M 6457.451299 507.1 
L 6463.191756 484.45 
L 6468.932213 470.86 
L 6474.67267 459.535 
L 6480.413128 493.51 
L 6486.153585 538.81 
L 6497.6345 538.81 
L 6503.374957 546.36 
L 6509.115414 546.36 
L 6514.855871 569.01 
L 6526.336786 569.01 
L 6532.077243 555.42 
L 6537.8177 532.77 
L 6543.558158 540.32 
L 6549.298615 495.02 
L 6555.039072 478.0325 
L 6560.779529 523.3325 
L 6566.519987 529.803929 
L 6572.260444 489.537262 
L 6578.000901 472.549762 
L 6583.741358 433.72119 
L 6589.481816 411.07119 
L 6595.222273 395.97119 
L 6600.96273 401.63369 
L 6606.703187 386.53369 
L 6612.443645 393.005119 
L 6618.184102 393.005119 
L 6623.924559 398.667619 
L 6629.665017 438.934286 
L 6635.405474 443.967619 
L 6641.145931 440.570119 
L 6646.886388 448.659405 
L 6652.626846 414.684405 
L 6658.367303 369.384405 
L 6664.10776 374.417738 
L 6669.848217 374.417738 
L 6675.588675 366.867738 
L 6681.329132 371.397738 
L 6687.069589 341.197738 
L 6692.810046 386.497738 
L 6698.550504 390.61592 
L 6704.290961 385.674102 
L 6710.031418 399.264102 
L 6715.771875 397.376602 
L 6721.512333 405.612965 
L 6727.25279 403.725465 
L 6732.993247 400.489751 
L 6738.733705 435.833707 
L 6744.474162 453.450374 
L 6750.214619 447.787874 
L 6755.955076 444.801061 
L 6761.695534 459.901061 
L 6767.435991 461.411061 
L 6773.176448 458.984275 
L 6778.916905 489.184275 
L 6784.657363 488.042258 
L 6790.39782 491.062258 
L 6796.138277 488.419758 
L 6801.878734 456.389455 
L 6807.619192 456.389455 
L 6813.359649 496.026955 
L 6819.100106 489.555526 
L 6824.840563 497.105526 
L 6830.581021 505.099644 
L 6836.321478 512.146311 
L 6842.061935 516.676311 
L 6847.802392 556.942977 
L 6853.54285 567.512977 
L 6859.283307 559.962977 
L 6865.023764 525.987977 
L 6870.764222 525.987977 
L 6876.504679 530.106159 
L 6893.726051 526.438758 
L 6899.466508 565.299053 
L 6905.206965 545.884767 
L 6910.947422 510.540811 
L 6916.68788 495.440811 
L 6922.428337 536.622629 
L 6928.168794 543.20468 
L 6933.909251 534.013376 
L 6939.649709 529.721797 
L 6945.390166 563.791965 
L 6951.130623 540.561196 
L 6956.87108 542.781784 
L 6962.611538 577.511784 
L 6968.351995 614.129284 
L 6974.092452 620.99292 
L 6979.832909 631.059587 
L 6985.573367 624.588158 
L 6991.313824 622.970301 
L 6997.054281 652.09173 
L 7002.794739 689.397612 
L 7008.535196 684.286843 
L 7014.275653 685.419343 
L 7020.01611 651.624105 
L 7025.756568 646.977951 
L 7031.497025 684.727951 
L 7037.237482 713.373539 
L 7042.977939 731.905357 
L 7048.718397 734.12284 
L 7054.458854 759.518295 
L 7060.199311 794.464009 
L 7065.939768 832.611377 
L 7071.680226 799.683226 
L 7077.420683 783.744337 
L 7083.16114 785.151169 
L 7088.901597 787.448995 
L 7094.642055 755.327177 
L 7100.382512 752.810511 
L 7106.122969 752.810511 
L 7111.863426 757.47959 
L 7117.603884 725.836207 
L 7129.084798 727.804844 
L 7134.825256 698.683416 
L 7140.565713 695.852166 
L 7146.30617 690.818832 
L 7152.046627 683.597093 
L 7157.787085 682.91589 
L 7163.527542 682.91589 
L 7169.267999 653.397093 
L 7175.008456 617.633935 
L 7180.748914 617.912704 
L 7186.489371 621.310204 
L 7192.229828 620.878776 
L 7197.970285 617.39416 
L 7203.710743 608.33416 
L 7209.4512 575.913572 
L 7215.191657 584.776616 
L 7220.932114 580.167931 
L 7232.413029 518.257931 
L 7238.153486 510.168645 
L 7243.893944 506.932931 
L 7249.634401 506.470096 
L 7255.374858 509.916835 
L 7261.115315 509.605851 
L 7266.855773 511.870851 
L 7272.59623 513.693265 
L 7278.336687 513.447069 
L 7284.077144 540.249569 
L 7289.817602 543.647069 
L 7295.558059 544.712951 
L 7301.298516 544.93074 
L 7307.038973 542.773597 
L 7312.779431 514.595918 
L 7318.519888 511.00068 
L 7324.260345 530.302419 
L 7330.000802 506.093512 
L 7335.74126 534.223351 
L 7341.481717 549.72072 
L 7347.222174 548.951619 
L 7352.962631 554.646477 
L 7358.703089 582.497588 
L 7364.443546 585.517588 
L 7370.184003 587.176928 
L 7375.924461 558.815189 
L 7381.664918 559.501553 
L 7387.405375 535.86677 
L 7393.145832 539.869435 
L 7398.88629 540.406324 
L 7404.626747 540.785177 
L 7410.367204 516.071014 
L 7416.107661 517.149586 
L 7421.848119 547.14131 
L 7427.588576 543.36631 
L 7433.329033 540.693104 
L 7439.06949 537.604468 
L 7444.809948 536.468418 
L 7450.550405 538.540064 
L 7456.290862 540.938299 
L 7462.031319 543.203299 
L 7467.771777 544.372332 
L 7473.512234 544.372332 
L 7479.252691 545.666617 
L 7484.993148 574.572332 
L 7490.733606 587.515189 
L 7496.474063 567.709607 
L 7502.21452 591.521146 
L 7507.954978 590.894878 
L 7513.695435 596.557378 
L 7519.435892 594.996455 
L 7525.176349 589.399544 
L 7530.916807 563.147256 
L 7536.657264 563.996631 
L 7542.397721 564.42806 
L 7548.138178 565.261337 
L 7553.878636 565.413862 
L 7559.619093 566.24714 
L 7565.35955 564.788203 
L 7571.100007 596.591927 
L 7576.840465 596.213074 
L 7582.580922 591.805808 
L 7588.321379 589.109379 
L 7594.061836 590.080094 
L 7599.802294 589.57676 
L 7605.542751 620.860492 
L 7611.283208 651.4527 
L 7617.023665 654.541336 
L 7622.764123 654.35719 
L 7628.50458 626.073241 
L 7634.245037 622.87901 
L 7639.985495 621.220248 
L 7645.725952 622.575376 
L 7651.466409 622.620007 
L 7657.206866 625.699514 
L 7662.947324 642.776895 
L 7668.687781 642.952476 
L 7680.168695 581.811126 
L 7685.909153 561.843362 
L 7691.64961 561.789176 
L 7697.390067 562.253575 
L 7703.130524 558.901203 
L 7708.870982 587.213703 
L 7714.611439 608.353703 
L 7720.351896 606.248414 
L 7726.092353 605.787026 
L 7731.832811 605.206256 
L 7737.573268 606.354209 
L 7743.313725 574.852485 
L 7749.054183 574.197743 
L 7754.79464 574.035957 
L 7760.535097 575.977386 
L 7766.275554 548.303513 
L 7772.016012 579.006847 
L 7777.756469 549.62722 
L 7783.496926 549.020524 
L 7789.237383 545.245524 
L 7794.977841 545.689642 
L 7800.718298 542.885356 
L 7806.458755 542.488733 
L 7812.199212 542.978463 
L 7817.93967 541.14816 
L 7823.680127 570.144065 
L 7829.420584 535.192772 
L 7835.161041 504.918752 
L 7840.901499 504.57557 
L 7846.641956 504.643537 
L 7852.382413 505.572768 
L 7858.12287 506.837122 
L 7863.863328 506.155919 
L 7869.603785 535.87986 
L 7875.344242 534.671485 
L 7881.0847 503.496277 
L 7886.825157 511.389459 
L 7892.565614 541.244184 
L 7898.306071 572.633666 
L 7904.046529 570.974325 
L 7909.786986 569.490816 
L 7915.527443 569.315235 
L 7921.2679 568.787907 
L 7927.008358 570.567549 
L 7932.748815 570.666028 
L 7938.489272 568.175852 
L 7944.229729 537.172661 
L 7949.970187 535.611737 
L 7955.710644 506.655771 
L 7955.710644 506.655771 
" style="fill:none;stroke:#fa8072;stroke-linecap:square;stroke-width:3;"/>
   </g>
   <g id="line2d_116">
    <path clip-path="url(#pc5181659bf)" d="M 6381.964286 809.1 
L 8042.678571 809.1 
" style="fill:none;opacity:0.7;stroke:#ff0000;stroke-dasharray:5.55,2.4;stroke-dashoffset:0;stroke-width:1.5;"/>
   </g>
   <g id="patch_18">
    <path d="M 6381.964286 945 
L 6381.964286 129.6 
" style="fill:none;stroke:#000000;stroke-linecap:square;stroke-linejoin:miter;stroke-width:0.8;"/>
   </g>
   <g id="patch_19">
    <path d="M 8042.678571 945 
L 8042.678571 129.6 
" style="fill:none;stroke:#000000;stroke-linecap:square;stroke-linejoin:miter;stroke-width:0.8;"/>
   </g>
   <g id="patch_20">
    <path d="M 6381.964286 945 
L 8042.678571 945 
" style="fill:none;stroke:#000000;stroke-linecap:square;stroke-linejoin:miter;stroke-width:0.8;"/>
   </g>
   <g id="patch_21">
    <path d="M 6381.964286 129.6 
L 8042.678571 129.6 
" style="fill:none;stroke:#000000;stroke-linecap:square;stroke-linejoin:miter;stroke-width:0.8;"/>
   </g>
  </g>
  <g id="axes_5">
   <g id="patch_22">
    <path d="M 8059.285714 945 
L 9720 945 
L 9720 129.6 
L 8059.285714 129.6 
z
" style="fill:#ffffff;"/>
   </g>
   <g id="matplotlib.axis_9">
    <g id="xtick_25">
     <g id="line2d_117">
      <path clip-path="url(#p3d27e6f9d8)" d="M 8134.772727 945 
L 8134.772727 129.6 
" style="fill:none;stroke:#b0b0b0;stroke-linecap:square;stroke-width:0.8;"/>
     </g>
     <g id="line2d_118">
      <g>
       <use style="stroke:#000000;stroke-width:0.8;" x="8134.772727" xlink:href="#m6c91427d8e" y="945"/>
      </g>
     </g>
     <g id="text_32">
      <!-- 0 -->
      <g transform="translate(8127.773977 968.716563)scale(0.22 -0.22)">
       <use xlink:href="#DejaVuSans-30"/>
      </g>
     </g>
    </g>
    <g id="xtick_26">
     <g id="line2d_119">
      <path clip-path="url(#p3d27e6f9d8)" d="M 8421.79559 945 
L 8421.79559 129.6 
" style="fill:none;stroke:#b0b0b0;stroke-linecap:square;stroke-width:0.8;"/>
     </g>
     <g id="line2d_120">
      <g>
       <use style="stroke:#000000;stroke-width:0.8;" x="8421.79559" xlink:href="#m6c91427d8e" y="945"/>
      </g>
     </g>
     <g id="text_33">
      <!-- 50 -->
      <g transform="translate(8407.79809 968.716563)scale(0.22 -0.22)">
       <use xlink:href="#DejaVuSans-35"/>
       <use x="63.623047" xlink:href="#DejaVuSans-30"/>
      </g>
     </g>
    </g>
    <g id="xtick_27">
     <g id="line2d_121">
      <path clip-path="url(#p3d27e6f9d8)" d="M 8708.818453 945 
L 8708.818453 129.6 
" style="fill:none;stroke:#b0b0b0;stroke-linecap:square;stroke-width:0.8;"/>
     </g>
     <g id="line2d_122">
      <g>
       <use style="stroke:#000000;stroke-width:0.8;" x="8708.818453" xlink:href="#m6c91427d8e" y="945"/>
      </g>
     </g>
     <g id="text_34">
      <!-- 100 -->
      <g transform="translate(8687.822203 968.716563)scale(0.22 -0.22)">
       <use xlink:href="#DejaVuSans-31"/>
       <use x="63.623047" xlink:href="#DejaVuSans-30"/>
       <use x="127.246094" xlink:href="#DejaVuSans-30"/>
      </g>
     </g>
    </g>
    <g id="xtick_28">
     <g id="line2d_123">
      <path clip-path="url(#p3d27e6f9d8)" d="M 8995.841316 945 
L 8995.841316 129.6 
" style="fill:none;stroke:#b0b0b0;stroke-linecap:square;stroke-width:0.8;"/>
     </g>
     <g id="line2d_124">
      <g>
       <use style="stroke:#000000;stroke-width:0.8;" x="8995.841316" xlink:href="#m6c91427d8e" y="945"/>
      </g>
     </g>
     <g id="text_35">
      <!-- 150 -->
      <g transform="translate(8974.845066 968.716563)scale(0.22 -0.22)">
       <use xlink:href="#DejaVuSans-31"/>
       <use x="63.623047" xlink:href="#DejaVuSans-35"/>
       <use x="127.246094" xlink:href="#DejaVuSans-30"/>
      </g>
     </g>
    </g>
    <g id="xtick_29">
     <g id="line2d_125">
      <path clip-path="url(#p3d27e6f9d8)" d="M 9282.86418 945 
L 9282.86418 129.6 
" style="fill:none;stroke:#b0b0b0;stroke-linecap:square;stroke-width:0.8;"/>
     </g>
     <g id="line2d_126">
      <g>
       <use style="stroke:#000000;stroke-width:0.8;" x="9282.86418" xlink:href="#m6c91427d8e" y="945"/>
      </g>
     </g>
     <g id="text_36">
      <!-- 200 -->
      <g transform="translate(9261.86793 968.716563)scale(0.22 -0.22)">
       <use xlink:href="#DejaVuSans-32"/>
       <use x="63.623047" xlink:href="#DejaVuSans-30"/>
       <use x="127.246094" xlink:href="#DejaVuSans-30"/>
      </g>
     </g>
    </g>
    <g id="xtick_30">
     <g id="line2d_127">
      <path clip-path="url(#p3d27e6f9d8)" d="M 9569.887043 945 
L 9569.887043 129.6 
" style="fill:none;stroke:#b0b0b0;stroke-linecap:square;stroke-width:0.8;"/>
     </g>
     <g id="line2d_128">
      <g>
       <use style="stroke:#000000;stroke-width:0.8;" x="9569.887043" xlink:href="#m6c91427d8e" y="945"/>
      </g>
     </g>
     <g id="text_37">
      <!-- 250 -->
      <g transform="translate(9548.890793 968.716563)scale(0.22 -0.22)">
       <use xlink:href="#DejaVuSans-32"/>
       <use x="63.623047" xlink:href="#DejaVuSans-35"/>
       <use x="127.246094" xlink:href="#DejaVuSans-30"/>
      </g>
     </g>
    </g>
   </g>
   <g id="matplotlib.axis_10">
    <g id="ytick_29">
     <g id="line2d_129">
      <path clip-path="url(#p3d27e6f9d8)" d="M 8059.285714 945 
L 9720 945 
" style="fill:none;stroke:#b0b0b0;stroke-linecap:square;stroke-width:0.8;"/>
     </g>
     <g id="line2d_130">
      <g>
       <use style="stroke:#000000;stroke-width:0.8;" x="8059.285714" xlink:href="#m7473dba8a5" y="945"/>
      </g>
     </g>
    </g>
    <g id="ytick_30">
     <g id="line2d_131">
      <path clip-path="url(#p3d27e6f9d8)" d="M 8059.285714 809.1 
L 9720 809.1 
" style="fill:none;stroke:#b0b0b0;stroke-linecap:square;stroke-width:0.8;"/>
     </g>
     <g id="line2d_132">
      <g>
       <use style="stroke:#000000;stroke-width:0.8;" x="8059.285714" xlink:href="#m7473dba8a5" y="809.1"/>
      </g>
     </g>
    </g>
    <g id="ytick_31">
     <g id="line2d_133">
      <path clip-path="url(#p3d27e6f9d8)" d="M 8059.285714 673.2 
L 9720 673.2 
" style="fill:none;stroke:#b0b0b0;stroke-linecap:square;stroke-width:0.8;"/>
     </g>
     <g id="line2d_134">
      <g>
       <use style="stroke:#000000;stroke-width:0.8;" x="8059.285714" xlink:href="#m7473dba8a5" y="673.2"/>
      </g>
     </g>
    </g>
    <g id="ytick_32">
     <g id="line2d_135">
      <path clip-path="url(#p3d27e6f9d8)" d="M 8059.285714 537.3 
L 9720 537.3 
" style="fill:none;stroke:#b0b0b0;stroke-linecap:square;stroke-width:0.8;"/>
     </g>
     <g id="line2d_136">
      <g>
       <use style="stroke:#000000;stroke-width:0.8;" x="8059.285714" xlink:href="#m7473dba8a5" y="537.3"/>
      </g>
     </g>
    </g>
    <g id="ytick_33">
     <g id="line2d_137">
      <path clip-path="url(#p3d27e6f9d8)" d="M 8059.285714 401.4 
L 9720 401.4 
" style="fill:none;stroke:#b0b0b0;stroke-linecap:square;stroke-width:0.8;"/>
     </g>
     <g id="line2d_138">
      <g>
       <use style="stroke:#000000;stroke-width:0.8;" x="8059.285714" xlink:href="#m7473dba8a5" y="401.4"/>
      </g>
     </g>
    </g>
    <g id="ytick_34">
     <g id="line2d_139">
      <path clip-path="url(#p3d27e6f9d8)" d="M 8059.285714 265.5 
L 9720 265.5 
" style="fill:none;stroke:#b0b0b0;stroke-linecap:square;stroke-width:0.8;"/>
     </g>
     <g id="line2d_140">
      <g>
       <use style="stroke:#000000;stroke-width:0.8;" x="8059.285714" xlink:href="#m7473dba8a5" y="265.5"/>
      </g>
     </g>
    </g>
    <g id="ytick_35">
     <g id="line2d_141">
      <path clip-path="url(#p3d27e6f9d8)" d="M 8059.285714 129.6 
L 9720 129.6 
" style="fill:none;stroke:#b0b0b0;stroke-linecap:square;stroke-width:0.8;"/>
     </g>
     <g id="line2d_142">
      <g>
       <use style="stroke:#000000;stroke-width:0.8;" x="8059.285714" xlink:href="#m7473dba8a5" y="129.6"/>
      </g>
     </g>
    </g>
   </g>
   <g id="line2d_143">
    <path clip-path="url(#p3d27e6f9d8)" d="M 8134.772727 899.7 
L 8151.994099 899.7 
L 8174.955928 718.5 
L 8180.696385 718.5 
L 8186.436843 673.2 
L 8192.1773 673.2 
L 8197.917757 627.9 
L 8209.398672 627.9 
L 8215.139129 673.2 
L 8226.620043 582.6 
L 8232.360501 582.6 
L 8243.841415 492 
L 8249.581873 537.3 
L 8255.32233 492 
L 8266.803244 582.6 
L 8278.284159 492 
L 8284.024616 492 
L 8295.505531 582.6 
L 8306.986445 582.6 
L 8312.726902 537.3 
L 8318.46736 537.3 
L 8329.948274 627.9 
L 8335.688731 627.9 
L 8347.169646 718.5 
L 8352.910103 673.2 
L 8364.391018 673.2 
L 8370.131475 718.5 
L 8375.871932 718.5 
L 8381.61239 763.8 
L 8387.352847 718.5 
L 8393.093304 718.5 
L 8398.833761 763.8 
L 8410.314676 763.8 
L 8416.055133 809.1 
L 8421.79559 763.8 
L 8427.536048 763.8 
L 8439.016962 673.2 
L 8444.757419 718.5 
L 8456.238334 718.5 
L 8467.719248 627.9 
L 8473.459706 627.9 
L 8479.200163 582.6 
L 8484.94062 627.9 
L 8490.681077 627.9 
L 8496.421535 582.6 
L 8507.902449 582.6 
L 8519.383364 492 
L 8525.123821 492 
L 8536.604736 582.6 
L 8542.345193 537.3 
L 8548.08565 582.6 
L 8565.307022 582.6 
L 8571.047479 537.3 
L 8576.787936 537.3 
L 8582.528394 582.6 
L 8588.268851 537.3 
L 8616.971137 537.3 
L 8622.711594 582.6 
L 8628.452052 537.3 
L 8634.192509 537.3 
L 8639.932966 582.6 
L 8645.673424 582.6 
L 8651.413881 627.9 
L 8657.154338 582.6 
L 8662.894795 627.9 
L 8668.635253 627.9 
L 8674.37571 582.6 
L 8680.116167 627.9 
L 8685.856624 627.9 
L 8697.337539 718.5 
L 8708.818453 627.9 
L 8714.558911 627.9 
L 8726.039825 537.3 
L 8731.780282 537.3 
L 8737.52074 582.6 
L 8749.001654 582.6 
L 8754.742112 537.3 
L 8783.444398 537.3 
L 8794.925312 446.7 
L 8800.66577 492 
L 8812.146684 492 
L 8817.887141 537.3 
L 8823.627599 492 
L 8840.84897 492 
L 8846.589428 537.3 
L 8852.329885 492 
L 8858.070342 537.3 
L 8869.551257 446.7 
L 8875.291714 446.7 
L 8881.032171 492 
L 8898.253543 492 
L 8903.994 537.3 
L 8921.215372 537.3 
L 8938.436744 673.2 
L 8944.177201 673.2 
L 8955.658116 763.8 
L 8967.13903 763.8 
L 8972.879487 718.5 
L 9007.322231 718.5 
L 9013.062688 763.8 
L 9018.803146 718.5 
L 9024.543603 718.5 
L 9030.28406 673.2 
L 9036.024517 673.2 
L 9041.764975 718.5 
L 9047.505432 718.5 
L 9053.245889 673.2 
L 9070.467261 809.1 
L 9081.948175 809.1 
L 9093.42909 899.7 
L 9110.650462 763.8 
L 9122.131376 763.8 
L 9127.871833 718.5 
L 9150.833663 718.5 
L 9162.314577 627.9 
L 9173.795492 627.9 
L 9185.276406 537.3 
L 9208.238235 537.3 
L 9213.978692 492 
L 9219.71915 537.3 
L 9225.459607 537.3 
L 9265.642808 220.2 
L 9271.383265 265.5 
L 9288.604637 265.5 
L 9294.345094 220.2 
L 9311.566466 220.2 
L 9317.306923 265.5 
L 9340.268752 265.5 
L 9346.009209 310.8 
L 9351.749667 310.8 
L 9357.490124 356.1 
L 9368.971038 356.1 
L 9374.711496 401.4 
L 9386.19241 401.4 
L 9391.932868 356.1 
L 9414.894697 356.1 
L 9420.635154 401.4 
L 9426.375611 401.4 
L 9437.856526 492 
L 9443.596983 446.7 
L 9455.077897 446.7 
L 9460.818355 492 
L 9466.558812 492 
L 9478.039726 582.6 
L 9489.520641 582.6 
L 9495.261098 627.9 
L 9501.001555 627.9 
L 9506.742013 673.2 
L 9512.48247 673.2 
L 9518.222927 627.9 
L 9523.963385 673.2 
L 9529.703842 627.9 
L 9535.444299 673.2 
L 9541.184756 673.2 
L 9546.925214 627.9 
L 9564.146585 627.9 
L 9569.887043 673.2 
L 9587.108414 673.2 
L 9592.848872 627.9 
L 9598.589329 627.9 
L 9604.329786 582.6 
L 9615.810701 582.6 
L 9627.291615 673.2 
L 9633.032072 627.9 
L 9644.512987 627.9 
L 9644.512987 627.9 
" style="fill:none;stroke:#0000cd;stroke-linecap:square;stroke-width:5;"/>
   </g>
   <g id="line2d_144">
    <path clip-path="url(#p3d27e6f9d8)" d="M 8134.772727 760.025 
L 8140.513185 760.025 
L 8146.253642 737.375 
L 8157.734556 737.375 
L 8174.955928 703.4 
L 8180.696385 703.4 
L 8186.436843 680.75 
L 8192.1773 676.22 
L 8197.917757 662.63 
L 8203.658214 639.98 
L 8209.398672 639.98 
L 8215.139129 647.53 
L 8220.879586 632.43 
L 8226.620043 614.31 
L 8232.360501 614.31 
L 8238.100958 629.41 
L 8243.841415 584.11 
L 8249.581873 629.41 
L 8255.32233 644.51 
L 8261.062787 689.81 
L 8266.803244 712.46 
L 8278.284159 712.46 
L 8284.024616 686.574286 
L 8289.765073 663.924286 
L 8295.505531 675.249286 
L 8301.245988 678.269286 
L 8306.986445 678.269286 
L 8312.726902 655.619286 
L 8318.46736 655.619286 
L 8324.207817 649.956786 
L 8329.948274 657.506786 
L 8335.688731 680.156786 
L 8341.429189 668.831786 
L 8347.169646 683.3925 
L 8352.910103 687.9225 
L 8358.65056 703.0225 
L 8364.391018 690.565 
L 8370.131475 704.155 
L 8375.871932 731.335 
L 8381.61239 765.31 
L 8387.352847 773.938571 
L 8393.093304 786.979481 
L 8398.833761 782.449481 
L 8404.574219 797.549481 
L 8410.314676 783.822208 
L 8416.055133 795.147208 
L 8421.79559 758.907208 
L 8427.536048 774.007208 
L 8433.276505 728.707208 
L 8439.016962 725.471494 
L 8444.757419 680.171494 
L 8450.497877 671.111494 
L 8456.238334 696.997208 
L 8461.978791 719.647208 
L 8467.719248 716.815958 
L 8473.459706 706.245958 
L 8479.200163 680.507321 
L 8484.94062 688.501439 
L 8490.681077 711.151439 
L 8496.421535 708.102401 
L 8502.161992 686.138764 
L 8507.902449 655.183764 
L 8513.642907 651.94805 
L 8519.383364 637.387336 
L 8525.123821 623.797336 
L 8530.864278 641.64279 
L 8536.604736 658.63029 
L 8542.345193 643.53029 
L 8548.08565 631.45029 
L 8553.826107 629.832433 
L 8559.566565 629.832433 
L 8565.307022 616.036524 
L 8571.047479 600.355755 
L 8576.787936 591.727183 
L 8582.528394 602.937789 
L 8588.268851 598.084218 
L 8594.009308 597.517968 
L 8599.749765 586.391652 
L 8605.490223 615.513081 
L 8611.23068 596.098795 
L 8616.971137 623.278795 
L 8622.711594 629.103081 
L 8628.452052 601.923081 
L 8634.192509 592.59661 
L 8639.932966 592.096978 
L 8645.673424 594.613644 
L 8651.413881 618.734424 
L 8657.154338 630.154592 
L 8662.894795 617.041434 
L 8668.635253 605.934222 
L 8674.37571 600.362565 
L 8680.116167 609.69711 
L 8685.856624 603.225681 
L 8691.597082 624.846136 
L 8697.337539 628.982223 
L 8703.077996 628.753435 
L 8708.818453 606.103435 
L 8714.558911 603.586768 
L 8720.299368 605.474268 
L 8726.039825 587.422389 
L 8731.780282 564.901817 
L 8737.52074 574.796291 
L 8743.261197 574.979692 
L 8749.001654 577.136835 
L 8754.742112 551.970168 
L 8760.482569 561.486975 
L 8766.223026 575.643225 
L 8771.963483 558.953751 
L 8777.703941 540.286169 
L 8783.444398 542.551169 
L 8789.184855 525.078311 
L 8794.925312 528.314026 
L 8800.66577 524.132487 
L 8806.406227 523.751815 
L 8812.146684 552.821334 
L 8817.887141 588.054667 
L 8823.627599 555.697524 
L 8829.368056 568.640381 
L 8835.108513 589.303539 
L 8840.84897 599.795819 
L 8846.589428 625.958385 
L 8852.329885 626.187173 
L 8858.070342 627.400566 
L 8863.810799 600.92654 
L 8869.551257 593.048279 
L 8875.291714 562.219113 
L 8881.032171 596.194113 
L 8886.772629 609.280779 
L 8892.513086 594.105279 
L 8898.253543 591.721069 
L 8903.994 587.996402 
L 8909.734458 612.223058 
L 8915.474915 622.057926 
L 8921.215372 622.866855 
L 8926.955829 663.90788 
L 8932.696287 647.919645 
L 8938.436744 637.190698 
L 8944.177201 638.162043 
L 8949.917658 639.525588 
L 8955.658116 653.017109 
L 8961.398573 652.369967 
L 8967.13903 635.210876 
L 8972.879487 635.331035 
L 8978.619945 637.488178 
L 8984.360402 634.399541 
L 8990.100859 625.688003 
L 8995.841316 628.923717 
L 9001.581774 604.116574 
L 9007.322231 606.862029 
L 9013.062688 621.850999 
L 9018.803146 596.147865 
L 9024.543603 600.342309 
L 9030.28406 593.338691 
L 9036.024517 589.887262 
L 9041.764975 618.544436 
L 9047.505432 619.579517 
L 9053.245889 601.225206 
L 9058.986346 591.733778 
L 9064.726804 600.375624 
L 9070.467261 601.397428 
L 9076.207718 628.784683 
L 9081.948175 633.168554 
L 9087.688633 628.865054 
L 9093.42909 625.898983 
L 9099.169547 596.837291 
L 9104.910004 604.085291 
L 9110.650462 594.995488 
L 9116.390919 601.706599 
L 9122.131376 603.827669 
L 9127.871833 600.425693 
L 9133.612291 597.65736 
L 9139.352748 599.135681 
L 9145.093205 594.784203 
L 9150.833663 593.106426 
L 9156.57412 570.948817 
L 9162.314577 547.10098 
L 9168.055034 557.287488 
L 9173.795492 560.671971 
L 9179.535949 536.786517 
L 9185.276406 520.828562 
L 9191.016863 528.274424 
L 9196.757321 521.725679 
L 9202.497778 522.123047 
L 9208.238235 528.475461 
L 9213.978692 508.090461 
L 9219.71915 536.740607 
L 9225.459607 525.649918 
L 9231.200064 529.012523 
L 9236.940521 530.638677 
L 9242.680979 527.924852 
L 9248.421436 497.863639 
L 9254.161893 464.21221 
L 9259.902351 457.373371 
L 9265.642808 460.511034 
L 9271.383265 488.798367 
L 9277.123722 526.850367 
L 9282.86418 528.137299 
L 9288.604637 531.660632 
L 9294.345094 552.150171 
L 9300.085551 554.451507 
L 9305.826009 555.407841 
L 9311.566466 556.93236 
L 9317.306923 579.373604 
L 9323.04738 582.424109 
L 9328.787838 574.183034 
L 9334.528295 575.679552 
L 9340.268752 569.22656 
L 9346.009209 588.492077 
L 9351.749667 609.632077 
L 9357.490124 611.119199 
L 9363.230581 612.745352 
L 9368.971038 605.91382 
L 9374.711496 630.196253 
L 9380.451953 653.383214 
L 9386.19241 648.853214 
L 9391.932868 622.942987 
L 9397.673325 627.739457 
L 9403.413782 657.733647 
L 9409.154239 652.125075 
L 9414.894697 678.38771 
L 9420.635154 687.89262 
L 9426.375611 680.558335 
L 9432.116068 705.70791 
L 9437.856526 728.07529 
L 9443.596983 692.666375 
L 9449.33744 681.341375 
L 9455.077897 689.577739 
L 9460.818355 706.187739 
L 9466.558812 678.231167 
L 9483.780184 741.09644 
L 9489.520641 719.882536 
L 9495.261098 719.982979 
L 9501.001555 728.022048 
L 9506.742013 720.991724 
L 9512.48247 719.351905 
L 9518.222927 705.330476 
L 9523.963385 709.105476 
L 9529.703842 706.588809 
L 9535.444299 700.055155 
L 9541.184756 709.981185 
L 9546.925214 683.325895 
L 9552.665671 659.336791 
L 9558.406128 651.293729 
L 9564.146585 661.074411 
L 9569.887043 690.184304 
L 9575.6275 661.312096 
L 9581.367957 665.194953 
L 9587.108414 634.032699 
L 9592.848872 629.718413 
L 9598.589329 633.398245 
L 9604.329786 613.99188 
L 9610.070243 609.195409 
L 9615.810701 607.047914 
L 9621.551158 603.601175 
L 9627.291615 596.576041 
L 9633.032072 586.194791 
L 9638.77253 591.338747 
L 9644.512987 588.190485 
L 9644.512987 588.190485 
" style="fill:none;stroke:#fa8072;stroke-linecap:square;stroke-width:3;"/>
   </g>
   <g id="line2d_145">
    <path clip-path="url(#p3d27e6f9d8)" d="M 8059.285714 809.1 
L 9720 809.1 
" style="fill:none;opacity:0.7;stroke:#ff0000;stroke-dasharray:5.55,2.4;stroke-dashoffset:0;stroke-width:1.5;"/>
   </g>
   <g id="patch_23">
    <path d="M 8059.285714 945 
L 8059.285714 129.6 
" style="fill:none;stroke:#000000;stroke-linecap:square;stroke-linejoin:miter;stroke-width:0.8;"/>
   </g>
   <g id="patch_24">
    <path d="M 9720 945 
L 9720 129.6 
" style="fill:none;stroke:#000000;stroke-linecap:square;stroke-linejoin:miter;stroke-width:0.8;"/>
   </g>
   <g id="patch_25">
    <path d="M 8059.285714 945 
L 9720 945 
" style="fill:none;stroke:#000000;stroke-linecap:square;stroke-linejoin:miter;stroke-width:0.8;"/>
   </g>
   <g id="patch_26">
    <path d="M 8059.285714 129.6 
L 9720 129.6 
" style="fill:none;stroke:#000000;stroke-linecap:square;stroke-linejoin:miter;stroke-width:0.8;"/>
   </g>
  </g>
 </g>
 <defs>
  <clipPath id="p0acdc4be41">
   <rect height="815.4" width="1660.714286" x="1350" y="129.6"/>
  </clipPath>
  <clipPath id="p2a7ba7544a">
   <rect height="815.4" width="1660.714286" x="3027.321429" y="129.6"/>
  </clipPath>
  <clipPath id="pd016876011">
   <rect height="815.4" width="1660.714286" x="4704.642857" y="129.6"/>
  </clipPath>
  <clipPath id="pc5181659bf">
   <rect height="815.4" width="1660.714286" x="6381.964286" y="129.6"/>
  </clipPath>
  <clipPath id="p3d27e6f9d8">
   <rect height="815.4" width="1660.714286" x="8059.285714" y="129.6"/>
  </clipPath>
 </defs>
</svg>
